<?xml version="1.0" encoding="UTF-8" standalone="no"?>
<!DOCTYPE svg PUBLIC "-//W3C//DTD SVG 1.1//EN"
 "http://www.w3.org/Graphics/SVG/1.1/DTD/svg11.dtd">
<!-- Generated by graphviz version 2.43.0 (0)
 -->
<!-- Title: tests/gtest/cache_client_integration_test.cpp Pages: 1 -->
<svg width="851pt" height="95pt"
 viewBox="0.00 0.00 850.50 95.00" xmlns="http://www.w3.org/2000/svg" xmlns:xlink="http://www.w3.org/1999/xlink">
<g id="graph0" class="graph" transform="scale(1 1) rotate(0) translate(4 91)">
<title>tests/gtest/cache_client_integration_test.cpp</title>
<polygon fill="white" stroke="transparent" points="-4,4 -4,-91 846.5,-91 846.5,4 -4,4"/>
<!-- Node1 -->
<g id="node1" class="node">
<title>Node1</title>
<g id="a_node1"><a xlink:title=" ">
<polygon fill="#bfbfbf" stroke="black" points="329.5,-56.5 329.5,-86.5 461.5,-86.5 461.5,-56.5 329.5,-56.5"/>
<text text-anchor="start" x="337.5" y="-74.5" font-family="Helvetica,sans-Serif" font-size="10.00">tests/gtest/cache_client</text>
<text text-anchor="middle" x="395.5" y="-63.5" font-family="Helvetica,sans-Serif" font-size="10.00">_integration_test.cpp</text>
</a>
</g>
</g>
<!-- Node2 -->
<g id="node2" class="node">
<title>Node2</title>
<g id="a_node2"><a xlink:title=" ">
<polygon fill="white" stroke="#bfbfbf" points="0,-0.5 0,-19.5 47,-19.5 47,-0.5 0,-0.5"/>
<text text-anchor="middle" x="23.5" y="-7.5" font-family="Helvetica,sans-Serif" font-size="10.00">cerrno</text>
</a>
</g>
</g>
<!-- Node1&#45;&gt;Node2 -->
<g id="edge1" class="edge">
<title>Node1&#45;&gt;Node2</title>
<path fill="none" stroke="midnightblue" d="M329.47,-63.01C263.06,-54.95 157.61,-40.71 57.22,-19.93"/>
<polygon fill="midnightblue" stroke="midnightblue" points="57.72,-16.45 47.21,-17.83 56.28,-23.3 57.72,-16.45"/>
</g>
<!-- Node3 -->
<g id="node3" class="node">
<title>Node3</title>
<g id="a_node3"><a xlink:title=" ">
<polygon fill="white" stroke="#bfbfbf" points="65.5,-0.5 65.5,-19.5 111.5,-19.5 111.5,-0.5 65.5,-0.5"/>
<text text-anchor="middle" x="88.5" y="-7.5" font-family="Helvetica,sans-Serif" font-size="10.00">cstdio</text>
</a>
</g>
</g>
<!-- Node1&#45;&gt;Node3 -->
<g id="edge2" class="edge">
<title>Node1&#45;&gt;Node3</title>
<path fill="none" stroke="midnightblue" d="M329.3,-60.11C275.67,-51.29 198,-37.6 121.34,-20.02"/>
<polygon fill="midnightblue" stroke="midnightblue" points="122.04,-16.59 111.51,-17.75 120.46,-23.41 122.04,-16.59"/>
</g>
<!-- Node4 -->
<g id="node4" class="node">
<title>Node4</title>
<g id="a_node4"><a xlink:title=" ">
<polygon fill="white" stroke="#bfbfbf" points="130,-0.5 130,-19.5 179,-19.5 179,-0.5 130,-0.5"/>
<text text-anchor="middle" x="154.5" y="-7.5" font-family="Helvetica,sans-Serif" font-size="10.00">cstdlib</text>
</a>
</g>
</g>
<!-- Node1&#45;&gt;Node4 -->
<g id="edge3" class="edge">
<title>Node1&#45;&gt;Node4</title>
<path fill="none" stroke="midnightblue" d="M336.54,-56.44C297.42,-47.04 244.71,-34.22 189.36,-20.18"/>
<polygon fill="midnightblue" stroke="midnightblue" points="189.92,-16.71 179.37,-17.64 188.2,-23.5 189.92,-16.71"/>
</g>
<!-- Node5 -->
<g id="node5" class="node">
<title>Node5</title>
<g id="a_node5"><a xlink:title=" ">
<polygon fill="white" stroke="#bfbfbf" points="197.5,-0.5 197.5,-19.5 247.5,-19.5 247.5,-0.5 197.5,-0.5"/>
<text text-anchor="middle" x="222.5" y="-7.5" font-family="Helvetica,sans-Serif" font-size="10.00">cstring</text>
</a>
</g>
</g>
<!-- Node1&#45;&gt;Node5 -->
<g id="edge4" class="edge">
<title>Node1&#45;&gt;Node5</title>
<path fill="none" stroke="midnightblue" d="M354.5,-56.4C324.87,-46.21 285.27,-32.59 257.2,-22.93"/>
<polygon fill="midnightblue" stroke="midnightblue" points="258.02,-19.51 247.42,-19.57 255.74,-26.13 258.02,-19.51"/>
</g>
<!-- Node6 -->
<g id="node6" class="node">
<title>Node6</title>
<g id="a_node6"><a xlink:title=" ">
<polygon fill="white" stroke="#bfbfbf" points="266,-0.5 266,-19.5 313,-19.5 313,-0.5 266,-0.5"/>
<text text-anchor="middle" x="289.5" y="-7.5" font-family="Helvetica,sans-Serif" font-size="10.00">fcntl.h</text>
</a>
</g>
</g>
<!-- Node1&#45;&gt;Node6 -->
<g id="edge5" class="edge">
<title>Node1&#45;&gt;Node6</title>
<path fill="none" stroke="midnightblue" d="M370.38,-56.4C353.23,-46.77 330.64,-34.09 313.69,-24.58"/>
<polygon fill="midnightblue" stroke="midnightblue" points="315.36,-21.5 304.92,-19.66 311.93,-27.6 315.36,-21.5"/>
</g>
<!-- Node7 -->
<g id="node7" class="node">
<title>Node7</title>
<g id="a_node7"><a xlink:title=" ">
<polygon fill="white" stroke="#bfbfbf" points="331,-0.5 331,-19.5 386,-19.5 386,-0.5 331,-0.5"/>
<text text-anchor="middle" x="358.5" y="-7.5" font-family="Helvetica,sans-Serif" font-size="10.00">fstream</text>
</a>
</g>
</g>
<!-- Node1&#45;&gt;Node7 -->
<g id="edge6" class="edge">
<title>Node1&#45;&gt;Node7</title>
<path fill="none" stroke="midnightblue" d="M386.73,-56.4C381.52,-48.02 374.87,-37.33 369.33,-28.42"/>
<polygon fill="midnightblue" stroke="midnightblue" points="372.14,-26.3 363.88,-19.66 366.19,-30 372.14,-26.3"/>
</g>
<!-- Node8 -->
<g id="node8" class="node">
<title>Node8</title>
<g id="a_node8"><a xlink:title=" ">
<polygon fill="white" stroke="#bfbfbf" points="404.5,-0.5 404.5,-19.5 460.5,-19.5 460.5,-0.5 404.5,-0.5"/>
<text text-anchor="middle" x="432.5" y="-7.5" font-family="Helvetica,sans-Serif" font-size="10.00">sstream</text>
</a>
</g>
</g>
<!-- Node1&#45;&gt;Node8 -->
<g id="edge7" class="edge">
<title>Node1&#45;&gt;Node8</title>
<path fill="none" stroke="midnightblue" d="M404.27,-56.4C409.48,-48.02 416.13,-37.33 421.67,-28.42"/>
<polygon fill="midnightblue" stroke="midnightblue" points="424.81,-30 427.12,-19.66 418.86,-26.3 424.81,-30"/>
</g>
<!-- Node9 -->
<g id="node9" class="node">
<title>Node9</title>
<g id="a_node9"><a xlink:title=" ">
<polygon fill="white" stroke="#bfbfbf" points="478.5,-0.5 478.5,-19.5 522.5,-19.5 522.5,-0.5 478.5,-0.5"/>
<text text-anchor="middle" x="500.5" y="-7.5" font-family="Helvetica,sans-Serif" font-size="10.00">string</text>
</a>
</g>
</g>
<!-- Node1&#45;&gt;Node9 -->
<g id="edge8" class="edge">
<title>Node1&#45;&gt;Node9</title>
<path fill="none" stroke="midnightblue" d="M420.38,-56.4C437.21,-46.86 459.34,-34.32 476.07,-24.84"/>
<polygon fill="midnightblue" stroke="midnightblue" points="478.25,-27.63 485.22,-19.66 474.8,-21.54 478.25,-27.63"/>
</g>
<!-- Node10 -->
<g id="node10" class="node">
<title>Node10</title>
<g id="a_node10"><a xlink:title=" ">
<polygon fill="white" stroke="#bfbfbf" points="540.5,-0.5 540.5,-19.5 606.5,-19.5 606.5,-0.5 540.5,-0.5"/>
<text text-anchor="middle" x="573.5" y="-7.5" font-family="Helvetica,sans-Serif" font-size="10.00">sys/wait.h</text>
</a>
</g>
</g>
<!-- Node1&#45;&gt;Node10 -->
<g id="edge9" class="edge">
<title>Node1&#45;&gt;Node10</title>
<path fill="none" stroke="midnightblue" d="M437.68,-56.4C468.31,-46.16 509.27,-32.47 538.17,-22.81"/>
<polygon fill="midnightblue" stroke="midnightblue" points="539.48,-26.06 547.86,-19.57 537.27,-19.42 539.48,-26.06"/>
</g>
<!-- Node11 -->
<g id="node11" class="node">
<title>Node11</title>
<g id="a_node11"><a xlink:title=" ">
<polygon fill="white" stroke="#bfbfbf" points="624.5,-0.5 624.5,-19.5 680.5,-19.5 680.5,-0.5 624.5,-0.5"/>
<text text-anchor="middle" x="652.5" y="-7.5" font-family="Helvetica,sans-Serif" font-size="10.00">unistd.h</text>
</a>
</g>
</g>
<!-- Node1&#45;&gt;Node11 -->
<g id="edge10" class="edge">
<title>Node1&#45;&gt;Node11</title>
<path fill="none" stroke="midnightblue" d="M457.66,-56.46C499.43,-46.97 555.96,-34.03 614.44,-20.23"/>
<polygon fill="midnightblue" stroke="midnightblue" points="615.3,-23.62 624.23,-17.92 613.69,-16.81 615.3,-23.62"/>
</g>
<!-- Node12 -->
<g id="node12" class="node">
<title>Node12</title>
<g id="a_node12"><a xlink:title=" ">
<polygon fill="white" stroke="#bfbfbf" points="699,-0.5 699,-19.5 746,-19.5 746,-0.5 699,-0.5"/>
<text text-anchor="middle" x="722.5" y="-7.5" font-family="Helvetica,sans-Serif" font-size="10.00">vector</text>
</a>
</g>
</g>
<!-- Node1&#45;&gt;Node12 -->
<g id="edge11" class="edge">
<title>Node1&#45;&gt;Node12</title>
<path fill="none" stroke="midnightblue" d="M461.53,-61.02C519.08,-52.33 604.92,-38.35 688.82,-19.97"/>
<polygon fill="midnightblue" stroke="midnightblue" points="689.77,-23.34 698.77,-17.76 688.25,-16.51 689.77,-23.34"/>
</g>
<!-- Node13 -->
<g id="node13" class="node">
<title>Node13</title>
<g id="a_node13"><a xlink:title=" ">
<polygon fill="white" stroke="#bfbfbf" points="764.5,-0.5 764.5,-19.5 842.5,-19.5 842.5,-0.5 764.5,-0.5"/>
<text text-anchor="middle" x="803.5" y="-7.5" font-family="Helvetica,sans-Serif" font-size="10.00">gtest/gtest.h</text>
</a>
</g>
</g>
<!-- Node1&#45;&gt;Node13 -->
<g id="edge12" class="edge">
<title>Node1&#45;&gt;Node13</title>
<path fill="none" stroke="midnightblue" d="M461.66,-62.15C531.79,-53.08 646.03,-37.72 754.37,-20.12"/>
<polygon fill="midnightblue" stroke="midnightblue" points="755.19,-23.54 764.49,-18.47 754.06,-16.63 755.19,-23.54"/>
</g>
</g>
</svg>
