<?xml version="1.0" encoding="UTF-8" standalone="no"?>
<!DOCTYPE svg PUBLIC "-//W3C//DTD SVG 1.1//EN"
 "http://www.w3.org/Graphics/SVG/1.1/DTD/svg11.dtd">
<!-- Generated by graphviz version 2.43.0 (0)
 -->
<!-- Title: clients/cct_shape_check.cpp Pages: 1 -->
<svg width="970pt" height="140pt"
 viewBox="0.00 0.00 970.00 140.00" xmlns="http://www.w3.org/2000/svg" xmlns:xlink="http://www.w3.org/1999/xlink">
<g id="graph0" class="graph" transform="scale(1 1) rotate(0) translate(4 136)">
<title>clients/cct_shape_check.cpp</title>
<polygon fill="white" stroke="transparent" points="-4,4 -4,-136 966,-136 966,4 -4,4"/>
<!-- Node1 -->
<g id="node1" class="node">
<title>Node1</title>
<g id="a_node1"><a xlink:title=" ">
<polygon fill="#bfbfbf" stroke="black" points="375.5,-112.5 375.5,-131.5 530.5,-131.5 530.5,-112.5 375.5,-112.5"/>
<text text-anchor="middle" x="453" y="-119.5" font-family="Helvetica,sans-Serif" font-size="10.00">clients/cct_shape_check.cpp</text>
</a>
</g>
</g>
<!-- Node2 -->
<g id="node2" class="node">
<title>Node2</title>
<g id="a_node2"><a xlink:title=" ">
<polygon fill="white" stroke="#bfbfbf" points="0,-56.5 0,-75.5 46,-75.5 46,-56.5 0,-56.5"/>
<text text-anchor="middle" x="23" y="-63.5" font-family="Helvetica,sans-Serif" font-size="10.00">cstdio</text>
</a>
</g>
</g>
<!-- Node1&#45;&gt;Node2 -->
<g id="edge1" class="edge">
<title>Node1&#45;&gt;Node2</title>
<path fill="none" stroke="midnightblue" d="M375.39,-115.95C297.05,-110.02 172.51,-98.27 56.44,-76"/>
<polygon fill="midnightblue" stroke="midnightblue" points="56.8,-72.51 46.31,-74.03 55.46,-79.38 56.8,-72.51"/>
</g>
<!-- Node3 -->
<g id="node3" class="node">
<title>Node3</title>
<g id="a_node3"><a xlink:title=" ">
<polygon fill="white" stroke="#bfbfbf" points="64,-56.5 64,-75.5 114,-75.5 114,-56.5 64,-56.5"/>
<text text-anchor="middle" x="89" y="-63.5" font-family="Helvetica,sans-Serif" font-size="10.00">cstdint</text>
</a>
</g>
</g>
<!-- Node1&#45;&gt;Node3 -->
<g id="edge2" class="edge">
<title>Node1&#45;&gt;Node3</title>
<path fill="none" stroke="midnightblue" d="M375.2,-113.13C310.41,-105.95 215.57,-93.98 124.15,-76.02"/>
<polygon fill="midnightblue" stroke="midnightblue" points="124.66,-72.55 114.17,-74.03 123.29,-79.42 124.66,-72.55"/>
</g>
<!-- Node4 -->
<g id="node4" class="node">
<title>Node4</title>
<g id="a_node4"><a xlink:title=" ">
<polygon fill="white" stroke="#bfbfbf" points="132,-56.5 132,-75.5 182,-75.5 182,-56.5 132,-56.5"/>
<text text-anchor="middle" x="157" y="-63.5" font-family="Helvetica,sans-Serif" font-size="10.00">cstring</text>
</a>
</g>
</g>
<!-- Node1&#45;&gt;Node4 -->
<g id="edge3" class="edge">
<title>Node1&#45;&gt;Node4</title>
<path fill="none" stroke="midnightblue" d="M394.44,-112.46C343.44,-104.69 267.33,-92.25 192.29,-76.13"/>
<polygon fill="midnightblue" stroke="midnightblue" points="192.71,-72.64 182.19,-73.93 191.22,-79.48 192.71,-72.64"/>
</g>
<!-- Node5 -->
<g id="node5" class="node">
<title>Node5</title>
<g id="a_node5"><a xlink:title=" ">
<polygon fill="white" stroke="#bfbfbf" points="200.5,-56.5 200.5,-75.5 249.5,-75.5 249.5,-56.5 200.5,-56.5"/>
<text text-anchor="middle" x="225" y="-63.5" font-family="Helvetica,sans-Serif" font-size="10.00">cstdlib</text>
</a>
</g>
</g>
<!-- Node1&#45;&gt;Node5 -->
<g id="edge4" class="edge">
<title>Node1&#45;&gt;Node5</title>
<path fill="none" stroke="midnightblue" d="M414.63,-112.47C377.51,-104.13 319.39,-90.86 259.82,-76.15"/>
<polygon fill="midnightblue" stroke="midnightblue" points="260.41,-72.69 249.86,-73.68 258.72,-79.48 260.41,-72.69"/>
</g>
<!-- Node6 -->
<g id="node6" class="node">
<title>Node6</title>
<g id="a_node6"><a xlink:title=" ">
<polygon fill="white" stroke="#bfbfbf" points="268,-56.5 268,-75.5 332,-75.5 332,-56.5 268,-56.5"/>
<text text-anchor="middle" x="300" y="-63.5" font-family="Helvetica,sans-Serif" font-size="10.00">algorithm</text>
</a>
</g>
</g>
<!-- Node1&#45;&gt;Node6 -->
<g id="edge5" class="edge">
<title>Node1&#45;&gt;Node6</title>
<path fill="none" stroke="midnightblue" d="M428.76,-112.44C403.13,-103.4 362.51,-89.06 333.76,-78.92"/>
<polygon fill="midnightblue" stroke="midnightblue" points="334.72,-75.54 324.13,-75.52 332.39,-82.15 334.72,-75.54"/>
</g>
<!-- Node7 -->
<g id="node7" class="node">
<title>Node7</title>
<g id="a_node7"><a xlink:title=" ">
<polygon fill="white" stroke="#bfbfbf" points="306,-0.5 306,-19.5 350,-19.5 350,-0.5 306,-0.5"/>
<text text-anchor="middle" x="328" y="-7.5" font-family="Helvetica,sans-Serif" font-size="10.00">string</text>
</a>
</g>
</g>
<!-- Node1&#45;&gt;Node7 -->
<g id="edge6" class="edge">
<title>Node1&#45;&gt;Node7</title>
<path fill="none" stroke="midnightblue" d="M443.19,-112.37C422.11,-93.81 372.22,-49.91 345.54,-26.44"/>
<polygon fill="midnightblue" stroke="midnightblue" points="347.58,-23.57 337.76,-19.59 342.96,-28.83 347.58,-23.57"/>
</g>
<!-- Node8 -->
<g id="node8" class="node">
<title>Node8</title>
<g id="a_node8"><a xlink:title=" ">
<polygon fill="white" stroke="#bfbfbf" points="368.5,-0.5 368.5,-19.5 415.5,-19.5 415.5,-0.5 368.5,-0.5"/>
<text text-anchor="middle" x="392" y="-7.5" font-family="Helvetica,sans-Serif" font-size="10.00">vector</text>
</a>
</g>
</g>
<!-- Node1&#45;&gt;Node8 -->
<g id="edge7" class="edge">
<title>Node1&#45;&gt;Node8</title>
<path fill="none" stroke="midnightblue" d="M444.96,-112.23C437.29,-103.53 425.78,-89.56 418,-76 409.41,-61.03 402.35,-42.66 397.76,-29.27"/>
<polygon fill="midnightblue" stroke="midnightblue" points="401.09,-28.17 394.64,-19.77 394.44,-30.36 401.09,-28.17"/>
</g>
<!-- Node9 -->
<g id="node9" class="node">
<title>Node9</title>
<g id="a_node9"><a xlink:title=" ">
<polygon fill="white" stroke="#bfbfbf" points="536,-56.5 536,-75.5 574,-75.5 574,-56.5 536,-56.5"/>
<text text-anchor="middle" x="555" y="-63.5" font-family="Helvetica,sans-Serif" font-size="10.00">map</text>
</a>
</g>
</g>
<!-- Node1&#45;&gt;Node9 -->
<g id="edge8" class="edge">
<title>Node1&#45;&gt;Node9</title>
<path fill="none" stroke="midnightblue" d="M469.39,-112.32C485.67,-103.7 510.87,-90.36 529.72,-80.39"/>
<polygon fill="midnightblue" stroke="midnightblue" points="531.45,-83.43 538.65,-75.65 528.18,-77.24 531.45,-83.43"/>
</g>
<!-- Node10 -->
<g id="node10" class="node">
<title>Node10</title>
<g id="a_node10"><a xlink:title=" ">
<polygon fill="white" stroke="#bfbfbf" points="592,-56.5 592,-75.5 624,-75.5 624,-56.5 592,-56.5"/>
<text text-anchor="middle" x="608" y="-63.5" font-family="Helvetica,sans-Serif" font-size="10.00">set</text>
</a>
</g>
</g>
<!-- Node1&#45;&gt;Node10 -->
<g id="edge9" class="edge">
<title>Node1&#45;&gt;Node10</title>
<path fill="none" stroke="midnightblue" d="M477.95,-112.46C502.31,-104.11 540.64,-90.91 582.35,-76.2"/>
<polygon fill="midnightblue" stroke="midnightblue" points="583.61,-79.47 591.87,-72.84 581.28,-72.87 583.61,-79.47"/>
</g>
<!-- Node11 -->
<g id="node11" class="node">
<title>Node11</title>
<g id="a_node11"><a xlink:title=" ">
<polygon fill="white" stroke="#bfbfbf" points="642.5,-56.5 642.5,-75.5 735.5,-75.5 735.5,-56.5 642.5,-56.5"/>
<text text-anchor="middle" x="689" y="-63.5" font-family="Helvetica,sans-Serif" font-size="10.00">unordered_map</text>
</a>
</g>
</g>
<!-- Node1&#45;&gt;Node11 -->
<g id="edge10" class="edge">
<title>Node1&#45;&gt;Node11</title>
<path fill="none" stroke="midnightblue" d="M490.39,-112.44C531.39,-103.06 597.25,-87.99 641.78,-77.8"/>
<polygon fill="midnightblue" stroke="midnightblue" points="642.81,-81.16 651.78,-75.52 641.25,-74.34 642.81,-81.16"/>
</g>
<!-- Node12 -->
<g id="node12" class="node">
<title>Node12</title>
<g id="a_node12"><a xlink:title=" ">
<polygon fill="white" stroke="#bfbfbf" points="754,-56.5 754,-75.5 810,-75.5 810,-56.5 754,-56.5"/>
<text text-anchor="middle" x="782" y="-63.5" font-family="Helvetica,sans-Serif" font-size="10.00">sstream</text>
</a>
</g>
</g>
<!-- Node1&#45;&gt;Node12 -->
<g id="edge11" class="edge">
<title>Node1&#45;&gt;Node12</title>
<path fill="none" stroke="midnightblue" d="M519.1,-112.46C576.2,-104.71 661.13,-92.28 743.95,-76.07"/>
<polygon fill="midnightblue" stroke="midnightblue" points="744.64,-79.5 753.77,-74.13 743.28,-72.64 744.64,-79.5"/>
</g>
<!-- Node13 -->
<g id="node13" class="node">
<title>Node13</title>
<g id="a_node13"><a xlink:title=" ">
<polygon fill="white" stroke="#bfbfbf" points="828,-56.5 828,-75.5 888,-75.5 888,-56.5 828,-56.5"/>
<text text-anchor="middle" x="858" y="-63.5" font-family="Helvetica,sans-Serif" font-size="10.00">iostream</text>
</a>
</g>
</g>
<!-- Node1&#45;&gt;Node13 -->
<g id="edge12" class="edge">
<title>Node1&#45;&gt;Node13</title>
<path fill="none" stroke="midnightblue" d="M530.82,-113.81C602.83,-106.62 713.02,-94.23 817.72,-76.07"/>
<polygon fill="midnightblue" stroke="midnightblue" points="818.59,-79.47 827.83,-74.29 817.38,-72.57 818.59,-79.47"/>
</g>
<!-- Node14 -->
<g id="node14" class="node">
<title>Node14</title>
<g id="a_node14"><a xlink:title=" ">
<polygon fill="white" stroke="#bfbfbf" points="906,-56.5 906,-75.5 962,-75.5 962,-56.5 906,-56.5"/>
<text text-anchor="middle" x="934" y="-63.5" font-family="Helvetica,sans-Serif" font-size="10.00">unistd.h</text>
</a>
</g>
</g>
<!-- Node1&#45;&gt;Node14 -->
<g id="edge13" class="edge">
<title>Node1&#45;&gt;Node14</title>
<path fill="none" stroke="midnightblue" d="M530.84,-116.37C617.66,-110.46 762.38,-98.44 895.81,-75.99"/>
<polygon fill="midnightblue" stroke="midnightblue" points="896.53,-79.41 905.8,-74.28 895.36,-72.51 896.53,-79.41"/>
</g>
<!-- Node15 -->
<g id="node15" class="node">
<title>Node15</title>
<g id="a_node15"><a xlink:title=" ">
<polygon fill="white" stroke="#bfbfbf" points="574,-0.5 574,-19.5 616,-19.5 616,-0.5 574,-0.5"/>
<text text-anchor="middle" x="595" y="-7.5" font-family="Helvetica,sans-Serif" font-size="10.00">pin.H</text>
</a>
</g>
</g>
<!-- Node1&#45;&gt;Node15 -->
<g id="edge14" class="edge">
<title>Node1&#45;&gt;Node15</title>
<path fill="none" stroke="midnightblue" d="M462.23,-112.16C475.9,-99.23 502.55,-74.69 527,-56 541.53,-44.89 558.71,-33.54 572.17,-25.01"/>
<polygon fill="midnightblue" stroke="midnightblue" points="574.19,-27.87 580.81,-19.6 570.48,-21.94 574.19,-27.87"/>
</g>
<!-- Node16 -->
<g id="node16" class="node">
<title>Node16</title>
<g id="a_node16"><a xlink:href="cctlib_8H.html" target="_top" xlink:title=" ">
<polygon fill="white" stroke="black" points="426.5,-56.5 426.5,-75.5 479.5,-75.5 479.5,-56.5 426.5,-56.5"/>
<text text-anchor="middle" x="453" y="-63.5" font-family="Helvetica,sans-Serif" font-size="10.00">cctlib.H</text>
</a>
</g>
</g>
<!-- Node1&#45;&gt;Node16 -->
<g id="edge15" class="edge">
<title>Node1&#45;&gt;Node16</title>
<path fill="none" stroke="midnightblue" d="M453,-112.08C453,-105.01 453,-94.86 453,-85.99"/>
<polygon fill="midnightblue" stroke="midnightblue" points="456.5,-85.75 453,-75.75 449.5,-85.75 456.5,-85.75"/>
</g>
<!-- Node16&#45;&gt;Node7 -->
<g id="edge19" class="edge">
<title>Node16&#45;&gt;Node7</title>
<path fill="none" stroke="midnightblue" d="M433.19,-56.44C412.71,-47.6 380.52,-33.69 357.14,-23.59"/>
<polygon fill="midnightblue" stroke="midnightblue" points="358.28,-20.27 347.71,-19.52 355.51,-26.7 358.28,-20.27"/>
</g>
<!-- Node16&#45;&gt;Node8 -->
<g id="edge20" class="edge">
<title>Node16&#45;&gt;Node8</title>
<path fill="none" stroke="midnightblue" d="M443.2,-56.32C434.18,-48.34 420.59,-36.31 409.68,-26.65"/>
<polygon fill="midnightblue" stroke="midnightblue" points="411.79,-23.84 401.98,-19.83 407.15,-29.08 411.79,-23.84"/>
</g>
<!-- Node16&#45;&gt;Node15 -->
<g id="edge16" class="edge">
<title>Node16&#45;&gt;Node15</title>
<path fill="none" stroke="midnightblue" d="M475.5,-56.44C499.49,-47.32 537.64,-32.81 564.36,-22.65"/>
<polygon fill="midnightblue" stroke="midnightblue" points="565.89,-25.81 573.99,-18.99 563.4,-19.27 565.89,-25.81"/>
</g>
<!-- Node17 -->
<g id="node17" class="node">
<title>Node17</title>
<g id="a_node17"><a xlink:title=" ">
<polygon fill="white" stroke="#bfbfbf" points="502.5,-0.5 502.5,-19.5 555.5,-19.5 555.5,-0.5 502.5,-0.5"/>
<text text-anchor="middle" x="529" y="-7.5" font-family="Helvetica,sans-Serif" font-size="10.00">stdint.h</text>
</a>
</g>
</g>
<!-- Node16&#45;&gt;Node17 -->
<g id="edge17" class="edge">
<title>Node16&#45;&gt;Node17</title>
<path fill="none" stroke="midnightblue" d="M465.21,-56.32C476.78,-48.11 494.38,-35.6 508.16,-25.81"/>
<polygon fill="midnightblue" stroke="midnightblue" points="510.44,-28.48 516.57,-19.83 506.39,-22.77 510.44,-28.48"/>
</g>
<!-- Node18 -->
<g id="node18" class="node">
<title>Node18</title>
<g id="a_node18"><a xlink:title=" ">
<polygon fill="white" stroke="#bfbfbf" points="434,-0.5 434,-19.5 484,-19.5 484,-0.5 434,-0.5"/>
<text text-anchor="middle" x="459" y="-7.5" font-family="Helvetica,sans-Serif" font-size="10.00">stdio.h</text>
</a>
</g>
</g>
<!-- Node16&#45;&gt;Node18 -->
<g id="edge18" class="edge">
<title>Node16&#45;&gt;Node18</title>
<path fill="none" stroke="midnightblue" d="M453.99,-56.08C454.79,-48.93 455.93,-38.64 456.92,-29.69"/>
<polygon fill="midnightblue" stroke="midnightblue" points="460.4,-30.08 458.03,-19.75 453.44,-29.3 460.4,-30.08"/>
</g>
</g>
</svg>
