<?xml version="1.0" encoding="UTF-8" standalone="no"?>
<!DOCTYPE svg PUBLIC "-//W3C//DTD SVG 1.1//EN"
 "http://www.w3.org/Graphics/SVG/1.1/DTD/svg11.dtd">
<!-- Generated by graphviz version 2.43.0 (0)
 -->
<!-- Title: clients/cct_metric_client.cpp Pages: 1 -->
<svg width="848pt" height="151pt"
 viewBox="0.00 0.00 848.00 151.00" xmlns="http://www.w3.org/2000/svg" xmlns:xlink="http://www.w3.org/1999/xlink">
<g id="graph0" class="graph" transform="scale(1 1) rotate(0) translate(4 147)">
<title>clients/cct_metric_client.cpp</title>
<polygon fill="white" stroke="transparent" points="-4,4 -4,-147 844,-147 844,4 -4,4"/>
<!-- Node1 -->
<g id="node1" class="node">
<title>Node1</title>
<g id="a_node1"><a xlink:title=" ">
<polygon fill="#bfbfbf" stroke="black" points="330.5,-112.5 330.5,-142.5 433.5,-142.5 433.5,-112.5 330.5,-112.5"/>
<text text-anchor="start" x="338.5" y="-130.5" font-family="Helvetica,sans-Serif" font-size="10.00">clients/cct_metric</text>
<text text-anchor="middle" x="382" y="-119.5" font-family="Helvetica,sans-Serif" font-size="10.00">_client.cpp</text>
</a>
</g>
</g>
<!-- Node2 -->
<g id="node2" class="node">
<title>Node2</title>
<g id="a_node2"><a xlink:title=" ">
<polygon fill="white" stroke="#bfbfbf" points="0,-0.5 0,-19.5 50,-19.5 50,-0.5 0,-0.5"/>
<text text-anchor="middle" x="25" y="-7.5" font-family="Helvetica,sans-Serif" font-size="10.00">stdio.h</text>
</a>
</g>
</g>
<!-- Node1&#45;&gt;Node2 -->
<g id="edge1" class="edge">
<title>Node1&#45;&gt;Node2</title>
<path fill="none" stroke="midnightblue" d="M330.47,-124.86C272.84,-121.31 177.88,-110.25 104,-76 78.71,-64.28 54.74,-42.5 39.97,-27.4"/>
<polygon fill="midnightblue" stroke="midnightblue" points="42.19,-24.65 32.77,-19.81 37.11,-29.47 42.19,-24.65"/>
</g>
<!-- Node3 -->
<g id="node3" class="node">
<title>Node3</title>
<g id="a_node3"><a xlink:title=" ">
<polygon fill="white" stroke="#bfbfbf" points="242.5,-56.5 242.5,-75.5 295.5,-75.5 295.5,-56.5 242.5,-56.5"/>
<text text-anchor="middle" x="269" y="-63.5" font-family="Helvetica,sans-Serif" font-size="10.00">stdlib.h</text>
</a>
</g>
</g>
<!-- Node1&#45;&gt;Node3 -->
<g id="edge2" class="edge">
<title>Node1&#45;&gt;Node3</title>
<path fill="none" stroke="midnightblue" d="M355.22,-112.4C336.94,-102.77 312.85,-90.09 294.79,-80.58"/>
<polygon fill="midnightblue" stroke="midnightblue" points="295.92,-77.22 285.44,-75.66 292.66,-83.41 295.92,-77.22"/>
</g>
<!-- Node4 -->
<g id="node4" class="node">
<title>Node4</title>
<g id="a_node4"><a xlink:title=" ">
<polygon fill="white" stroke="#bfbfbf" points="68.5,-0.5 68.5,-19.5 121.5,-19.5 121.5,-0.5 68.5,-0.5"/>
<text text-anchor="middle" x="95" y="-7.5" font-family="Helvetica,sans-Serif" font-size="10.00">stdint.h</text>
</a>
</g>
</g>
<!-- Node1&#45;&gt;Node4 -->
<g id="edge3" class="edge">
<title>Node1&#45;&gt;Node4</title>
<path fill="none" stroke="midnightblue" d="M330.24,-122C264.34,-115.34 155.25,-100.87 124,-76 109.67,-64.59 102.21,-44.61 98.47,-29.8"/>
<polygon fill="midnightblue" stroke="midnightblue" points="101.82,-28.74 96.29,-19.71 94.98,-30.23 101.82,-28.74"/>
</g>
<!-- Node5 -->
<g id="node5" class="node">
<title>Node5</title>
<g id="a_node5"><a xlink:title=" ">
<polygon fill="white" stroke="#bfbfbf" points="314,-56.5 314,-75.5 374,-75.5 374,-56.5 314,-56.5"/>
<text text-anchor="middle" x="344" y="-63.5" font-family="Helvetica,sans-Serif" font-size="10.00">iostream</text>
</a>
</g>
</g>
<!-- Node1&#45;&gt;Node5 -->
<g id="edge4" class="edge">
<title>Node1&#45;&gt;Node5</title>
<path fill="none" stroke="midnightblue" d="M372.99,-112.4C367.59,-103.93 360.67,-93.1 354.95,-84.14"/>
<polygon fill="midnightblue" stroke="midnightblue" points="357.86,-82.2 349.53,-75.66 351.96,-85.97 357.86,-82.2"/>
</g>
<!-- Node6 -->
<g id="node6" class="node">
<title>Node6</title>
<g id="a_node6"><a xlink:title=" ">
<polygon fill="white" stroke="#bfbfbf" points="392,-56.5 392,-75.5 448,-75.5 448,-56.5 392,-56.5"/>
<text text-anchor="middle" x="420" y="-63.5" font-family="Helvetica,sans-Serif" font-size="10.00">unistd.h</text>
</a>
</g>
</g>
<!-- Node1&#45;&gt;Node6 -->
<g id="edge5" class="edge">
<title>Node1&#45;&gt;Node6</title>
<path fill="none" stroke="midnightblue" d="M391.01,-112.4C396.41,-103.93 403.33,-93.1 409.05,-84.14"/>
<polygon fill="midnightblue" stroke="midnightblue" points="412.04,-85.97 414.47,-75.66 406.14,-82.2 412.04,-85.97"/>
</g>
<!-- Node7 -->
<g id="node7" class="node">
<title>Node7</title>
<g id="a_node7"><a xlink:title=" ">
<polygon fill="white" stroke="#bfbfbf" points="466,-56.5 466,-75.5 522,-75.5 522,-56.5 466,-56.5"/>
<text text-anchor="middle" x="494" y="-63.5" font-family="Helvetica,sans-Serif" font-size="10.00">assert.h</text>
</a>
</g>
</g>
<!-- Node1&#45;&gt;Node7 -->
<g id="edge6" class="edge">
<title>Node1&#45;&gt;Node7</title>
<path fill="none" stroke="midnightblue" d="M408.54,-112.4C426.66,-102.77 450.54,-90.09 468.44,-80.58"/>
<polygon fill="midnightblue" stroke="midnightblue" points="470.51,-83.44 477.7,-75.66 467.23,-77.26 470.51,-83.44"/>
</g>
<!-- Node8 -->
<g id="node8" class="node">
<title>Node8</title>
<g id="a_node8"><a xlink:title=" ">
<polygon fill="white" stroke="#bfbfbf" points="540.5,-56.5 540.5,-75.5 593.5,-75.5 593.5,-56.5 540.5,-56.5"/>
<text text-anchor="middle" x="567" y="-63.5" font-family="Helvetica,sans-Serif" font-size="10.00">string.h</text>
</a>
</g>
</g>
<!-- Node1&#45;&gt;Node8 -->
<g id="edge7" class="edge">
<title>Node1&#45;&gt;Node8</title>
<path fill="none" stroke="midnightblue" d="M425.84,-112.4C457.81,-102.12 500.62,-88.35 530.68,-78.68"/>
<polygon fill="midnightblue" stroke="midnightblue" points="531.9,-81.96 540.35,-75.57 529.76,-75.3 531.9,-81.96"/>
</g>
<!-- Node9 -->
<g id="node9" class="node">
<title>Node9</title>
<g id="a_node9"><a xlink:title=" ">
<polygon fill="white" stroke="#bfbfbf" points="612,-56.5 612,-75.5 668,-75.5 668,-56.5 612,-56.5"/>
<text text-anchor="middle" x="640" y="-63.5" font-family="Helvetica,sans-Serif" font-size="10.00">sstream</text>
</a>
</g>
</g>
<!-- Node1&#45;&gt;Node9 -->
<g id="edge8" class="edge">
<title>Node1&#45;&gt;Node9</title>
<path fill="none" stroke="midnightblue" d="M433.85,-114.87C476.47,-105.25 538.72,-91.11 601.98,-76.22"/>
<polygon fill="midnightblue" stroke="midnightblue" points="602.8,-79.62 611.73,-73.92 601.19,-72.81 602.8,-79.62"/>
</g>
<!-- Node10 -->
<g id="node10" class="node">
<title>Node10</title>
<g id="a_node10"><a xlink:title=" ">
<polygon fill="white" stroke="#bfbfbf" points="686,-56.5 686,-75.5 758,-75.5 758,-56.5 686,-56.5"/>
<text text-anchor="middle" x="722" y="-63.5" font-family="Helvetica,sans-Serif" font-size="10.00">sys/types.h</text>
</a>
</g>
</g>
<!-- Node1&#45;&gt;Node10 -->
<g id="edge9" class="edge">
<title>Node1&#45;&gt;Node10</title>
<path fill="none" stroke="midnightblue" d="M433.5,-118.13C490.37,-108.79 584.87,-92.97 675.75,-76.19"/>
<polygon fill="midnightblue" stroke="midnightblue" points="676.47,-79.62 685.67,-74.36 675.2,-72.74 676.47,-79.62"/>
</g>
<!-- Node11 -->
<g id="node11" class="node">
<title>Node11</title>
<g id="a_node11"><a xlink:title=" ">
<polygon fill="white" stroke="#bfbfbf" points="776,-56.5 776,-75.5 840,-75.5 840,-56.5 776,-56.5"/>
<text text-anchor="middle" x="808" y="-63.5" font-family="Helvetica,sans-Serif" font-size="10.00">sys/stat.h</text>
</a>
</g>
</g>
<!-- Node1&#45;&gt;Node11 -->
<g id="edge10" class="edge">
<title>Node1&#45;&gt;Node11</title>
<path fill="none" stroke="midnightblue" d="M433.59,-121.15C505.71,-113.37 640.93,-97.63 765.71,-76.1"/>
<polygon fill="midnightblue" stroke="midnightblue" points="766.57,-79.5 775.82,-74.34 765.37,-72.6 766.57,-79.5"/>
</g>
<!-- Node12 -->
<g id="node12" class="node">
<title>Node12</title>
<g id="a_node12"><a xlink:title=" ">
<polygon fill="white" stroke="#bfbfbf" points="267,-0.5 267,-19.5 309,-19.5 309,-0.5 267,-0.5"/>
<text text-anchor="middle" x="288" y="-7.5" font-family="Helvetica,sans-Serif" font-size="10.00">pin.H</text>
</a>
</g>
</g>
<!-- Node1&#45;&gt;Node12 -->
<g id="edge11" class="edge">
<title>Node1&#45;&gt;Node12</title>
<path fill="none" stroke="midnightblue" d="M330.18,-123.57C296.8,-118.68 255.72,-106.36 234,-76 220.82,-57.58 243.17,-37.74 262.99,-24.89"/>
<polygon fill="midnightblue" stroke="midnightblue" points="265.08,-27.72 271.78,-19.51 261.43,-21.75 265.08,-27.72"/>
</g>
<!-- Node13 -->
<g id="node13" class="node">
<title>Node13</title>
<g id="a_node13"><a xlink:href="cctlib_8H.html" target="_top" xlink:title=" ">
<polygon fill="white" stroke="black" points="132.5,-56.5 132.5,-75.5 185.5,-75.5 185.5,-56.5 132.5,-56.5"/>
<text text-anchor="middle" x="159" y="-63.5" font-family="Helvetica,sans-Serif" font-size="10.00">cctlib.H</text>
</a>
</g>
</g>
<!-- Node1&#45;&gt;Node13 -->
<g id="edge12" class="edge">
<title>Node1&#45;&gt;Node13</title>
<path fill="none" stroke="midnightblue" d="M330.28,-112.7C289,-101.69 232.2,-86.53 195.54,-76.75"/>
<polygon fill="midnightblue" stroke="midnightblue" points="196.32,-73.34 185.76,-74.14 194.52,-80.1 196.32,-73.34"/>
</g>
<!-- Node13&#45;&gt;Node2 -->
<g id="edge15" class="edge">
<title>Node13&#45;&gt;Node2</title>
<path fill="none" stroke="midnightblue" d="M137.77,-56.44C115.62,-47.52 80.68,-33.44 55.56,-23.32"/>
<polygon fill="midnightblue" stroke="midnightblue" points="56.72,-20.01 46.13,-19.52 54.1,-26.5 56.72,-20.01"/>
</g>
<!-- Node13&#45;&gt;Node4 -->
<g id="edge14" class="edge">
<title>Node13&#45;&gt;Node4</title>
<path fill="none" stroke="midnightblue" d="M148.72,-56.32C139.16,-48.26 124.72,-36.08 113.22,-26.37"/>
<polygon fill="midnightblue" stroke="midnightblue" points="115.37,-23.61 105.47,-19.83 110.86,-28.96 115.37,-23.61"/>
</g>
<!-- Node13&#45;&gt;Node12 -->
<g id="edge13" class="edge">
<title>Node13&#45;&gt;Node12</title>
<path fill="none" stroke="midnightblue" d="M179.44,-56.44C200.67,-47.56 234.1,-33.56 258.25,-23.45"/>
<polygon fill="midnightblue" stroke="midnightblue" points="259.78,-26.61 267.66,-19.52 257.08,-20.15 259.78,-26.61"/>
</g>
<!-- Node14 -->
<g id="node14" class="node">
<title>Node14</title>
<g id="a_node14"><a xlink:title=" ">
<polygon fill="white" stroke="#bfbfbf" points="205,-0.5 205,-19.5 249,-19.5 249,-0.5 205,-0.5"/>
<text text-anchor="middle" x="227" y="-7.5" font-family="Helvetica,sans-Serif" font-size="10.00">string</text>
</a>
</g>
</g>
<!-- Node13&#45;&gt;Node14 -->
<g id="edge16" class="edge">
<title>Node13&#45;&gt;Node14</title>
<path fill="none" stroke="midnightblue" d="M169.93,-56.32C180.17,-48.18 195.72,-35.84 208,-26.09"/>
<polygon fill="midnightblue" stroke="midnightblue" points="210.22,-28.79 215.88,-19.83 205.87,-23.31 210.22,-28.79"/>
</g>
<!-- Node15 -->
<g id="node15" class="node">
<title>Node15</title>
<g id="a_node15"><a xlink:title=" ">
<polygon fill="white" stroke="#bfbfbf" points="139.5,-0.5 139.5,-19.5 186.5,-19.5 186.5,-0.5 139.5,-0.5"/>
<text text-anchor="middle" x="163" y="-7.5" font-family="Helvetica,sans-Serif" font-size="10.00">vector</text>
</a>
</g>
</g>
<!-- Node13&#45;&gt;Node15 -->
<g id="edge17" class="edge">
<title>Node13&#45;&gt;Node15</title>
<path fill="none" stroke="midnightblue" d="M159.66,-56.08C160.18,-49.01 160.94,-38.86 161.59,-29.99"/>
<polygon fill="midnightblue" stroke="midnightblue" points="165.1,-29.98 162.35,-19.75 158.12,-29.47 165.1,-29.98"/>
</g>
</g>
</svg>
