<?xml version="1.0" encoding="UTF-8" standalone="no"?>
<!DOCTYPE svg PUBLIC "-//W3C//DTD SVG 1.1//EN"
 "http://www.w3.org/Graphics/SVG/1.1/DTD/svg11.dtd">
<!-- Generated by graphviz version 2.43.0 (0)
 -->
<!-- Title: tests/cct_client.cpp Pages: 1 -->
<svg width="676pt" height="140pt"
 viewBox="0.00 0.00 676.00 140.00" xmlns="http://www.w3.org/2000/svg" xmlns:xlink="http://www.w3.org/1999/xlink">
<g id="graph0" class="graph" transform="scale(1 1) rotate(0) translate(4 136)">
<title>tests/cct_client.cpp</title>
<polygon fill="white" stroke="transparent" points="-4,4 -4,-136 672,-136 672,4 -4,4"/>
<!-- Node1 -->
<g id="node1" class="node">
<title>Node1</title>
<g id="a_node1"><a xlink:title=" ">
<polygon fill="#bfbfbf" stroke="black" points="251,-112.5 251,-131.5 361,-131.5 361,-112.5 251,-112.5"/>
<text text-anchor="middle" x="306" y="-119.5" font-family="Helvetica,sans-Serif" font-size="10.00">tests/cct_client.cpp</text>
</a>
</g>
</g>
<!-- Node2 -->
<g id="node2" class="node">
<title>Node2</title>
<g id="a_node2"><a xlink:title=" ">
<polygon fill="white" stroke="#bfbfbf" points="0,-0.5 0,-19.5 50,-19.5 50,-0.5 0,-0.5"/>
<text text-anchor="middle" x="25" y="-7.5" font-family="Helvetica,sans-Serif" font-size="10.00">stdio.h</text>
</a>
</g>
</g>
<!-- Node1&#45;&gt;Node2 -->
<g id="edge1" class="edge">
<title>Node1&#45;&gt;Node2</title>
<path fill="none" stroke="midnightblue" d="M250.98,-115.78C209.01,-110.16 150.66,-98.76 104,-76 78.95,-63.78 54.92,-42.11 40.08,-27.18"/>
<polygon fill="midnightblue" stroke="midnightblue" points="42.3,-24.43 32.83,-19.67 37.26,-29.3 42.3,-24.43"/>
</g>
<!-- Node3 -->
<g id="node3" class="node">
<title>Node3</title>
<g id="a_node3"><a xlink:title=" ">
<polygon fill="white" stroke="#bfbfbf" points="242.5,-56.5 242.5,-75.5 295.5,-75.5 295.5,-56.5 242.5,-56.5"/>
<text text-anchor="middle" x="269" y="-63.5" font-family="Helvetica,sans-Serif" font-size="10.00">stdlib.h</text>
</a>
</g>
</g>
<!-- Node1&#45;&gt;Node3 -->
<g id="edge2" class="edge">
<title>Node1&#45;&gt;Node3</title>
<path fill="none" stroke="midnightblue" d="M299.89,-112.08C294.72,-104.53 287.15,-93.49 280.81,-84.23"/>
<polygon fill="midnightblue" stroke="midnightblue" points="283.54,-82.02 275,-75.75 277.76,-85.98 283.54,-82.02"/>
</g>
<!-- Node4 -->
<g id="node4" class="node">
<title>Node4</title>
<g id="a_node4"><a xlink:title=" ">
<polygon fill="white" stroke="#bfbfbf" points="68.5,-0.5 68.5,-19.5 121.5,-19.5 121.5,-0.5 68.5,-0.5"/>
<text text-anchor="middle" x="95" y="-7.5" font-family="Helvetica,sans-Serif" font-size="10.00">stdint.h</text>
</a>
</g>
</g>
<!-- Node1&#45;&gt;Node4 -->
<g id="edge3" class="edge">
<title>Node1&#45;&gt;Node4</title>
<path fill="none" stroke="midnightblue" d="M250.96,-119.82C211.57,-116.26 159.45,-105.66 124,-76 109.95,-64.25 102.45,-44.31 98.62,-29.61"/>
<polygon fill="midnightblue" stroke="midnightblue" points="101.98,-28.6 96.37,-19.61 95.15,-30.14 101.98,-28.6"/>
</g>
<!-- Node5 -->
<g id="node5" class="node">
<title>Node5</title>
<g id="a_node5"><a xlink:title=" ">
<polygon fill="white" stroke="#bfbfbf" points="314,-56.5 314,-75.5 374,-75.5 374,-56.5 314,-56.5"/>
<text text-anchor="middle" x="344" y="-63.5" font-family="Helvetica,sans-Serif" font-size="10.00">iostream</text>
</a>
</g>
</g>
<!-- Node1&#45;&gt;Node5 -->
<g id="edge4" class="edge">
<title>Node1&#45;&gt;Node5</title>
<path fill="none" stroke="midnightblue" d="M312.27,-112.08C317.64,-104.46 325.52,-93.26 332.08,-83.94"/>
<polygon fill="midnightblue" stroke="midnightblue" points="334.95,-85.94 337.84,-75.75 329.22,-81.91 334.95,-85.94"/>
</g>
<!-- Node6 -->
<g id="node6" class="node">
<title>Node6</title>
<g id="a_node6"><a xlink:title=" ">
<polygon fill="white" stroke="#bfbfbf" points="392,-56.5 392,-75.5 448,-75.5 448,-56.5 392,-56.5"/>
<text text-anchor="middle" x="420" y="-63.5" font-family="Helvetica,sans-Serif" font-size="10.00">unistd.h</text>
</a>
</g>
</g>
<!-- Node1&#45;&gt;Node6 -->
<g id="edge5" class="edge">
<title>Node1&#45;&gt;Node6</title>
<path fill="none" stroke="midnightblue" d="M324.06,-112.44C342.57,-103.68 371.58,-89.94 392.86,-79.86"/>
<polygon fill="midnightblue" stroke="midnightblue" points="394.48,-82.96 402.02,-75.52 391.49,-76.63 394.48,-82.96"/>
</g>
<!-- Node7 -->
<g id="node7" class="node">
<title>Node7</title>
<g id="a_node7"><a xlink:title=" ">
<polygon fill="white" stroke="#bfbfbf" points="466,-56.5 466,-75.5 522,-75.5 522,-56.5 466,-56.5"/>
<text text-anchor="middle" x="494" y="-63.5" font-family="Helvetica,sans-Serif" font-size="10.00">assert.h</text>
</a>
</g>
</g>
<!-- Node1&#45;&gt;Node7 -->
<g id="edge6" class="edge">
<title>Node1&#45;&gt;Node7</title>
<path fill="none" stroke="midnightblue" d="M335.79,-112.44C368.3,-103.11 420.44,-88.13 455.91,-77.94"/>
<polygon fill="midnightblue" stroke="midnightblue" points="457.24,-81.2 465.89,-75.08 455.31,-74.47 457.24,-81.2"/>
</g>
<!-- Node8 -->
<g id="node8" class="node">
<title>Node8</title>
<g id="a_node8"><a xlink:title=" ">
<polygon fill="white" stroke="#bfbfbf" points="540.5,-56.5 540.5,-75.5 593.5,-75.5 593.5,-56.5 540.5,-56.5"/>
<text text-anchor="middle" x="567" y="-63.5" font-family="Helvetica,sans-Serif" font-size="10.00">string.h</text>
</a>
</g>
</g>
<!-- Node1&#45;&gt;Node8 -->
<g id="edge7" class="edge">
<title>Node1&#45;&gt;Node8</title>
<path fill="none" stroke="midnightblue" d="M351.81,-112.5C395.24,-104.29 462.53,-91.2 530.3,-76.07"/>
<polygon fill="midnightblue" stroke="midnightblue" points="531.31,-79.43 540.3,-73.83 529.77,-72.6 531.31,-79.43"/>
</g>
<!-- Node9 -->
<g id="node9" class="node">
<title>Node9</title>
<g id="a_node9"><a xlink:title=" ">
<polygon fill="white" stroke="#bfbfbf" points="612,-56.5 612,-75.5 668,-75.5 668,-56.5 612,-56.5"/>
<text text-anchor="middle" x="640" y="-63.5" font-family="Helvetica,sans-Serif" font-size="10.00">sstream</text>
</a>
</g>
</g>
<!-- Node1&#45;&gt;Node9 -->
<g id="edge8" class="edge">
<title>Node1&#45;&gt;Node9</title>
<path fill="none" stroke="midnightblue" d="M361.26,-114.11C418.93,-106.59 512.17,-93.49 601.72,-76.11"/>
<polygon fill="midnightblue" stroke="midnightblue" points="602.64,-79.5 611.77,-74.14 601.29,-72.63 602.64,-79.5"/>
</g>
<!-- Node10 -->
<g id="node10" class="node">
<title>Node10</title>
<g id="a_node10"><a xlink:title=" ">
<polygon fill="white" stroke="#bfbfbf" points="267,-0.5 267,-19.5 309,-19.5 309,-0.5 267,-0.5"/>
<text text-anchor="middle" x="288" y="-7.5" font-family="Helvetica,sans-Serif" font-size="10.00">pin.H</text>
</a>
</g>
</g>
<!-- Node1&#45;&gt;Node10 -->
<g id="edge9" class="edge">
<title>Node1&#45;&gt;Node10</title>
<path fill="none" stroke="midnightblue" d="M280.5,-112.47C264.01,-105.48 243.86,-93.79 234,-76 223.26,-56.61 244,-37.47 262.81,-25.04"/>
<polygon fill="midnightblue" stroke="midnightblue" points="264.82,-27.91 271.46,-19.66 261.12,-21.96 264.82,-27.91"/>
</g>
<!-- Node11 -->
<g id="node11" class="node">
<title>Node11</title>
<g id="a_node11"><a xlink:href="cctlib_8H.html" target="_top" xlink:title=" ">
<polygon fill="white" stroke="black" points="132.5,-56.5 132.5,-75.5 185.5,-75.5 185.5,-56.5 132.5,-56.5"/>
<text text-anchor="middle" x="159" y="-63.5" font-family="Helvetica,sans-Serif" font-size="10.00">cctlib.H</text>
</a>
</g>
</g>
<!-- Node1&#45;&gt;Node11 -->
<g id="edge10" class="edge">
<title>Node1&#45;&gt;Node11</title>
<path fill="none" stroke="midnightblue" d="M282.71,-112.44C258.19,-103.44 219.4,-89.19 191.8,-79.05"/>
<polygon fill="midnightblue" stroke="midnightblue" points="192.78,-75.68 182.18,-75.52 190.36,-82.25 192.78,-75.68"/>
</g>
<!-- Node11&#45;&gt;Node2 -->
<g id="edge13" class="edge">
<title>Node11&#45;&gt;Node2</title>
<path fill="none" stroke="midnightblue" d="M137.77,-56.44C115.62,-47.52 80.68,-33.44 55.56,-23.32"/>
<polygon fill="midnightblue" stroke="midnightblue" points="56.72,-20.01 46.13,-19.52 54.1,-26.5 56.72,-20.01"/>
</g>
<!-- Node11&#45;&gt;Node4 -->
<g id="edge12" class="edge">
<title>Node11&#45;&gt;Node4</title>
<path fill="none" stroke="midnightblue" d="M148.72,-56.32C139.16,-48.26 124.72,-36.08 113.22,-26.37"/>
<polygon fill="midnightblue" stroke="midnightblue" points="115.37,-23.61 105.47,-19.83 110.86,-28.96 115.37,-23.61"/>
</g>
<!-- Node11&#45;&gt;Node10 -->
<g id="edge11" class="edge">
<title>Node11&#45;&gt;Node10</title>
<path fill="none" stroke="midnightblue" d="M179.44,-56.44C200.67,-47.56 234.1,-33.56 258.25,-23.45"/>
<polygon fill="midnightblue" stroke="midnightblue" points="259.78,-26.61 267.66,-19.52 257.08,-20.15 259.78,-26.61"/>
</g>
<!-- Node12 -->
<g id="node12" class="node">
<title>Node12</title>
<g id="a_node12"><a xlink:title=" ">
<polygon fill="white" stroke="#bfbfbf" points="205,-0.5 205,-19.5 249,-19.5 249,-0.5 205,-0.5"/>
<text text-anchor="middle" x="227" y="-7.5" font-family="Helvetica,sans-Serif" font-size="10.00">string</text>
</a>
</g>
</g>
<!-- Node11&#45;&gt;Node12 -->
<g id="edge14" class="edge">
<title>Node11&#45;&gt;Node12</title>
<path fill="none" stroke="midnightblue" d="M169.93,-56.32C180.17,-48.18 195.72,-35.84 208,-26.09"/>
<polygon fill="midnightblue" stroke="midnightblue" points="210.22,-28.79 215.88,-19.83 205.87,-23.31 210.22,-28.79"/>
</g>
<!-- Node13 -->
<g id="node13" class="node">
<title>Node13</title>
<g id="a_node13"><a xlink:title=" ">
<polygon fill="white" stroke="#bfbfbf" points="139.5,-0.5 139.5,-19.5 186.5,-19.5 186.5,-0.5 139.5,-0.5"/>
<text text-anchor="middle" x="163" y="-7.5" font-family="Helvetica,sans-Serif" font-size="10.00">vector</text>
</a>
</g>
</g>
<!-- Node11&#45;&gt;Node13 -->
<g id="edge15" class="edge">
<title>Node11&#45;&gt;Node13</title>
<path fill="none" stroke="midnightblue" d="M159.66,-56.08C160.18,-49.01 160.94,-38.86 161.59,-29.99"/>
<polygon fill="midnightblue" stroke="midnightblue" points="165.1,-29.98 162.35,-19.75 158.12,-29.47 165.1,-29.98"/>
</g>
</g>
</svg>
