<?xml version="1.0" encoding="UTF-8" standalone="no"?>
<!DOCTYPE svg PUBLIC "-//W3C//DTD SVG 1.1//EN"
 "http://www.w3.org/Graphics/SVG/1.1/DTD/svg11.dtd">
<!-- Generated by graphviz version 2.43.0 (0)
 -->
<!-- Title: tests/cct_data_centric_client.cpp Pages: 1 -->
<svg width="676pt" height="151pt"
 viewBox="0.00 0.00 676.00 151.00" xmlns="http://www.w3.org/2000/svg" xmlns:xlink="http://www.w3.org/1999/xlink">
<g id="graph0" class="graph" transform="scale(1 1) rotate(0) translate(4 147)">
<title>tests/cct_data_centric_client.cpp</title>
<polygon fill="white" stroke="transparent" points="-4,4 -4,-147 672,-147 672,4 -4,4"/>
<!-- Node1 -->
<g id="node1" class="node">
<title>Node1</title>
<g id="a_node1"><a xlink:title=" ">
<polygon fill="#bfbfbf" stroke="black" points="244.5,-112.5 244.5,-142.5 367.5,-142.5 367.5,-112.5 244.5,-112.5"/>
<text text-anchor="start" x="252.5" y="-130.5" font-family="Helvetica,sans-Serif" font-size="10.00">tests/cct_data_centric</text>
<text text-anchor="middle" x="306" y="-119.5" font-family="Helvetica,sans-Serif" font-size="10.00">_client.cpp</text>
</a>
</g>
</g>
<!-- Node2 -->
<g id="node2" class="node">
<title>Node2</title>
<g id="a_node2"><a xlink:title=" ">
<polygon fill="white" stroke="#bfbfbf" points="0,-0.5 0,-19.5 50,-19.5 50,-0.5 0,-0.5"/>
<text text-anchor="middle" x="25" y="-7.5" font-family="Helvetica,sans-Serif" font-size="10.00">stdio.h</text>
</a>
</g>
</g>
<!-- Node1&#45;&gt;Node2 -->
<g id="edge1" class="edge">
<title>Node1&#45;&gt;Node2</title>
<path fill="none" stroke="midnightblue" d="M244.3,-118.35C202.97,-111.18 148.23,-98.28 104,-76 79.11,-63.46 55.05,-41.87 40.15,-27.03"/>
<polygon fill="midnightblue" stroke="midnightblue" points="42.37,-24.29 32.87,-19.59 37.36,-29.18 42.37,-24.29"/>
</g>
<!-- Node3 -->
<g id="node3" class="node">
<title>Node3</title>
<g id="a_node3"><a xlink:title=" ">
<polygon fill="white" stroke="#bfbfbf" points="242.5,-56.5 242.5,-75.5 295.5,-75.5 295.5,-56.5 242.5,-56.5"/>
<text text-anchor="middle" x="269" y="-63.5" font-family="Helvetica,sans-Serif" font-size="10.00">stdlib.h</text>
</a>
</g>
</g>
<!-- Node1&#45;&gt;Node3 -->
<g id="edge2" class="edge">
<title>Node1&#45;&gt;Node3</title>
<path fill="none" stroke="midnightblue" d="M297.23,-112.4C292.02,-104.02 285.37,-93.33 279.83,-84.42"/>
<polygon fill="midnightblue" stroke="midnightblue" points="282.64,-82.3 274.38,-75.66 276.69,-86 282.64,-82.3"/>
</g>
<!-- Node4 -->
<g id="node4" class="node">
<title>Node4</title>
<g id="a_node4"><a xlink:title=" ">
<polygon fill="white" stroke="#bfbfbf" points="68.5,-0.5 68.5,-19.5 121.5,-19.5 121.5,-0.5 68.5,-0.5"/>
<text text-anchor="middle" x="95" y="-7.5" font-family="Helvetica,sans-Serif" font-size="10.00">stdint.h</text>
</a>
</g>
</g>
<!-- Node1&#45;&gt;Node4 -->
<g id="edge3" class="edge">
<title>Node1&#45;&gt;Node4</title>
<path fill="none" stroke="midnightblue" d="M244.08,-122.56C205.6,-117.16 157.3,-104.67 124,-76 110.12,-64.05 102.59,-44.15 98.71,-29.51"/>
<polygon fill="midnightblue" stroke="midnightblue" points="102.07,-28.51 96.41,-19.56 95.25,-30.09 102.07,-28.51"/>
</g>
<!-- Node5 -->
<g id="node5" class="node">
<title>Node5</title>
<g id="a_node5"><a xlink:title=" ">
<polygon fill="white" stroke="#bfbfbf" points="314,-56.5 314,-75.5 374,-75.5 374,-56.5 314,-56.5"/>
<text text-anchor="middle" x="344" y="-63.5" font-family="Helvetica,sans-Serif" font-size="10.00">iostream</text>
</a>
</g>
</g>
<!-- Node1&#45;&gt;Node5 -->
<g id="edge4" class="edge">
<title>Node1&#45;&gt;Node5</title>
<path fill="none" stroke="midnightblue" d="M315.01,-112.4C320.41,-103.93 327.33,-93.1 333.05,-84.14"/>
<polygon fill="midnightblue" stroke="midnightblue" points="336.04,-85.97 338.47,-75.66 330.14,-82.2 336.04,-85.97"/>
</g>
<!-- Node6 -->
<g id="node6" class="node">
<title>Node6</title>
<g id="a_node6"><a xlink:title=" ">
<polygon fill="white" stroke="#bfbfbf" points="392,-56.5 392,-75.5 448,-75.5 448,-56.5 392,-56.5"/>
<text text-anchor="middle" x="420" y="-63.5" font-family="Helvetica,sans-Serif" font-size="10.00">unistd.h</text>
</a>
</g>
</g>
<!-- Node1&#45;&gt;Node6 -->
<g id="edge5" class="edge">
<title>Node1&#45;&gt;Node6</title>
<path fill="none" stroke="midnightblue" d="M333.02,-112.4C351.63,-102.68 376.21,-89.86 394.49,-80.31"/>
<polygon fill="midnightblue" stroke="midnightblue" points="396.17,-83.39 403.41,-75.66 392.93,-77.18 396.17,-83.39"/>
</g>
<!-- Node7 -->
<g id="node7" class="node">
<title>Node7</title>
<g id="a_node7"><a xlink:title=" ">
<polygon fill="white" stroke="#bfbfbf" points="466,-56.5 466,-75.5 522,-75.5 522,-56.5 466,-56.5"/>
<text text-anchor="middle" x="494" y="-63.5" font-family="Helvetica,sans-Serif" font-size="10.00">assert.h</text>
</a>
</g>
</g>
<!-- Node1&#45;&gt;Node7 -->
<g id="edge6" class="edge">
<title>Node1&#45;&gt;Node7</title>
<path fill="none" stroke="midnightblue" d="M350.55,-112.4C383.04,-102.12 426.54,-88.35 457.09,-78.68"/>
<polygon fill="midnightblue" stroke="midnightblue" points="458.44,-81.93 466.92,-75.57 456.33,-75.25 458.44,-81.93"/>
</g>
<!-- Node8 -->
<g id="node8" class="node">
<title>Node8</title>
<g id="a_node8"><a xlink:title=" ">
<polygon fill="white" stroke="#bfbfbf" points="540.5,-56.5 540.5,-75.5 593.5,-75.5 593.5,-56.5 540.5,-56.5"/>
<text text-anchor="middle" x="567" y="-63.5" font-family="Helvetica,sans-Serif" font-size="10.00">string.h</text>
</a>
</g>
</g>
<!-- Node1&#45;&gt;Node8 -->
<g id="edge7" class="edge">
<title>Node1&#45;&gt;Node8</title>
<path fill="none" stroke="midnightblue" d="M367.69,-113.08C410.65,-103.63 469.54,-90.49 530.48,-76.08"/>
<polygon fill="midnightblue" stroke="midnightblue" points="531.36,-79.47 540.28,-73.76 529.74,-72.66 531.36,-79.47"/>
</g>
<!-- Node9 -->
<g id="node9" class="node">
<title>Node9</title>
<g id="a_node9"><a xlink:title=" ">
<polygon fill="white" stroke="#bfbfbf" points="612,-56.5 612,-75.5 668,-75.5 668,-56.5 612,-56.5"/>
<text text-anchor="middle" x="640" y="-63.5" font-family="Helvetica,sans-Serif" font-size="10.00">sstream</text>
</a>
</g>
</g>
<!-- Node1&#45;&gt;Node9 -->
<g id="edge8" class="edge">
<title>Node1&#45;&gt;Node9</title>
<path fill="none" stroke="midnightblue" d="M367.67,-117.31C425.67,-108.37 515.13,-93.83 601.76,-76.14"/>
<polygon fill="midnightblue" stroke="midnightblue" points="602.68,-79.53 611.76,-74.08 601.26,-72.67 602.68,-79.53"/>
</g>
<!-- Node10 -->
<g id="node10" class="node">
<title>Node10</title>
<g id="a_node10"><a xlink:title=" ">
<polygon fill="white" stroke="#bfbfbf" points="267,-0.5 267,-19.5 309,-19.5 309,-0.5 267,-0.5"/>
<text text-anchor="middle" x="288" y="-7.5" font-family="Helvetica,sans-Serif" font-size="10.00">pin.H</text>
</a>
</g>
</g>
<!-- Node1&#45;&gt;Node10 -->
<g id="edge9" class="edge">
<title>Node1&#45;&gt;Node10</title>
<path fill="none" stroke="midnightblue" d="M273.41,-112.44C258.53,-104.16 242.38,-92.12 234,-76 223.77,-56.34 244.42,-37.24 263.07,-24.9"/>
<polygon fill="midnightblue" stroke="midnightblue" points="265,-27.82 271.64,-19.56 261.3,-21.87 265,-27.82"/>
</g>
<!-- Node11 -->
<g id="node11" class="node">
<title>Node11</title>
<g id="a_node11"><a xlink:href="cctlib_8H.html" target="_top" xlink:title=" ">
<polygon fill="white" stroke="black" points="132.5,-56.5 132.5,-75.5 185.5,-75.5 185.5,-56.5 132.5,-56.5"/>
<text text-anchor="middle" x="159" y="-63.5" font-family="Helvetica,sans-Serif" font-size="10.00">cctlib.H</text>
</a>
</g>
</g>
<!-- Node1&#45;&gt;Node11 -->
<g id="edge10" class="edge">
<title>Node1&#45;&gt;Node11</title>
<path fill="none" stroke="midnightblue" d="M271.16,-112.4C246.5,-102.42 213.71,-89.15 189.97,-79.53"/>
<polygon fill="midnightblue" stroke="midnightblue" points="190.97,-76.17 180.39,-75.66 188.35,-82.65 190.97,-76.17"/>
</g>
<!-- Node11&#45;&gt;Node2 -->
<g id="edge13" class="edge">
<title>Node11&#45;&gt;Node2</title>
<path fill="none" stroke="midnightblue" d="M137.77,-56.44C115.62,-47.52 80.68,-33.44 55.56,-23.32"/>
<polygon fill="midnightblue" stroke="midnightblue" points="56.72,-20.01 46.13,-19.52 54.1,-26.5 56.72,-20.01"/>
</g>
<!-- Node11&#45;&gt;Node4 -->
<g id="edge12" class="edge">
<title>Node11&#45;&gt;Node4</title>
<path fill="none" stroke="midnightblue" d="M148.72,-56.32C139.16,-48.26 124.72,-36.08 113.22,-26.37"/>
<polygon fill="midnightblue" stroke="midnightblue" points="115.37,-23.61 105.47,-19.83 110.86,-28.96 115.37,-23.61"/>
</g>
<!-- Node11&#45;&gt;Node10 -->
<g id="edge11" class="edge">
<title>Node11&#45;&gt;Node10</title>
<path fill="none" stroke="midnightblue" d="M179.44,-56.44C200.67,-47.56 234.1,-33.56 258.25,-23.45"/>
<polygon fill="midnightblue" stroke="midnightblue" points="259.78,-26.61 267.66,-19.52 257.08,-20.15 259.78,-26.61"/>
</g>
<!-- Node12 -->
<g id="node12" class="node">
<title>Node12</title>
<g id="a_node12"><a xlink:title=" ">
<polygon fill="white" stroke="#bfbfbf" points="205,-0.5 205,-19.5 249,-19.5 249,-0.5 205,-0.5"/>
<text text-anchor="middle" x="227" y="-7.5" font-family="Helvetica,sans-Serif" font-size="10.00">string</text>
</a>
</g>
</g>
<!-- Node11&#45;&gt;Node12 -->
<g id="edge14" class="edge">
<title>Node11&#45;&gt;Node12</title>
<path fill="none" stroke="midnightblue" d="M169.93,-56.32C180.17,-48.18 195.72,-35.84 208,-26.09"/>
<polygon fill="midnightblue" stroke="midnightblue" points="210.22,-28.79 215.88,-19.83 205.87,-23.31 210.22,-28.79"/>
</g>
<!-- Node13 -->
<g id="node13" class="node">
<title>Node13</title>
<g id="a_node13"><a xlink:title=" ">
<polygon fill="white" stroke="#bfbfbf" points="139.5,-0.5 139.5,-19.5 186.5,-19.5 186.5,-0.5 139.5,-0.5"/>
<text text-anchor="middle" x="163" y="-7.5" font-family="Helvetica,sans-Serif" font-size="10.00">vector</text>
</a>
</g>
</g>
<!-- Node11&#45;&gt;Node13 -->
<g id="edge15" class="edge">
<title>Node11&#45;&gt;Node13</title>
<path fill="none" stroke="midnightblue" d="M159.66,-56.08C160.18,-49.01 160.94,-38.86 161.59,-29.99"/>
<polygon fill="midnightblue" stroke="midnightblue" points="165.1,-29.98 162.35,-19.75 158.12,-29.47 165.1,-29.98"/>
</g>
</g>
</svg>
