<?xml version="1.0" encoding="UTF-8" standalone="no"?>
<!DOCTYPE svg PUBLIC "-//W3C//DTD SVG 1.1//EN"
 "http://www.w3.org/Graphics/SVG/1.1/DTD/svg11.dtd">
<!-- Generated by graphviz version 2.43.0 (0)
 -->
<!-- Title: src/cctlib.H Pages: 1 -->
<svg width="3306pt" height="95pt"
 viewBox="0.00 0.00 3306.00 95.00" xmlns="http://www.w3.org/2000/svg" xmlns:xlink="http://www.w3.org/1999/xlink">
<g id="graph0" class="graph" transform="scale(1 1) rotate(0) translate(4 91)">
<title>src/cctlib.H</title>
<polygon fill="white" stroke="transparent" points="-4,4 -4,-91 3302,-91 3302,4 -4,4"/>
<!-- Node1 -->
<g id="node1" class="node">
<title>Node1</title>
<g id="a_node1"><a xlink:title=" ">
<polygon fill="#bfbfbf" stroke="black" points="1621.5,-67.5 1621.5,-86.5 1692.5,-86.5 1692.5,-67.5 1621.5,-67.5"/>
<text text-anchor="middle" x="1657" y="-74.5" font-family="Helvetica,sans-Serif" font-size="10.00">src/cctlib.H</text>
</a>
</g>
</g>
<!-- Node2 -->
<g id="node2" class="node">
<title>Node2</title>
<g id="a_node2"><a xlink:href="cctlib_8cpp.html" target="_top" xlink:title=" ">
<polygon fill="white" stroke="black" points="0,-6 0,-25 80,-25 80,-6 0,-6"/>
<text text-anchor="middle" x="40" y="-13" font-family="Helvetica,sans-Serif" font-size="10.00">src/cctlib.cpp</text>
</a>
</g>
</g>
<!-- Node1&#45;&gt;Node2 -->
<g id="edge1" class="edge">
<title>Node1&#45;&gt;Node2</title>
<path fill="none" stroke="midnightblue" d="M1611.19,-76.28C1385.82,-77.43 393.44,-79.57 89,-31 80.85,-29.7 72.16,-27.43 64.39,-25.07"/>
<polygon fill="midnightblue" stroke="midnightblue" points="1611.35,-79.78 1621.33,-76.23 1611.32,-72.78 1611.35,-79.78"/>
</g>
<!-- Node3 -->
<g id="node3" class="node">
<title>Node3</title>
<g id="a_node3"><a xlink:href="cct__metric__client_8cpp.html" target="_top" xlink:title=" ">
<polygon fill="white" stroke="black" points="98.5,-0.5 98.5,-30.5 201.5,-30.5 201.5,-0.5 98.5,-0.5"/>
<text text-anchor="start" x="106.5" y="-18.5" font-family="Helvetica,sans-Serif" font-size="10.00">clients/cct_metric</text>
<text text-anchor="middle" x="150" y="-7.5" font-family="Helvetica,sans-Serif" font-size="10.00">_client.cpp</text>
</a>
</g>
</g>
<!-- Node1&#45;&gt;Node3 -->
<g id="edge2" class="edge">
<title>Node1&#45;&gt;Node3</title>
<path fill="none" stroke="midnightblue" d="M1611.03,-75.84C1396.24,-74.92 490.31,-68.82 210,-31 207.24,-30.63 204.42,-30.18 201.58,-29.68"/>
<polygon fill="midnightblue" stroke="midnightblue" points="1611.29,-79.35 1621.31,-75.89 1611.32,-72.35 1611.29,-79.35"/>
</g>
<!-- Node4 -->
<g id="node4" class="node">
<title>Node4</title>
<g id="a_node4"><a xlink:href="cct__shape__check_8cpp.html" target="_top" xlink:title=" ">
<polygon fill="white" stroke="black" points="219.5,-6 219.5,-25 374.5,-25 374.5,-6 219.5,-6"/>
<text text-anchor="middle" x="297" y="-13" font-family="Helvetica,sans-Serif" font-size="10.00">clients/cct_shape_check.cpp</text>
</a>
</g>
</g>
<!-- Node1&#45;&gt;Node4 -->
<g id="edge3" class="edge">
<title>Node1&#45;&gt;Node4</title>
<path fill="none" stroke="midnightblue" d="M1611.14,-76.52C1445.4,-77.96 861.98,-79.07 384,-31 370.14,-29.61 355.13,-27.37 341.56,-25.07"/>
<polygon fill="midnightblue" stroke="midnightblue" points="1611.48,-80.02 1621.45,-76.43 1611.42,-73.02 1611.48,-80.02"/>
</g>
<!-- Node5 -->
<g id="node5" class="node">
<title>Node5</title>
<g id="a_node5"><a xlink:href="cctlib__reader_8cpp.html" target="_top" xlink:title=" ">
<polygon fill="white" stroke="black" points="393,-6 393,-25 527,-25 527,-6 393,-6"/>
<text text-anchor="middle" x="460" y="-13" font-family="Helvetica,sans-Serif" font-size="10.00">clients/cctlib_reader.cpp</text>
</a>
</g>
</g>
<!-- Node1&#45;&gt;Node5 -->
<g id="edge4" class="edge">
<title>Node1&#45;&gt;Node5</title>
<path fill="none" stroke="midnightblue" d="M1611.15,-75.07C1428.15,-71.21 749.55,-55.52 536,-31 523.86,-29.61 510.74,-27.37 498.88,-25.07"/>
<polygon fill="midnightblue" stroke="midnightblue" points="1611.17,-78.57 1621.24,-75.28 1611.32,-71.57 1611.17,-78.57"/>
</g>
<!-- Node6 -->
<g id="node6" class="node">
<title>Node6</title>
<g id="a_node6"><a xlink:href="deadspy__client_8cpp.html" target="_top" xlink:title=" ">
<polygon fill="white" stroke="black" points="545,-6 545,-25 691,-25 691,-6 545,-6"/>
<text text-anchor="middle" x="618" y="-13" font-family="Helvetica,sans-Serif" font-size="10.00">clients/deadspy_client.cpp</text>
</a>
</g>
</g>
<!-- Node1&#45;&gt;Node6 -->
<g id="edge5" class="edge">
<title>Node1&#45;&gt;Node6</title>
<path fill="none" stroke="midnightblue" d="M1611.02,-75.92C1472.76,-75.24 1048.8,-69.88 700,-31 687.07,-29.56 673.09,-27.34 660.41,-25.07"/>
<polygon fill="midnightblue" stroke="midnightblue" points="1611.23,-79.42 1621.24,-75.97 1611.26,-72.42 1611.23,-79.42"/>
</g>
<!-- Node7 -->
<g id="node7" class="node">
<title>Node7</title>
<g id="a_node7"><a xlink:href="footprint__client_8cpp.html" target="_top" xlink:title=" ">
<polygon fill="white" stroke="black" points="709,-6 709,-25 855,-25 855,-6 709,-6"/>
<text text-anchor="middle" x="782" y="-13" font-family="Helvetica,sans-Serif" font-size="10.00">clients/footprint_client.cpp</text>
</a>
</g>
</g>
<!-- Node1&#45;&gt;Node7 -->
<g id="edge6" class="edge">
<title>Node1&#45;&gt;Node7</title>
<path fill="none" stroke="midnightblue" d="M1611.21,-75.29C1489.3,-73.01 1146.82,-63.91 864,-31 851.22,-29.51 837.41,-27.31 824.84,-25.06"/>
<polygon fill="midnightblue" stroke="midnightblue" points="1611.24,-78.8 1621.3,-75.48 1611.37,-71.8 1611.24,-78.8"/>
</g>
<!-- Node8 -->
<g id="node8" class="node">
<title>Node8</title>
<g id="a_node8"><a xlink:href="footprint__client2_8cpp.html" target="_top" xlink:title=" ">
<polygon fill="white" stroke="black" points="873,-6 873,-25 1025,-25 1025,-6 873,-6"/>
<text text-anchor="middle" x="949" y="-13" font-family="Helvetica,sans-Serif" font-size="10.00">clients/footprint_client2.cpp</text>
</a>
</g>
</g>
<!-- Node1&#45;&gt;Node8 -->
<g id="edge7" class="edge">
<title>Node1&#45;&gt;Node8</title>
<path fill="none" stroke="midnightblue" d="M1611.34,-74.22C1508.15,-69.86 1249.19,-57.06 1034,-31 1021.07,-29.43 1007.11,-27.26 994.32,-25.07"/>
<polygon fill="midnightblue" stroke="midnightblue" points="1611.27,-77.72 1621.41,-74.64 1611.57,-70.72 1611.27,-77.72"/>
</g>
<!-- Node9 -->
<g id="node9" class="node">
<title>Node9</title>
<g id="a_node9"><a xlink:href="ins__reuse__client_8cpp.html" target="_top" xlink:title=" ">
<polygon fill="white" stroke="black" points="1043.5,-6 1043.5,-25 1194.5,-25 1194.5,-6 1043.5,-6"/>
<text text-anchor="middle" x="1119" y="-13" font-family="Helvetica,sans-Serif" font-size="10.00">clients/ins_reuse_client.cpp</text>
</a>
</g>
</g>
<!-- Node1&#45;&gt;Node9 -->
<g id="edge8" class="edge">
<title>Node1&#45;&gt;Node9</title>
<path fill="none" stroke="midnightblue" d="M1611.3,-72.57C1529.3,-66.16 1351.84,-51.2 1203,-31 1190.54,-29.31 1177.09,-27.14 1164.68,-25"/>
<polygon fill="midnightblue" stroke="midnightblue" points="1611.05,-76.06 1621.29,-73.34 1611.59,-69.08 1611.05,-76.06"/>
</g>
<!-- Node10 -->
<g id="node10" class="node">
<title>Node10</title>
<g id="a_node10"><a xlink:href="loadspy__client_8cpp.html" target="_top" xlink:title=" ">
<polygon fill="white" stroke="black" points="1212.5,-6 1212.5,-25 1355.5,-25 1355.5,-6 1212.5,-6"/>
<text text-anchor="middle" x="1284" y="-13" font-family="Helvetica,sans-Serif" font-size="10.00">clients/loadspy_client.cpp</text>
</a>
</g>
</g>
<!-- Node1&#45;&gt;Node10 -->
<g id="edge9" class="edge">
<title>Node1&#45;&gt;Node10</title>
<path fill="none" stroke="midnightblue" d="M1611.23,-69.3C1553.69,-60.79 1451.93,-45.48 1365,-31 1353.87,-29.15 1341.89,-27.06 1330.65,-25.05"/>
<polygon fill="midnightblue" stroke="midnightblue" points="1611.04,-72.81 1621.45,-70.8 1612.06,-65.88 1611.04,-72.81"/>
</g>
<!-- Node11 -->
<g id="node11" class="node">
<title>Node11</title>
<g id="a_node11"><a xlink:href="omp__datarace__client_8cpp.html" target="_top" xlink:title=" ">
<polygon fill="white" stroke="black" points="1374,-0.5 1374,-30.5 1496,-30.5 1496,-0.5 1374,-0.5"/>
<text text-anchor="start" x="1382" y="-18.5" font-family="Helvetica,sans-Serif" font-size="10.00">clients/omp_datarace</text>
<text text-anchor="middle" x="1435" y="-7.5" font-family="Helvetica,sans-Serif" font-size="10.00">_client.cpp</text>
</a>
</g>
</g>
<!-- Node1&#45;&gt;Node11 -->
<g id="edge10" class="edge">
<title>Node1&#45;&gt;Node11</title>
<path fill="none" stroke="midnightblue" d="M1615.43,-64.86C1579.19,-55.14 1526.43,-41.01 1487.32,-30.52"/>
<polygon fill="midnightblue" stroke="midnightblue" points="1614.63,-68.27 1625.19,-67.48 1616.44,-61.51 1614.63,-68.27"/>
</g>
<!-- Node12 -->
<g id="node12" class="node">
<title>Node12</title>
<g id="a_node12"><a xlink:href="redspy__client_8cpp.html" target="_top" xlink:title=" ">
<polygon fill="white" stroke="black" points="1514.5,-6 1514.5,-25 1651.5,-25 1651.5,-6 1514.5,-6"/>
<text text-anchor="middle" x="1583" y="-13" font-family="Helvetica,sans-Serif" font-size="10.00">clients/redspy_client.cpp</text>
</a>
</g>
</g>
<!-- Node1&#45;&gt;Node12 -->
<g id="edge11" class="edge">
<title>Node1&#45;&gt;Node12</title>
<path fill="none" stroke="midnightblue" d="M1638.31,-60.97C1624.16,-49.59 1605.22,-34.37 1593.58,-25.01"/>
<polygon fill="midnightblue" stroke="midnightblue" points="1636.41,-63.94 1646.4,-67.48 1640.8,-58.48 1636.41,-63.94"/>
</g>
<!-- Node13 -->
<g id="node13" class="node">
<title>Node13</title>
<g id="a_node13"><a xlink:href="redspy__spatial__userdefine__client_8cpp.html" target="_top" xlink:title=" ">
<polygon fill="white" stroke="black" points="1669.5,-0.5 1669.5,-30.5 1794.5,-30.5 1794.5,-0.5 1669.5,-0.5"/>
<text text-anchor="start" x="1677.5" y="-18.5" font-family="Helvetica,sans-Serif" font-size="10.00">clients/redspy_spatial</text>
<text text-anchor="middle" x="1732" y="-7.5" font-family="Helvetica,sans-Serif" font-size="10.00">_userdefine_client.cpp</text>
</a>
</g>
</g>
<!-- Node1&#45;&gt;Node13 -->
<g id="edge12" class="edge">
<title>Node1&#45;&gt;Node13</title>
<path fill="none" stroke="midnightblue" d="M1675.66,-61.2C1687.49,-51.81 1702.69,-39.75 1714.32,-30.52"/>
<polygon fill="midnightblue" stroke="midnightblue" points="1673.4,-58.52 1667.75,-67.48 1677.76,-64 1673.4,-58.52"/>
</g>
<!-- Node14 -->
<g id="node14" class="node">
<title>Node14</title>
<g id="a_node14"><a xlink:href="redspy__temporal__client_8cpp.html" target="_top" xlink:title=" ">
<polygon fill="white" stroke="black" points="1813,-0.5 1813,-30.5 1947,-30.5 1947,-0.5 1813,-0.5"/>
<text text-anchor="start" x="1821" y="-18.5" font-family="Helvetica,sans-Serif" font-size="10.00">clients/redspy_temporal</text>
<text text-anchor="middle" x="1880" y="-7.5" font-family="Helvetica,sans-Serif" font-size="10.00">_client.cpp</text>
</a>
</g>
</g>
<!-- Node1&#45;&gt;Node14 -->
<g id="edge13" class="edge">
<title>Node1&#45;&gt;Node14</title>
<path fill="none" stroke="midnightblue" d="M1698.76,-64.86C1735.17,-55.14 1788.16,-41.01 1827.44,-30.52"/>
<polygon fill="midnightblue" stroke="midnightblue" points="1697.71,-61.52 1688.95,-67.48 1699.51,-68.28 1697.71,-61.52"/>
</g>
<!-- Node15 -->
<g id="node15" class="node">
<title>Node15</title>
<g id="a_node15"><a xlink:href="runtime__value__numbering__client_8cpp.html" target="_top" xlink:title=" ">
<polygon fill="white" stroke="black" points="1965.5,-0.5 1965.5,-30.5 2092.5,-30.5 2092.5,-0.5 1965.5,-0.5"/>
<text text-anchor="start" x="1973.5" y="-18.5" font-family="Helvetica,sans-Serif" font-size="10.00">clients/runtime_value</text>
<text text-anchor="middle" x="2029" y="-7.5" font-family="Helvetica,sans-Serif" font-size="10.00">_numbering_client.cpp</text>
</a>
</g>
</g>
<!-- Node1&#45;&gt;Node15 -->
<g id="edge14" class="edge">
<title>Node1&#45;&gt;Node15</title>
<path fill="none" stroke="midnightblue" d="M1702.59,-69.81C1761.31,-61.69 1866.48,-46.62 1956,-31 1959.05,-30.47 1962.18,-29.91 1965.33,-29.33"/>
<polygon fill="midnightblue" stroke="midnightblue" points="1701.96,-66.37 1692.53,-71.2 1702.91,-73.3 1701.96,-66.37"/>
</g>
<!-- Node16 -->
<g id="node16" class="node">
<title>Node16</title>
<g id="a_node16"><a xlink:href="zerospy__cachepage_8cpp.html" target="_top" xlink:title=" ">
<polygon fill="white" stroke="black" points="2111,-6 2111,-25 2279,-25 2279,-6 2111,-6"/>
<text text-anchor="middle" x="2195" y="-13" font-family="Helvetica,sans-Serif" font-size="10.00">clients/zerospy_cachepage.cpp</text>
</a>
</g>
</g>
<!-- Node1&#45;&gt;Node16 -->
<g id="edge15" class="edge">
<title>Node1&#45;&gt;Node16</title>
<path fill="none" stroke="midnightblue" d="M1702.87,-72.18C1783.67,-65.28 1956.61,-49.67 2102,-31 2115.45,-29.27 2129.96,-27.14 2143.42,-25.05"/>
<polygon fill="midnightblue" stroke="midnightblue" points="1702.22,-68.73 1692.55,-73.06 1702.81,-75.7 1702.22,-68.73"/>
</g>
<!-- Node17 -->
<g id="node17" class="node">
<title>Node17</title>
<g id="a_node17"><a xlink:href="zerospy__client_8cpp.html" target="_top" xlink:title=" ">
<polygon fill="white" stroke="black" points="2297.5,-6 2297.5,-25 2440.5,-25 2440.5,-6 2297.5,-6"/>
<text text-anchor="middle" x="2369" y="-13" font-family="Helvetica,sans-Serif" font-size="10.00">clients/zerospy_client.cpp</text>
</a>
</g>
</g>
<!-- Node1&#45;&gt;Node17 -->
<g id="edge16" class="edge">
<title>Node1&#45;&gt;Node17</title>
<path fill="none" stroke="midnightblue" d="M1702.88,-74.39C1807.18,-70.38 2069.9,-58.22 2288,-31 2300.47,-29.44 2313.94,-27.24 2326.25,-25.03"/>
<polygon fill="midnightblue" stroke="midnightblue" points="1702.57,-70.9 1692.71,-74.78 1702.83,-77.9 1702.57,-70.9"/>
</g>
<!-- Node18 -->
<g id="node18" class="node">
<title>Node18</title>
<g id="a_node18"><a xlink:href="zerospy__spatial__client_8cpp.html" target="_top" xlink:title=" ">
<polygon fill="white" stroke="black" points="2459,-0.5 2459,-30.5 2587,-30.5 2587,-0.5 2459,-0.5"/>
<text text-anchor="start" x="2467" y="-18.5" font-family="Helvetica,sans-Serif" font-size="10.00">clients/zerospy_spatial</text>
<text text-anchor="middle" x="2523" y="-7.5" font-family="Helvetica,sans-Serif" font-size="10.00">_client.cpp</text>
</a>
</g>
</g>
<!-- Node1&#45;&gt;Node18 -->
<g id="edge17" class="edge">
<title>Node1&#45;&gt;Node18</title>
<path fill="none" stroke="midnightblue" d="M1702.83,-75.63C1824.84,-74.16 2167.54,-66.89 2450,-31 2452.95,-30.63 2455.96,-30.2 2458.99,-29.74"/>
<polygon fill="midnightblue" stroke="midnightblue" points="1702.69,-72.13 1692.73,-75.74 1702.77,-79.13 1702.69,-72.13"/>
</g>
<!-- Node19 -->
<g id="node19" class="node">
<title>Node19</title>
<g id="a_node19"><a xlink:href="cct__client_8cpp.html" target="_top" xlink:title=" ">
<polygon fill="white" stroke="black" points="2605,-6 2605,-25 2715,-25 2715,-6 2605,-6"/>
<text text-anchor="middle" x="2660" y="-13" font-family="Helvetica,sans-Serif" font-size="10.00">tests/cct_client.cpp</text>
</a>
</g>
</g>
<!-- Node1&#45;&gt;Node19 -->
<g id="edge18" class="edge">
<title>Node1&#45;&gt;Node19</title>
<path fill="none" stroke="midnightblue" d="M1702.68,-76.63C1839.09,-77.9 2255.17,-77.41 2596,-31 2606.27,-29.6 2617.33,-27.36 2627.31,-25.06"/>
<polygon fill="midnightblue" stroke="midnightblue" points="1702.63,-73.13 1692.59,-76.53 1702.56,-80.13 1702.63,-73.13"/>
</g>
<!-- Node20 -->
<g id="node20" class="node">
<title>Node20</title>
<g id="a_node20"><a xlink:href="cct__client__mem__only_8cpp.html" target="_top" xlink:title=" ">
<polygon fill="white" stroke="black" points="2733.5,-0.5 2733.5,-30.5 2854.5,-30.5 2854.5,-0.5 2733.5,-0.5"/>
<text text-anchor="start" x="2741.5" y="-18.5" font-family="Helvetica,sans-Serif" font-size="10.00">tests/cct_client_mem</text>
<text text-anchor="middle" x="2794" y="-7.5" font-family="Helvetica,sans-Serif" font-size="10.00">_only.cpp</text>
</a>
</g>
</g>
<!-- Node1&#45;&gt;Node20 -->
<g id="edge19" class="edge">
<title>Node1&#45;&gt;Node20</title>
<path fill="none" stroke="midnightblue" d="M1702.67,-75.06C1879.83,-71.26 2521.72,-56.05 2724,-31 2727.08,-30.62 2730.22,-30.17 2733.39,-29.68"/>
<polygon fill="midnightblue" stroke="midnightblue" points="1702.57,-71.56 1692.65,-75.27 1702.72,-78.56 1702.57,-71.56"/>
</g>
<!-- Node21 -->
<g id="node21" class="node">
<title>Node21</title>
<g id="a_node21"><a xlink:href="cct__data__centric__client_8cpp.html" target="_top" xlink:title=" ">
<polygon fill="white" stroke="black" points="2872.5,-0.5 2872.5,-30.5 2995.5,-30.5 2995.5,-0.5 2872.5,-0.5"/>
<text text-anchor="start" x="2880.5" y="-18.5" font-family="Helvetica,sans-Serif" font-size="10.00">tests/cct_data_centric</text>
<text text-anchor="middle" x="2934" y="-7.5" font-family="Helvetica,sans-Serif" font-size="10.00">_client.cpp</text>
</a>
</g>
</g>
<!-- Node1&#45;&gt;Node21 -->
<g id="edge20" class="edge">
<title>Node1&#45;&gt;Node21</title>
<path fill="none" stroke="midnightblue" d="M1702.85,-75.32C1894.6,-72.29 2632.88,-59.05 2864,-31 2866.71,-30.67 2869.47,-30.29 2872.26,-29.87"/>
<polygon fill="midnightblue" stroke="midnightblue" points="1702.52,-71.82 1692.57,-75.48 1702.63,-78.82 1702.52,-71.82"/>
</g>
<!-- Node22 -->
<g id="node22" class="node">
<title>Node22</title>
<g id="a_node22"><a xlink:href="cct__data__centric__client__tree__based_8cpp.html" target="_top" xlink:title=" ">
<polygon fill="white" stroke="black" points="3014,-0.5 3014,-30.5 3142,-30.5 3142,-0.5 3014,-0.5"/>
<text text-anchor="start" x="3022" y="-18.5" font-family="Helvetica,sans-Serif" font-size="10.00">tests/cct_data_centric</text>
<text text-anchor="middle" x="3078" y="-7.5" font-family="Helvetica,sans-Serif" font-size="10.00">_client_tree_based.cpp</text>
</a>
</g>
</g>
<!-- Node1&#45;&gt;Node22 -->
<g id="edge21" class="edge">
<title>Node1&#45;&gt;Node22</title>
<path fill="none" stroke="midnightblue" d="M1702.76,-75.47C1907.95,-72.96 2744.49,-61.02 3005,-31 3007.95,-30.66 3010.96,-30.26 3014,-29.82"/>
<polygon fill="midnightblue" stroke="midnightblue" points="1702.6,-71.97 1692.64,-75.6 1702.68,-78.97 1702.6,-71.97"/>
</g>
<!-- Node23 -->
<g id="node23" class="node">
<title>Node23</title>
<g id="a_node23"><a xlink:href="cct__data__name_8cpp.html" target="_top" xlink:title=" ">
<polygon fill="white" stroke="black" points="3160,-6 3160,-25 3298,-25 3298,-6 3160,-6"/>
<text text-anchor="middle" x="3229" y="-13" font-family="Helvetica,sans-Serif" font-size="10.00">tests/cct_data_name.cpp</text>
</a>
</g>
</g>
<!-- Node1&#45;&gt;Node23 -->
<g id="edge22" class="edge">
<title>Node1&#45;&gt;Node23</title>
<path fill="none" stroke="midnightblue" d="M1702.66,-75.57C1920.98,-73.38 2859.86,-62.26 3151,-31 3163.6,-29.65 3177.22,-27.39 3189.49,-25.06"/>
<polygon fill="midnightblue" stroke="midnightblue" points="1702.48,-72.07 1692.52,-75.67 1702.55,-79.07 1702.48,-72.07"/>
</g>
</g>
</svg>
