<?xml version="1.0" encoding="UTF-8" standalone="no"?>
<!DOCTYPE svg PUBLIC "-//W3C//DTD SVG 1.1//EN"
 "http://www.w3.org/Graphics/SVG/1.1/DTD/svg11.dtd">
<!-- Generated by graphviz version 2.43.0 (0)
 -->
<!-- Title: src/cctlib.cpp Pages: 1 -->
<svg width="3273pt" height="140pt"
 viewBox="0.00 0.00 3273.00 140.00" xmlns="http://www.w3.org/2000/svg" xmlns:xlink="http://www.w3.org/1999/xlink">
<g id="graph0" class="graph" transform="scale(1 1) rotate(0) translate(4 136)">
<title>src/cctlib.cpp</title>
<polygon fill="white" stroke="transparent" points="-4,4 -4,-136 3269,-136 3269,4 -4,4"/>
<!-- Node1 -->
<g id="node1" class="node">
<title>Node1</title>
<g id="a_node1"><a xlink:title=" ">
<polygon fill="#bfbfbf" stroke="black" points="1396,-112.5 1396,-131.5 1476,-131.5 1476,-112.5 1396,-112.5"/>
<text text-anchor="middle" x="1436" y="-119.5" font-family="Helvetica,sans-Serif" font-size="10.00">src/cctlib.cpp</text>
</a>
</g>
</g>
<!-- Node2 -->
<g id="node2" class="node">
<title>Node2</title>
<g id="a_node2"><a xlink:title=" ">
<polygon fill="white" stroke="#bfbfbf" points="18,-56.5 18,-75.5 50,-75.5 50,-56.5 18,-56.5"/>
<text text-anchor="middle" x="34" y="-63.5" font-family="Helvetica,sans-Serif" font-size="10.00">set</text>
</a>
</g>
</g>
<!-- Node1&#45;&gt;Node2 -->
<g id="edge1" class="edge">
<title>Node1&#45;&gt;Node2</title>
<path fill="none" stroke="midnightblue" d="M1395.83,-121.08C1198.44,-121.27 330.21,-119.54 64,-76 62.7,-75.79 61.38,-75.54 60.05,-75.25"/>
<polygon fill="midnightblue" stroke="midnightblue" points="60.57,-71.77 50.01,-72.64 58.81,-78.54 60.57,-71.77"/>
</g>
<!-- Node3 -->
<g id="node3" class="node">
<title>Node3</title>
<g id="a_node3"><a xlink:href="cctlib_8H.html" target="_top" xlink:title=" ">
<polygon fill="white" stroke="black" points="144.5,-56.5 144.5,-75.5 197.5,-75.5 197.5,-56.5 144.5,-56.5"/>
<text text-anchor="middle" x="171" y="-63.5" font-family="Helvetica,sans-Serif" font-size="10.00">cctlib.H</text>
</a>
</g>
</g>
<!-- Node1&#45;&gt;Node3 -->
<g id="edge2" class="edge">
<title>Node1&#45;&gt;Node3</title>
<path fill="none" stroke="midnightblue" d="M1395.72,-120.49C1211.59,-118.01 448.79,-106.09 212,-76 210.7,-75.83 209.38,-75.65 208.05,-75.44"/>
<polygon fill="midnightblue" stroke="midnightblue" points="208.25,-71.92 197.79,-73.6 207.01,-78.81 208.25,-71.92"/>
</g>
<!-- Node4 -->
<g id="node4" class="node">
<title>Node4</title>
<g id="a_node4"><a xlink:title=" ">
<polygon fill="white" stroke="#bfbfbf" points="0,-0.5 0,-19.5 42,-19.5 42,-0.5 0,-0.5"/>
<text text-anchor="middle" x="21" y="-7.5" font-family="Helvetica,sans-Serif" font-size="10.00">pin.H</text>
</a>
</g>
</g>
<!-- Node1&#45;&gt;Node4 -->
<g id="edge16" class="edge">
<title>Node1&#45;&gt;Node4</title>
<path fill="none" stroke="midnightblue" d="M1395.89,-121.08C1187.26,-121.31 230.97,-119.93 107,-76 78.76,-65.99 52.21,-43.08 36.28,-27.32"/>
<polygon fill="midnightblue" stroke="midnightblue" points="38.45,-24.54 28.96,-19.83 33.45,-29.43 38.45,-24.54"/>
</g>
<!-- Node5 -->
<g id="node5" class="node">
<title>Node5</title>
<g id="a_node5"><a xlink:title=" ">
<polygon fill="white" stroke="#bfbfbf" points="255.5,-0.5 255.5,-19.5 308.5,-19.5 308.5,-0.5 255.5,-0.5"/>
<text text-anchor="middle" x="282" y="-7.5" font-family="Helvetica,sans-Serif" font-size="10.00">stdint.h</text>
</a>
</g>
</g>
<!-- Node1&#45;&gt;Node5 -->
<g id="edge22" class="edge">
<title>Node1&#45;&gt;Node5</title>
<path fill="none" stroke="midnightblue" d="M1395.84,-120.96C1196.64,-120.59 322.67,-116.62 283,-76 271.31,-64.03 272.82,-44.13 276.17,-29.5"/>
<polygon fill="midnightblue" stroke="midnightblue" points="279.63,-30.12 278.89,-19.55 272.87,-28.27 279.63,-30.12"/>
</g>
<!-- Node6 -->
<g id="node6" class="node">
<title>Node6</title>
<g id="a_node6"><a xlink:title=" ">
<polygon fill="white" stroke="#bfbfbf" points="60,-0.5 60,-19.5 110,-19.5 110,-0.5 60,-0.5"/>
<text text-anchor="middle" x="85" y="-7.5" font-family="Helvetica,sans-Serif" font-size="10.00">stdio.h</text>
</a>
</g>
</g>
<!-- Node1&#45;&gt;Node6 -->
<g id="edge14" class="edge">
<title>Node1&#45;&gt;Node6</title>
<path fill="none" stroke="midnightblue" d="M1395.86,-120.56C1182.98,-118.11 193.48,-105.2 136,-76 116.28,-65.98 101.81,-44.44 93.42,-28.9"/>
<polygon fill="midnightblue" stroke="midnightblue" points="96.43,-27.09 88.79,-19.74 90.18,-30.24 96.43,-27.09"/>
</g>
<!-- Node8 -->
<g id="node8" class="node">
<title>Node8</title>
<g id="a_node8"><a xlink:title=" ">
<polygon fill="white" stroke="#bfbfbf" points="190.5,-0.5 190.5,-19.5 237.5,-19.5 237.5,-0.5 190.5,-0.5"/>
<text text-anchor="middle" x="214" y="-7.5" font-family="Helvetica,sans-Serif" font-size="10.00">vector</text>
</a>
</g>
</g>
<!-- Node1&#45;&gt;Node8 -->
<g id="edge19" class="edge">
<title>Node1&#45;&gt;Node8</title>
<path fill="none" stroke="midnightblue" d="M1395.96,-121.34C1202.9,-122.72 373.11,-125.69 270,-76 249.11,-65.93 232.92,-44.07 223.43,-28.48"/>
<polygon fill="midnightblue" stroke="midnightblue" points="226.43,-26.67 218.41,-19.75 220.36,-30.16 226.43,-26.67"/>
</g>
<!-- Node9 -->
<g id="node9" class="node">
<title>Node9</title>
<g id="a_node9"><a xlink:href="shadow__memory_8H.html" target="_top" xlink:title=" ">
<polygon fill="white" stroke="black" points="292,-56.5 292,-75.5 402,-75.5 402,-56.5 292,-56.5"/>
<text text-anchor="middle" x="347" y="-63.5" font-family="Helvetica,sans-Serif" font-size="10.00">shadow_memory.H</text>
</a>
</g>
</g>
<!-- Node1&#45;&gt;Node9 -->
<g id="edge8" class="edge">
<title>Node1&#45;&gt;Node9</title>
<path fill="none" stroke="midnightblue" d="M1395.59,-120.46C1258.13,-118.36 796.1,-109.11 416,-76 414.89,-75.9 413.76,-75.8 412.63,-75.7"/>
<polygon fill="midnightblue" stroke="midnightblue" points="412.62,-72.18 402.32,-74.64 411.91,-79.14 412.62,-72.18"/>
</g>
<!-- Node11 -->
<g id="node11" class="node">
<title>Node11</title>
<g id="a_node11"><a xlink:title=" ">
<polygon fill="white" stroke="#bfbfbf" points="549.5,-0.5 549.5,-19.5 602.5,-19.5 602.5,-0.5 549.5,-0.5"/>
<text text-anchor="middle" x="576" y="-7.5" font-family="Helvetica,sans-Serif" font-size="10.00">stdlib.h</text>
</a>
</g>
</g>
<!-- Node1&#45;&gt;Node11 -->
<g id="edge15" class="edge">
<title>Node1&#45;&gt;Node11</title>
<path fill="none" stroke="midnightblue" d="M1395.83,-120.62C1219.2,-118.78 518.82,-109.37 487,-76 465.67,-53.63 506.7,-33.61 539.89,-21.88"/>
<polygon fill="midnightblue" stroke="midnightblue" points="541.06,-25.18 549.41,-18.65 538.82,-18.55 541.06,-25.18"/>
</g>
<!-- Node12 -->
<g id="node12" class="node">
<title>Node12</title>
<g id="a_node12"><a xlink:title=" ">
<polygon fill="white" stroke="#bfbfbf" points="454.5,-0.5 454.5,-19.5 531.5,-19.5 531.5,-0.5 454.5,-0.5"/>
<text text-anchor="middle" x="493" y="-7.5" font-family="Helvetica,sans-Serif" font-size="10.00">sys/mman.h</text>
</a>
</g>
</g>
<!-- Node1&#45;&gt;Node12 -->
<g id="edge35" class="edge">
<title>Node1&#45;&gt;Node12</title>
<path fill="none" stroke="midnightblue" d="M1395.71,-120.64C1217.7,-118.87 509.18,-109.73 477,-76 464.89,-63.31 472.62,-42.99 481.01,-28.44"/>
<polygon fill="midnightblue" stroke="midnightblue" points="484.05,-30.19 486.41,-19.86 478.12,-26.46 484.05,-30.19"/>
</g>
<!-- Node14 -->
<g id="node14" class="node">
<title>Node14</title>
<g id="a_node14"><a xlink:title=" ">
<polygon fill="white" stroke="#bfbfbf" points="496,-56.5 496,-75.5 534,-75.5 534,-56.5 496,-56.5"/>
<text text-anchor="middle" x="515" y="-63.5" font-family="Helvetica,sans-Serif" font-size="10.00">map</text>
</a>
</g>
</g>
<!-- Node1&#45;&gt;Node14 -->
<g id="edge17" class="edge">
<title>Node1&#45;&gt;Node14</title>
<path fill="none" stroke="midnightblue" d="M1395.96,-120.31C1245.11,-117.51 711.18,-105.67 544,-76 543.9,-75.98 543.8,-75.96 543.7,-75.95"/>
<polygon fill="midnightblue" stroke="midnightblue" points="544.71,-72.59 534.18,-73.69 543.1,-79.4 544.71,-72.59"/>
</g>
<!-- Node15 -->
<g id="node15" class="node">
<title>Node15</title>
<g id="a_node15"><a xlink:title=" ">
<polygon fill="white" stroke="#bfbfbf" points="552.5,-56.5 552.5,-75.5 645.5,-75.5 645.5,-56.5 552.5,-56.5"/>
<text text-anchor="middle" x="599" y="-63.5" font-family="Helvetica,sans-Serif" font-size="10.00">unordered_map</text>
</a>
</g>
</g>
<!-- Node1&#45;&gt;Node15 -->
<g id="edge18" class="edge">
<title>Node1&#45;&gt;Node15</title>
<path fill="none" stroke="midnightblue" d="M1395.64,-120.12C1281.34,-117.33 945.52,-107.01 655.98,-75.98"/>
<polygon fill="midnightblue" stroke="midnightblue" points="656.02,-72.47 645.7,-74.87 655.27,-79.43 656.02,-72.47"/>
</g>
<!-- Node16 -->
<g id="node16" class="node">
<title>Node16</title>
<g id="a_node16"><a xlink:title=" ">
<polygon fill="white" stroke="#bfbfbf" points="664,-56.5 664,-75.5 696,-75.5 696,-56.5 664,-56.5"/>
<text text-anchor="middle" x="680" y="-63.5" font-family="Helvetica,sans-Serif" font-size="10.00">list</text>
</a>
</g>
</g>
<!-- Node1&#45;&gt;Node16 -->
<g id="edge20" class="edge">
<title>Node1&#45;&gt;Node16</title>
<path fill="none" stroke="midnightblue" d="M1395.66,-119.95C1262.78,-116.28 839.69,-102.74 706,-76 705.9,-75.98 705.79,-75.96 705.69,-75.94"/>
<polygon fill="midnightblue" stroke="midnightblue" points="706.61,-72.56 696.04,-73.31 704.77,-79.31 706.61,-72.56"/>
</g>
<!-- Node17 -->
<g id="node17" class="node">
<title>Node17</title>
<g id="a_node17"><a xlink:title=" ">
<polygon fill="white" stroke="#bfbfbf" points="714.5,-56.5 714.5,-75.5 779.5,-75.5 779.5,-56.5 714.5,-56.5"/>
<text text-anchor="middle" x="747" y="-63.5" font-family="Helvetica,sans-Serif" font-size="10.00">inttypes.h</text>
</a>
</g>
</g>
<!-- Node1&#45;&gt;Node17 -->
<g id="edge21" class="edge">
<title>Node1&#45;&gt;Node17</title>
<path fill="none" stroke="midnightblue" d="M1395.66,-120.18C1295.05,-117.7 1024.8,-108.46 790.03,-75.93"/>
<polygon fill="midnightblue" stroke="midnightblue" points="790.33,-72.44 779.94,-74.52 789.35,-79.37 790.33,-72.44"/>
</g>
<!-- Node18 -->
<g id="node18" class="node">
<title>Node18</title>
<g id="a_node18"><a xlink:title=" ">
<polygon fill="white" stroke="#bfbfbf" points="798,-56.5 798,-75.5 870,-75.5 870,-56.5 798,-56.5"/>
<text text-anchor="middle" x="834" y="-63.5" font-family="Helvetica,sans-Serif" font-size="10.00">sys/types.h</text>
</a>
</g>
</g>
<!-- Node1&#45;&gt;Node18 -->
<g id="edge23" class="edge">
<title>Node1&#45;&gt;Node18</title>
<path fill="none" stroke="midnightblue" d="M1395.71,-119.29C1303.88,-115.07 1072.11,-102.48 880,-76 879.9,-75.99 879.8,-75.97 879.7,-75.96"/>
<polygon fill="midnightblue" stroke="midnightblue" points="880.52,-72.54 870.1,-74.46 879.44,-79.46 880.52,-72.54"/>
</g>
<!-- Node19 -->
<g id="node19" class="node">
<title>Node19</title>
<g id="a_node19"><a xlink:title=" ">
<polygon fill="white" stroke="#bfbfbf" points="888.5,-56.5 888.5,-75.5 947.5,-75.5 947.5,-56.5 888.5,-56.5"/>
<text text-anchor="middle" x="918" y="-63.5" font-family="Helvetica,sans-Serif" font-size="10.00">sys/ipc.h</text>
</a>
</g>
</g>
<!-- Node1&#45;&gt;Node19 -->
<g id="edge24" class="edge">
<title>Node1&#45;&gt;Node19</title>
<path fill="none" stroke="midnightblue" d="M1395.71,-119.03C1314.65,-114.68 1125.97,-102.57 957.76,-75.9"/>
<polygon fill="midnightblue" stroke="midnightblue" points="958.16,-72.42 947.73,-74.29 957.05,-79.33 958.16,-72.42"/>
</g>
<!-- Node20 -->
<g id="node20" class="node">
<title>Node20</title>
<g id="a_node20"><a xlink:title=" ">
<polygon fill="white" stroke="#bfbfbf" points="966,-56.5 966,-75.5 1032,-75.5 1032,-56.5 966,-56.5"/>
<text text-anchor="middle" x="999" y="-63.5" font-family="Helvetica,sans-Serif" font-size="10.00">sys/shm.h</text>
</a>
</g>
</g>
<!-- Node1&#45;&gt;Node20 -->
<g id="edge25" class="edge">
<title>Node1&#45;&gt;Node20</title>
<path fill="none" stroke="midnightblue" d="M1395.73,-117.72C1325.84,-111.75 1177.38,-97.8 1042.51,-76.11"/>
<polygon fill="midnightblue" stroke="midnightblue" points="1042.85,-72.62 1032.41,-74.47 1041.72,-79.53 1042.85,-72.62"/>
</g>
<!-- Node21 -->
<g id="node21" class="node">
<title>Node21</title>
<g id="a_node21"><a xlink:title=" ">
<polygon fill="white" stroke="#bfbfbf" points="1050,-56.5 1050,-75.5 1130,-75.5 1130,-56.5 1050,-56.5"/>
<text text-anchor="middle" x="1090" y="-63.5" font-family="Helvetica,sans-Serif" font-size="10.00">semaphore.h</text>
</a>
</g>
</g>
<!-- Node1&#45;&gt;Node21 -->
<g id="edge26" class="edge">
<title>Node1&#45;&gt;Node21</title>
<path fill="none" stroke="midnightblue" d="M1395.58,-115.29C1340.28,-107.38 1237.66,-92.38 1140.12,-76.15"/>
<polygon fill="midnightblue" stroke="midnightblue" points="1140.53,-72.67 1130.09,-74.47 1139.38,-79.57 1140.53,-72.67"/>
</g>
<!-- Node22 -->
<g id="node22" class="node">
<title>Node22</title>
<g id="a_node22"><a xlink:title=" ">
<polygon fill="white" stroke="#bfbfbf" points="1148,-56.5 1148,-75.5 1212,-75.5 1212,-56.5 1148,-56.5"/>
<text text-anchor="middle" x="1180" y="-63.5" font-family="Helvetica,sans-Serif" font-size="10.00">sys/stat.h</text>
</a>
</g>
</g>
<!-- Node1&#45;&gt;Node22 -->
<g id="edge27" class="edge">
<title>Node1&#45;&gt;Node22</title>
<path fill="none" stroke="midnightblue" d="M1395.76,-112.59C1352.74,-103.58 1282.53,-88.85 1222,-76 1221.9,-75.98 1221.8,-75.96 1221.7,-75.94"/>
<polygon fill="midnightblue" stroke="midnightblue" points="1222.61,-72.55 1212.1,-73.89 1221.15,-79.4 1222.61,-72.55"/>
</g>
<!-- Node23 -->
<g id="node23" class="node">
<title>Node23</title>
<g id="a_node23"><a xlink:title=" ">
<polygon fill="white" stroke="#bfbfbf" points="1230.5,-56.5 1230.5,-75.5 1277.5,-75.5 1277.5,-56.5 1230.5,-56.5"/>
<text text-anchor="middle" x="1254" y="-63.5" font-family="Helvetica,sans-Serif" font-size="10.00">fcntl.h</text>
</a>
</g>
</g>
<!-- Node1&#45;&gt;Node23 -->
<g id="edge28" class="edge">
<title>Node1&#45;&gt;Node23</title>
<path fill="none" stroke="midnightblue" d="M1407.16,-112.44C1374.73,-102.82 1322.13,-87.21 1287.8,-77.03"/>
<polygon fill="midnightblue" stroke="midnightblue" points="1288.36,-73.54 1277.77,-74.05 1286.36,-80.25 1288.36,-73.54"/>
</g>
<!-- Node24 -->
<g id="node24" class="node">
<title>Node24</title>
<g id="a_node24"><a xlink:title=" ">
<polygon fill="white" stroke="#bfbfbf" points="1296,-56.5 1296,-75.5 1356,-75.5 1356,-56.5 1296,-56.5"/>
<text text-anchor="middle" x="1326" y="-63.5" font-family="Helvetica,sans-Serif" font-size="10.00">iostream</text>
</a>
</g>
</g>
<!-- Node1&#45;&gt;Node24 -->
<g id="edge29" class="edge">
<title>Node1&#45;&gt;Node24</title>
<path fill="none" stroke="midnightblue" d="M1418.33,-112.32C1400.61,-103.62 1373.1,-90.12 1352.71,-80.11"/>
<polygon fill="midnightblue" stroke="midnightblue" points="1354.15,-76.92 1343.63,-75.65 1351.06,-83.2 1354.15,-76.92"/>
</g>
<!-- Node25 -->
<g id="node25" class="node">
<title>Node25</title>
<g id="a_node25"><a xlink:title=" ">
<polygon fill="white" stroke="#bfbfbf" points="1374,-56.5 1374,-75.5 1430,-75.5 1430,-56.5 1374,-56.5"/>
<text text-anchor="middle" x="1402" y="-63.5" font-family="Helvetica,sans-Serif" font-size="10.00">libgen.h</text>
</a>
</g>
</g>
<!-- Node1&#45;&gt;Node25 -->
<g id="edge30" class="edge">
<title>Node1&#45;&gt;Node25</title>
<path fill="none" stroke="midnightblue" d="M1430.39,-112.08C1425.63,-104.53 1418.68,-93.49 1412.85,-84.23"/>
<polygon fill="midnightblue" stroke="midnightblue" points="1415.8,-82.35 1407.51,-75.75 1409.88,-86.08 1415.8,-82.35"/>
</g>
<!-- Node26 -->
<g id="node26" class="node">
<title>Node26</title>
<g id="a_node26"><a xlink:title=" ">
<polygon fill="white" stroke="#bfbfbf" points="1448,-56.5 1448,-75.5 1494,-75.5 1494,-56.5 1448,-56.5"/>
<text text-anchor="middle" x="1471" y="-63.5" font-family="Helvetica,sans-Serif" font-size="10.00">locale</text>
</a>
</g>
</g>
<!-- Node1&#45;&gt;Node26 -->
<g id="edge31" class="edge">
<title>Node1&#45;&gt;Node26</title>
<path fill="none" stroke="midnightblue" d="M1441.78,-112.08C1446.67,-104.53 1453.83,-93.49 1459.83,-84.23"/>
<polygon fill="midnightblue" stroke="midnightblue" points="1462.83,-86.05 1465.33,-75.75 1456.95,-82.24 1462.83,-86.05"/>
</g>
<!-- Node27 -->
<g id="node27" class="node">
<title>Node27</title>
<g id="a_node27"><a xlink:title=" ">
<polygon fill="white" stroke="#bfbfbf" points="1512,-56.5 1512,-75.5 1568,-75.5 1568,-56.5 1512,-56.5"/>
<text text-anchor="middle" x="1540" y="-63.5" font-family="Helvetica,sans-Serif" font-size="10.00">unistd.h</text>
</a>
</g>
</g>
<!-- Node1&#45;&gt;Node27 -->
<g id="edge32" class="edge">
<title>Node1&#45;&gt;Node27</title>
<path fill="none" stroke="midnightblue" d="M1452.71,-112.32C1469.31,-103.7 1495,-90.36 1514.22,-80.39"/>
<polygon fill="midnightblue" stroke="midnightblue" points="1516.07,-83.37 1523.33,-75.65 1512.84,-77.16 1516.07,-83.37"/>
</g>
<!-- Node28 -->
<g id="node28" class="node">
<title>Node28</title>
<g id="a_node28"><a xlink:title=" ">
<polygon fill="white" stroke="#bfbfbf" points="1586.5,-56.5 1586.5,-75.5 1665.5,-75.5 1665.5,-56.5 1586.5,-56.5"/>
<text text-anchor="middle" x="1626" y="-63.5" font-family="Helvetica,sans-Serif" font-size="10.00">sys/syscall.h</text>
</a>
</g>
</g>
<!-- Node1&#45;&gt;Node28 -->
<g id="edge33" class="edge">
<title>Node1&#45;&gt;Node28</title>
<path fill="none" stroke="midnightblue" d="M1466.11,-112.44C1498.63,-103.2 1550.58,-88.44 1586.39,-78.26"/>
<polygon fill="midnightblue" stroke="midnightblue" points="1587.37,-81.62 1596.03,-75.52 1585.46,-74.88 1587.37,-81.62"/>
</g>
<!-- Node29 -->
<g id="node29" class="node">
<title>Node29</title>
<g id="a_node29"><a xlink:title=" ">
<polygon fill="white" stroke="#bfbfbf" points="1683,-56.5 1683,-75.5 1739,-75.5 1739,-56.5 1683,-56.5"/>
<text text-anchor="middle" x="1711" y="-63.5" font-family="Helvetica,sans-Serif" font-size="10.00">assert.h</text>
</a>
</g>
</g>
<!-- Node1&#45;&gt;Node29 -->
<g id="edge34" class="edge">
<title>Node1&#45;&gt;Node29</title>
<path fill="none" stroke="midnightblue" d="M1476.32,-114.16C1521.9,-106.25 1598.56,-92.47 1672.76,-76.41"/>
<polygon fill="midnightblue" stroke="midnightblue" points="1673.71,-79.78 1682.74,-74.23 1672.22,-72.94 1673.71,-79.78"/>
</g>
<!-- Node30 -->
<g id="node30" class="node">
<title>Node30</title>
<g id="a_node30"><a xlink:title=" ">
<polygon fill="white" stroke="#bfbfbf" points="1757.5,-56.5 1757.5,-75.5 1822.5,-75.5 1822.5,-56.5 1757.5,-56.5"/>
<text text-anchor="middle" x="1790" y="-63.5" font-family="Helvetica,sans-Serif" font-size="10.00">exception</text>
</a>
</g>
</g>
<!-- Node1&#45;&gt;Node30 -->
<g id="edge36" class="edge">
<title>Node1&#45;&gt;Node30</title>
<path fill="none" stroke="midnightblue" d="M1476.03,-116.11C1533.68,-108.87 1643.62,-94.35 1747.46,-75.99"/>
<polygon fill="midnightblue" stroke="midnightblue" points="1748.25,-79.4 1757.48,-74.2 1747.02,-72.51 1748.25,-79.4"/>
</g>
<!-- Node31 -->
<g id="node31" class="node">
<title>Node31</title>
<g id="a_node31"><a xlink:title=" ">
<polygon fill="white" stroke="#bfbfbf" points="1841,-56.5 1841,-75.5 1909,-75.5 1909,-56.5 1841,-56.5"/>
<text text-anchor="middle" x="1875" y="-63.5" font-family="Helvetica,sans-Serif" font-size="10.00">sys/time.h</text>
</a>
</g>
</g>
<!-- Node1&#45;&gt;Node31 -->
<g id="edge37" class="edge">
<title>Node1&#45;&gt;Node31</title>
<path fill="none" stroke="midnightblue" d="M1476.08,-117.69C1546.01,-111.64 1695.04,-97.57 1830.63,-76.09"/>
<polygon fill="midnightblue" stroke="midnightblue" points="1831.47,-79.5 1840.79,-74.46 1830.36,-72.59 1831.47,-79.5"/>
</g>
<!-- Node32 -->
<g id="node32" class="node">
<title>Node32</title>
<g id="a_node32"><a xlink:title=" ">
<polygon fill="white" stroke="#bfbfbf" points="1927.5,-56.5 1927.5,-75.5 1982.5,-75.5 1982.5,-56.5 1927.5,-56.5"/>
<text text-anchor="middle" x="1955" y="-63.5" font-family="Helvetica,sans-Serif" font-size="10.00">signal.h</text>
</a>
</g>
</g>
<!-- Node1&#45;&gt;Node32 -->
<g id="edge38" class="edge">
<title>Node1&#45;&gt;Node32</title>
<path fill="none" stroke="midnightblue" d="M1476.25,-119.22C1557.68,-115.21 1747.91,-103.66 1917.12,-75.9"/>
<polygon fill="midnightblue" stroke="midnightblue" points="1917.92,-79.31 1927.21,-74.22 1916.77,-72.41 1917.92,-79.31"/>
</g>
<!-- Node33 -->
<g id="node33" class="node">
<title>Node33</title>
<g id="a_node33"><a xlink:title=" ">
<polygon fill="white" stroke="#bfbfbf" points="2000.5,-56.5 2000.5,-75.5 2053.5,-75.5 2053.5,-56.5 2000.5,-56.5"/>
<text text-anchor="middle" x="2027" y="-63.5" font-family="Helvetica,sans-Serif" font-size="10.00">string.h</text>
</a>
</g>
</g>
<!-- Node1&#45;&gt;Node33 -->
<g id="edge39" class="edge">
<title>Node1&#45;&gt;Node33</title>
<path fill="none" stroke="midnightblue" d="M1476.07,-120.1C1566.39,-117.58 1792.82,-108.44 1990.37,-76.02"/>
<polygon fill="midnightblue" stroke="midnightblue" points="1991.06,-79.45 2000.35,-74.35 1989.91,-72.54 1991.06,-79.45"/>
</g>
<!-- Node34 -->
<g id="node34" class="node">
<title>Node34</title>
<g id="a_node34"><a xlink:title=" ">
<polygon fill="white" stroke="#bfbfbf" points="2071.5,-56.5 2071.5,-75.5 2122.5,-75.5 2122.5,-56.5 2071.5,-56.5"/>
<text text-anchor="middle" x="2097" y="-63.5" font-family="Helvetica,sans-Serif" font-size="10.00">errno.h</text>
</a>
</g>
</g>
<!-- Node1&#45;&gt;Node34 -->
<g id="edge40" class="edge">
<title>Node1&#45;&gt;Node34</title>
<path fill="none" stroke="midnightblue" d="M1476.29,-120.71C1574.83,-119.45 1835.87,-112.77 2061.46,-75.96"/>
<polygon fill="midnightblue" stroke="midnightblue" points="2062.2,-79.39 2071.49,-74.3 2061.05,-72.48 2062.2,-79.39"/>
</g>
<!-- Node35 -->
<g id="node35" class="node">
<title>Node35</title>
<g id="a_node35"><a xlink:title=" ">
<polygon fill="white" stroke="#bfbfbf" points="2140.5,-56.5 2140.5,-75.5 2199.5,-75.5 2199.5,-56.5 2140.5,-56.5"/>
<text text-anchor="middle" x="2170" y="-63.5" font-family="Helvetica,sans-Serif" font-size="10.00">setjmp.h</text>
</a>
</g>
</g>
<!-- Node1&#45;&gt;Node35 -->
<g id="edge41" class="edge">
<title>Node1&#45;&gt;Node35</title>
<path fill="none" stroke="midnightblue" d="M1476.27,-120.75C1582.09,-119.61 1876.8,-113.18 2130.09,-76.06"/>
<polygon fill="midnightblue" stroke="midnightblue" points="2130.84,-79.48 2140.22,-74.55 2129.82,-72.56 2130.84,-79.48"/>
</g>
<!-- Node36 -->
<g id="node36" class="node">
<title>Node36</title>
<g id="a_node36"><a xlink:title=" ">
<polygon fill="white" stroke="#bfbfbf" points="2218,-56.5 2218,-75.5 2274,-75.5 2274,-56.5 2218,-56.5"/>
<text text-anchor="middle" x="2246" y="-63.5" font-family="Helvetica,sans-Serif" font-size="10.00">sstream</text>
</a>
</g>
</g>
<!-- Node1&#45;&gt;Node36 -->
<g id="edge42" class="edge">
<title>Node1&#45;&gt;Node36</title>
<path fill="none" stroke="midnightblue" d="M1476.09,-121.21C1589.59,-121.25 1922.86,-117.67 2207.71,-75.91"/>
<polygon fill="midnightblue" stroke="midnightblue" points="2208.44,-79.34 2217.82,-74.41 2207.42,-72.42 2208.44,-79.34"/>
</g>
<!-- Node37 -->
<g id="node37" class="node">
<title>Node37</title>
<g id="a_node37"><a xlink:title=" ">
<polygon fill="white" stroke="#bfbfbf" points="2292.5,-56.5 2292.5,-75.5 2345.5,-75.5 2345.5,-56.5 2292.5,-56.5"/>
<text text-anchor="middle" x="2319" y="-63.5" font-family="Helvetica,sans-Serif" font-size="10.00">limits.h</text>
</a>
</g>
</g>
<!-- Node1&#45;&gt;Node37 -->
<g id="edge43" class="edge">
<title>Node1&#45;&gt;Node37</title>
<path fill="none" stroke="midnightblue" d="M1476.4,-121.59C1597.37,-122.78 1967.31,-122.2 2282.14,-75.79"/>
<polygon fill="midnightblue" stroke="midnightblue" points="2283.01,-79.2 2292.38,-74.26 2281.97,-72.28 2283.01,-79.2"/>
</g>
<!-- Node38 -->
<g id="node38" class="node">
<title>Node38</title>
<g id="a_node38"><a xlink:title=" ">
<polygon fill="white" stroke="#bfbfbf" points="2364,-56.5 2364,-75.5 2418,-75.5 2418,-56.5 2364,-56.5"/>
<text text-anchor="middle" x="2391" y="-63.5" font-family="Helvetica,sans-Serif" font-size="10.00">dirent.h</text>
</a>
</g>
</g>
<!-- Node1&#45;&gt;Node38 -->
<g id="edge44" class="edge">
<title>Node1&#45;&gt;Node38</title>
<path fill="none" stroke="midnightblue" d="M1476.14,-120.08C1627.22,-116.47 2162.3,-102.18 2354.03,-75.79"/>
<polygon fill="midnightblue" stroke="midnightblue" points="2354.59,-79.24 2363.99,-74.36 2353.59,-72.31 2354.59,-79.24"/>
</g>
<!-- Node39 -->
<g id="node39" class="node">
<title>Node39</title>
<g id="a_node39"><a xlink:title=" ">
<polygon fill="white" stroke="#bfbfbf" points="2436.5,-56.5 2436.5,-75.5 2497.5,-75.5 2497.5,-56.5 2436.5,-56.5"/>
<text text-anchor="middle" x="2467" y="-63.5" font-family="Helvetica,sans-Serif" font-size="10.00">unwind.h</text>
</a>
</g>
</g>
<!-- Node1&#45;&gt;Node39 -->
<g id="edge45" class="edge">
<title>Node1&#45;&gt;Node39</title>
<path fill="none" stroke="midnightblue" d="M1476.2,-120.12C1634.88,-116.5 2218.65,-101.79 2425.92,-75.84"/>
<polygon fill="midnightblue" stroke="midnightblue" points="2426.62,-79.28 2436.09,-74.52 2425.72,-72.34 2426.62,-79.28"/>
</g>
<!-- Node40 -->
<g id="node40" class="node">
<title>Node40</title>
<g id="a_node40"><a xlink:title=" ">
<polygon fill="white" stroke="#bfbfbf" points="2515.5,-56.5 2515.5,-75.5 2602.5,-75.5 2602.5,-56.5 2515.5,-56.5"/>
<text text-anchor="middle" x="2559" y="-63.5" font-family="Helvetica,sans-Serif" font-size="10.00">sys/resource.h</text>
</a>
</g>
</g>
<!-- Node1&#45;&gt;Node40 -->
<g id="edge46" class="edge">
<title>Node1&#45;&gt;Node40</title>
<path fill="none" stroke="midnightblue" d="M1476.01,-121.18C1616.2,-121.42 2098.29,-118.94 2505.16,-76.06"/>
<polygon fill="midnightblue" stroke="midnightblue" points="2505.79,-79.51 2515.36,-74.97 2505.05,-72.55 2505.79,-79.51"/>
</g>
<!-- Node41 -->
<g id="node41" class="node">
<title>Node41</title>
<g id="a_node41"><a xlink:title=" ">
<polygon fill="white" stroke="#bfbfbf" points="2621,-56.5 2621,-75.5 2671,-75.5 2671,-56.5 2621,-56.5"/>
<text text-anchor="middle" x="2646" y="-63.5" font-family="Helvetica,sans-Serif" font-size="10.00">libelf.h</text>
</a>
</g>
</g>
<!-- Node1&#45;&gt;Node41 -->
<g id="edge47" class="edge">
<title>Node1&#45;&gt;Node41</title>
<path fill="none" stroke="midnightblue" d="M1476.22,-120.65C1653.41,-118.93 2365.95,-110.09 2610.96,-75.75"/>
<polygon fill="midnightblue" stroke="midnightblue" points="2611.49,-79.21 2620.88,-74.31 2610.48,-72.29 2611.49,-79.21"/>
</g>
<!-- Node42 -->
<g id="node42" class="node">
<title>Node42</title>
<g id="a_node42"><a xlink:title=" ">
<polygon fill="white" stroke="#bfbfbf" points="2689,-56.5 2689,-75.5 2733,-75.5 2733,-56.5 2689,-56.5"/>
<text text-anchor="middle" x="2711" y="-63.5" font-family="Helvetica,sans-Serif" font-size="10.00">gelf.h</text>
</a>
</g>
</g>
<!-- Node1&#45;&gt;Node42 -->
<g id="edge48" class="edge">
<title>Node1&#45;&gt;Node42</title>
<path fill="none" stroke="midnightblue" d="M1476.06,-120.88C1659.32,-120.11 2419.67,-114.7 2678.69,-75.74"/>
<polygon fill="midnightblue" stroke="midnightblue" points="2679.46,-79.16 2688.8,-74.16 2678.38,-72.24 2679.46,-79.16"/>
</g>
<!-- Node43 -->
<g id="node43" class="node">
<title>Node43</title>
<g id="a_node43"><a xlink:href="splay-macros_8h.html" target="_top" xlink:title=" ">
<polygon fill="white" stroke="black" points="2751,-56.5 2751,-75.5 2843,-75.5 2843,-56.5 2751,-56.5"/>
<text text-anchor="middle" x="2797" y="-63.5" font-family="Helvetica,sans-Serif" font-size="10.00">splay&#45;macros.h</text>
</a>
</g>
</g>
<!-- Node1&#45;&gt;Node43 -->
<g id="edge49" class="edge">
<title>Node1&#45;&gt;Node43</title>
<path fill="none" stroke="midnightblue" d="M1476.04,-120.31C1664.67,-116.96 2466.57,-101.52 2740.54,-75.98"/>
<polygon fill="midnightblue" stroke="midnightblue" points="2741.22,-79.43 2750.84,-74.99 2740.55,-72.46 2741.22,-79.43"/>
</g>
<!-- Node44 -->
<g id="node44" class="node">
<title>Node44</title>
<g id="a_node44"><a xlink:title=" ">
<polygon fill="white" stroke="#bfbfbf" points="2861,-56.5 2861,-75.5 3001,-75.5 3001,-56.5 2861,-56.5"/>
<text text-anchor="middle" x="2931" y="-63.5" font-family="Helvetica,sans-Serif" font-size="10.00">google/sparse_hash_map</text>
</a>
</g>
</g>
<!-- Node1&#45;&gt;Node44 -->
<g id="edge51" class="edge">
<title>Node1&#45;&gt;Node44</title>
<path fill="none" stroke="midnightblue" d="M1476.04,-120.92C1642.96,-120.35 2299.94,-115.62 2850.68,-76.03"/>
<polygon fill="midnightblue" stroke="midnightblue" points="2851.1,-79.51 2860.82,-75.3 2850.59,-72.53 2851.1,-79.51"/>
</g>
<!-- Node45 -->
<g id="node45" class="node">
<title>Node45</title>
<g id="a_node45"><a xlink:title=" ">
<polygon fill="white" stroke="#bfbfbf" points="3019.5,-56.5 3019.5,-75.5 3156.5,-75.5 3156.5,-56.5 3019.5,-56.5"/>
<text text-anchor="middle" x="3088" y="-63.5" font-family="Helvetica,sans-Serif" font-size="10.00">google/dense_hash_map</text>
</a>
</g>
</g>
<!-- Node1&#45;&gt;Node45 -->
<g id="edge52" class="edge">
<title>Node1&#45;&gt;Node45</title>
<path fill="none" stroke="midnightblue" d="M1476.2,-121.13C1654.58,-121.42 2392.59,-119.81 3009.15,-75.99"/>
<polygon fill="midnightblue" stroke="midnightblue" points="3009.4,-79.48 3019.13,-75.27 3008.9,-72.5 3009.4,-79.48"/>
</g>
<!-- Node46 -->
<g id="node46" class="node">
<title>Node46</title>
<g id="a_node46"><a xlink:title=" ">
<polygon fill="white" stroke="#bfbfbf" points="3175,-56.5 3175,-75.5 3265,-75.5 3265,-56.5 3175,-56.5"/>
<text text-anchor="middle" x="3220" y="-63.5" font-family="Helvetica,sans-Serif" font-size="10.00">xed&#45;interface.h</text>
</a>
</g>
</g>
<!-- Node1&#45;&gt;Node46 -->
<g id="edge53" class="edge">
<title>Node1&#45;&gt;Node46</title>
<path fill="none" stroke="midnightblue" d="M1476,-120.72C1700.04,-119.02 2801.72,-109.12 3164.97,-75.92"/>
<polygon fill="midnightblue" stroke="midnightblue" points="3165.35,-79.4 3174.98,-74.98 3164.7,-72.43 3165.35,-79.4"/>
</g>
<!-- Node3&#45;&gt;Node4 -->
<g id="edge3" class="edge">
<title>Node3&#45;&gt;Node4</title>
<path fill="none" stroke="midnightblue" d="M147.23,-56.44C121.37,-47.13 79.93,-32.22 51.64,-22.03"/>
<polygon fill="midnightblue" stroke="midnightblue" points="52.83,-18.74 42.23,-18.64 50.45,-25.32 52.83,-18.74"/>
</g>
<!-- Node3&#45;&gt;Node5 -->
<g id="edge4" class="edge">
<title>Node3&#45;&gt;Node5</title>
<path fill="none" stroke="midnightblue" d="M188.83,-56.32C206.72,-47.62 234.48,-34.12 255.05,-24.11"/>
<polygon fill="midnightblue" stroke="midnightblue" points="256.75,-27.18 264.21,-19.65 253.69,-20.88 256.75,-27.18"/>
</g>
<!-- Node3&#45;&gt;Node6 -->
<g id="edge5" class="edge">
<title>Node3&#45;&gt;Node6</title>
<path fill="none" stroke="midnightblue" d="M157.18,-56.32C143.77,-47.9 123.18,-34.97 107.41,-25.07"/>
<polygon fill="midnightblue" stroke="midnightblue" points="109.11,-22.01 98.78,-19.65 105.39,-27.94 109.11,-22.01"/>
</g>
<!-- Node7 -->
<g id="node7" class="node">
<title>Node7</title>
<g id="a_node7"><a xlink:title=" ">
<polygon fill="white" stroke="#bfbfbf" points="128,-0.5 128,-19.5 172,-19.5 172,-0.5 128,-0.5"/>
<text text-anchor="middle" x="150" y="-7.5" font-family="Helvetica,sans-Serif" font-size="10.00">string</text>
</a>
</g>
</g>
<!-- Node3&#45;&gt;Node7 -->
<g id="edge6" class="edge">
<title>Node3&#45;&gt;Node7</title>
<path fill="none" stroke="midnightblue" d="M167.53,-56.08C164.69,-48.77 160.57,-38.18 157.04,-29.1"/>
<polygon fill="midnightblue" stroke="midnightblue" points="160.29,-27.8 153.4,-19.75 153.77,-30.34 160.29,-27.8"/>
</g>
<!-- Node3&#45;&gt;Node8 -->
<g id="edge7" class="edge">
<title>Node3&#45;&gt;Node8</title>
<path fill="none" stroke="midnightblue" d="M178.1,-56.08C184.24,-48.38 193.27,-37.03 200.74,-27.65"/>
<polygon fill="midnightblue" stroke="midnightblue" points="203.54,-29.75 207.03,-19.75 198.06,-25.39 203.54,-29.75"/>
</g>
<!-- Node9&#45;&gt;Node5 -->
<g id="edge9" class="edge">
<title>Node9&#45;&gt;Node5</title>
<path fill="none" stroke="midnightblue" d="M336.56,-56.32C326.85,-48.26 312.18,-36.08 300.5,-26.37"/>
<polygon fill="midnightblue" stroke="midnightblue" points="302.56,-23.53 292.63,-19.83 298.09,-28.92 302.56,-23.53"/>
</g>
<!-- Node10 -->
<g id="node10" class="node">
<title>Node10</title>
<g id="a_node10"><a xlink:title=" ">
<polygon fill="white" stroke="#bfbfbf" points="386,-0.5 386,-19.5 436,-19.5 436,-0.5 386,-0.5"/>
<text text-anchor="middle" x="411" y="-7.5" font-family="Helvetica,sans-Serif" font-size="10.00">atomic</text>
</a>
</g>
</g>
<!-- Node9&#45;&gt;Node10 -->
<g id="edge10" class="edge">
<title>Node9&#45;&gt;Node10</title>
<path fill="none" stroke="midnightblue" d="M357.28,-56.32C366.84,-48.26 381.28,-36.08 392.78,-26.37"/>
<polygon fill="midnightblue" stroke="midnightblue" points="395.14,-28.96 400.53,-19.83 390.63,-23.61 395.14,-28.96"/>
</g>
<!-- Node9&#45;&gt;Node11 -->
<g id="edge11" class="edge">
<title>Node9&#45;&gt;Node11</title>
<path fill="none" stroke="midnightblue" d="M384.98,-56.47C422.07,-48.08 480.37,-34.72 539.4,-20.35"/>
<polygon fill="midnightblue" stroke="midnightblue" points="540.38,-23.72 549.26,-17.94 538.72,-16.92 540.38,-23.72"/>
</g>
<!-- Node9&#45;&gt;Node12 -->
<g id="edge12" class="edge">
<title>Node9&#45;&gt;Node12</title>
<path fill="none" stroke="midnightblue" d="M370.13,-56.44C394.48,-47.44 433.01,-33.19 460.42,-23.05"/>
<polygon fill="midnightblue" stroke="midnightblue" points="461.81,-26.27 469.97,-19.52 459.38,-19.7 461.81,-26.27"/>
</g>
<!-- Node13 -->
<g id="node13" class="node">
<title>Node13</title>
<g id="a_node13"><a xlink:title=" ">
<polygon fill="white" stroke="#bfbfbf" points="326.5,-0.5 326.5,-19.5 367.5,-19.5 367.5,-0.5 326.5,-0.5"/>
<text text-anchor="middle" x="347" y="-7.5" font-family="Helvetica,sans-Serif" font-size="10.00">tuple</text>
</a>
</g>
</g>
<!-- Node9&#45;&gt;Node13 -->
<g id="edge13" class="edge">
<title>Node9&#45;&gt;Node13</title>
<path fill="none" stroke="midnightblue" d="M347,-56.08C347,-49.01 347,-38.86 347,-29.99"/>
<polygon fill="midnightblue" stroke="midnightblue" points="350.5,-29.75 347,-19.75 343.5,-29.75 350.5,-29.75"/>
</g>
<!-- Node43&#45;&gt;Node11 -->
<g id="edge50" class="edge">
<title>Node43&#45;&gt;Node11</title>
<path fill="none" stroke="midnightblue" d="M2750.85,-56.96C2747.86,-56.59 2744.89,-56.27 2742,-56 2304.66,-15.88 862.79,-11.51 613.03,-11.05"/>
<polygon fill="midnightblue" stroke="midnightblue" points="612.69,-7.55 602.69,-11.03 612.68,-14.55 612.69,-7.55"/>
</g>
</g>
</svg>
