<?xml version="1.0" encoding="UTF-8" standalone="no"?>
<!DOCTYPE svg PUBLIC "-//W3C//DTD SVG 1.1//EN"
 "http://www.w3.org/Graphics/SVG/1.1/DTD/svg11.dtd">
<!-- Generated by graphviz version 2.43.0 (0)
 -->
<!-- Title: anonymous_namespace{exception_integration_test.cpp}::ExceptionRun Pages: 1 -->
<svg width="242pt" height="207pt"
 viewBox="0.00 0.00 241.50 207.00" xmlns="http://www.w3.org/2000/svg" xmlns:xlink="http://www.w3.org/1999/xlink">
<g id="graph0" class="graph" transform="scale(1 1) rotate(0) translate(4 203)">
<title>anonymous_namespace{exception_integration_test.cpp}::ExceptionRun</title>
<polygon fill="white" stroke="transparent" points="-4,4 -4,-203 237.5,-203 237.5,4 -4,4"/>
<!-- Node1 -->
<g id="node1" class="node">
<title>Node1</title>
<g id="a_node1"><a xlink:title=" ">
<polygon fill="#bfbfbf" stroke="black" points="32.5,-0.5 32.5,-41.5 172.5,-41.5 172.5,-0.5 32.5,-0.5"/>
<text text-anchor="start" x="40.5" y="-29.5" font-family="Helvetica,sans-Serif" font-size="10.00">anonymous_namespace</text>
<text text-anchor="start" x="40.5" y="-18.5" font-family="Helvetica,sans-Serif" font-size="10.00">{exception_integration</text>
<text text-anchor="middle" x="102.5" y="-7.5" font-family="Helvetica,sans-Serif" font-size="10.00">_test.cpp}::ExceptionRun</text>
</a>
</g>
</g>
<!-- Node2 -->
<g id="node2" class="node">
<title>Node2</title>
<g id="a_node2"><a xlink:title=" ">
<polygon fill="white" stroke="#bfbfbf" points="0,-89.5 0,-130.5 131,-130.5 131,-89.5 0,-89.5"/>
<text text-anchor="start" x="8" y="-118.5" font-family="Helvetica,sans-Serif" font-size="10.00">testing::TestWithParam</text>
<text text-anchor="start" x="8" y="-107.5" font-family="Helvetica,sans-Serif" font-size="10.00">&lt; std::tuple&lt; ToolSpec,</text>
<text text-anchor="middle" x="65.5" y="-96.5" font-family="Helvetica,sans-Serif" font-size="10.00"> VictimSpec &gt; &gt;</text>
</a>
</g>
</g>
<!-- Node2&#45;&gt;Node1 -->
<g id="edge1" class="edge">
<title>Node2&#45;&gt;Node1</title>
<path fill="none" stroke="midnightblue" d="M77.97,-79.69C83.29,-67.17 89.37,-52.88 94.14,-41.66"/>
<polygon fill="midnightblue" stroke="midnightblue" points="74.59,-78.69 73.9,-89.26 81.03,-81.43 74.59,-78.69"/>
</g>
<!-- Node3 -->
<g id="node3" class="node">
<title>Node3</title>
<g id="a_node3"><a xlink:title=" ">
<polygon fill="white" stroke="#bfbfbf" points="149,-100.5 149,-119.5 214,-119.5 214,-100.5 149,-100.5"/>
<text text-anchor="middle" x="181.5" y="-107.5" font-family="Helvetica,sans-Serif" font-size="10.00">std::string</text>
</a>
</g>
</g>
<!-- Node3&#45;&gt;Node1 -->
<g id="edge2" class="edge">
<title>Node3&#45;&gt;Node1</title>
<path fill="none" stroke="#9a32cd" stroke-dasharray="5,2" d="M166.69,-92.69C153.56,-78.23 134.35,-57.08 120.37,-41.68"/>
<polygon fill="#9a32cd" stroke="#9a32cd" points="164.32,-95.29 173.64,-100.34 169.5,-90.58 164.32,-95.29"/>
<text text-anchor="middle" x="160.5" y="-63" font-family="Helvetica,sans-Serif" font-size="10.00"> root_</text>
</g>
<!-- Node4 -->
<g id="node4" class="node">
<title>Node4</title>
<g id="a_node4"><a xlink:title=" ">
<polygon fill="white" stroke="#bfbfbf" points="129.5,-168.5 129.5,-198.5 233.5,-198.5 233.5,-168.5 129.5,-168.5"/>
<text text-anchor="start" x="137.5" y="-186.5" font-family="Helvetica,sans-Serif" font-size="10.00">std::basic_string&lt;</text>
<text text-anchor="middle" x="181.5" y="-175.5" font-family="Helvetica,sans-Serif" font-size="10.00"> Char &gt;</text>
</a>
</g>
</g>
<!-- Node4&#45;&gt;Node3 -->
<g id="edge3" class="edge">
<title>Node4&#45;&gt;Node3</title>
<path fill="none" stroke="midnightblue" d="M181.5,-158.36C181.5,-145.01 181.5,-129.25 181.5,-119.7"/>
<polygon fill="midnightblue" stroke="midnightblue" points="178,-158.37 181.5,-168.37 185,-158.37 178,-158.37"/>
</g>
</g>
</svg>
