<?xml version="1.0" encoding="UTF-8" standalone="no"?>
<!DOCTYPE svg PUBLIC "-//W3C//DTD SVG 1.1//EN"
 "http://www.w3.org/Graphics/SVG/1.1/DTD/svg11.dtd">
<!-- Generated by graphviz version 2.43.0 (0)
 -->
<!-- Title: anonymous_namespace{exception_shape_test.cpp}::ExceptionShape Pages: 1 -->
<svg width="240pt" height="196pt"
 viewBox="0.00 0.00 239.50 196.00" xmlns="http://www.w3.org/2000/svg" xmlns:xlink="http://www.w3.org/1999/xlink">
<g id="graph0" class="graph" transform="scale(1 1) rotate(0) translate(4 192)">
<title>anonymous_namespace{exception_shape_test.cpp}::ExceptionShape</title>
<polygon fill="white" stroke="transparent" points="-4,4 -4,-192 235.5,-192 235.5,4 -4,4"/>
<!-- Node1 -->
<g id="node1" class="node">
<title>Node1</title>
<g id="a_node1"><a xlink:title=" ">
<polygon fill="#bfbfbf" stroke="black" points="24,-0.5 24,-41.5 179,-41.5 179,-0.5 24,-0.5"/>
<text text-anchor="start" x="32" y="-29.5" font-family="Helvetica,sans-Serif" font-size="10.00">anonymous_namespace</text>
<text text-anchor="start" x="32" y="-18.5" font-family="Helvetica,sans-Serif" font-size="10.00">{exception_shape_test.cpp}</text>
<text text-anchor="middle" x="101.5" y="-7.5" font-family="Helvetica,sans-Serif" font-size="10.00">::ExceptionShape</text>
</a>
</g>
</g>
<!-- Node2 -->
<g id="node2" class="node">
<title>Node2</title>
<g id="a_node2"><a xlink:title=" ">
<polygon fill="white" stroke="#bfbfbf" points="0,-89.5 0,-119.5 129,-119.5 129,-89.5 0,-89.5"/>
<text text-anchor="start" x="8" y="-107.5" font-family="Helvetica,sans-Serif" font-size="10.00">testing::TestWithParam</text>
<text text-anchor="middle" x="64.5" y="-96.5" font-family="Helvetica,sans-Serif" font-size="10.00">&lt; VictimSpec &gt;</text>
</a>
</g>
</g>
<!-- Node2&#45;&gt;Node1 -->
<g id="edge1" class="edge">
<title>Node2&#45;&gt;Node1</title>
<path fill="none" stroke="midnightblue" d="M75.1,-80.16C80.64,-67.94 87.36,-53.14 92.63,-41.53"/>
<polygon fill="midnightblue" stroke="midnightblue" points="71.89,-78.75 70.94,-89.3 78.27,-81.65 71.89,-78.75"/>
</g>
<!-- Node3 -->
<g id="node3" class="node">
<title>Node3</title>
<g id="a_node3"><a xlink:title=" ">
<polygon fill="white" stroke="#bfbfbf" points="147,-95 147,-114 212,-114 212,-95 147,-95"/>
<text text-anchor="middle" x="179.5" y="-102" font-family="Helvetica,sans-Serif" font-size="10.00">std::string</text>
</a>
</g>
</g>
<!-- Node3&#45;&gt;Node1 -->
<g id="edge2" class="edge">
<title>Node3&#45;&gt;Node1</title>
<path fill="none" stroke="#9a32cd" stroke-dasharray="5,2" d="M164.11,-87.42C151.57,-74.32 133.81,-55.76 120.41,-41.76"/>
<polygon fill="#9a32cd" stroke="#9a32cd" points="161.71,-89.97 171.15,-94.78 166.77,-85.13 161.71,-89.97"/>
<text text-anchor="middle" x="160.5" y="-63" font-family="Helvetica,sans-Serif" font-size="10.00"> root_</text>
</g>
<!-- Node4 -->
<g id="node4" class="node">
<title>Node4</title>
<g id="a_node4"><a xlink:title=" ">
<polygon fill="white" stroke="#bfbfbf" points="127.5,-157.5 127.5,-187.5 231.5,-187.5 231.5,-157.5 127.5,-157.5"/>
<text text-anchor="start" x="135.5" y="-175.5" font-family="Helvetica,sans-Serif" font-size="10.00">std::basic_string&lt;</text>
<text text-anchor="middle" x="179.5" y="-164.5" font-family="Helvetica,sans-Serif" font-size="10.00"> Char &gt;</text>
</a>
</g>
</g>
<!-- Node4&#45;&gt;Node3 -->
<g id="edge3" class="edge">
<title>Node4&#45;&gt;Node3</title>
<path fill="none" stroke="midnightblue" d="M179.5,-146.88C179.5,-135.47 179.5,-122.64 179.5,-114.33"/>
<polygon fill="midnightblue" stroke="midnightblue" points="176,-147.18 179.5,-157.18 183,-147.18 176,-147.18"/>
</g>
</g>
</svg>
