<?xml version="1.0" encoding="UTF-8" standalone="no"?>
<!DOCTYPE svg PUBLIC "-//W3C//DTD SVG 1.1//EN"
 "http://www.w3.org/Graphics/SVG/1.1/DTD/svg11.dtd">
<!-- Generated by graphviz version 2.43.0 (0)
 -->
<!-- Title: ThreadData_t Pages: 1 -->
<svg width="592pt" height="167pt"
 viewBox="0.00 0.00 592.00 167.00" xmlns="http://www.w3.org/2000/svg" xmlns:xlink="http://www.w3.org/1999/xlink">
<g id="graph0" class="graph" transform="scale(1 1) rotate(0) translate(4 163)">
<title>ThreadData_t</title>
<polygon fill="white" stroke="transparent" points="-4,4 -4,-163 588,-163 588,4 -4,4"/>
<!-- Node1 -->
<g id="node1" class="node">
<title>Node1</title>
<g id="a_node1"><a xlink:title=" ">
<polygon fill="#bfbfbf" stroke="black" points="501,-63.5 501,-82.5 584,-82.5 584,-63.5 501,-63.5"/>
<text text-anchor="middle" x="542.5" y="-70.5" font-family="Helvetica,sans-Serif" font-size="10.00">ThreadData_t</text>
</a>
</g>
</g>
<!-- Node2 -->
<g id="node2" class="node">
<title>Node2</title>
<g id="a_node2"><a xlink:title=" ">
<polygon fill="white" stroke="#bfbfbf" points="261,-125 261,-155 380,-155 380,-125 261,-125"/>
<text text-anchor="start" x="269" y="-143" font-family="Helvetica,sans-Serif" font-size="10.00">std::unordered_map</text>
<text text-anchor="middle" x="320.5" y="-132" font-family="Helvetica,sans-Serif" font-size="10.00">&lt; uint64_t, OPMap &gt;</text>
</a>
</g>
</g>
<!-- Node2&#45;&gt;Node1 -->
<g id="edge1" class="edge">
<title>Node2&#45;&gt;Node1</title>
<path fill="none" stroke="#9a32cd" stroke-dasharray="5,2" d="M390.41,-138.46C419.85,-135.84 454.04,-130.09 483,-118 502.63,-109.8 521.4,-93.32 532.17,-82.74"/>
<polygon fill="#9a32cd" stroke="#9a32cd" points="389.9,-134.99 380.21,-139.27 390.45,-141.97 389.9,-134.99"/>
<text text-anchor="middle" x="442" y="-151" font-family="Helvetica,sans-Serif" font-size="10.00"> opcodeMap</text>
<text text-anchor="middle" x="442" y="-140" font-family="Helvetica,sans-Serif" font-size="10.00">opcodeMapIt</text>
</g>
<!-- Node3 -->
<g id="node3" class="node">
<title>Node3</title>
<g id="a_node3"><a xlink:title=" ">
<polygon fill="white" stroke="#bfbfbf" points="258,-58 258,-88 383,-88 383,-58 258,-58"/>
<text text-anchor="start" x="266" y="-76" font-family="Helvetica,sans-Serif" font-size="10.00">std::unordered_map</text>
<text text-anchor="middle" x="320.5" y="-65" font-family="Helvetica,sans-Serif" font-size="10.00">&lt; uint64_t, uint64_t &gt;</text>
</a>
</g>
</g>
<!-- Node3&#45;&gt;Node1 -->
<g id="edge2" class="edge">
<title>Node3&#45;&gt;Node1</title>
<path fill="none" stroke="#9a32cd" stroke-dasharray="5,2" d="M393.43,-73C429.05,-73 470.74,-73 500.79,-73"/>
<polygon fill="#9a32cd" stroke="#9a32cd" points="393.07,-69.5 383.07,-73 393.07,-76.5 393.07,-69.5"/>
<text text-anchor="middle" x="442" y="-109" font-family="Helvetica,sans-Serif" font-size="10.00"> immediateMap</text>
<text text-anchor="middle" x="442" y="-98" font-family="Helvetica,sans-Serif" font-size="10.00">immediateMapIt</text>
<text text-anchor="middle" x="442" y="-87" font-family="Helvetica,sans-Serif" font-size="10.00">redundantMap</text>
<text text-anchor="middle" x="442" y="-76" font-family="Helvetica,sans-Serif" font-size="10.00">redundantMapIt</text>
</g>
<!-- Node4 -->
<g id="node4" class="node">
<title>Node4</title>
<g id="a_node4"><a xlink:href="classLabel.html" target="_top" xlink:title=" ">
<polygon fill="white" stroke="black" points="299,-19.5 299,-38.5 342,-38.5 342,-19.5 299,-19.5"/>
<text text-anchor="middle" x="320.5" y="-26.5" font-family="Helvetica,sans-Serif" font-size="10.00">Label</text>
</a>
</g>
</g>
<!-- Node4&#45;&gt;Node1 -->
<g id="edge3" class="edge">
<title>Node4&#45;&gt;Node1</title>
<path fill="none" stroke="#9a32cd" stroke-dasharray="5,2" d="M352.49,-33.87C385.1,-39.16 437.86,-48.17 483,-58 490.48,-59.63 498.45,-61.55 506.02,-63.46"/>
<polygon fill="#9a32cd" stroke="#9a32cd" points="352.67,-30.36 342.25,-32.23 351.56,-37.27 352.67,-30.36"/>
<text text-anchor="middle" x="442" y="-61" font-family="Helvetica,sans-Serif" font-size="10.00"> m_curLable</text>
</g>
<!-- Node5 -->
<g id="node5" class="node">
<title>Node5</title>
<g id="a_node5"><a xlink:title=" ">
<polygon fill="white" stroke="#bfbfbf" points="0,-38.5 0,-57.5 134,-57.5 134,-38.5 0,-38.5"/>
<text text-anchor="middle" x="67" y="-45.5" font-family="Helvetica,sans-Serif" font-size="10.00">std::atomic&lt; uint64_t &gt;</text>
</a>
</g>
</g>
<!-- Node5&#45;&gt;Node4 -->
<g id="edge4" class="edge">
<title>Node5&#45;&gt;Node4</title>
<path fill="none" stroke="#9a32cd" stroke-dasharray="5,2" d="M144.22,-42.24C197.66,-38.2 265.31,-33.09 298.79,-30.56"/>
<polygon fill="#9a32cd" stroke="#9a32cd" points="143.79,-38.76 134.08,-43.01 144.31,-45.74 143.79,-38.76"/>
<text text-anchor="middle" x="196" y="-45" font-family="Helvetica,sans-Serif" font-size="10.00"> m_refCount</text>
</g>
<!-- Node6 -->
<g id="node6" class="node">
<title>Node6</title>
<g id="a_node6"><a xlink:href="structLabelSegment.html" target="_top" xlink:title=" ">
<polygon fill="white" stroke="black" points="24,-0.5 24,-19.5 110,-19.5 110,-0.5 24,-0.5"/>
<text text-anchor="middle" x="67" y="-7.5" font-family="Helvetica,sans-Serif" font-size="10.00">LabelSegment</text>
</a>
</g>
</g>
<!-- Node6&#45;&gt;Node4 -->
<g id="edge5" class="edge">
<title>Node6&#45;&gt;Node4</title>
<path fill="none" stroke="#9a32cd" stroke-dasharray="5,2" d="M120.29,-12.85C154.4,-14.83 199.87,-17.7 240,-21 260.05,-22.65 282.89,-25 298.93,-26.72"/>
<polygon fill="#9a32cd" stroke="#9a32cd" points="120.27,-9.34 110.09,-12.26 119.87,-16.33 120.27,-9.34"/>
<text text-anchor="middle" x="196" y="-24" font-family="Helvetica,sans-Serif" font-size="10.00"> m_LabelSegment</text>
</g>
</g>
</svg>
