<?xml version="1.0" encoding="UTF-8" standalone="no"?>
<!DOCTYPE svg PUBLIC "-//W3C//DTD SVG 1.1//EN"
 "http://www.w3.org/Graphics/SVG/1.1/DTD/svg11.dtd">
<!-- Generated by graphviz version 2.43.0 (0)
 -->
<!-- Title: anonymous_namespace{deadspy_integration_test.cpp}::DeadspyIntegration Pages: 1 -->
<svg width="218pt" height="196pt"
 viewBox="0.00 0.00 217.50 196.00" xmlns="http://www.w3.org/2000/svg" xmlns:xlink="http://www.w3.org/1999/xlink">
<g id="graph0" class="graph" transform="scale(1 1) rotate(0) translate(4 192)">
<title>anonymous_namespace{deadspy_integration_test.cpp}::DeadspyIntegration</title>
<polygon fill="white" stroke="transparent" points="-4,4 -4,-192 213.5,-192 213.5,4 -4,4"/>
<!-- Node1 -->
<g id="node1" class="node">
<title>Node1</title>
<g id="a_node1"><a xlink:title=" ">
<polygon fill="#bfbfbf" stroke="black" points="0,-0.5 0,-41.5 169,-41.5 169,-0.5 0,-0.5"/>
<text text-anchor="start" x="8" y="-29.5" font-family="Helvetica,sans-Serif" font-size="10.00">anonymous_namespace</text>
<text text-anchor="start" x="8" y="-18.5" font-family="Helvetica,sans-Serif" font-size="10.00">{deadspy_integration</text>
<text text-anchor="middle" x="84.5" y="-7.5" font-family="Helvetica,sans-Serif" font-size="10.00">_test.cpp}::DeadspyIntegration</text>
</a>
</g>
</g>
<!-- Node2 -->
<g id="node2" class="node">
<title>Node2</title>
<g id="a_node2"><a xlink:title=" ">
<polygon fill="white" stroke="#bfbfbf" points="30.5,-100.5 30.5,-119.5 106.5,-119.5 106.5,-100.5 30.5,-100.5"/>
<text text-anchor="middle" x="68.5" y="-107.5" font-family="Helvetica,sans-Serif" font-size="10.00">testing::Test</text>
</a>
</g>
</g>
<!-- Node2&#45;&gt;Node1 -->
<g id="edge1" class="edge">
<title>Node2&#45;&gt;Node1</title>
<path fill="none" stroke="midnightblue" d="M71.96,-90.2C74.59,-75.88 78.21,-56.21 80.88,-41.68"/>
<polygon fill="midnightblue" stroke="midnightblue" points="68.46,-89.87 70.09,-100.34 75.34,-91.14 68.46,-89.87"/>
</g>
<!-- Node3 -->
<g id="node3" class="node">
<title>Node3</title>
<g id="a_node3"><a xlink:title=" ">
<polygon fill="white" stroke="#bfbfbf" points="125,-100.5 125,-119.5 190,-119.5 190,-100.5 125,-100.5"/>
<text text-anchor="middle" x="157.5" y="-107.5" font-family="Helvetica,sans-Serif" font-size="10.00">std::string</text>
</a>
</g>
</g>
<!-- Node3&#45;&gt;Node1 -->
<g id="edge2" class="edge">
<title>Node3&#45;&gt;Node1</title>
<path fill="none" stroke="#9a32cd" stroke-dasharray="5,2" d="M143.48,-92.29C131.35,-77.84 113.81,-56.93 101.01,-41.68"/>
<polygon fill="#9a32cd" stroke="#9a32cd" points="141.12,-94.93 150.23,-100.34 146.49,-90.43 141.12,-94.93"/>
<text text-anchor="middle" x="147.5" y="-74" font-family="Helvetica,sans-Serif" font-size="10.00"> root_</text>
<text text-anchor="middle" x="147.5" y="-63" font-family="Helvetica,sans-Serif" font-size="10.00">tool_</text>
</g>
<!-- Node4 -->
<g id="node4" class="node">
<title>Node4</title>
<g id="a_node4"><a xlink:title=" ">
<polygon fill="white" stroke="#bfbfbf" points="105.5,-157.5 105.5,-187.5 209.5,-187.5 209.5,-157.5 105.5,-157.5"/>
<text text-anchor="start" x="113.5" y="-175.5" font-family="Helvetica,sans-Serif" font-size="10.00">std::basic_string&lt;</text>
<text text-anchor="middle" x="157.5" y="-164.5" font-family="Helvetica,sans-Serif" font-size="10.00"> Char &gt;</text>
</a>
</g>
</g>
<!-- Node4&#45;&gt;Node3 -->
<g id="edge3" class="edge">
<title>Node4&#45;&gt;Node3</title>
<path fill="none" stroke="midnightblue" d="M157.5,-147.35C157.5,-137.51 157.5,-126.78 157.5,-119.54"/>
<polygon fill="midnightblue" stroke="midnightblue" points="154,-147.47 157.5,-157.47 161,-147.47 154,-147.47"/>
</g>
</g>
</svg>
