<?xml version="1.0" encoding="UTF-8" standalone="no"?>
<!DOCTYPE svg PUBLIC "-//W3C//DTD SVG 1.1//EN"
 "http://www.w3.org/Graphics/SVG/1.1/DTD/svg11.dtd">
<!-- Generated by graphviz version 2.43.0 (0)
 -->
<!-- Title: LabelIterator Pages: 1 -->
<svg width="273pt" height="162pt"
 viewBox="0.00 0.00 273.00 162.00" xmlns="http://www.w3.org/2000/svg" xmlns:xlink="http://www.w3.org/1999/xlink">
<g id="graph0" class="graph" transform="scale(1 1) rotate(0) translate(4 158)">
<title>LabelIterator</title>
<polygon fill="white" stroke="transparent" points="-4,4 -4,-158 269,-158 269,4 -4,4"/>
<!-- Node1 -->
<g id="node1" class="node">
<title>Node1</title>
<g id="a_node1"><a xlink:title=" ">
<polygon fill="#bfbfbf" stroke="black" points="91.5,-0.5 91.5,-19.5 170.5,-19.5 170.5,-0.5 91.5,-0.5"/>
<text text-anchor="middle" x="131" y="-7.5" font-family="Helvetica,sans-Serif" font-size="10.00">LabelIterator</text>
</a>
</g>
</g>
<!-- Node2 -->
<g id="node2" class="node">
<title>Node2</title>
<g id="a_node2"><a xlink:href="classLabel.html" target="_top" xlink:title=" ">
<polygon fill="white" stroke="black" points="109.5,-67.5 109.5,-86.5 152.5,-86.5 152.5,-67.5 109.5,-67.5"/>
<text text-anchor="middle" x="131" y="-74.5" font-family="Helvetica,sans-Serif" font-size="10.00">Label</text>
</a>
</g>
</g>
<!-- Node2&#45;&gt;Node1 -->
<g id="edge1" class="edge">
<title>Node2&#45;&gt;Node1</title>
<path fill="none" stroke="#9a32cd" stroke-dasharray="5,2" d="M131,-57.04C131,-44.67 131,-29.12 131,-19.63"/>
<polygon fill="#9a32cd" stroke="#9a32cd" points="127.5,-57.23 131,-67.23 134.5,-57.23 127.5,-57.23"/>
<text text-anchor="middle" x="152.5" y="-41" font-family="Helvetica,sans-Serif" font-size="10.00"> m_label</text>
</g>
<!-- Node3 -->
<g id="node3" class="node">
<title>Node3</title>
<g id="a_node3"><a xlink:title=" ">
<polygon fill="white" stroke="#bfbfbf" points="0,-134.5 0,-153.5 134,-153.5 134,-134.5 0,-134.5"/>
<text text-anchor="middle" x="67" y="-141.5" font-family="Helvetica,sans-Serif" font-size="10.00">std::atomic&lt; uint64_t &gt;</text>
</a>
</g>
</g>
<!-- Node3&#45;&gt;Node2 -->
<g id="edge2" class="edge">
<title>Node3&#45;&gt;Node2</title>
<path fill="none" stroke="#9a32cd" stroke-dasharray="5,2" d="M82.76,-127C95.31,-114.25 112.4,-96.89 122.51,-86.63"/>
<polygon fill="#9a32cd" stroke="#9a32cd" points="80.15,-124.65 75.63,-134.23 85.14,-129.56 80.15,-124.65"/>
<text text-anchor="middle" x="133.5" y="-108" font-family="Helvetica,sans-Serif" font-size="10.00"> m_refCount</text>
</g>
<!-- Node4 -->
<g id="node4" class="node">
<title>Node4</title>
<g id="a_node4"><a xlink:href="structLabelSegment.html" target="_top" xlink:title=" ">
<polygon fill="white" stroke="black" points="152,-134.5 152,-153.5 238,-153.5 238,-134.5 152,-134.5"/>
<text text-anchor="middle" x="195" y="-141.5" font-family="Helvetica,sans-Serif" font-size="10.00">LabelSegment</text>
</a>
</g>
</g>
<!-- Node4&#45;&gt;Node2 -->
<g id="edge3" class="edge">
<title>Node4&#45;&gt;Node2</title>
<path fill="none" stroke="#9a32cd" stroke-dasharray="5,2" d="M184.42,-125.68C179.83,-118.85 174.1,-111.18 168,-105 161.07,-97.98 152.17,-91.43 144.84,-86.54"/>
<polygon fill="#9a32cd" stroke="#9a32cd" points="181.58,-127.72 189.92,-134.25 187.47,-123.94 181.58,-127.72"/>
<text text-anchor="middle" x="221" y="-108" font-family="Helvetica,sans-Serif" font-size="10.00"> m_LabelSegment</text>
</g>
</g>
</svg>
