<?xml version="1.0" encoding="UTF-8" standalone="no"?>
<!DOCTYPE svg PUBLIC "-//W3C//DTD SVG 1.1//EN"
 "http://www.w3.org/Graphics/SVG/1.1/DTD/svg11.dtd">
<!-- Generated by graphviz version 2.43.0 (0)
 -->
<!-- Title: anonymous_namespace{loadspy_integration_test.cpp}::LoadspyIsa Pages: 1 -->
<svg width="628pt" height="107pt"
 viewBox="0.00 0.00 628.00 106.50" xmlns="http://www.w3.org/2000/svg" xmlns:xlink="http://www.w3.org/1999/xlink">
<g id="graph0" class="graph" transform="scale(1 1) rotate(0) translate(4 102.5)">
<title>anonymous_namespace{loadspy_integration_test.cpp}::LoadspyIsa</title>
<polygon fill="white" stroke="transparent" points="-4,4 -4,-102.5 624,-102.5 624,4 -4,4"/>
<!-- Node1 -->
<g id="node1" class="node">
<title>Node1</title>
<g id="a_node1"><a xlink:title=" ">
<polygon fill="#bfbfbf" stroke="black" points="485,-7 485,-48 620,-48 620,-7 485,-7"/>
<text text-anchor="start" x="493" y="-36" font-family="Helvetica,sans-Serif" font-size="10.00">anonymous_namespace</text>
<text text-anchor="start" x="493" y="-25" font-family="Helvetica,sans-Serif" font-size="10.00">{loadspy_integration</text>
<text text-anchor="middle" x="552.5" y="-14" font-family="Helvetica,sans-Serif" font-size="10.00">_test.cpp}::LoadspyIsa</text>
</a>
</g>
</g>
<!-- Node2 -->
<g id="node2" class="node">
<title>Node2</title>
<g id="a_node2"><a xlink:href="classanonymous__namespace_02loadspy__integration__test_8cpp_03_1_1LoadspyIntegration.html" target="_top" xlink:title=" ">
<polygon fill="white" stroke="black" points="281,-50 281,-91 448,-91 448,-50 281,-50"/>
<text text-anchor="start" x="289" y="-79" font-family="Helvetica,sans-Serif" font-size="10.00">anonymous_namespace</text>
<text text-anchor="start" x="289" y="-68" font-family="Helvetica,sans-Serif" font-size="10.00">{loadspy_integration</text>
<text text-anchor="middle" x="364.5" y="-57" font-family="Helvetica,sans-Serif" font-size="10.00">_test.cpp}::LoadspyIntegration</text>
</a>
</g>
</g>
<!-- Node2&#45;&gt;Node1 -->
<g id="edge1" class="edge">
<title>Node2&#45;&gt;Node1</title>
<path fill="none" stroke="midnightblue" d="M458.02,-49.11C467.12,-47.01 476.22,-44.9 484.99,-42.88"/>
<polygon fill="midnightblue" stroke="midnightblue" points="457.12,-45.73 448.17,-51.39 458.7,-52.55 457.12,-45.73"/>
</g>
<!-- Node3 -->
<g id="node3" class="node">
<title>Node3</title>
<g id="a_node3"><a xlink:title=" ">
<polygon fill="white" stroke="#bfbfbf" points="141,-79 141,-98 217,-98 217,-79 141,-79"/>
<text text-anchor="middle" x="179" y="-86" font-family="Helvetica,sans-Serif" font-size="10.00">testing::Test</text>
</a>
</g>
</g>
<!-- Node3&#45;&gt;Node2 -->
<g id="edge2" class="edge">
<title>Node3&#45;&gt;Node2</title>
<path fill="none" stroke="midnightblue" d="M227.49,-83.84C243.83,-82.24 262.63,-80.39 280.94,-78.6"/>
<polygon fill="midnightblue" stroke="midnightblue" points="226.74,-80.4 217.13,-84.86 227.43,-87.36 226.74,-80.4"/>
</g>
<!-- Node4 -->
<g id="node4" class="node">
<title>Node4</title>
<g id="a_node4"><a xlink:title=" ">
<polygon fill="white" stroke="#bfbfbf" points="146.5,-41 146.5,-60 211.5,-60 211.5,-41 146.5,-41"/>
<text text-anchor="middle" x="179" y="-48" font-family="Helvetica,sans-Serif" font-size="10.00">std::string</text>
</a>
</g>
</g>
<!-- Node4&#45;&gt;Node2 -->
<g id="edge3" class="edge">
<title>Node4&#45;&gt;Node2</title>
<path fill="none" stroke="#9a32cd" stroke-dasharray="5,2" d="M221.82,-51.62C235.02,-52.21 249.64,-53.12 263,-54.5 268.8,-55.1 274.77,-55.81 280.78,-56.59"/>
<polygon fill="#9a32cd" stroke="#9a32cd" points="221.72,-48.11 211.59,-51.21 221.44,-55.11 221.72,-48.11"/>
<text text-anchor="middle" x="249" y="-68.5" font-family="Helvetica,sans-Serif" font-size="10.00"> root_</text>
<text text-anchor="middle" x="249" y="-57.5" font-family="Helvetica,sans-Serif" font-size="10.00">tool_</text>
</g>
<!-- Node5 -->
<g id="node5" class="node">
<title>Node5</title>
<g id="a_node5"><a xlink:title=" ">
<polygon fill="white" stroke="#bfbfbf" points="0,-35.5 0,-65.5 104,-65.5 104,-35.5 0,-35.5"/>
<text text-anchor="start" x="8" y="-53.5" font-family="Helvetica,sans-Serif" font-size="10.00">std::basic_string&lt;</text>
<text text-anchor="middle" x="52" y="-42.5" font-family="Helvetica,sans-Serif" font-size="10.00"> Char &gt;</text>
</a>
</g>
</g>
<!-- Node5&#45;&gt;Node4 -->
<g id="edge4" class="edge">
<title>Node5&#45;&gt;Node4</title>
<path fill="none" stroke="midnightblue" d="M114.35,-50.5C125.45,-50.5 136.61,-50.5 146.4,-50.5"/>
<polygon fill="midnightblue" stroke="midnightblue" points="114.2,-47 104.2,-50.5 114.2,-54 114.2,-47"/>
</g>
<!-- Node6 -->
<g id="node6" class="node">
<title>Node6</title>
<g id="a_node6"><a xlink:title=" ">
<polygon fill="white" stroke="#bfbfbf" points="288,-0.5 288,-30.5 441,-30.5 441,-0.5 288,-0.5"/>
<text text-anchor="start" x="296" y="-18.5" font-family="Helvetica,sans-Serif" font-size="10.00">testing::WithParamInterface</text>
<text text-anchor="middle" x="364.5" y="-7.5" font-family="Helvetica,sans-Serif" font-size="10.00">&lt; const char * &gt;</text>
</a>
</g>
</g>
<!-- Node6&#45;&gt;Node1 -->
<g id="edge5" class="edge">
<title>Node6&#45;&gt;Node1</title>
<path fill="none" stroke="midnightblue" d="M451.41,-21.04C462.65,-21.77 474.02,-22.5 484.88,-23.2"/>
<polygon fill="midnightblue" stroke="midnightblue" points="451.36,-17.53 441.15,-20.38 450.91,-24.52 451.36,-17.53"/>
</g>
</g>
</svg>
