<?xml version="1.0" encoding="UTF-8" standalone="no"?>
<!DOCTYPE svg PUBLIC "-//W3C//DTD SVG 1.1//EN"
 "http://www.w3.org/Graphics/SVG/1.1/DTD/svg11.dtd">
<!-- Generated by graphviz version 2.43.0 (0)
 -->
<!-- Title: anonymous_namespace{rvn_integration_test.cpp}::RVNIntegration Pages: 1 -->
<svg width="207pt" height="196pt"
 viewBox="0.00 0.00 206.50 196.00" xmlns="http://www.w3.org/2000/svg" xmlns:xlink="http://www.w3.org/1999/xlink">
<g id="graph0" class="graph" transform="scale(1 1) rotate(0) translate(4 192)">
<title>anonymous_namespace{rvn_integration_test.cpp}::RVNIntegration</title>
<polygon fill="white" stroke="transparent" points="-4,4 -4,-192 202.5,-192 202.5,4 -4,4"/>
<!-- Node1 -->
<g id="node1" class="node">
<title>Node1</title>
<g id="a_node1"><a xlink:title=" ">
<polygon fill="#bfbfbf" stroke="black" points="0,-0.5 0,-41.5 147,-41.5 147,-0.5 0,-0.5"/>
<text text-anchor="start" x="8" y="-29.5" font-family="Helvetica,sans-Serif" font-size="10.00">anonymous_namespace</text>
<text text-anchor="start" x="8" y="-18.5" font-family="Helvetica,sans-Serif" font-size="10.00">{rvn_integration_test.cpp}</text>
<text text-anchor="middle" x="73.5" y="-7.5" font-family="Helvetica,sans-Serif" font-size="10.00">::RVNIntegration</text>
</a>
</g>
</g>
<!-- Node2 -->
<g id="node2" class="node">
<title>Node2</title>
<g id="a_node2"><a xlink:title=" ">
<polygon fill="white" stroke="#bfbfbf" points="19.5,-100.5 19.5,-119.5 95.5,-119.5 95.5,-100.5 19.5,-100.5"/>
<text text-anchor="middle" x="57.5" y="-107.5" font-family="Helvetica,sans-Serif" font-size="10.00">testing::Test</text>
</a>
</g>
</g>
<!-- Node2&#45;&gt;Node1 -->
<g id="edge1" class="edge">
<title>Node2&#45;&gt;Node1</title>
<path fill="none" stroke="midnightblue" d="M60.96,-90.2C63.59,-75.88 67.21,-56.21 69.88,-41.68"/>
<polygon fill="midnightblue" stroke="midnightblue" points="57.46,-89.87 59.09,-100.34 64.34,-91.14 57.46,-89.87"/>
</g>
<!-- Node3 -->
<g id="node3" class="node">
<title>Node3</title>
<g id="a_node3"><a xlink:title=" ">
<polygon fill="white" stroke="#bfbfbf" points="114,-100.5 114,-119.5 179,-119.5 179,-100.5 114,-100.5"/>
<text text-anchor="middle" x="146.5" y="-107.5" font-family="Helvetica,sans-Serif" font-size="10.00">std::string</text>
</a>
</g>
</g>
<!-- Node3&#45;&gt;Node1 -->
<g id="edge2" class="edge">
<title>Node3&#45;&gt;Node1</title>
<path fill="none" stroke="#9a32cd" stroke-dasharray="5,2" d="M132.48,-92.29C120.35,-77.84 102.81,-56.93 90.01,-41.68"/>
<polygon fill="#9a32cd" stroke="#9a32cd" points="130.12,-94.93 139.23,-100.34 135.49,-90.43 130.12,-94.93"/>
<text text-anchor="middle" x="136.5" y="-74" font-family="Helvetica,sans-Serif" font-size="10.00"> root_</text>
<text text-anchor="middle" x="136.5" y="-63" font-family="Helvetica,sans-Serif" font-size="10.00">tool_</text>
</g>
<!-- Node4 -->
<g id="node4" class="node">
<title>Node4</title>
<g id="a_node4"><a xlink:title=" ">
<polygon fill="white" stroke="#bfbfbf" points="94.5,-157.5 94.5,-187.5 198.5,-187.5 198.5,-157.5 94.5,-157.5"/>
<text text-anchor="start" x="102.5" y="-175.5" font-family="Helvetica,sans-Serif" font-size="10.00">std::basic_string&lt;</text>
<text text-anchor="middle" x="146.5" y="-164.5" font-family="Helvetica,sans-Serif" font-size="10.00"> Char &gt;</text>
</a>
</g>
</g>
<!-- Node4&#45;&gt;Node3 -->
<g id="edge3" class="edge">
<title>Node4&#45;&gt;Node3</title>
<path fill="none" stroke="midnightblue" d="M146.5,-147.35C146.5,-137.51 146.5,-126.78 146.5,-119.54"/>
<polygon fill="midnightblue" stroke="midnightblue" points="143,-147.47 146.5,-157.47 150,-147.47 143,-147.47"/>
</g>
</g>
</svg>
