<?xml version="1.0" encoding="UTF-8" standalone="no"?>
<!DOCTYPE svg PUBLIC "-//W3C//DTD SVG 1.1//EN"
 "http://www.w3.org/Graphics/SVG/1.1/DTD/svg11.dtd">
<!-- Generated by graphviz version 2.43.0 (0)
 -->
<!-- Title: anonymous_namespace{redspy_integration_test.cpp}::RedspyIsa Pages: 1 -->
<svg width="453pt" height="100pt"
 viewBox="0.00 0.00 453.00 99.50" xmlns="http://www.w3.org/2000/svg" xmlns:xlink="http://www.w3.org/1999/xlink">
<g id="graph0" class="graph" transform="scale(1 1) rotate(0) translate(4 95.5)">
<title>anonymous_namespace{redspy_integration_test.cpp}::RedspyIsa</title>
<polygon fill="white" stroke="transparent" points="-4,4 -4,-95.5 449,-95.5 449,4 -4,4"/>
<!-- Node1 -->
<g id="node1" class="node">
<title>Node1</title>
<g id="a_node1"><a xlink:title=" ">
<polygon fill="#bfbfbf" stroke="black" points="310,-22 310,-63 445,-63 445,-22 310,-22"/>
<text text-anchor="start" x="318" y="-51" font-family="Helvetica,sans-Serif" font-size="10.00">anonymous_namespace</text>
<text text-anchor="start" x="318" y="-40" font-family="Helvetica,sans-Serif" font-size="10.00">{redspy_integration</text>
<text text-anchor="middle" x="377.5" y="-29" font-family="Helvetica,sans-Serif" font-size="10.00">_test.cpp}::RedspyIsa</text>
</a>
</g>
</g>
<!-- Node2 -->
<g id="node2" class="node">
<title>Node2</title>
<g id="a_node2"><a xlink:href="classanonymous__namespace_02redspy__integration__test_8cpp_03_1_1RedspyIntegration.html" target="_top" xlink:title=" ">
<polygon fill="white" stroke="black" points="112,-50 112,-91 274,-91 274,-50 112,-50"/>
<text text-anchor="start" x="120" y="-79" font-family="Helvetica,sans-Serif" font-size="10.00">anonymous_namespace</text>
<text text-anchor="start" x="120" y="-68" font-family="Helvetica,sans-Serif" font-size="10.00">{redspy_integration</text>
<text text-anchor="middle" x="193" y="-57" font-family="Helvetica,sans-Serif" font-size="10.00">_test.cpp}::RedspyIntegration</text>
</a>
</g>
</g>
<!-- Node2&#45;&gt;Node1 -->
<g id="edge1" class="edge">
<title>Node2&#45;&gt;Node1</title>
<path fill="none" stroke="midnightblue" d="M284.19,-56.66C292.85,-55.33 301.53,-54 309.9,-52.72"/>
<polygon fill="midnightblue" stroke="midnightblue" points="283.4,-53.24 274.05,-58.22 284.46,-60.16 283.4,-53.24"/>
</g>
<!-- Node3 -->
<g id="node3" class="node">
<title>Node3</title>
<g id="a_node3"><a xlink:title=" ">
<polygon fill="white" stroke="#bfbfbf" points="0,-61 0,-80 76,-80 76,-61 0,-61"/>
<text text-anchor="middle" x="38" y="-68" font-family="Helvetica,sans-Serif" font-size="10.00">testing::Test</text>
</a>
</g>
</g>
<!-- Node3&#45;&gt;Node2 -->
<g id="edge2" class="edge">
<title>Node3&#45;&gt;Node2</title>
<path fill="none" stroke="midnightblue" d="M86.08,-70.5C94.26,-70.5 102.96,-70.5 111.74,-70.5"/>
<polygon fill="midnightblue" stroke="midnightblue" points="86.04,-67 76.04,-70.5 86.04,-74 86.04,-67"/>
</g>
<!-- Node4 -->
<g id="node4" class="node">
<title>Node4</title>
<g id="a_node4"><a xlink:title=" ">
<polygon fill="white" stroke="#bfbfbf" points="116.5,-0.5 116.5,-30.5 269.5,-30.5 269.5,-0.5 116.5,-0.5"/>
<text text-anchor="start" x="124.5" y="-18.5" font-family="Helvetica,sans-Serif" font-size="10.00">testing::WithParamInterface</text>
<text text-anchor="middle" x="193" y="-7.5" font-family="Helvetica,sans-Serif" font-size="10.00">&lt; RedspyIsaVictim &gt;</text>
</a>
</g>
</g>
<!-- Node4&#45;&gt;Node1 -->
<g id="edge3" class="edge">
<title>Node4&#45;&gt;Node1</title>
<path fill="none" stroke="midnightblue" d="M279.62,-28.17C289.74,-29.66 299.95,-31.17 309.75,-32.63"/>
<polygon fill="midnightblue" stroke="midnightblue" points="279.95,-24.68 269.55,-26.68 278.93,-31.6 279.95,-24.68"/>
</g>
</g>
</svg>
