<?xml version="1.0" encoding="UTF-8" standalone="no"?>
<!DOCTYPE svg PUBLIC "-//W3C//DTD SVG 1.1//EN"
 "http://www.w3.org/Graphics/SVG/1.1/DTD/svg11.dtd">
<!-- Generated by graphviz version 2.43.0 (0)
 -->
<!-- Title: anonymous_namespace{redspy_integration_test.cpp}::RedspyIsa Pages: 1 -->
<svg width="623pt" height="107pt"
 viewBox="0.00 0.00 623.00 106.50" xmlns="http://www.w3.org/2000/svg" xmlns:xlink="http://www.w3.org/1999/xlink">
<g id="graph0" class="graph" transform="scale(1 1) rotate(0) translate(4 102.5)">
<title>anonymous_namespace{redspy_integration_test.cpp}::RedspyIsa</title>
<polygon fill="white" stroke="transparent" points="-4,4 -4,-102.5 619,-102.5 619,4 -4,4"/>
<!-- Node1 -->
<g id="node1" class="node">
<title>Node1</title>
<g id="a_node1"><a xlink:title=" ">
<polygon fill="#bfbfbf" stroke="black" points="480,-7 480,-48 615,-48 615,-7 480,-7"/>
<text text-anchor="start" x="488" y="-36" font-family="Helvetica,sans-Serif" font-size="10.00">anonymous_namespace</text>
<text text-anchor="start" x="488" y="-25" font-family="Helvetica,sans-Serif" font-size="10.00">{redspy_integration</text>
<text text-anchor="middle" x="547.5" y="-14" font-family="Helvetica,sans-Serif" font-size="10.00">_test.cpp}::RedspyIsa</text>
</a>
</g>
</g>
<!-- Node2 -->
<g id="node2" class="node">
<title>Node2</title>
<g id="a_node2"><a xlink:href="classanonymous__namespace_02redspy__integration__test_8cpp_03_1_1RedspyIntegration.html" target="_top" xlink:title=" ">
<polygon fill="white" stroke="black" points="281,-50 281,-91 443,-91 443,-50 281,-50"/>
<text text-anchor="start" x="289" y="-79" font-family="Helvetica,sans-Serif" font-size="10.00">anonymous_namespace</text>
<text text-anchor="start" x="289" y="-68" font-family="Helvetica,sans-Serif" font-size="10.00">{redspy_integration</text>
<text text-anchor="middle" x="362" y="-57" font-family="Helvetica,sans-Serif" font-size="10.00">_test.cpp}::RedspyIntegration</text>
</a>
</g>
</g>
<!-- Node2&#45;&gt;Node1 -->
<g id="edge1" class="edge">
<title>Node2&#45;&gt;Node1</title>
<path fill="none" stroke="midnightblue" d="M453.02,-49.41C462.08,-47.28 471.16,-45.16 479.91,-43.11"/>
<polygon fill="midnightblue" stroke="midnightblue" points="452.16,-46.01 443.22,-51.7 453.75,-52.83 452.16,-46.01"/>
</g>
<!-- Node3 -->
<g id="node3" class="node">
<title>Node3</title>
<g id="a_node3"><a xlink:title=" ">
<polygon fill="white" stroke="#bfbfbf" points="141,-79 141,-98 217,-98 217,-79 141,-79"/>
<text text-anchor="middle" x="179" y="-86" font-family="Helvetica,sans-Serif" font-size="10.00">testing::Test</text>
</a>
</g>
</g>
<!-- Node3&#45;&gt;Node2 -->
<g id="edge2" class="edge">
<title>Node3&#45;&gt;Node2</title>
<path fill="none" stroke="midnightblue" d="M227.4,-83.79C243.72,-82.16 262.47,-80.3 280.66,-78.49"/>
<polygon fill="midnightblue" stroke="midnightblue" points="226.67,-80.34 217.06,-84.81 227.36,-87.31 226.67,-80.34"/>
</g>
<!-- Node4 -->
<g id="node4" class="node">
<title>Node4</title>
<g id="a_node4"><a xlink:title=" ">
<polygon fill="white" stroke="#bfbfbf" points="146.5,-41 146.5,-60 211.5,-60 211.5,-41 146.5,-41"/>
<text text-anchor="middle" x="179" y="-48" font-family="Helvetica,sans-Serif" font-size="10.00">std::string</text>
</a>
</g>
</g>
<!-- Node4&#45;&gt;Node2 -->
<g id="edge3" class="edge">
<title>Node4&#45;&gt;Node2</title>
<path fill="none" stroke="#9a32cd" stroke-dasharray="5,2" d="M221.82,-51.59C235.02,-52.18 249.64,-53.09 263,-54.5 268.83,-55.11 274.84,-55.85 280.88,-56.66"/>
<polygon fill="#9a32cd" stroke="#9a32cd" points="221.73,-48.08 211.59,-51.18 221.45,-55.08 221.73,-48.08"/>
<text text-anchor="middle" x="249" y="-68.5" font-family="Helvetica,sans-Serif" font-size="10.00"> root_</text>
<text text-anchor="middle" x="249" y="-57.5" font-family="Helvetica,sans-Serif" font-size="10.00">tool_</text>
</g>
<!-- Node5 -->
<g id="node5" class="node">
<title>Node5</title>
<g id="a_node5"><a xlink:title=" ">
<polygon fill="white" stroke="#bfbfbf" points="0,-35.5 0,-65.5 104,-65.5 104,-35.5 0,-35.5"/>
<text text-anchor="start" x="8" y="-53.5" font-family="Helvetica,sans-Serif" font-size="10.00">std::basic_string&lt;</text>
<text text-anchor="middle" x="52" y="-42.5" font-family="Helvetica,sans-Serif" font-size="10.00"> Char &gt;</text>
</a>
</g>
</g>
<!-- Node5&#45;&gt;Node4 -->
<g id="edge4" class="edge">
<title>Node5&#45;&gt;Node4</title>
<path fill="none" stroke="midnightblue" d="M114.35,-50.5C125.45,-50.5 136.61,-50.5 146.4,-50.5"/>
<polygon fill="midnightblue" stroke="midnightblue" points="114.2,-47 104.2,-50.5 114.2,-54 114.2,-47"/>
</g>
<!-- Node6 -->
<g id="node6" class="node">
<title>Node6</title>
<g id="a_node6"><a xlink:title=" ">
<polygon fill="white" stroke="#bfbfbf" points="285.5,-0.5 285.5,-30.5 438.5,-30.5 438.5,-0.5 285.5,-0.5"/>
<text text-anchor="start" x="293.5" y="-18.5" font-family="Helvetica,sans-Serif" font-size="10.00">testing::WithParamInterface</text>
<text text-anchor="middle" x="362" y="-7.5" font-family="Helvetica,sans-Serif" font-size="10.00">&lt; RedspyIsaVictim &gt;</text>
</a>
</g>
</g>
<!-- Node6&#45;&gt;Node1 -->
<g id="edge5" class="edge">
<title>Node6&#45;&gt;Node1</title>
<path fill="none" stroke="midnightblue" d="M448.99,-21.12C459.33,-21.8 469.77,-22.48 479.78,-23.14"/>
<polygon fill="midnightblue" stroke="midnightblue" points="448.9,-17.61 438.7,-20.45 448.45,-24.6 448.9,-17.61"/>
</g>
</g>
</svg>
