<?xml version="1.0" encoding="UTF-8" standalone="no"?>
<!DOCTYPE svg PUBLIC "-//W3C//DTD SVG 1.1//EN"
 "http://www.w3.org/Graphics/SVG/1.1/DTD/svg11.dtd">
<!-- Generated by graphviz version 2.43.0 (0)
 -->
<!-- Title: anonymous_namespace{deadspy_integration_test.cpp}::DeadspyIsa Pages: 1 -->
<svg width="460pt" height="100pt"
 viewBox="0.00 0.00 460.00 99.50" xmlns="http://www.w3.org/2000/svg" xmlns:xlink="http://www.w3.org/1999/xlink">
<g id="graph0" class="graph" transform="scale(1 1) rotate(0) translate(4 95.5)">
<title>anonymous_namespace{deadspy_integration_test.cpp}::DeadspyIsa</title>
<polygon fill="white" stroke="transparent" points="-4,4 -4,-95.5 456,-95.5 456,4 -4,4"/>
<!-- Node1 -->
<g id="node1" class="node">
<title>Node1</title>
<g id="a_node1"><a xlink:title=" ">
<polygon fill="#bfbfbf" stroke="black" points="317,-22 317,-63 452,-63 452,-22 317,-22"/>
<text text-anchor="start" x="325" y="-51" font-family="Helvetica,sans-Serif" font-size="10.00">anonymous_namespace</text>
<text text-anchor="start" x="325" y="-40" font-family="Helvetica,sans-Serif" font-size="10.00">{deadspy_integration</text>
<text text-anchor="middle" x="384.5" y="-29" font-family="Helvetica,sans-Serif" font-size="10.00">_test.cpp}::DeadspyIsa</text>
</a>
</g>
</g>
<!-- Node2 -->
<g id="node2" class="node">
<title>Node2</title>
<g id="a_node2"><a xlink:href="classanonymous__namespace_02deadspy__integration__test_8cpp_03_1_1DeadspyIntegration.html" target="_top" xlink:title=" ">
<polygon fill="white" stroke="black" points="112,-50 112,-91 281,-91 281,-50 112,-50"/>
<text text-anchor="start" x="120" y="-79" font-family="Helvetica,sans-Serif" font-size="10.00">anonymous_namespace</text>
<text text-anchor="start" x="120" y="-68" font-family="Helvetica,sans-Serif" font-size="10.00">{deadspy_integration</text>
<text text-anchor="middle" x="196.5" y="-57" font-family="Helvetica,sans-Serif" font-size="10.00">_test.cpp}::DeadspyIntegration</text>
</a>
</g>
</g>
<!-- Node2&#45;&gt;Node1 -->
<g id="edge1" class="edge">
<title>Node2&#45;&gt;Node1</title>
<path fill="none" stroke="midnightblue" d="M291.37,-56.37C300,-55.07 308.62,-53.77 316.94,-52.52"/>
<polygon fill="midnightblue" stroke="midnightblue" points="290.62,-52.94 281.25,-57.89 291.66,-59.86 290.62,-52.94"/>
</g>
<!-- Node3 -->
<g id="node3" class="node">
<title>Node3</title>
<g id="a_node3"><a xlink:title=" ">
<polygon fill="white" stroke="#bfbfbf" points="0,-61 0,-80 76,-80 76,-61 0,-61"/>
<text text-anchor="middle" x="38" y="-68" font-family="Helvetica,sans-Serif" font-size="10.00">testing::Test</text>
</a>
</g>
</g>
<!-- Node3&#45;&gt;Node2 -->
<g id="edge2" class="edge">
<title>Node3&#45;&gt;Node2</title>
<path fill="none" stroke="midnightblue" d="M86.1,-70.5C94.27,-70.5 102.97,-70.5 111.77,-70.5"/>
<polygon fill="midnightblue" stroke="midnightblue" points="86.09,-67 76.09,-70.5 86.09,-74 86.09,-67"/>
</g>
<!-- Node4 -->
<g id="node4" class="node">
<title>Node4</title>
<g id="a_node4"><a xlink:title=" ">
<polygon fill="white" stroke="#bfbfbf" points="120,-0.5 120,-30.5 273,-30.5 273,-0.5 120,-0.5"/>
<text text-anchor="start" x="128" y="-18.5" font-family="Helvetica,sans-Serif" font-size="10.00">testing::WithParamInterface</text>
<text text-anchor="middle" x="196.5" y="-7.5" font-family="Helvetica,sans-Serif" font-size="10.00">&lt; IsaVictim &gt;</text>
</a>
</g>
</g>
<!-- Node4&#45;&gt;Node1 -->
<g id="edge3" class="edge">
<title>Node4&#45;&gt;Node1</title>
<path fill="none" stroke="midnightblue" d="M283.07,-27.92C294.42,-29.57 305.91,-31.24 316.88,-32.83"/>
<polygon fill="midnightblue" stroke="midnightblue" points="283.55,-24.45 273.15,-26.48 282.55,-31.38 283.55,-24.45"/>
</g>
</g>
</svg>
