<?xml version="1.0" encoding="UTF-8" standalone="no"?>
<!DOCTYPE svg PUBLIC "-//W3C//DTD SVG 1.1//EN"
 "http://www.w3.org/Graphics/SVG/1.1/DTD/svg11.dtd">
<!-- Generated by graphviz version 2.43.0 (0)
 -->
<!-- Title: Label Pages: 1 -->
<svg width="273pt" height="95pt"
 viewBox="0.00 0.00 273.00 95.00" xmlns="http://www.w3.org/2000/svg" xmlns:xlink="http://www.w3.org/1999/xlink">
<g id="graph0" class="graph" transform="scale(1 1) rotate(0) translate(4 91)">
<title>Label</title>
<polygon fill="white" stroke="transparent" points="-4,4 -4,-91 269,-91 269,4 -4,4"/>
<!-- Node1 -->
<g id="node1" class="node">
<title>Node1</title>
<g id="a_node1"><a xlink:title=" ">
<polygon fill="#bfbfbf" stroke="black" points="109.5,-0.5 109.5,-19.5 152.5,-19.5 152.5,-0.5 109.5,-0.5"/>
<text text-anchor="middle" x="131" y="-7.5" font-family="Helvetica,sans-Serif" font-size="10.00">Label</text>
</a>
</g>
</g>
<!-- Node2 -->
<g id="node2" class="node">
<title>Node2</title>
<g id="a_node2"><a xlink:title=" ">
<polygon fill="white" stroke="#bfbfbf" points="0,-67.5 0,-86.5 134,-86.5 134,-67.5 0,-67.5"/>
<text text-anchor="middle" x="67" y="-74.5" font-family="Helvetica,sans-Serif" font-size="10.00">std::atomic&lt; uint64_t &gt;</text>
</a>
</g>
</g>
<!-- Node2&#45;&gt;Node1 -->
<g id="edge1" class="edge">
<title>Node2&#45;&gt;Node1</title>
<path fill="none" stroke="#9a32cd" stroke-dasharray="5,2" d="M82.76,-60C95.31,-47.25 112.4,-29.89 122.51,-19.63"/>
<polygon fill="#9a32cd" stroke="#9a32cd" points="80.15,-57.65 75.63,-67.23 85.14,-62.56 80.15,-57.65"/>
<text text-anchor="middle" x="133.5" y="-41" font-family="Helvetica,sans-Serif" font-size="10.00"> m_refCount</text>
</g>
<!-- Node3 -->
<g id="node3" class="node">
<title>Node3</title>
<g id="a_node3"><a xlink:href="structLabelSegment.html" target="_top" xlink:title=" ">
<polygon fill="white" stroke="black" points="152,-67.5 152,-86.5 238,-86.5 238,-67.5 152,-67.5"/>
<text text-anchor="middle" x="195" y="-74.5" font-family="Helvetica,sans-Serif" font-size="10.00">LabelSegment</text>
</a>
</g>
</g>
<!-- Node3&#45;&gt;Node1 -->
<g id="edge2" class="edge">
<title>Node3&#45;&gt;Node1</title>
<path fill="none" stroke="#9a32cd" stroke-dasharray="5,2" d="M184.42,-58.68C179.83,-51.85 174.1,-44.18 168,-38 161.07,-30.98 152.17,-24.43 144.84,-19.54"/>
<polygon fill="#9a32cd" stroke="#9a32cd" points="181.58,-60.72 189.92,-67.25 187.47,-56.94 181.58,-60.72"/>
<text text-anchor="middle" x="221" y="-41" font-family="Helvetica,sans-Serif" font-size="10.00"> m_LabelSegment</text>
</g>
</g>
</svg>
