<?xml version="1.0" encoding="UTF-8" standalone="no"?>
<!DOCTYPE svg PUBLIC "-//W3C//DTD SVG 1.1//EN"
 "http://www.w3.org/Graphics/SVG/1.1/DTD/svg11.dtd">
<!-- Generated by graphviz version 2.43.0 (0)
 -->
<!-- Title: clients/deadspy_client.cpp Pages: 1 -->
<!--zoomable 140 -->
<svg id="main" version="1.1" xmlns="http://www.w3.org/2000/svg" xmlns:xlink="http://www.w3.org/1999/xlink" xml:space="preserve" onload="init(evt)">
<style type="text/css"><![CDATA[
.edge:hover path { stroke: red; }
.edge:hover polygon { stroke: red; fill: red; }
]]></style>
<script type="text/javascript"><![CDATA[
var edges = document.getElementsByTagName('g');
if (edges && edges.length) {
  for (var i=0;i<edges.length;i++) {
    if (edges[i].id.substr(0,4)=='edge') {
      edges[i].setAttribute('class','edge');
    }
  }
}
]]></script>
        <defs>
                <circle id="rim" cx="0" cy="0" r="7"/>
                <circle id="rim2" cx="0" cy="0" r="3.5"/>
                <g id="zoomPlus">
                        <use xlink:href="#rim" fill="#404040">
                                <set attributeName="fill" to="#808080" begin="zoomplus.mouseover" end="zoomplus.mouseout"/>
                        </use>
                        <path d="M-4,0h8M0,-4v8" fill="none" stroke="white" stroke-width="1.5" pointer-events="none"/>
                </g>
                <g id="zoomMin">
                        <use xlink:href="#rim" fill="#404040">
                                <set attributeName="fill" to="#808080" begin="zoomminus.mouseover" end="zoomminus.mouseout"/>
                        </use>
                        <path d="M-4,0h8" fill="none" stroke="white" stroke-width="1.5" pointer-events="none"/>
                </g>
                <g id="dirArrow">
                        <path fill="none" stroke="white" stroke-width="1.5" d="M0,-3.0v7 M-2.5,-0.5L0,-3.0L2.5,-0.5"/>
                </g>
               <g id="resetDef">
                       <use xlink:href="#rim2" fill="#404040">
                               <set attributeName="fill" to="#808080" begin="reset.mouseover" end="reset.mouseout"/>
                       </use>
               </g>
        </defs>

<script type="text/javascript">
var viewWidth = 2431;
var viewHeight = 140;
var sectionId = 'dynsection-0';
</script>
<script xlink:href="svgpan.js"/>
<svg id="graph" class="graph">
<g id="viewport">
<title>clients/deadspy_client.cpp</title>
<polygon fill="white" stroke="transparent" points="-4,4 -4,-136 2426.5,-136 2426.5,4 -4,4"/>
<!-- Node1 -->
<g id="node1" class="node">
<title>Node1</title>
<g id="a_node1"><a xlink:title=" ">
<polygon fill="#bfbfbf" stroke="black" points="1026,-112.5 1026,-131.5 1172,-131.5 1172,-112.5 1026,-112.5"/>
<text text-anchor="middle" x="1099" y="-119.5" font-family="Helvetica,sans-Serif" font-size="10.00">clients/deadspy_client.cpp</text>
</a>
</g>
</g>
<!-- Node2 -->
<g id="node2" class="node">
<title>Node2</title>
<g id="a_node2"><a xlink:title=" ">
<polygon fill="white" stroke="#bfbfbf" points="0,-0.5 0,-19.5 50,-19.5 50,-0.5 0,-0.5"/>
<text text-anchor="middle" x="25" y="-7.5" font-family="Helvetica,sans-Serif" font-size="10.00">stdio.h</text>
</a>
</g>
</g>
<!-- Node1&#45;&gt;Node2 -->
<g id="edge1" class="edge">
<title>Node1&#45;&gt;Node2</title>
<path fill="none" stroke="midnightblue" d="M1025.87,-120.62C809.13,-119.1 180.05,-111.61 95,-76 70.96,-65.93 50.06,-43.73 37.5,-28.09"/>
<polygon fill="midnightblue" stroke="midnightblue" points="39.98,-25.57 31.11,-19.77 34.43,-29.83 39.98,-25.57"/>
</g>
<!-- Node3 -->
<g id="node3" class="node">
<title>Node3</title>
<g id="a_node3"><a xlink:title=" ">
<polygon fill="white" stroke="#bfbfbf" points="233.5,-56.5 233.5,-75.5 286.5,-75.5 286.5,-56.5 233.5,-56.5"/>
<text text-anchor="middle" x="260" y="-63.5" font-family="Helvetica,sans-Serif" font-size="10.00">stdlib.h</text>
</a>
</g>
</g>
<!-- Node1&#45;&gt;Node3 -->
<g id="edge2" class="edge">
<title>Node1&#45;&gt;Node3</title>
<path fill="none" stroke="midnightblue" d="M1025.73,-121.51C885.69,-121.47 570.43,-116.55 296.75,-75.78"/>
<polygon fill="midnightblue" stroke="midnightblue" points="297.03,-72.28 286.62,-74.25 295.99,-79.2 297.03,-72.28"/>
</g>
<!-- Node4 -->
<g id="node4" class="node">
<title>Node4</title>
<g id="a_node4"><a xlink:title=" ">
<polygon fill="white" stroke="#bfbfbf" points="68,-0.5 68,-19.5 110,-19.5 110,-0.5 68,-0.5"/>
<text text-anchor="middle" x="89" y="-7.5" font-family="Helvetica,sans-Serif" font-size="10.00">pin.H</text>
</a>
</g>
</g>
<!-- Node1&#45;&gt;Node4 -->
<g id="edge3" class="edge">
<title>Node1&#45;&gt;Node4</title>
<path fill="none" stroke="midnightblue" d="M1025.85,-119.81C804.05,-115.92 151.98,-102.29 115,-76 100.16,-65.45 93.78,-44.99 91.05,-29.83"/>
<polygon fill="midnightblue" stroke="midnightblue" points="94.46,-28.93 89.59,-19.52 87.53,-29.91 94.46,-28.93"/>
</g>
<!-- Node5 -->
<g id="node5" class="node">
<title>Node5</title>
<g id="a_node5"><a xlink:title=" ">
<polygon fill="white" stroke="#bfbfbf" points="305,-56.5 305,-75.5 343,-75.5 343,-56.5 305,-56.5"/>
<text text-anchor="middle" x="324" y="-63.5" font-family="Helvetica,sans-Serif" font-size="10.00">map</text>
</a>
</g>
</g>
<!-- Node1&#45;&gt;Node5 -->
<g id="edge4" class="edge">
<title>Node1&#45;&gt;Node5</title>
<path fill="none" stroke="midnightblue" d="M1025.85,-118.83C864.16,-113.66 480.64,-99.3 353,-76 352.9,-75.98 352.8,-75.96 352.7,-75.94"/>
<polygon fill="midnightblue" stroke="midnightblue" points="353.72,-72.59 343.18,-73.66 352.09,-79.4 353.72,-72.59"/>
</g>
<!-- Node6 -->
<g id="node6" class="node">
<title>Node6</title>
<g id="a_node6"><a xlink:title=" ">
<polygon fill="white" stroke="#bfbfbf" points="361.5,-56.5 361.5,-75.5 454.5,-75.5 454.5,-56.5 361.5,-56.5"/>
<text text-anchor="middle" x="408" y="-63.5" font-family="Helvetica,sans-Serif" font-size="10.00">unordered_map</text>
</a>
</g>
</g>
<!-- Node1&#45;&gt;Node6 -->
<g id="edge5" class="edge">
<title>Node1&#45;&gt;Node6</title>
<path fill="none" stroke="midnightblue" d="M1025.95,-117.93C909.48,-112.57 674.33,-99.85 464.67,-75.97"/>
<polygon fill="midnightblue" stroke="midnightblue" points="465.04,-72.49 454.71,-74.82 464.24,-79.44 465.04,-72.49"/>
</g>
<!-- Node7 -->
<g id="node7" class="node">
<title>Node7</title>
<g id="a_node7"><a xlink:title=" ">
<polygon fill="white" stroke="#bfbfbf" points="473,-56.5 473,-75.5 505,-75.5 505,-56.5 473,-56.5"/>
<text text-anchor="middle" x="489" y="-63.5" font-family="Helvetica,sans-Serif" font-size="10.00">list</text>
</a>
</g>
</g>
<!-- Node1&#45;&gt;Node7 -->
<g id="edge6" class="edge">
<title>Node1&#45;&gt;Node7</title>
<path fill="none" stroke="midnightblue" d="M1025.78,-121.34C914.33,-120.51 695.95,-113.64 515,-76 514.9,-75.98 514.8,-75.96 514.69,-75.94"/>
<polygon fill="midnightblue" stroke="midnightblue" points="515.62,-72.56 505.05,-73.27 513.75,-79.31 515.62,-72.56"/>
</g>
<!-- Node8 -->
<g id="node8" class="node">
<title>Node8</title>
<g id="a_node8"><a xlink:title=" ">
<polygon fill="white" stroke="#bfbfbf" points="523.5,-56.5 523.5,-75.5 588.5,-75.5 588.5,-56.5 523.5,-56.5"/>
<text text-anchor="middle" x="556" y="-63.5" font-family="Helvetica,sans-Serif" font-size="10.00">inttypes.h</text>
</a>
</g>
</g>
<!-- Node1&#45;&gt;Node8 -->
<g id="edge7" class="edge">
<title>Node1&#45;&gt;Node8</title>
<path fill="none" stroke="midnightblue" d="M1025.65,-117.21C929.84,-111.64 756.74,-99.43 599.29,-76.01"/>
<polygon fill="midnightblue" stroke="midnightblue" points="599.36,-72.48 588.95,-74.46 598.31,-79.41 599.36,-72.48"/>
</g>
<!-- Node9 -->
<g id="node9" class="node">
<title>Node9</title>
<g id="a_node9"><a xlink:title=" ">
<polygon fill="white" stroke="#bfbfbf" points="256.5,-0.5 256.5,-19.5 309.5,-19.5 309.5,-0.5 256.5,-0.5"/>
<text text-anchor="middle" x="283" y="-7.5" font-family="Helvetica,sans-Serif" font-size="10.00">stdint.h</text>
</a>
</g>
</g>
<!-- Node1&#45;&gt;Node9 -->
<g id="edge8" class="edge">
<title>Node1&#45;&gt;Node9</title>
<path fill="none" stroke="midnightblue" d="M1025.68,-119.94C820.28,-116.62 252.4,-104.85 225,-76 208.52,-58.65 234.56,-37.92 256.86,-24.61"/>
<polygon fill="midnightblue" stroke="midnightblue" points="258.78,-27.55 265.74,-19.57 255.32,-21.46 258.78,-27.55"/>
</g>
<!-- Node10 -->
<g id="node10" class="node">
<title>Node10</title>
<g id="a_node10"><a xlink:title=" ">
<polygon fill="white" stroke="#bfbfbf" points="607,-56.5 607,-75.5 679,-75.5 679,-56.5 607,-56.5"/>
<text text-anchor="middle" x="643" y="-63.5" font-family="Helvetica,sans-Serif" font-size="10.00">sys/types.h</text>
</a>
</g>
</g>
<!-- Node1&#45;&gt;Node10 -->
<g id="edge9" class="edge">
<title>Node1&#45;&gt;Node10</title>
<path fill="none" stroke="midnightblue" d="M1025.81,-114.83C943.6,-107.47 806.33,-93.89 689,-76 688.9,-75.98 688.8,-75.97 688.7,-75.95"/>
<polygon fill="midnightblue" stroke="midnightblue" points="689.55,-72.55 679.11,-74.36 688.4,-79.45 689.55,-72.55"/>
</g>
<!-- Node11 -->
<g id="node11" class="node">
<title>Node11</title>
<g id="a_node11"><a xlink:title=" ">
<polygon fill="white" stroke="#bfbfbf" points="697.5,-56.5 697.5,-75.5 756.5,-75.5 756.5,-56.5 697.5,-56.5"/>
<text text-anchor="middle" x="727" y="-63.5" font-family="Helvetica,sans-Serif" font-size="10.00">sys/ipc.h</text>
</a>
</g>
</g>
<!-- Node1&#45;&gt;Node11 -->
<g id="edge10" class="edge">
<title>Node1&#45;&gt;Node11</title>
<path fill="none" stroke="midnightblue" d="M1025.94,-113.1C960.58,-105.58 861.97,-93.13 766.84,-76"/>
<polygon fill="midnightblue" stroke="midnightblue" points="767.22,-72.51 756.75,-74.16 765.96,-79.4 767.22,-72.51"/>
</g>
<!-- Node12 -->
<g id="node12" class="node">
<title>Node12</title>
<g id="a_node12"><a xlink:title=" ">
<polygon fill="white" stroke="#bfbfbf" points="775,-56.5 775,-75.5 841,-75.5 841,-56.5 775,-56.5"/>
<text text-anchor="middle" x="808" y="-63.5" font-family="Helvetica,sans-Serif" font-size="10.00">sys/shm.h</text>
</a>
</g>
</g>
<!-- Node1&#45;&gt;Node12 -->
<g id="edge11" class="edge">
<title>Node1&#45;&gt;Node12</title>
<path fill="none" stroke="midnightblue" d="M1048.83,-112.42C1000.65,-104.08 925.54,-90.78 851.42,-76.24"/>
<polygon fill="midnightblue" stroke="midnightblue" points="851.94,-72.77 841.45,-74.27 850.58,-79.64 851.94,-72.77"/>
</g>
<!-- Node13 -->
<g id="node13" class="node">
<title>Node13</title>
<g id="a_node13"><a xlink:title=" ">
<polygon fill="white" stroke="#bfbfbf" points="859,-56.5 859,-75.5 939,-75.5 939,-56.5 859,-56.5"/>
<text text-anchor="middle" x="899" y="-63.5" font-family="Helvetica,sans-Serif" font-size="10.00">semaphore.h</text>
</a>
</g>
</g>
<!-- Node1&#45;&gt;Node13 -->
<g id="edge12" class="edge">
<title>Node1&#45;&gt;Node13</title>
<path fill="none" stroke="midnightblue" d="M1067.31,-112.44C1032.93,-103.16 977.92,-88.31 940.21,-78.13"/>
<polygon fill="midnightblue" stroke="midnightblue" points="941.11,-74.74 930.54,-75.52 939.28,-81.5 941.11,-74.74"/>
</g>
<!-- Node14 -->
<g id="node14" class="node">
<title>Node14</title>
<g id="a_node14"><a xlink:title=" ">
<polygon fill="white" stroke="#bfbfbf" points="957,-56.5 957,-75.5 1021,-75.5 1021,-56.5 957,-56.5"/>
<text text-anchor="middle" x="989" y="-63.5" font-family="Helvetica,sans-Serif" font-size="10.00">sys/stat.h</text>
</a>
</g>
</g>
<!-- Node1&#45;&gt;Node14 -->
<g id="edge13" class="edge">
<title>Node1&#45;&gt;Node14</title>
<path fill="none" stroke="midnightblue" d="M1081.33,-112.32C1063.61,-103.62 1036.1,-90.12 1015.71,-80.11"/>
<polygon fill="midnightblue" stroke="midnightblue" points="1017.15,-76.92 1006.63,-75.65 1014.06,-83.2 1017.15,-76.92"/>
</g>
<!-- Node15 -->
<g id="node15" class="node">
<title>Node15</title>
<g id="a_node15"><a xlink:title=" ">
<polygon fill="white" stroke="#bfbfbf" points="1039.5,-56.5 1039.5,-75.5 1086.5,-75.5 1086.5,-56.5 1039.5,-56.5"/>
<text text-anchor="middle" x="1063" y="-63.5" font-family="Helvetica,sans-Serif" font-size="10.00">fcntl.h</text>
</a>
</g>
</g>
<!-- Node1&#45;&gt;Node15 -->
<g id="edge14" class="edge">
<title>Node1&#45;&gt;Node15</title>
<path fill="none" stroke="midnightblue" d="M1093.06,-112.08C1088.02,-104.53 1080.66,-93.49 1074.49,-84.23"/>
<polygon fill="midnightblue" stroke="midnightblue" points="1077.29,-82.13 1068.83,-75.75 1071.47,-86.01 1077.29,-82.13"/>
</g>
<!-- Node16 -->
<g id="node16" class="node">
<title>Node16</title>
<g id="a_node16"><a xlink:title=" ">
<polygon fill="white" stroke="#bfbfbf" points="1105,-56.5 1105,-75.5 1165,-75.5 1165,-56.5 1105,-56.5"/>
<text text-anchor="middle" x="1135" y="-63.5" font-family="Helvetica,sans-Serif" font-size="10.00">iostream</text>
</a>
</g>
</g>
<!-- Node1&#45;&gt;Node16 -->
<g id="edge15" class="edge">
<title>Node1&#45;&gt;Node16</title>
<path fill="none" stroke="midnightblue" d="M1104.94,-112.08C1109.98,-104.53 1117.34,-93.49 1123.51,-84.23"/>
<polygon fill="midnightblue" stroke="midnightblue" points="1126.53,-86.01 1129.17,-75.75 1120.71,-82.13 1126.53,-86.01"/>
</g>
<!-- Node17 -->
<g id="node17" class="node">
<title>Node17</title>
<g id="a_node17"><a xlink:title=" ">
<polygon fill="white" stroke="#bfbfbf" points="1183,-56.5 1183,-75.5 1229,-75.5 1229,-56.5 1183,-56.5"/>
<text text-anchor="middle" x="1206" y="-63.5" font-family="Helvetica,sans-Serif" font-size="10.00">locale</text>
</a>
</g>
</g>
<!-- Node1&#45;&gt;Node17 -->
<g id="edge16" class="edge">
<title>Node1&#45;&gt;Node17</title>
<path fill="none" stroke="midnightblue" d="M1116.19,-112.32C1133.35,-103.66 1159.95,-90.24 1179.75,-80.25"/>
<polygon fill="midnightblue" stroke="midnightblue" points="1181.5,-83.28 1188.85,-75.65 1178.35,-77.04 1181.5,-83.28"/>
</g>
<!-- Node18 -->
<g id="node18" class="node">
<title>Node18</title>
<g id="a_node18"><a xlink:title=" ">
<polygon fill="white" stroke="#bfbfbf" points="1247,-56.5 1247,-75.5 1303,-75.5 1303,-56.5 1247,-56.5"/>
<text text-anchor="middle" x="1275" y="-63.5" font-family="Helvetica,sans-Serif" font-size="10.00">unistd.h</text>
</a>
</g>
</g>
<!-- Node1&#45;&gt;Node18 -->
<g id="edge17" class="edge">
<title>Node1&#45;&gt;Node18</title>
<path fill="none" stroke="midnightblue" d="M1126.89,-112.44C1156.75,-103.28 1204.31,-88.69 1237.46,-78.52"/>
<polygon fill="midnightblue" stroke="midnightblue" points="1238.71,-81.8 1247.24,-75.52 1236.66,-75.1 1238.71,-81.8"/>
</g>
<!-- Node19 -->
<g id="node19" class="node">
<title>Node19</title>
<g id="a_node19"><a xlink:title=" ">
<polygon fill="white" stroke="#bfbfbf" points="1321.5,-56.5 1321.5,-75.5 1400.5,-75.5 1400.5,-56.5 1321.5,-56.5"/>
<text text-anchor="middle" x="1361" y="-63.5" font-family="Helvetica,sans-Serif" font-size="10.00">sys/syscall.h</text>
</a>
</g>
</g>
<!-- Node1&#45;&gt;Node19 -->
<g id="edge18" class="edge">
<title>Node1&#45;&gt;Node19</title>
<path fill="none" stroke="midnightblue" d="M1140.51,-112.44C1186.95,-102.87 1262.12,-87.38 1311.56,-77.19"/>
<polygon fill="midnightblue" stroke="midnightblue" points="1312.31,-80.61 1321.39,-75.16 1310.89,-73.75 1312.31,-80.61"/>
</g>
<!-- Node20 -->
<g id="node20" class="node">
<title>Node20</title>
<g id="a_node20"><a xlink:title=" ">
<polygon fill="white" stroke="#bfbfbf" points="1418,-56.5 1418,-75.5 1474,-75.5 1474,-56.5 1418,-56.5"/>
<text text-anchor="middle" x="1446" y="-63.5" font-family="Helvetica,sans-Serif" font-size="10.00">assert.h</text>
</a>
</g>
</g>
<!-- Node1&#45;&gt;Node20 -->
<g id="edge19" class="edge">
<title>Node1&#45;&gt;Node20</title>
<path fill="none" stroke="midnightblue" d="M1172.25,-112.53C1233.15,-105 1322.26,-92.85 1407.88,-76.28"/>
<polygon fill="midnightblue" stroke="midnightblue" points="1408.62,-79.7 1417.76,-74.35 1407.28,-72.83 1408.62,-79.7"/>
</g>
<!-- Node21 -->
<g id="node21" class="node">
<title>Node21</title>
<g id="a_node21"><a xlink:title=" ">
<polygon fill="white" stroke="#bfbfbf" points="1492.5,-56.5 1492.5,-75.5 1569.5,-75.5 1569.5,-56.5 1492.5,-56.5"/>
<text text-anchor="middle" x="1531" y="-63.5" font-family="Helvetica,sans-Serif" font-size="10.00">sys/mman.h</text>
</a>
</g>
</g>
<!-- Node1&#45;&gt;Node21 -->
<g id="edge20" class="edge">
<title>Node1&#45;&gt;Node21</title>
<path fill="none" stroke="midnightblue" d="M1172.1,-113.94C1247.31,-106.34 1368.09,-93.18 1482.3,-76.01"/>
<polygon fill="midnightblue" stroke="midnightblue" points="1482.9,-79.46 1492.27,-74.5 1481.85,-72.54 1482.9,-79.46"/>
</g>
<!-- Node22 -->
<g id="node22" class="node">
<title>Node22</title>
<g id="a_node22"><a xlink:title=" ">
<polygon fill="white" stroke="#bfbfbf" points="1587.5,-56.5 1587.5,-75.5 1652.5,-75.5 1652.5,-56.5 1587.5,-56.5"/>
<text text-anchor="middle" x="1620" y="-63.5" font-family="Helvetica,sans-Serif" font-size="10.00">exception</text>
</a>
</g>
</g>
<!-- Node1&#45;&gt;Node22 -->
<g id="edge21" class="edge">
<title>Node1&#45;&gt;Node22</title>
<path fill="none" stroke="midnightblue" d="M1172.13,-116.94C1264.41,-111.19 1428.16,-98.92 1577.15,-76.12"/>
<polygon fill="midnightblue" stroke="midnightblue" points="1578.05,-79.53 1587.39,-74.54 1576.98,-72.61 1578.05,-79.53"/>
</g>
<!-- Node23 -->
<g id="node23" class="node">
<title>Node23</title>
<g id="a_node23"><a xlink:title=" ">
<polygon fill="white" stroke="#bfbfbf" points="1671,-56.5 1671,-75.5 1739,-75.5 1739,-56.5 1671,-56.5"/>
<text text-anchor="middle" x="1705" y="-63.5" font-family="Helvetica,sans-Serif" font-size="10.00">sys/time.h</text>
</a>
</g>
</g>
<!-- Node1&#45;&gt;Node23 -->
<g id="edge22" class="edge">
<title>Node1&#45;&gt;Node23</title>
<path fill="none" stroke="midnightblue" d="M1172.21,-118.11C1277.99,-113.28 1479.84,-101.59 1660.83,-75.99"/>
<polygon fill="midnightblue" stroke="midnightblue" points="1661.4,-79.45 1670.8,-74.57 1660.41,-72.52 1661.4,-79.45"/>
</g>
<!-- Node24 -->
<g id="node24" class="node">
<title>Node24</title>
<g id="a_node24"><a xlink:title=" ">
<polygon fill="white" stroke="#bfbfbf" points="1757.5,-56.5 1757.5,-75.5 1812.5,-75.5 1812.5,-56.5 1757.5,-56.5"/>
<text text-anchor="middle" x="1785" y="-63.5" font-family="Helvetica,sans-Serif" font-size="10.00">signal.h</text>
</a>
</g>
</g>
<!-- Node1&#45;&gt;Node24 -->
<g id="edge23" class="edge">
<title>Node1&#45;&gt;Node24</title>
<path fill="none" stroke="midnightblue" d="M1172.45,-119.95C1291.32,-117.36 1533.25,-108.41 1747.06,-75.86"/>
<polygon fill="midnightblue" stroke="midnightblue" points="1747.87,-79.28 1757.22,-74.29 1746.8,-72.36 1747.87,-79.28"/>
</g>
<!-- Node25 -->
<g id="node25" class="node">
<title>Node25</title>
<g id="a_node25"><a xlink:title=" ">
<polygon fill="white" stroke="#bfbfbf" points="1830.5,-56.5 1830.5,-75.5 1883.5,-75.5 1883.5,-56.5 1830.5,-56.5"/>
<text text-anchor="middle" x="1857" y="-63.5" font-family="Helvetica,sans-Serif" font-size="10.00">string.h</text>
</a>
</g>
</g>
<!-- Node1&#45;&gt;Node25 -->
<g id="edge24" class="edge">
<title>Node1&#45;&gt;Node25</title>
<path fill="none" stroke="midnightblue" d="M1172.1,-121.01C1301.37,-120.03 1578.73,-113.45 1820.33,-75.98"/>
<polygon fill="midnightblue" stroke="midnightblue" points="1821.02,-79.42 1830.36,-74.41 1819.93,-72.5 1821.02,-79.42"/>
</g>
<!-- Node26 -->
<g id="node26" class="node">
<title>Node26</title>
<g id="a_node26"><a xlink:title=" ">
<polygon fill="white" stroke="#bfbfbf" points="1901.5,-56.5 1901.5,-75.5 1960.5,-75.5 1960.5,-56.5 1901.5,-56.5"/>
<text text-anchor="middle" x="1931" y="-63.5" font-family="Helvetica,sans-Serif" font-size="10.00">setjmp.h</text>
</a>
</g>
</g>
<!-- Node1&#45;&gt;Node26 -->
<g id="edge25" class="edge">
<title>Node1&#45;&gt;Node26</title>
<path fill="none" stroke="midnightblue" d="M1172.23,-121.14C1311.03,-120.47 1621.94,-114.49 1891.26,-76.02"/>
<polygon fill="midnightblue" stroke="midnightblue" points="1891.83,-79.47 1901.22,-74.57 1890.83,-72.54 1891.83,-79.47"/>
</g>
<!-- Node27 -->
<g id="node27" class="node">
<title>Node27</title>
<g id="a_node27"><a xlink:title=" ">
<polygon fill="white" stroke="#bfbfbf" points="1979,-56.5 1979,-75.5 2035,-75.5 2035,-56.5 1979,-56.5"/>
<text text-anchor="middle" x="2007" y="-63.5" font-family="Helvetica,sans-Serif" font-size="10.00">sstream</text>
</a>
</g>
</g>
<!-- Node1&#45;&gt;Node27 -->
<g id="edge26" class="edge">
<title>Node1&#45;&gt;Node27</title>
<path fill="none" stroke="midnightblue" d="M1172,-121.82C1320.55,-122.48 1668.6,-118.97 1968.62,-75.91"/>
<polygon fill="midnightblue" stroke="midnightblue" points="1969.43,-79.33 1978.82,-74.43 1968.43,-72.4 1969.43,-79.33"/>
</g>
<!-- Node28 -->
<g id="node28" class="node">
<title>Node28</title>
<g id="a_node28"><a xlink:title=" ">
<polygon fill="white" stroke="#bfbfbf" points="2053.5,-56.5 2053.5,-75.5 2108.5,-75.5 2108.5,-56.5 2053.5,-56.5"/>
<text text-anchor="middle" x="2081" y="-63.5" font-family="Helvetica,sans-Serif" font-size="10.00">fstream</text>
</a>
</g>
</g>
<!-- Node1&#45;&gt;Node28 -->
<g id="edge27" class="edge">
<title>Node1&#45;&gt;Node28</title>
<path fill="none" stroke="midnightblue" d="M1172.16,-119.32C1360.13,-114.73 1857.63,-100.72 2043.3,-75.75"/>
<polygon fill="midnightblue" stroke="midnightblue" points="2043.81,-79.21 2053.23,-74.36 2042.84,-72.28 2043.81,-79.21"/>
</g>
<!-- Node29 -->
<g id="node29" class="node">
<title>Node29</title>
<g id="a_node29"><a xlink:title=" ">
<polygon fill="white" stroke="#bfbfbf" points="2127,-56.5 2127,-75.5 2267,-75.5 2267,-56.5 2127,-56.5"/>
<text text-anchor="middle" x="2197" y="-63.5" font-family="Helvetica,sans-Serif" font-size="10.00">google/sparse_hash_map</text>
</a>
</g>
</g>
<!-- Node1&#45;&gt;Node29 -->
<g id="edge28" class="edge">
<title>Node1&#45;&gt;Node29</title>
<path fill="none" stroke="midnightblue" d="M1172.01,-119.51C1337.91,-115.75 1756.2,-104.16 2116.7,-76.05"/>
<polygon fill="midnightblue" stroke="midnightblue" points="2117.12,-79.52 2126.81,-75.25 2116.57,-72.55 2117.12,-79.52"/>
</g>
<!-- Node30 -->
<g id="node30" class="node">
<title>Node30</title>
<g id="a_node30"><a xlink:title=" ">
<polygon fill="white" stroke="#bfbfbf" points="2285.5,-56.5 2285.5,-75.5 2422.5,-75.5 2422.5,-56.5 2285.5,-56.5"/>
<text text-anchor="middle" x="2354" y="-63.5" font-family="Helvetica,sans-Serif" font-size="10.00">google/dense_hash_map</text>
</a>
</g>
</g>
<!-- Node1&#45;&gt;Node30 -->
<g id="edge29" class="edge">
<title>Node1&#45;&gt;Node30</title>
<path fill="none" stroke="midnightblue" d="M1172.11,-120.15C1355.72,-117.6 1851.22,-108.13 2275.12,-76"/>
<polygon fill="midnightblue" stroke="midnightblue" points="2275.42,-79.49 2285.12,-75.24 2274.89,-72.51 2275.42,-79.49"/>
</g>
<!-- Node31 -->
<g id="node31" class="node">
<title>Node31</title>
<g id="a_node31"><a xlink:href="cctlib_8H.html" target="_top" xlink:title=" ">
<polygon fill="white" stroke="black" points="123.5,-56.5 123.5,-75.5 176.5,-75.5 176.5,-56.5 123.5,-56.5"/>
<text text-anchor="middle" x="150" y="-63.5" font-family="Helvetica,sans-Serif" font-size="10.00">cctlib.H</text>
</a>
</g>
</g>
<!-- Node1&#45;&gt;Node31 -->
<g id="edge30" class="edge">
<title>Node1&#45;&gt;Node31</title>
<path fill="none" stroke="midnightblue" d="M1025.95,-121.49C871.23,-121.63 499.39,-117.2 191,-76 189.7,-75.83 188.38,-75.63 187.05,-75.42"/>
<polygon fill="midnightblue" stroke="midnightblue" points="187.26,-71.9 176.79,-73.55 186,-78.79 187.26,-71.9"/>
</g>
<!-- Node31&#45;&gt;Node2 -->
<g id="edge33" class="edge">
<title>Node31&#45;&gt;Node2</title>
<path fill="none" stroke="midnightblue" d="M130.19,-56.44C109.71,-47.6 77.52,-33.69 54.14,-23.59"/>
<polygon fill="midnightblue" stroke="midnightblue" points="55.28,-20.27 44.71,-19.52 52.51,-26.7 55.28,-20.27"/>
</g>
<!-- Node31&#45;&gt;Node4 -->
<g id="edge31" class="edge">
<title>Node31&#45;&gt;Node4</title>
<path fill="none" stroke="midnightblue" d="M140.2,-56.32C131.18,-48.34 117.59,-36.31 106.68,-26.65"/>
<polygon fill="midnightblue" stroke="midnightblue" points="108.79,-23.84 98.98,-19.83 104.15,-29.08 108.79,-23.84"/>
</g>
<!-- Node31&#45;&gt;Node9 -->
<g id="edge32" class="edge">
<title>Node31&#45;&gt;Node9</title>
<path fill="none" stroke="midnightblue" d="M171.07,-56.44C193.06,-47.52 227.73,-33.44 252.66,-23.32"/>
<polygon fill="midnightblue" stroke="midnightblue" points="254.08,-26.52 262.02,-19.52 251.44,-20.04 254.08,-26.52"/>
</g>
<!-- Node32 -->
<g id="node32" class="node">
<title>Node32</title>
<g id="a_node32"><a xlink:title=" ">
<polygon fill="white" stroke="#bfbfbf" points="194,-0.5 194,-19.5 238,-19.5 238,-0.5 194,-0.5"/>
<text text-anchor="middle" x="216" y="-7.5" font-family="Helvetica,sans-Serif" font-size="10.00">string</text>
</a>
</g>
</g>
<!-- Node31&#45;&gt;Node32 -->
<g id="edge34" class="edge">
<title>Node31&#45;&gt;Node32</title>
<path fill="none" stroke="midnightblue" d="M160.6,-56.32C170.46,-48.26 185.35,-36.08 197.22,-26.37"/>
<polygon fill="midnightblue" stroke="midnightblue" points="199.68,-28.88 205.2,-19.83 195.25,-23.46 199.68,-28.88"/>
</g>
<!-- Node33 -->
<g id="node33" class="node">
<title>Node33</title>
<g id="a_node33"><a xlink:title=" ">
<polygon fill="white" stroke="#bfbfbf" points="128.5,-0.5 128.5,-19.5 175.5,-19.5 175.5,-0.5 128.5,-0.5"/>
<text text-anchor="middle" x="152" y="-7.5" font-family="Helvetica,sans-Serif" font-size="10.00">vector</text>
</a>
</g>
</g>
<!-- Node31&#45;&gt;Node33 -->
<g id="edge35" class="edge">
<title>Node31&#45;&gt;Node33</title>
<path fill="none" stroke="midnightblue" d="M150.33,-56.08C150.59,-49.01 150.97,-38.86 151.3,-29.99"/>
<polygon fill="midnightblue" stroke="midnightblue" points="154.8,-29.87 151.68,-19.75 147.81,-29.61 154.8,-29.87"/>
</g>
</g>
</svg>
        <g id="navigator" transform="translate(0 0)" fill="#404254">
                <rect fill="#f2f5e9" fill-opacity="0.5" stroke="#606060" stroke-width=".5" x="0" y="0" width="60" height="60"/>
                <use id="zoomplus" xlink:href="#zoomPlus" x="17" y="9" onmousedown="handleZoom(evt,'in')"/>
                <use id="zoomminus" xlink:href="#zoomMin" x="42" y="9" onmousedown="handleZoom(evt,'out')"/>
                <use id="reset" xlink:href="#resetDef" x="30" y="36" onmousedown="handleReset()"/>
                <g id="arrowUp" xlink:href="#dirArrow" transform="translate(30 24)" onmousedown="handlePan(0,-1)">
                  <use xlink:href="#rim" fill="#404040">
                        <set attributeName="fill" to="#808080" begin="arrowUp.mouseover" end="arrowUp.mouseout"/>
                  </use>
                  <path fill="none" stroke="white" stroke-width="1.5" d="M0,-3.0v7 M-2.5,-0.5L0,-3.0L2.5,-0.5"/>
                </g>
                <g id="arrowRight" xlink:href="#dirArrow" transform="rotate(90) translate(36 -43)" onmousedown="handlePan(1,0)">
                  <use xlink:href="#rim" fill="#404040">
                        <set attributeName="fill" to="#808080" begin="arrowRight.mouseover" end="arrowRight.mouseout"/>
                  </use>
                  <path fill="none" stroke="white" stroke-width="1.5" d="M0,-3.0v7 M-2.5,-0.5L0,-3.0L2.5,-0.5"/>
                </g>
                <g id="arrowDown" xlink:href="#dirArrow" transform="rotate(180) translate(-30 -48)" onmousedown="handlePan(0,1)">
                  <use xlink:href="#rim" fill="#404040">
                        <set attributeName="fill" to="#808080" begin="arrowDown.mouseover" end="arrowDown.mouseout"/>
                  </use>
                  <path fill="none" stroke="white" stroke-width="1.5" d="M0,-3.0v7 M-2.5,-0.5L0,-3.0L2.5,-0.5"/>
                </g>
                <g id="arrowLeft" xlink:href="#dirArrow" transform="rotate(270) translate(-36 17)" onmousedown="handlePan(-1,0)">
                  <use xlink:href="#rim" fill="#404040">
                        <set attributeName="fill" to="#808080" begin="arrowLeft.mouseover" end="arrowLeft.mouseout"/>
                  </use>
                  <path fill="none" stroke="white" stroke-width="1.5" d="M0,-3.0v7 M-2.5,-0.5L0,-3.0L2.5,-0.5"/>
                </g>
        </g>
        <svg viewBox="0 0 15 15" width="100%" height="30px" preserveAspectRatio="xMaxYMin meet">
         <g id="arrow_out" transform="scale(0.3 0.3)">
          <a xlink:href="deadspy__client_8cpp__incl_org.svg" target="_base">
           <rect id="button" ry="5" rx="5" y="6" x="6" height="38" width="38"
                fill="#f2f5e9" fill-opacity="0.5" stroke="#606060" stroke-width="1.0"/>
           <path id="arrow"
             d="M 11.500037,31.436501 C 11.940474,20.09759 22.043105,11.32322 32.158766,21.979434 L 37.068811,17.246167 C 37.068811,17.246167 37.088388,32 37.088388,32 L 22.160133,31.978069 C 22.160133,31.978069 26.997745,27.140456 26.997745,27.140456 C 18.528582,18.264221 13.291696,25.230495 11.500037,31.436501 z"
             style="fill:#404040;"/>
          </a>
         </g>
        </svg>
</svg>
