<?xml version="1.0" encoding="UTF-8" standalone="no"?>
<!DOCTYPE svg PUBLIC "-//W3C//DTD SVG 1.1//EN"
 "http://www.w3.org/Graphics/SVG/1.1/DTD/svg11.dtd">
<!-- Generated by graphviz version 2.43.0 (0)
 -->
<!-- Title: clients Pages: 1 -->
<svg width="305pt" height="132pt"
 viewBox="0.00 0.00 305.00 132.00" xmlns="http://www.w3.org/2000/svg" xmlns:xlink="http://www.w3.org/1999/xlink">
<g id="graph0" class="graph" transform="scale(1 1) rotate(0) translate(4 128)">
<title>clients</title>
<polygon fill="white" stroke="transparent" points="-4,4 -4,-128 301,-128 301,4 -4,4"/>
<g id="clust1" class="cluster">
<title>clusterdir_5dee37d50bdf07e6cb05e52fb214dda3</title>
<g id="a_clust1"><a xlink:href="dir_5dee37d50bdf07e6cb05e52fb214dda3.html" target="_top">
<polygon fill="#eeeeff" stroke="black" points="8,-64 8,-116 289,-116 289,-64 8,-64"/>
</a>
</g>
</g>
<!-- dir_5dee37d50bdf07e6cb05e52fb214dda3 -->
<g id="node1" class="node">
<title>dir_5dee37d50bdf07e6cb05e52fb214dda3</title>
<text text-anchor="middle" x="254" y="-87.5" font-family="Helvetica,sans-Serif" font-size="10.00">clients</text>
</g>
<!-- dir_68267d1309a1af8e8297ef4c3efbcdba -->
<g id="node4" class="node">
<title>dir_68267d1309a1af8e8297ef4c3efbcdba</title>
<g id="a_node4"><a xlink:href="dir_68267d1309a1af8e8297ef4c3efbcdba.html" target="_top" xlink:title="src">
<polygon fill="none" stroke="black" points="281,-36 227,-36 227,0 281,0 281,-36"/>
<text text-anchor="middle" x="254" y="-15.5" font-family="Helvetica,sans-Serif" font-size="10.00">src</text>
</a>
</g>
</g>
<!-- dir_5dee37d50bdf07e6cb05e52fb214dda3&#45;&gt;dir_68267d1309a1af8e8297ef4c3efbcdba -->
<g id="edge1" class="edge">
<title>dir_5dee37d50bdf07e6cb05e52fb214dda3&#45;&gt;dir_68267d1309a1af8e8297ef4c3efbcdba</title>
<path fill="none" stroke="black" d="M254,-71.7C254,-63.98 254,-54.71 254,-46.11"/>
<polygon fill="black" stroke="black" points="257.5,-46.1 254,-36.1 250.5,-46.1 257.5,-46.1"/>
<g id="a_edge1&#45;headlabel"><a xlink:href="dir_000000_000003.html" target="_top" xlink:title="34">
<text text-anchor="middle" x="260.34" y="-47.2" font-family="Helvetica,sans-Serif" font-size="10.00">34</text>
</a>
</g>
</g>
<!-- dir_d88cea20f20409f55b86f84a539fde2b -->
<g id="node2" class="node">
<title>dir_d88cea20f20409f55b86f84a539fde2b</title>
<g id="a_node2"><a xlink:href="dir_d88cea20f20409f55b86f84a539fde2b.html" target="_top" xlink:title="footprint_test">
<polygon fill="white" stroke="black" points="208.5,-108 125.5,-108 125.5,-72 208.5,-72 208.5,-108"/>
<text text-anchor="middle" x="167" y="-87.5" font-family="Helvetica,sans-Serif" font-size="10.00">footprint_test</text>
</a>
</g>
</g>
<!-- dir_603f25d98e4bf1d886009654d7a7a555 -->
<g id="node3" class="node">
<title>dir_603f25d98e4bf1d886009654d7a7a555</title>
<g id="a_node3"><a xlink:href="dir_603f25d98e4bf1d886009654d7a7a555.html" target="_top" xlink:title="valueNum_test">
<polygon fill="white" stroke="black" points="107.5,-108 16.5,-108 16.5,-72 107.5,-72 107.5,-108"/>
<text text-anchor="middle" x="62" y="-87.5" font-family="Helvetica,sans-Serif" font-size="10.00">valueNum_test</text>
</a>
</g>
</g>
</g>
</svg>
