<?xml version="1.0" encoding="UTF-8" standalone="no"?>
<!DOCTYPE svg PUBLIC "-//W3C//DTD SVG 1.1//EN"
 "http://www.w3.org/Graphics/SVG/1.1/DTD/svg11.dtd">
<!-- Generated by graphviz version 2.43.0 (0)
 -->
<!-- Title: tests/gtest/apps/exceptions/exc_catchall.cpp Pages: 1 -->
<svg width="184pt" height="95pt"
 viewBox="0.00 0.00 184.00 95.00" xmlns="http://www.w3.org/2000/svg" xmlns:xlink="http://www.w3.org/1999/xlink">
<g id="graph0" class="graph" transform="scale(1 1) rotate(0) translate(4 91)">
<title>tests/gtest/apps/exceptions/exc_catchall.cpp</title>
<polygon fill="white" stroke="transparent" points="-4,4 -4,-91 180,-91 180,4 -4,4"/>
<!-- Node1 -->
<g id="node1" class="node">
<title>Node1</title>
<g id="a_node1"><a xlink:title=" ">
<polygon fill="#bfbfbf" stroke="black" points="15.5,-56.5 15.5,-86.5 166.5,-86.5 166.5,-56.5 15.5,-56.5"/>
<text text-anchor="start" x="23.5" y="-74.5" font-family="Helvetica,sans-Serif" font-size="10.00">tests/gtest/apps/exceptions</text>
<text text-anchor="middle" x="91" y="-63.5" font-family="Helvetica,sans-Serif" font-size="10.00">/exc_catchall.cpp</text>
</a>
</g>
</g>
<!-- Node2 -->
<g id="node2" class="node">
<title>Node2</title>
<g id="a_node2"><a xlink:title=" ">
<polygon fill="white" stroke="#bfbfbf" points="0,-0.5 0,-19.5 50,-19.5 50,-0.5 0,-0.5"/>
<text text-anchor="middle" x="25" y="-7.5" font-family="Helvetica,sans-Serif" font-size="10.00">cstdint</text>
</a>
</g>
</g>
<!-- Node1&#45;&gt;Node2 -->
<g id="edge1" class="edge">
<title>Node1&#45;&gt;Node2</title>
<path fill="none" stroke="midnightblue" d="M75.36,-56.4C65.37,-47.4 52.42,-35.72 42.15,-26.47"/>
<polygon fill="midnightblue" stroke="midnightblue" points="44.37,-23.75 34.6,-19.66 39.69,-28.95 44.37,-23.75"/>
</g>
<!-- Node3 -->
<g id="node3" class="node">
<title>Node3</title>
<g id="a_node3"><a xlink:title=" ">
<polygon fill="white" stroke="#bfbfbf" points="68,-0.5 68,-19.5 114,-19.5 114,-0.5 68,-0.5"/>
<text text-anchor="middle" x="91" y="-7.5" font-family="Helvetica,sans-Serif" font-size="10.00">cstdio</text>
</a>
</g>
</g>
<!-- Node1&#45;&gt;Node3 -->
<g id="edge2" class="edge">
<title>Node1&#45;&gt;Node3</title>
<path fill="none" stroke="midnightblue" d="M91,-56.4C91,-48.47 91,-38.46 91,-29.86"/>
<polygon fill="midnightblue" stroke="midnightblue" points="94.5,-29.66 91,-19.66 87.5,-29.66 94.5,-29.66"/>
</g>
<!-- Node4 -->
<g id="node4" class="node">
<title>Node4</title>
<g id="a_node4"><a xlink:title=" ">
<polygon fill="white" stroke="#bfbfbf" points="132,-0.5 132,-19.5 176,-19.5 176,-0.5 132,-0.5"/>
<text text-anchor="middle" x="154" y="-7.5" font-family="Helvetica,sans-Serif" font-size="10.00">string</text>
</a>
</g>
</g>
<!-- Node1&#45;&gt;Node4 -->
<g id="edge3" class="edge">
<title>Node1&#45;&gt;Node4</title>
<path fill="none" stroke="midnightblue" d="M105.93,-56.4C115.37,-47.49 127.58,-35.95 137.33,-26.74"/>
<polygon fill="midnightblue" stroke="midnightblue" points="139.97,-29.07 144.83,-19.66 135.16,-23.98 139.97,-29.07"/>
</g>
</g>
</svg>
