<?xml version="1.0" encoding="UTF-8" standalone="no"?>
<!DOCTYPE svg PUBLIC "-//W3C//DTD SVG 1.1//EN"
 "http://www.w3.org/Graphics/SVG/1.1/DTD/svg11.dtd">
<!-- Generated by graphviz version 2.43.0 (0)
 -->
<!-- Title: tests/gtest/exception_shape_test.cpp Pages: 1 -->
<svg width="933pt" height="95pt"
 viewBox="0.00 0.00 932.50 95.00" xmlns="http://www.w3.org/2000/svg" xmlns:xlink="http://www.w3.org/1999/xlink">
<g id="graph0" class="graph" transform="scale(1 1) rotate(0) translate(4 91)">
<title>tests/gtest/exception_shape_test.cpp</title>
<polygon fill="white" stroke="transparent" points="-4,4 -4,-91 928.5,-91 928.5,4 -4,4"/>
<!-- Node1 -->
<g id="node1" class="node">
<title>Node1</title>
<g id="a_node1"><a xlink:title=" ">
<polygon fill="#bfbfbf" stroke="black" points="373,-56.5 373,-86.5 492,-86.5 492,-56.5 373,-56.5"/>
<text text-anchor="start" x="381" y="-74.5" font-family="Helvetica,sans-Serif" font-size="10.00">tests/gtest/exception</text>
<text text-anchor="middle" x="432.5" y="-63.5" font-family="Helvetica,sans-Serif" font-size="10.00">_shape_test.cpp</text>
</a>
</g>
</g>
<!-- Node2 -->
<g id="node2" class="node">
<title>Node2</title>
<g id="a_node2"><a xlink:title=" ">
<polygon fill="white" stroke="#bfbfbf" points="0,-0.5 0,-19.5 47,-19.5 47,-0.5 0,-0.5"/>
<text text-anchor="middle" x="23.5" y="-7.5" font-family="Helvetica,sans-Serif" font-size="10.00">cerrno</text>
</a>
</g>
</g>
<!-- Node1&#45;&gt;Node2 -->
<g id="edge1" class="edge">
<title>Node1&#45;&gt;Node2</title>
<path fill="none" stroke="midnightblue" d="M372.83,-64.96C300.37,-57.67 174.34,-43.24 57.07,-19.86"/>
<polygon fill="midnightblue" stroke="midnightblue" points="57.7,-16.42 47.2,-17.87 56.31,-23.28 57.7,-16.42"/>
</g>
<!-- Node3 -->
<g id="node3" class="node">
<title>Node3</title>
<g id="a_node3"><a xlink:title=" ">
<polygon fill="white" stroke="#bfbfbf" points="65.5,-0.5 65.5,-19.5 111.5,-19.5 111.5,-0.5 65.5,-0.5"/>
<text text-anchor="middle" x="88.5" y="-7.5" font-family="Helvetica,sans-Serif" font-size="10.00">cstdio</text>
</a>
</g>
</g>
<!-- Node1&#45;&gt;Node3 -->
<g id="edge2" class="edge">
<title>Node1&#45;&gt;Node3</title>
<path fill="none" stroke="midnightblue" d="M372.89,-62.91C311.97,-54.68 214.51,-40.25 121.68,-20.06"/>
<polygon fill="midnightblue" stroke="midnightblue" points="122.36,-16.63 111.84,-17.9 120.85,-23.46 122.36,-16.63"/>
</g>
<!-- Node4 -->
<g id="node4" class="node">
<title>Node4</title>
<g id="a_node4"><a xlink:title=" ">
<polygon fill="white" stroke="#bfbfbf" points="130,-0.5 130,-19.5 179,-19.5 179,-0.5 130,-0.5"/>
<text text-anchor="middle" x="154.5" y="-7.5" font-family="Helvetica,sans-Serif" font-size="10.00">cstdlib</text>
</a>
</g>
</g>
<!-- Node1&#45;&gt;Node4 -->
<g id="edge3" class="edge">
<title>Node1&#45;&gt;Node4</title>
<path fill="none" stroke="midnightblue" d="M372.63,-59.06C325.44,-49.82 257.74,-36.1 189.42,-20.12"/>
<polygon fill="midnightblue" stroke="midnightblue" points="189.88,-16.63 179.34,-17.74 188.27,-23.44 189.88,-16.63"/>
</g>
<!-- Node5 -->
<g id="node5" class="node">
<title>Node5</title>
<g id="a_node5"><a xlink:title=" ">
<polygon fill="white" stroke="#bfbfbf" points="197.5,-0.5 197.5,-19.5 247.5,-19.5 247.5,-0.5 197.5,-0.5"/>
<text text-anchor="middle" x="222.5" y="-7.5" font-family="Helvetica,sans-Serif" font-size="10.00">cstring</text>
</a>
</g>
</g>
<!-- Node1&#45;&gt;Node5 -->
<g id="edge4" class="edge">
<title>Node1&#45;&gt;Node5</title>
<path fill="none" stroke="midnightblue" d="M383,-56.47C344.43,-45.55 291.83,-30.64 257.53,-20.92"/>
<polygon fill="midnightblue" stroke="midnightblue" points="258.08,-17.44 247.5,-18.08 256.17,-24.18 258.08,-17.44"/>
</g>
<!-- Node6 -->
<g id="node6" class="node">
<title>Node6</title>
<g id="a_node6"><a xlink:title=" ">
<polygon fill="white" stroke="#bfbfbf" points="266,-0.5 266,-19.5 313,-19.5 313,-0.5 266,-0.5"/>
<text text-anchor="middle" x="289.5" y="-7.5" font-family="Helvetica,sans-Serif" font-size="10.00">fcntl.h</text>
</a>
</g>
</g>
<!-- Node1&#45;&gt;Node6 -->
<g id="edge5" class="edge">
<title>Node1&#45;&gt;Node6</title>
<path fill="none" stroke="midnightblue" d="M398.61,-56.4C374.62,-46.42 342.73,-33.15 319.62,-23.53"/>
<polygon fill="midnightblue" stroke="midnightblue" points="320.89,-20.27 310.31,-19.66 318.2,-26.73 320.89,-20.27"/>
</g>
<!-- Node7 -->
<g id="node7" class="node">
<title>Node7</title>
<g id="a_node7"><a xlink:title=" ">
<polygon fill="white" stroke="#bfbfbf" points="331,-0.5 331,-19.5 386,-19.5 386,-0.5 331,-0.5"/>
<text text-anchor="middle" x="358.5" y="-7.5" font-family="Helvetica,sans-Serif" font-size="10.00">fstream</text>
</a>
</g>
</g>
<!-- Node1&#45;&gt;Node7 -->
<g id="edge6" class="edge">
<title>Node1&#45;&gt;Node7</title>
<path fill="none" stroke="midnightblue" d="M414.96,-56.4C403.66,-47.31 388.96,-35.49 377.39,-26.19"/>
<polygon fill="midnightblue" stroke="midnightblue" points="379.25,-23.2 369.27,-19.66 374.87,-28.65 379.25,-23.2"/>
</g>
<!-- Node8 -->
<g id="node8" class="node">
<title>Node8</title>
<g id="a_node8"><a xlink:title=" ">
<polygon fill="white" stroke="#bfbfbf" points="404.5,-0.5 404.5,-19.5 460.5,-19.5 460.5,-0.5 404.5,-0.5"/>
<text text-anchor="middle" x="432.5" y="-7.5" font-family="Helvetica,sans-Serif" font-size="10.00">sstream</text>
</a>
</g>
</g>
<!-- Node1&#45;&gt;Node8 -->
<g id="edge7" class="edge">
<title>Node1&#45;&gt;Node8</title>
<path fill="none" stroke="midnightblue" d="M432.5,-56.4C432.5,-48.47 432.5,-38.46 432.5,-29.86"/>
<polygon fill="midnightblue" stroke="midnightblue" points="436,-29.66 432.5,-19.66 429,-29.66 436,-29.66"/>
</g>
<!-- Node9 -->
<g id="node9" class="node">
<title>Node9</title>
<g id="a_node9"><a xlink:title=" ">
<polygon fill="white" stroke="#bfbfbf" points="478.5,-0.5 478.5,-19.5 522.5,-19.5 522.5,-0.5 478.5,-0.5"/>
<text text-anchor="middle" x="500.5" y="-7.5" font-family="Helvetica,sans-Serif" font-size="10.00">string</text>
</a>
</g>
</g>
<!-- Node1&#45;&gt;Node9 -->
<g id="edge8" class="edge">
<title>Node1&#45;&gt;Node9</title>
<path fill="none" stroke="midnightblue" d="M448.62,-56.4C458.9,-47.4 472.25,-35.72 482.83,-26.47"/>
<polygon fill="midnightblue" stroke="midnightblue" points="485.38,-28.88 490.61,-19.66 480.77,-23.61 485.38,-28.88"/>
</g>
<!-- Node10 -->
<g id="node10" class="node">
<title>Node10</title>
<g id="a_node10"><a xlink:title=" ">
<polygon fill="white" stroke="#bfbfbf" points="540.5,-0.5 540.5,-19.5 604.5,-19.5 604.5,-0.5 540.5,-0.5"/>
<text text-anchor="middle" x="572.5" y="-7.5" font-family="Helvetica,sans-Serif" font-size="10.00">sys/stat.h</text>
</a>
</g>
</g>
<!-- Node1&#45;&gt;Node10 -->
<g id="edge9" class="edge">
<title>Node1&#45;&gt;Node10</title>
<path fill="none" stroke="midnightblue" d="M465.68,-56.4C489.06,-46.46 520.11,-33.26 542.71,-23.66"/>
<polygon fill="midnightblue" stroke="midnightblue" points="544.29,-26.79 552.13,-19.66 541.56,-20.35 544.29,-26.79"/>
</g>
<!-- Node11 -->
<g id="node11" class="node">
<title>Node11</title>
<g id="a_node11"><a xlink:title=" ">
<polygon fill="white" stroke="#bfbfbf" points="622.5,-0.5 622.5,-19.5 688.5,-19.5 688.5,-0.5 622.5,-0.5"/>
<text text-anchor="middle" x="655.5" y="-7.5" font-family="Helvetica,sans-Serif" font-size="10.00">sys/wait.h</text>
</a>
</g>
</g>
<!-- Node1&#45;&gt;Node11 -->
<g id="edge10" class="edge">
<title>Node1&#45;&gt;Node11</title>
<path fill="none" stroke="midnightblue" d="M485.07,-56.47C524.38,-45.99 577.41,-31.84 613.82,-22.12"/>
<polygon fill="midnightblue" stroke="midnightblue" points="614.86,-25.47 623.62,-19.51 613.05,-18.7 614.86,-25.47"/>
</g>
<!-- Node12 -->
<g id="node12" class="node">
<title>Node12</title>
<g id="a_node12"><a xlink:title=" ">
<polygon fill="white" stroke="#bfbfbf" points="706.5,-0.5 706.5,-19.5 762.5,-19.5 762.5,-0.5 706.5,-0.5"/>
<text text-anchor="middle" x="734.5" y="-7.5" font-family="Helvetica,sans-Serif" font-size="10.00">unistd.h</text>
</a>
</g>
</g>
<!-- Node1&#45;&gt;Node12 -->
<g id="edge11" class="edge">
<title>Node1&#45;&gt;Node12</title>
<path fill="none" stroke="midnightblue" d="M492.14,-60.02C543.65,-50.77 620.31,-36.52 696.06,-20.23"/>
<polygon fill="midnightblue" stroke="midnightblue" points="697.22,-23.56 706.25,-18.03 695.74,-16.72 697.22,-23.56"/>
</g>
<!-- Node13 -->
<g id="node13" class="node">
<title>Node13</title>
<g id="a_node13"><a xlink:title=" ">
<polygon fill="white" stroke="#bfbfbf" points="781,-0.5 781,-19.5 828,-19.5 828,-0.5 781,-0.5"/>
<text text-anchor="middle" x="804.5" y="-7.5" font-family="Helvetica,sans-Serif" font-size="10.00">vector</text>
</a>
</g>
</g>
<!-- Node1&#45;&gt;Node13 -->
<g id="edge12" class="edge">
<title>Node1&#45;&gt;Node13</title>
<path fill="none" stroke="midnightblue" d="M492.28,-63.77C558.18,-55.86 667.45,-41.31 770.81,-19.92"/>
<polygon fill="midnightblue" stroke="midnightblue" points="771.72,-23.3 780.79,-17.83 770.28,-16.45 771.72,-23.3"/>
</g>
<!-- Node14 -->
<g id="node14" class="node">
<title>Node14</title>
<g id="a_node14"><a xlink:title=" ">
<polygon fill="white" stroke="#bfbfbf" points="846.5,-0.5 846.5,-19.5 924.5,-19.5 924.5,-0.5 846.5,-0.5"/>
<text text-anchor="middle" x="885.5" y="-7.5" font-family="Helvetica,sans-Serif" font-size="10.00">gtest/gtest.h</text>
</a>
</g>
</g>
<!-- Node1&#45;&gt;Node14 -->
<g id="edge13" class="edge">
<title>Node1&#45;&gt;Node14</title>
<path fill="none" stroke="midnightblue" d="M492.02,-64.23C569.12,-55.86 707.88,-39.91 836.23,-20.12"/>
<polygon fill="midnightblue" stroke="midnightblue" points="836.9,-23.56 846.24,-18.56 835.82,-16.64 836.9,-23.56"/>
</g>
</g>
</svg>
