<?xml version="1.0" encoding="UTF-8" standalone="no"?>
<!DOCTYPE svg PUBLIC "-//W3C//DTD SVG 1.1//EN"
 "http://www.w3.org/Graphics/SVG/1.1/DTD/svg11.dtd">
<!-- Generated by graphviz version 2.43.0 (0)
 -->
<!-- Title: clients/footprint_client.cpp Pages: 1 -->
<svg width="1194pt" height="140pt"
 viewBox="0.00 0.00 1194.00 140.00" xmlns="http://www.w3.org/2000/svg" xmlns:xlink="http://www.w3.org/1999/xlink">
<g id="graph0" class="graph" transform="scale(1 1) rotate(0) translate(4 136)">
<title>clients/footprint_client.cpp</title>
<polygon fill="white" stroke="transparent" points="-4,4 -4,-136 1190,-136 1190,4 -4,4"/>
<!-- Node1 -->
<g id="node1" class="node">
<title>Node1</title>
<g id="a_node1"><a xlink:title=" ">
<polygon fill="#bfbfbf" stroke="black" points="425,-112.5 425,-131.5 571,-131.5 571,-112.5 425,-112.5"/>
<text text-anchor="middle" x="498" y="-119.5" font-family="Helvetica,sans-Serif" font-size="10.00">clients/footprint_client.cpp</text>
</a>
</g>
</g>
<!-- Node2 -->
<g id="node2" class="node">
<title>Node2</title>
<g id="a_node2"><a xlink:title=" ">
<polygon fill="white" stroke="#bfbfbf" points="0,-0.5 0,-19.5 50,-19.5 50,-0.5 0,-0.5"/>
<text text-anchor="middle" x="25" y="-7.5" font-family="Helvetica,sans-Serif" font-size="10.00">stdio.h</text>
</a>
</g>
</g>
<!-- Node1&#45;&gt;Node2 -->
<g id="edge1" class="edge">
<title>Node1&#45;&gt;Node2</title>
<path fill="none" stroke="midnightblue" d="M424.62,-117.43C327.46,-111.88 161.87,-99.31 106,-76 79.36,-64.89 54.36,-42.25 39.37,-26.85"/>
<polygon fill="midnightblue" stroke="midnightblue" points="41.9,-24.43 32.49,-19.56 36.81,-29.23 41.9,-24.43"/>
</g>
<!-- Node3 -->
<g id="node3" class="node">
<title>Node3</title>
<g id="a_node3"><a xlink:title=" ">
<polygon fill="white" stroke="#bfbfbf" points="283.5,-56.5 283.5,-75.5 336.5,-75.5 336.5,-56.5 283.5,-56.5"/>
<text text-anchor="middle" x="310" y="-63.5" font-family="Helvetica,sans-Serif" font-size="10.00">stdlib.h</text>
</a>
</g>
</g>
<!-- Node1&#45;&gt;Node3 -->
<g id="edge2" class="edge">
<title>Node1&#45;&gt;Node3</title>
<path fill="none" stroke="midnightblue" d="M468.21,-112.44C435.23,-102.97 382.04,-87.69 346.56,-77.5"/>
<polygon fill="midnightblue" stroke="midnightblue" points="347.19,-74.04 336.61,-74.64 345.26,-80.77 347.19,-74.04"/>
</g>
<!-- Node4 -->
<g id="node4" class="node">
<title>Node4</title>
<g id="a_node4"><a xlink:title=" ">
<polygon fill="white" stroke="#bfbfbf" points="68.5,-0.5 68.5,-19.5 121.5,-19.5 121.5,-0.5 68.5,-0.5"/>
<text text-anchor="middle" x="95" y="-7.5" font-family="Helvetica,sans-Serif" font-size="10.00">stdint.h</text>
</a>
</g>
</g>
<!-- Node1&#45;&gt;Node4 -->
<g id="edge3" class="edge">
<title>Node1&#45;&gt;Node4</title>
<path fill="none" stroke="midnightblue" d="M424.94,-120.34C330.43,-118.12 172.42,-109.36 126,-76 110.8,-65.08 102.78,-44.71 98.74,-29.67"/>
<polygon fill="midnightblue" stroke="midnightblue" points="102.13,-28.82 96.45,-19.88 95.31,-30.41 102.13,-28.82"/>
</g>
<!-- Node5 -->
<g id="node5" class="node">
<title>Node5</title>
<g id="a_node5"><a xlink:title=" ">
<polygon fill="white" stroke="#bfbfbf" points="355,-56.5 355,-75.5 415,-75.5 415,-56.5 355,-56.5"/>
<text text-anchor="middle" x="385" y="-63.5" font-family="Helvetica,sans-Serif" font-size="10.00">iostream</text>
</a>
</g>
</g>
<!-- Node1&#45;&gt;Node5 -->
<g id="edge4" class="edge">
<title>Node1&#45;&gt;Node5</title>
<path fill="none" stroke="midnightblue" d="M480.09,-112.44C461.75,-103.68 432.99,-89.94 411.91,-79.86"/>
<polygon fill="midnightblue" stroke="midnightblue" points="413.35,-76.67 402.82,-75.52 410.33,-82.99 413.35,-76.67"/>
</g>
<!-- Node6 -->
<g id="node6" class="node">
<title>Node6</title>
<g id="a_node6"><a xlink:title=" ">
<polygon fill="white" stroke="#bfbfbf" points="433,-56.5 433,-75.5 489,-75.5 489,-56.5 433,-56.5"/>
<text text-anchor="middle" x="461" y="-63.5" font-family="Helvetica,sans-Serif" font-size="10.00">unistd.h</text>
</a>
</g>
</g>
<!-- Node1&#45;&gt;Node6 -->
<g id="edge5" class="edge">
<title>Node1&#45;&gt;Node6</title>
<path fill="none" stroke="midnightblue" d="M491.89,-112.08C486.72,-104.53 479.15,-93.49 472.81,-84.23"/>
<polygon fill="midnightblue" stroke="midnightblue" points="475.54,-82.02 467,-75.75 469.76,-85.98 475.54,-82.02"/>
</g>
<!-- Node7 -->
<g id="node7" class="node">
<title>Node7</title>
<g id="a_node7"><a xlink:title=" ">
<polygon fill="white" stroke="#bfbfbf" points="507,-56.5 507,-75.5 563,-75.5 563,-56.5 507,-56.5"/>
<text text-anchor="middle" x="535" y="-63.5" font-family="Helvetica,sans-Serif" font-size="10.00">assert.h</text>
</a>
</g>
</g>
<!-- Node1&#45;&gt;Node7 -->
<g id="edge6" class="edge">
<title>Node1&#45;&gt;Node7</title>
<path fill="none" stroke="midnightblue" d="M504.11,-112.08C509.28,-104.53 516.85,-93.49 523.19,-84.23"/>
<polygon fill="midnightblue" stroke="midnightblue" points="526.24,-85.98 529,-75.75 520.46,-82.02 526.24,-85.98"/>
</g>
<!-- Node8 -->
<g id="node8" class="node">
<title>Node8</title>
<g id="a_node8"><a xlink:title=" ">
<polygon fill="white" stroke="#bfbfbf" points="581.5,-56.5 581.5,-75.5 634.5,-75.5 634.5,-56.5 581.5,-56.5"/>
<text text-anchor="middle" x="608" y="-63.5" font-family="Helvetica,sans-Serif" font-size="10.00">string.h</text>
</a>
</g>
</g>
<!-- Node1&#45;&gt;Node8 -->
<g id="edge7" class="edge">
<title>Node1&#45;&gt;Node8</title>
<path fill="none" stroke="midnightblue" d="M515.67,-112.32C533.39,-103.62 560.9,-90.12 581.29,-80.11"/>
<polygon fill="midnightblue" stroke="midnightblue" points="582.94,-83.2 590.37,-75.65 579.85,-76.92 582.94,-83.2"/>
</g>
<!-- Node9 -->
<g id="node9" class="node">
<title>Node9</title>
<g id="a_node9"><a xlink:title=" ">
<polygon fill="white" stroke="#bfbfbf" points="652.5,-56.5 652.5,-75.5 729.5,-75.5 729.5,-56.5 652.5,-56.5"/>
<text text-anchor="middle" x="691" y="-63.5" font-family="Helvetica,sans-Serif" font-size="10.00">sys/mman.h</text>
</a>
</g>
</g>
<!-- Node1&#45;&gt;Node9 -->
<g id="edge8" class="edge">
<title>Node1&#45;&gt;Node9</title>
<path fill="none" stroke="midnightblue" d="M528.58,-112.44C561.61,-103.2 614.39,-88.44 650.77,-78.26"/>
<polygon fill="midnightblue" stroke="midnightblue" points="651.87,-81.58 660.56,-75.52 649.99,-74.84 651.87,-81.58"/>
</g>
<!-- Node10 -->
<g id="node10" class="node">
<title>Node10</title>
<g id="a_node10"><a xlink:title=" ">
<polygon fill="white" stroke="#bfbfbf" points="748,-56.5 748,-75.5 804,-75.5 804,-56.5 748,-56.5"/>
<text text-anchor="middle" x="776" y="-63.5" font-family="Helvetica,sans-Serif" font-size="10.00">sstream</text>
</a>
</g>
</g>
<!-- Node1&#45;&gt;Node10 -->
<g id="edge9" class="edge">
<title>Node1&#45;&gt;Node10</title>
<path fill="none" stroke="midnightblue" d="M548.01,-112.47C594.66,-104.34 666.44,-91.36 737.7,-76.19"/>
<polygon fill="midnightblue" stroke="midnightblue" points="738.71,-79.56 747.75,-74.04 737.24,-72.71 738.71,-79.56"/>
</g>
<!-- Node11 -->
<g id="node11" class="node">
<title>Node11</title>
<g id="a_node11"><a xlink:title=" ">
<polygon fill="white" stroke="#bfbfbf" points="822.5,-56.5 822.5,-75.5 887.5,-75.5 887.5,-56.5 822.5,-56.5"/>
<text text-anchor="middle" x="855" y="-63.5" font-family="Helvetica,sans-Serif" font-size="10.00">functional</text>
</a>
</g>
</g>
<!-- Node1&#45;&gt;Node11 -->
<g id="edge10" class="edge">
<title>Node1&#45;&gt;Node11</title>
<path fill="none" stroke="midnightblue" d="M567.35,-112.49C629.07,-104.6 722.02,-91.94 812.6,-75.96"/>
<polygon fill="midnightblue" stroke="midnightblue" points="813.25,-79.4 822.48,-74.2 812.03,-72.51 813.25,-79.4"/>
</g>
<!-- Node12 -->
<g id="node12" class="node">
<title>Node12</title>
<g id="a_node12"><a xlink:title=" ">
<polygon fill="white" stroke="#bfbfbf" points="906,-56.5 906,-75.5 992,-75.5 992,-56.5 906,-56.5"/>
<text text-anchor="middle" x="949" y="-63.5" font-family="Helvetica,sans-Serif" font-size="10.00">unordered_set</text>
</a>
</g>
</g>
<!-- Node1&#45;&gt;Node12 -->
<g id="edge11" class="edge">
<title>Node1&#45;&gt;Node12</title>
<path fill="none" stroke="midnightblue" d="M571.34,-114.04C649.31,-106.34 776.46,-92.94 895.85,-76.09"/>
<polygon fill="midnightblue" stroke="midnightblue" points="896.49,-79.53 905.9,-74.66 895.51,-72.6 896.49,-79.53"/>
</g>
<!-- Node13 -->
<g id="node13" class="node">
<title>Node13</title>
<g id="a_node13"><a xlink:title=" ">
<polygon fill="white" stroke="#bfbfbf" points="202.5,-0.5 202.5,-19.5 249.5,-19.5 249.5,-0.5 202.5,-0.5"/>
<text text-anchor="middle" x="226" y="-7.5" font-family="Helvetica,sans-Serif" font-size="10.00">vector</text>
</a>
</g>
</g>
<!-- Node1&#45;&gt;Node13 -->
<g id="edge12" class="edge">
<title>Node1&#45;&gt;Node13</title>
<path fill="none" stroke="midnightblue" d="M424.84,-113.43C366.46,-106.2 290.4,-93.77 265,-76 248.86,-64.71 238.26,-44.4 232.24,-29.48"/>
<polygon fill="midnightblue" stroke="midnightblue" points="235.41,-27.94 228.65,-19.77 228.84,-30.37 235.41,-27.94"/>
</g>
<!-- Node14 -->
<g id="node14" class="node">
<title>Node14</title>
<g id="a_node14"><a xlink:title=" ">
<polygon fill="white" stroke="#bfbfbf" points="1010.5,-56.5 1010.5,-75.5 1103.5,-75.5 1103.5,-56.5 1010.5,-56.5"/>
<text text-anchor="middle" x="1057" y="-63.5" font-family="Helvetica,sans-Serif" font-size="10.00">unordered_map</text>
</a>
</g>
</g>
<!-- Node1&#45;&gt;Node14 -->
<g id="edge13" class="edge">
<title>Node1&#45;&gt;Node14</title>
<path fill="none" stroke="midnightblue" d="M571.06,-116.08C667.08,-109.25 841.21,-95.62 1000.31,-76"/>
<polygon fill="midnightblue" stroke="midnightblue" points="1000.79,-79.47 1010.28,-74.76 999.93,-72.52 1000.79,-79.47"/>
</g>
<!-- Node15 -->
<g id="node15" class="node">
<title>Node15</title>
<g id="a_node15"><a xlink:title=" ">
<polygon fill="white" stroke="#bfbfbf" points="1122,-56.5 1122,-75.5 1186,-75.5 1186,-56.5 1122,-56.5"/>
<text text-anchor="middle" x="1154" y="-63.5" font-family="Helvetica,sans-Serif" font-size="10.00">algorithm</text>
</a>
</g>
</g>
<!-- Node1&#45;&gt;Node15 -->
<g id="edge14" class="edge">
<title>Node1&#45;&gt;Node15</title>
<path fill="none" stroke="midnightblue" d="M571.26,-119.03C684.99,-115.21 910.94,-104.66 1111.71,-75.98"/>
<polygon fill="midnightblue" stroke="midnightblue" points="1112.46,-79.41 1121.85,-74.51 1111.45,-72.48 1112.46,-79.41"/>
</g>
<!-- Node16 -->
<g id="node16" class="node">
<title>Node16</title>
<g id="a_node16"><a xlink:title=" ">
<polygon fill="white" stroke="#bfbfbf" points="268,-0.5 268,-19.5 310,-19.5 310,-0.5 268,-0.5"/>
<text text-anchor="middle" x="289" y="-7.5" font-family="Helvetica,sans-Serif" font-size="10.00">pin.H</text>
</a>
</g>
</g>
<!-- Node1&#45;&gt;Node16 -->
<g id="edge15" class="edge">
<title>Node1&#45;&gt;Node16</title>
<path fill="none" stroke="midnightblue" d="M424.9,-116.06C367.34,-110.47 293.79,-98.96 275,-76 264.07,-62.64 270.68,-42.72 278.07,-28.45"/>
<polygon fill="midnightblue" stroke="midnightblue" points="281.19,-30.05 283.11,-19.63 275.11,-26.58 281.19,-30.05"/>
</g>
<!-- Node17 -->
<g id="node17" class="node">
<title>Node17</title>
<g id="a_node17"><a xlink:href="cctlib_8H.html" target="_top" xlink:title=" ">
<polygon fill="white" stroke="black" points="135.5,-56.5 135.5,-75.5 188.5,-75.5 188.5,-56.5 135.5,-56.5"/>
<text text-anchor="middle" x="162" y="-63.5" font-family="Helvetica,sans-Serif" font-size="10.00">cctlib.H</text>
</a>
</g>
</g>
<!-- Node1&#45;&gt;Node17 -->
<g id="edge16" class="edge">
<title>Node1&#45;&gt;Node17</title>
<path fill="none" stroke="midnightblue" d="M434.21,-112.48C374.33,-104.2 282.33,-90.74 203,-76 201.71,-75.76 200.4,-75.51 199.08,-75.25"/>
<polygon fill="midnightblue" stroke="midnightblue" points="199.35,-71.74 188.86,-73.16 197.95,-78.59 199.35,-71.74"/>
</g>
<!-- Node17&#45;&gt;Node2 -->
<g id="edge19" class="edge">
<title>Node17&#45;&gt;Node2</title>
<path fill="none" stroke="midnightblue" d="M140.29,-56.44C117.65,-47.52 81.93,-33.44 56.25,-23.32"/>
<polygon fill="midnightblue" stroke="midnightblue" points="57.19,-19.93 46.61,-19.52 54.63,-26.44 57.19,-19.93"/>
</g>
<!-- Node17&#45;&gt;Node4 -->
<g id="edge18" class="edge">
<title>Node17&#45;&gt;Node4</title>
<path fill="none" stroke="midnightblue" d="M151.24,-56.32C141.23,-48.26 126.11,-36.08 114.07,-26.37"/>
<polygon fill="midnightblue" stroke="midnightblue" points="115.94,-23.38 105.96,-19.83 111.55,-28.83 115.94,-23.38"/>
</g>
<!-- Node17&#45;&gt;Node13 -->
<g id="edge21" class="edge">
<title>Node17&#45;&gt;Node13</title>
<path fill="none" stroke="midnightblue" d="M172.28,-56.32C181.84,-48.26 196.28,-36.08 207.78,-26.37"/>
<polygon fill="midnightblue" stroke="midnightblue" points="210.14,-28.96 215.53,-19.83 205.63,-23.61 210.14,-28.96"/>
</g>
<!-- Node17&#45;&gt;Node16 -->
<g id="edge17" class="edge">
<title>Node17&#45;&gt;Node16</title>
<path fill="none" stroke="midnightblue" d="M182.12,-56.44C203.02,-47.56 235.93,-33.56 259.72,-23.45"/>
<polygon fill="midnightblue" stroke="midnightblue" points="261.14,-26.65 268.97,-19.52 258.4,-20.21 261.14,-26.65"/>
</g>
<!-- Node18 -->
<g id="node18" class="node">
<title>Node18</title>
<g id="a_node18"><a xlink:title=" ">
<polygon fill="white" stroke="#bfbfbf" points="140,-0.5 140,-19.5 184,-19.5 184,-0.5 140,-0.5"/>
<text text-anchor="middle" x="162" y="-7.5" font-family="Helvetica,sans-Serif" font-size="10.00">string</text>
</a>
</g>
</g>
<!-- Node17&#45;&gt;Node18 -->
<g id="edge20" class="edge">
<title>Node17&#45;&gt;Node18</title>
<path fill="none" stroke="midnightblue" d="M162,-56.08C162,-49.01 162,-38.86 162,-29.99"/>
<polygon fill="midnightblue" stroke="midnightblue" points="165.5,-29.75 162,-19.75 158.5,-29.75 165.5,-29.75"/>
</g>
</g>
</svg>
