<?xml version="1.0" encoding="UTF-8" standalone="no"?>
<!DOCTYPE svg PUBLIC "-//W3C//DTD SVG 1.1//EN"
 "http://www.w3.org/Graphics/SVG/1.1/DTD/svg11.dtd">
<!-- Generated by graphviz version 2.43.0 (0)
 -->
<!-- Title: clients/footprint_client2.cpp Pages: 1 -->
<svg width="1196pt" height="140pt"
 viewBox="0.00 0.00 1196.00 140.00" xmlns="http://www.w3.org/2000/svg" xmlns:xlink="http://www.w3.org/1999/xlink">
<g id="graph0" class="graph" transform="scale(1 1) rotate(0) translate(4 136)">
<title>clients/footprint_client2.cpp</title>
<polygon fill="white" stroke="transparent" points="-4,4 -4,-136 1192,-136 1192,4 -4,4"/>
<!-- Node1 -->
<g id="node1" class="node">
<title>Node1</title>
<g id="a_node1"><a xlink:title=" ">
<polygon fill="#bfbfbf" stroke="black" points="422,-112.5 422,-131.5 574,-131.5 574,-112.5 422,-112.5"/>
<text text-anchor="middle" x="498" y="-119.5" font-family="Helvetica,sans-Serif" font-size="10.00">clients/footprint_client2.cpp</text>
</a>
</g>
</g>
<!-- Node2 -->
<g id="node2" class="node">
<title>Node2</title>
<g id="a_node2"><a xlink:title=" ">
<polygon fill="white" stroke="#bfbfbf" points="0,-0.5 0,-19.5 50,-19.5 50,-0.5 0,-0.5"/>
<text text-anchor="middle" x="25" y="-7.5" font-family="Helvetica,sans-Serif" font-size="10.00">stdio.h</text>
</a>
</g>
</g>
<!-- Node1&#45;&gt;Node2 -->
<g id="edge1" class="edge">
<title>Node1&#45;&gt;Node2</title>
<path fill="none" stroke="midnightblue" d="M421.72,-117.27C324.19,-111.63 161.32,-99.08 106,-76 79.36,-64.89 54.36,-42.25 39.37,-26.85"/>
<polygon fill="midnightblue" stroke="midnightblue" points="41.9,-24.43 32.49,-19.56 36.81,-29.23 41.9,-24.43"/>
</g>
<!-- Node3 -->
<g id="node3" class="node">
<title>Node3</title>
<g id="a_node3"><a xlink:title=" ">
<polygon fill="white" stroke="#bfbfbf" points="283.5,-56.5 283.5,-75.5 336.5,-75.5 336.5,-56.5 283.5,-56.5"/>
<text text-anchor="middle" x="310" y="-63.5" font-family="Helvetica,sans-Serif" font-size="10.00">stdlib.h</text>
</a>
</g>
</g>
<!-- Node1&#45;&gt;Node3 -->
<g id="edge2" class="edge">
<title>Node1&#45;&gt;Node3</title>
<path fill="none" stroke="midnightblue" d="M468.21,-112.44C435.23,-102.97 382.04,-87.69 346.56,-77.5"/>
<polygon fill="midnightblue" stroke="midnightblue" points="347.19,-74.04 336.61,-74.64 345.26,-80.77 347.19,-74.04"/>
</g>
<!-- Node4 -->
<g id="node4" class="node">
<title>Node4</title>
<g id="a_node4"><a xlink:title=" ">
<polygon fill="white" stroke="#bfbfbf" points="68.5,-0.5 68.5,-19.5 121.5,-19.5 121.5,-0.5 68.5,-0.5"/>
<text text-anchor="middle" x="95" y="-7.5" font-family="Helvetica,sans-Serif" font-size="10.00">stdint.h</text>
</a>
</g>
</g>
<!-- Node1&#45;&gt;Node4 -->
<g id="edge3" class="edge">
<title>Node1&#45;&gt;Node4</title>
<path fill="none" stroke="midnightblue" d="M421.69,-120.26C326.85,-117.92 171.9,-108.98 126,-76 110.8,-65.08 102.78,-44.71 98.74,-29.67"/>
<polygon fill="midnightblue" stroke="midnightblue" points="102.13,-28.82 96.45,-19.88 95.31,-30.41 102.13,-28.82"/>
</g>
<!-- Node5 -->
<g id="node5" class="node">
<title>Node5</title>
<g id="a_node5"><a xlink:title=" ">
<polygon fill="white" stroke="#bfbfbf" points="355,-56.5 355,-75.5 415,-75.5 415,-56.5 355,-56.5"/>
<text text-anchor="middle" x="385" y="-63.5" font-family="Helvetica,sans-Serif" font-size="10.00">iostream</text>
</a>
</g>
</g>
<!-- Node1&#45;&gt;Node5 -->
<g id="edge4" class="edge">
<title>Node1&#45;&gt;Node5</title>
<path fill="none" stroke="midnightblue" d="M480.09,-112.44C461.75,-103.68 432.99,-89.94 411.91,-79.86"/>
<polygon fill="midnightblue" stroke="midnightblue" points="413.35,-76.67 402.82,-75.52 410.33,-82.99 413.35,-76.67"/>
</g>
<!-- Node6 -->
<g id="node6" class="node">
<title>Node6</title>
<g id="a_node6"><a xlink:title=" ">
<polygon fill="white" stroke="#bfbfbf" points="433,-56.5 433,-75.5 489,-75.5 489,-56.5 433,-56.5"/>
<text text-anchor="middle" x="461" y="-63.5" font-family="Helvetica,sans-Serif" font-size="10.00">unistd.h</text>
</a>
</g>
</g>
<!-- Node1&#45;&gt;Node6 -->
<g id="edge5" class="edge">
<title>Node1&#45;&gt;Node6</title>
<path fill="none" stroke="midnightblue" d="M491.89,-112.08C486.72,-104.53 479.15,-93.49 472.81,-84.23"/>
<polygon fill="midnightblue" stroke="midnightblue" points="475.54,-82.02 467,-75.75 469.76,-85.98 475.54,-82.02"/>
</g>
<!-- Node7 -->
<g id="node7" class="node">
<title>Node7</title>
<g id="a_node7"><a xlink:title=" ">
<polygon fill="white" stroke="#bfbfbf" points="507,-56.5 507,-75.5 563,-75.5 563,-56.5 507,-56.5"/>
<text text-anchor="middle" x="535" y="-63.5" font-family="Helvetica,sans-Serif" font-size="10.00">assert.h</text>
</a>
</g>
</g>
<!-- Node1&#45;&gt;Node7 -->
<g id="edge6" class="edge">
<title>Node1&#45;&gt;Node7</title>
<path fill="none" stroke="midnightblue" d="M504.11,-112.08C509.28,-104.53 516.85,-93.49 523.19,-84.23"/>
<polygon fill="midnightblue" stroke="midnightblue" points="526.24,-85.98 529,-75.75 520.46,-82.02 526.24,-85.98"/>
</g>
<!-- Node8 -->
<g id="node8" class="node">
<title>Node8</title>
<g id="a_node8"><a xlink:title=" ">
<polygon fill="white" stroke="#bfbfbf" points="581.5,-56.5 581.5,-75.5 634.5,-75.5 634.5,-56.5 581.5,-56.5"/>
<text text-anchor="middle" x="608" y="-63.5" font-family="Helvetica,sans-Serif" font-size="10.00">string.h</text>
</a>
</g>
</g>
<!-- Node1&#45;&gt;Node8 -->
<g id="edge7" class="edge">
<title>Node1&#45;&gt;Node8</title>
<path fill="none" stroke="midnightblue" d="M515.67,-112.32C533.39,-103.62 560.9,-90.12 581.29,-80.11"/>
<polygon fill="midnightblue" stroke="midnightblue" points="582.94,-83.2 590.37,-75.65 579.85,-76.92 582.94,-83.2"/>
</g>
<!-- Node9 -->
<g id="node9" class="node">
<title>Node9</title>
<g id="a_node9"><a xlink:title=" ">
<polygon fill="white" stroke="#bfbfbf" points="652.5,-56.5 652.5,-75.5 729.5,-75.5 729.5,-56.5 652.5,-56.5"/>
<text text-anchor="middle" x="691" y="-63.5" font-family="Helvetica,sans-Serif" font-size="10.00">sys/mman.h</text>
</a>
</g>
</g>
<!-- Node1&#45;&gt;Node9 -->
<g id="edge8" class="edge">
<title>Node1&#45;&gt;Node9</title>
<path fill="none" stroke="midnightblue" d="M528.58,-112.44C561.61,-103.2 614.39,-88.44 650.77,-78.26"/>
<polygon fill="midnightblue" stroke="midnightblue" points="651.87,-81.58 660.56,-75.52 649.99,-74.84 651.87,-81.58"/>
</g>
<!-- Node10 -->
<g id="node10" class="node">
<title>Node10</title>
<g id="a_node10"><a xlink:title=" ">
<polygon fill="white" stroke="#bfbfbf" points="748,-56.5 748,-75.5 816,-75.5 816,-56.5 748,-56.5"/>
<text text-anchor="middle" x="782" y="-63.5" font-family="Helvetica,sans-Serif" font-size="10.00">sys/time.h</text>
</a>
</g>
</g>
<!-- Node1&#45;&gt;Node10 -->
<g id="edge9" class="edge">
<title>Node1&#45;&gt;Node10</title>
<path fill="none" stroke="midnightblue" d="M545.62,-112.42C592.09,-103.98 665.06,-90.54 737.53,-76.26"/>
<polygon fill="midnightblue" stroke="midnightblue" points="738.62,-79.61 747.75,-74.24 737.26,-72.75 738.62,-79.61"/>
</g>
<!-- Node11 -->
<g id="node11" class="node">
<title>Node11</title>
<g id="a_node11"><a xlink:title=" ">
<polygon fill="white" stroke="#bfbfbf" points="834,-56.5 834,-75.5 890,-75.5 890,-56.5 834,-56.5"/>
<text text-anchor="middle" x="862" y="-63.5" font-family="Helvetica,sans-Serif" font-size="10.00">sstream</text>
</a>
</g>
</g>
<!-- Node1&#45;&gt;Node11 -->
<g id="edge10" class="edge">
<title>Node1&#45;&gt;Node11</title>
<path fill="none" stroke="midnightblue" d="M574.01,-112.76C638.18,-105.3 732.64,-93.12 823.83,-76.06"/>
<polygon fill="midnightblue" stroke="midnightblue" points="824.61,-79.48 833.78,-74.18 823.31,-72.6 824.61,-79.48"/>
</g>
<!-- Node12 -->
<g id="node12" class="node">
<title>Node12</title>
<g id="a_node12"><a xlink:title=" ">
<polygon fill="white" stroke="#bfbfbf" points="202,-0.5 202,-19.5 244,-19.5 244,-0.5 202,-0.5"/>
<text text-anchor="middle" x="223" y="-7.5" font-family="Helvetica,sans-Serif" font-size="10.00">pin.H</text>
</a>
</g>
</g>
<!-- Node1&#45;&gt;Node12 -->
<g id="edge11" class="edge">
<title>Node1&#45;&gt;Node12</title>
<path fill="none" stroke="midnightblue" d="M421.99,-112.98C363.79,-105.65 289.33,-93.29 264,-76 247.51,-64.74 236.29,-44.43 229.81,-29.5"/>
<polygon fill="midnightblue" stroke="midnightblue" points="232.89,-27.77 225.92,-19.78 226.39,-30.37 232.89,-27.77"/>
</g>
<!-- Node13 -->
<g id="node13" class="node">
<title>Node13</title>
<g id="a_node13"><a xlink:href="cctlib_8H.html" target="_top" xlink:title=" ">
<polygon fill="white" stroke="black" points="135.5,-56.5 135.5,-75.5 188.5,-75.5 188.5,-56.5 135.5,-56.5"/>
<text text-anchor="middle" x="162" y="-63.5" font-family="Helvetica,sans-Serif" font-size="10.00">cctlib.H</text>
</a>
</g>
</g>
<!-- Node1&#45;&gt;Node13 -->
<g id="edge12" class="edge">
<title>Node1&#45;&gt;Node13</title>
<path fill="none" stroke="midnightblue" d="M434.21,-112.48C374.33,-104.2 282.33,-90.74 203,-76 201.71,-75.76 200.4,-75.51 199.08,-75.25"/>
<polygon fill="midnightblue" stroke="midnightblue" points="199.35,-71.74 188.86,-73.16 197.95,-78.59 199.35,-71.74"/>
</g>
<!-- Node15 -->
<g id="node15" class="node">
<title>Node15</title>
<g id="a_node15"><a xlink:title=" ">
<polygon fill="white" stroke="#bfbfbf" points="262.5,-0.5 262.5,-19.5 309.5,-19.5 309.5,-0.5 262.5,-0.5"/>
<text text-anchor="middle" x="286" y="-7.5" font-family="Helvetica,sans-Serif" font-size="10.00">vector</text>
</a>
</g>
</g>
<!-- Node1&#45;&gt;Node15 -->
<g id="edge19" class="edge">
<title>Node1&#45;&gt;Node15</title>
<path fill="none" stroke="midnightblue" d="M421.72,-115.75C364.67,-110.05 293.45,-98.54 275,-76 264.27,-62.89 269.63,-43.2 276.06,-28.93"/>
<polygon fill="midnightblue" stroke="midnightblue" points="279.35,-30.17 280.71,-19.67 273.1,-27.03 279.35,-30.17"/>
</g>
<!-- Node16 -->
<g id="node16" class="node">
<title>Node16</title>
<g id="a_node16"><a xlink:title=" ">
<polygon fill="white" stroke="#bfbfbf" points="908,-56.5 908,-75.5 994,-75.5 994,-56.5 908,-56.5"/>
<text text-anchor="middle" x="951" y="-63.5" font-family="Helvetica,sans-Serif" font-size="10.00">unordered_set</text>
</a>
</g>
</g>
<!-- Node1&#45;&gt;Node16 -->
<g id="edge18" class="edge">
<title>Node1&#45;&gt;Node16</title>
<path fill="none" stroke="midnightblue" d="M574.3,-113.8C652.89,-106.08 779.16,-92.81 897.91,-76.08"/>
<polygon fill="midnightblue" stroke="midnightblue" points="898.49,-79.53 907.9,-74.66 897.51,-72.6 898.49,-79.53"/>
</g>
<!-- Node17 -->
<g id="node17" class="node">
<title>Node17</title>
<g id="a_node17"><a xlink:title=" ">
<polygon fill="white" stroke="#bfbfbf" points="1012.5,-56.5 1012.5,-75.5 1105.5,-75.5 1105.5,-56.5 1012.5,-56.5"/>
<text text-anchor="middle" x="1059" y="-63.5" font-family="Helvetica,sans-Serif" font-size="10.00">unordered_map</text>
</a>
</g>
</g>
<!-- Node1&#45;&gt;Node17 -->
<g id="edge20" class="edge">
<title>Node1&#45;&gt;Node17</title>
<path fill="none" stroke="midnightblue" d="M574.32,-115.88C671.24,-109.01 843.84,-95.5 1001.9,-76.05"/>
<polygon fill="midnightblue" stroke="midnightblue" points="1002.79,-79.47 1012.28,-74.76 1001.93,-72.52 1002.79,-79.47"/>
</g>
<!-- Node18 -->
<g id="node18" class="node">
<title>Node18</title>
<g id="a_node18"><a xlink:title=" ">
<polygon fill="white" stroke="#bfbfbf" points="1124,-56.5 1124,-75.5 1188,-75.5 1188,-56.5 1124,-56.5"/>
<text text-anchor="middle" x="1156" y="-63.5" font-family="Helvetica,sans-Serif" font-size="10.00">algorithm</text>
</a>
</g>
</g>
<!-- Node1&#45;&gt;Node18 -->
<g id="edge21" class="edge">
<title>Node1&#45;&gt;Node18</title>
<path fill="none" stroke="midnightblue" d="M574.37,-118.95C689.38,-115.08 913.95,-104.5 1113.75,-75.97"/>
<polygon fill="midnightblue" stroke="midnightblue" points="1114.45,-79.41 1123.85,-74.51 1113.45,-72.48 1114.45,-79.41"/>
</g>
<!-- Node13&#45;&gt;Node2 -->
<g id="edge15" class="edge">
<title>Node13&#45;&gt;Node2</title>
<path fill="none" stroke="midnightblue" d="M140.29,-56.44C117.65,-47.52 81.93,-33.44 56.25,-23.32"/>
<polygon fill="midnightblue" stroke="midnightblue" points="57.19,-19.93 46.61,-19.52 54.63,-26.44 57.19,-19.93"/>
</g>
<!-- Node13&#45;&gt;Node4 -->
<g id="edge14" class="edge">
<title>Node13&#45;&gt;Node4</title>
<path fill="none" stroke="midnightblue" d="M151.24,-56.32C141.23,-48.26 126.11,-36.08 114.07,-26.37"/>
<polygon fill="midnightblue" stroke="midnightblue" points="115.94,-23.38 105.96,-19.83 111.55,-28.83 115.94,-23.38"/>
</g>
<!-- Node13&#45;&gt;Node12 -->
<g id="edge13" class="edge">
<title>Node13&#45;&gt;Node12</title>
<path fill="none" stroke="midnightblue" d="M171.8,-56.32C180.82,-48.34 194.41,-36.31 205.32,-26.65"/>
<polygon fill="midnightblue" stroke="midnightblue" points="207.85,-29.08 213.02,-19.83 203.21,-23.84 207.85,-29.08"/>
</g>
<!-- Node14 -->
<g id="node14" class="node">
<title>Node14</title>
<g id="a_node14"><a xlink:title=" ">
<polygon fill="white" stroke="#bfbfbf" points="140,-0.5 140,-19.5 184,-19.5 184,-0.5 140,-0.5"/>
<text text-anchor="middle" x="162" y="-7.5" font-family="Helvetica,sans-Serif" font-size="10.00">string</text>
</a>
</g>
</g>
<!-- Node13&#45;&gt;Node14 -->
<g id="edge16" class="edge">
<title>Node13&#45;&gt;Node14</title>
<path fill="none" stroke="midnightblue" d="M162,-56.08C162,-49.01 162,-38.86 162,-29.99"/>
<polygon fill="midnightblue" stroke="midnightblue" points="165.5,-29.75 162,-19.75 158.5,-29.75 165.5,-29.75"/>
</g>
<!-- Node13&#45;&gt;Node15 -->
<g id="edge17" class="edge">
<title>Node13&#45;&gt;Node15</title>
<path fill="none" stroke="midnightblue" d="M181.65,-56.44C201.96,-47.6 233.9,-33.69 257.1,-23.59"/>
<polygon fill="midnightblue" stroke="midnightblue" points="258.67,-26.72 266.44,-19.52 255.88,-20.3 258.67,-26.72"/>
</g>
</g>
</svg>
