<?xml version="1.0" encoding="UTF-8" standalone="no"?>
<!DOCTYPE svg PUBLIC "-//W3C//DTD SVG 1.1//EN"
 "http://www.w3.org/Graphics/SVG/1.1/DTD/svg11.dtd">
<!-- Generated by graphviz version 2.43.0 (0)
 -->
<!-- Title: Graphical Class Hierarchy Pages: 1 -->
<svg width="316pt" height="28pt"
 viewBox="0.00 0.00 316.00 28.00" xmlns="http://www.w3.org/2000/svg" xmlns:xlink="http://www.w3.org/1999/xlink">
<g id="graph0" class="graph" transform="scale(1 1) rotate(0) translate(4 24)">
<title>Graphical Class Hierarchy</title>
<polygon fill="white" stroke="transparent" points="-4,4 -4,-24 312,-24 312,4 -4,4"/>
<!-- Node23 -->
<g id="node1" class="node">
<title>Node23</title>
<g id="a_node1"><a xlink:title=" ">
<polygon fill="white" stroke="#bfbfbf" points="0,-0.5 0,-19.5 86,-19.5 86,-0.5 0,-0.5"/>
<text text-anchor="middle" x="43" y="-7.5" font-family="Helvetica,sans-Serif" font-size="10.00">std::exception</text>
</a>
</g>
</g>
<!-- Node0 -->
<g id="node2" class="node">
<title>Node0</title>
<g id="a_node2"><a xlink:href="structBase.html" target="_top" xlink:title=" ">
<polygon fill="white" stroke="black" points="122,-0.5 122,-19.5 163,-19.5 163,-0.5 122,-0.5"/>
<text text-anchor="middle" x="142.5" y="-7.5" font-family="Helvetica,sans-Serif" font-size="10.00">Base</text>
</a>
</g>
</g>
<!-- Node23&#45;&gt;Node0 -->
<g id="edge1" class="edge">
<title>Node23&#45;&gt;Node0</title>
<path fill="none" stroke="midnightblue" d="M96.48,-10C105.58,-10 114.5,-10 121.97,-10"/>
<polygon fill="midnightblue" stroke="midnightblue" points="96.2,-6.5 86.2,-10 96.2,-13.5 96.2,-6.5"/>
</g>
<!-- Node1 -->
<g id="node3" class="node">
<title>Node1</title>
<g id="a_node3"><a xlink:href="structMid.html" target="_top" xlink:title=" ">
<polygon fill="white" stroke="black" points="199,-0.5 199,-19.5 234,-19.5 234,-0.5 199,-0.5"/>
<text text-anchor="middle" x="216.5" y="-7.5" font-family="Helvetica,sans-Serif" font-size="10.00">Mid</text>
</a>
</g>
</g>
<!-- Node0&#45;&gt;Node1 -->
<g id="edge2" class="edge">
<title>Node0&#45;&gt;Node1</title>
<path fill="none" stroke="midnightblue" d="M173.38,-10C182.05,-10 191.22,-10 198.78,-10"/>
<polygon fill="midnightblue" stroke="midnightblue" points="173.17,-6.5 163.17,-10 173.17,-13.5 173.17,-6.5"/>
</g>
<!-- Node2 -->
<g id="node4" class="node">
<title>Node2</title>
<g id="a_node4"><a xlink:href="structLeaf.html" target="_top" xlink:title=" ">
<polygon fill="white" stroke="black" points="270,-0.5 270,-19.5 308,-19.5 308,-0.5 270,-0.5"/>
<text text-anchor="middle" x="289" y="-7.5" font-family="Helvetica,sans-Serif" font-size="10.00">Leaf</text>
</a>
</g>
</g>
<!-- Node1&#45;&gt;Node2 -->
<g id="edge3" class="edge">
<title>Node1&#45;&gt;Node2</title>
<path fill="none" stroke="midnightblue" d="M244.47,-10C252.99,-10 262.19,-10 269.93,-10"/>
<polygon fill="midnightblue" stroke="midnightblue" points="244.21,-6.5 234.21,-10 244.21,-13.5 244.21,-6.5"/>
</g>
</g>
</svg>
