<?xml version="1.0" encoding="UTF-8" standalone="no"?>
<!DOCTYPE svg PUBLIC "-//W3C//DTD SVG 1.1//EN"
 "http://www.w3.org/Graphics/SVG/1.1/DTD/svg11.dtd">
<!-- Generated by graphviz version 2.43.0 (0)
 -->
<!-- Title: Graphical Class Hierarchy Pages: 1 -->
<svg width="331pt" height="230pt"
 viewBox="0.00 0.00 331.00 230.00" xmlns="http://www.w3.org/2000/svg" xmlns:xlink="http://www.w3.org/1999/xlink">
<g id="graph0" class="graph" transform="scale(1 1) rotate(0) translate(4 226)">
<title>Graphical Class Hierarchy</title>
<polygon fill="white" stroke="transparent" points="-4,4 -4,-226 327,-226 327,4 -4,4"/>
<!-- Node81 -->
<g id="node1" class="node">
<title>Node81</title>
<g id="a_node1"><a xlink:title=" ">
<polygon fill="white" stroke="#bfbfbf" points="0,-101.5 0,-120.5 129,-120.5 129,-101.5 0,-101.5"/>
<text text-anchor="middle" x="64.5" y="-108.5" font-family="Helvetica,sans-Serif" font-size="10.00">testing::TestWithParam</text>
</a>
</g>
</g>
<!-- Node0 -->
<g id="node2" class="node">
<title>Node0</title>
<g id="a_node2"><a xlink:href="classanonymous__namespace_02exception__integration__test_8cpp_03_1_1ExceptionRun.html" target="_top" xlink:title=" ">
<polygon fill="white" stroke="black" points="174,-180.5 174,-221.5 314,-221.5 314,-180.5 174,-180.5"/>
<text text-anchor="start" x="182" y="-209.5" font-family="Helvetica,sans-Serif" font-size="10.00">anonymous_namespace</text>
<text text-anchor="start" x="182" y="-198.5" font-family="Helvetica,sans-Serif" font-size="10.00">{exception_integration</text>
<text text-anchor="middle" x="244" y="-187.5" font-family="Helvetica,sans-Serif" font-size="10.00">_test.cpp}::ExceptionRun</text>
</a>
</g>
</g>
<!-- Node81&#45;&gt;Node0 -->
<g id="edge1" class="edge">
<title>Node81&#45;&gt;Node0</title>
<path fill="none" stroke="midnightblue" d="M88.15,-126.23C107.91,-139.13 137.62,-157.61 165,-171 171.65,-174.25 178.74,-177.4 185.84,-180.35"/>
<polygon fill="midnightblue" stroke="midnightblue" points="89.83,-123.15 79.56,-120.56 85.98,-128.99 89.83,-123.15"/>
</g>
<!-- Node83 -->
<g id="node3" class="node">
<title>Node83</title>
<g id="a_node3"><a xlink:href="classanonymous__namespace_02exception__shape__test_8cpp_03_1_1ExceptionShape.html" target="_top" xlink:title=" ">
<polygon fill="white" stroke="black" points="166.5,-120.5 166.5,-161.5 321.5,-161.5 321.5,-120.5 166.5,-120.5"/>
<text text-anchor="start" x="174.5" y="-149.5" font-family="Helvetica,sans-Serif" font-size="10.00">anonymous_namespace</text>
<text text-anchor="start" x="174.5" y="-138.5" font-family="Helvetica,sans-Serif" font-size="10.00">{exception_shape_test.cpp}</text>
<text text-anchor="middle" x="244" y="-127.5" font-family="Helvetica,sans-Serif" font-size="10.00">::ExceptionShape</text>
</a>
</g>
</g>
<!-- Node81&#45;&gt;Node83 -->
<g id="edge2" class="edge">
<title>Node81&#45;&gt;Node83</title>
<path fill="none" stroke="midnightblue" d="M132.25,-122.28C143.42,-124.17 155.09,-126.14 166.49,-128.07"/>
<polygon fill="midnightblue" stroke="midnightblue" points="132.59,-118.79 122.15,-120.57 131.43,-125.69 132.59,-118.79"/>
</g>
<!-- Node84 -->
<g id="node4" class="node">
<title>Node84</title>
<g id="a_node4"><a xlink:href="classanonymous__namespace_02recursion__integration__test_8cpp_03_1_1RecursionShape.html" target="_top" xlink:title=" ">
<polygon fill="white" stroke="black" points="168.5,-60.5 168.5,-101.5 319.5,-101.5 319.5,-60.5 168.5,-60.5"/>
<text text-anchor="start" x="176.5" y="-89.5" font-family="Helvetica,sans-Serif" font-size="10.00">anonymous_namespace</text>
<text text-anchor="start" x="176.5" y="-78.5" font-family="Helvetica,sans-Serif" font-size="10.00">{recursion_integration</text>
<text text-anchor="middle" x="244" y="-67.5" font-family="Helvetica,sans-Serif" font-size="10.00">_test.cpp}::RecursionShape</text>
</a>
</g>
</g>
<!-- Node81&#45;&gt;Node84 -->
<g id="edge3" class="edge">
<title>Node81&#45;&gt;Node84</title>
<path fill="none" stroke="midnightblue" d="M132.34,-99.7C144.11,-97.71 156.44,-95.63 168.41,-93.61"/>
<polygon fill="midnightblue" stroke="midnightblue" points="131.43,-96.31 122.15,-101.43 132.59,-103.21 131.43,-96.31"/>
</g>
<!-- Node85 -->
<g id="node5" class="node">
<title>Node85</title>
<g id="a_node5"><a xlink:href="classanonymous__namespace_02splay__deserialize__test_8cpp_03_1_1SplayDeserialize.html" target="_top" xlink:title=" ">
<polygon fill="white" stroke="black" points="165,-0.5 165,-41.5 323,-41.5 323,-0.5 165,-0.5"/>
<text text-anchor="start" x="173" y="-29.5" font-family="Helvetica,sans-Serif" font-size="10.00">anonymous_namespace</text>
<text text-anchor="start" x="173" y="-18.5" font-family="Helvetica,sans-Serif" font-size="10.00">{splay_deserialize_test.cpp}</text>
<text text-anchor="middle" x="244" y="-7.5" font-family="Helvetica,sans-Serif" font-size="10.00">::SplayDeserialize</text>
</a>
</g>
</g>
<!-- Node81&#45;&gt;Node85 -->
<g id="edge4" class="edge">
<title>Node81&#45;&gt;Node85</title>
<path fill="none" stroke="midnightblue" d="M88.15,-95.77C107.91,-82.87 137.62,-64.39 165,-51 171.65,-47.75 178.74,-44.6 185.84,-41.65"/>
<polygon fill="midnightblue" stroke="midnightblue" points="85.98,-93.01 79.56,-101.44 89.83,-98.85 85.98,-93.01"/>
</g>
</g>
</svg>
