<?xml version="1.0" encoding="UTF-8" standalone="no"?>
<!DOCTYPE svg PUBLIC "-//W3C//DTD SVG 1.1//EN"
 "http://www.w3.org/Graphics/SVG/1.1/DTD/svg11.dtd">
<!-- Generated by graphviz version 2.43.0 (0)
 -->
<!-- Title: Graphical Class Hierarchy Pages: 1 -->
<svg width="476pt" height="568pt"
 viewBox="0.00 0.00 476.00 568.00" xmlns="http://www.w3.org/2000/svg" xmlns:xlink="http://www.w3.org/1999/xlink">
<g id="graph0" class="graph" transform="scale(1 1) rotate(0) translate(4 564)">
<title>Graphical Class Hierarchy</title>
<polygon fill="white" stroke="transparent" points="-4,4 -4,-564 472,-564 472,4 -4,4"/>
<!-- Node68 -->
<g id="node1" class="node">
<title>Node68</title>
<g id="a_node1"><a xlink:title=" ">
<polygon fill="white" stroke="#bfbfbf" points="0,-289.5 0,-308.5 76,-308.5 76,-289.5 0,-289.5"/>
<text text-anchor="middle" x="38" y="-296.5" font-family="Helvetica,sans-Serif" font-size="10.00">testing::Test</text>
</a>
</g>
</g>
<!-- Node0 -->
<g id="node2" class="node">
<title>Node0</title>
<g id="a_node2"><a xlink:href="classanonymous__namespace_02cache__client__integration__test_8cpp_03_1_1CacheClientIntegration.html" target="_top" xlink:title=" ">
<polygon fill="white" stroke="black" points="112,-338.5 112,-379.5 297,-379.5 297,-338.5 112,-338.5"/>
<text text-anchor="start" x="120" y="-367.5" font-family="Helvetica,sans-Serif" font-size="10.00">anonymous_namespace</text>
<text text-anchor="start" x="120" y="-356.5" font-family="Helvetica,sans-Serif" font-size="10.00">{cache_client_integration</text>
<text text-anchor="middle" x="204.5" y="-345.5" font-family="Helvetica,sans-Serif" font-size="10.00">_test.cpp}::CacheClientIntegration</text>
</a>
</g>
</g>
<!-- Node68&#45;&gt;Node0 -->
<g id="edge1" class="edge">
<title>Node68&#45;&gt;Node0</title>
<path fill="none" stroke="midnightblue" d="M70.5,-312.53C83.3,-317.88 98.27,-323.94 112,-329 120.63,-332.18 129.77,-335.38 138.81,-338.44"/>
<polygon fill="midnightblue" stroke="midnightblue" points="71.77,-309.27 61.2,-308.62 69.06,-315.72 71.77,-309.27"/>
</g>
<!-- Node70 -->
<g id="node3" class="node">
<title>Node70</title>
<g id="a_node3"><a xlink:href="classanonymous__namespace_02cctlib__integration__test_8cpp_03_1_1CCTLibIntegration.html" target="_top" xlink:title=" ">
<polygon fill="white" stroke="black" points="124.5,-278.5 124.5,-319.5 284.5,-319.5 284.5,-278.5 124.5,-278.5"/>
<text text-anchor="start" x="132.5" y="-307.5" font-family="Helvetica,sans-Serif" font-size="10.00">anonymous_namespace</text>
<text text-anchor="start" x="132.5" y="-296.5" font-family="Helvetica,sans-Serif" font-size="10.00">{cctlib_integration</text>
<text text-anchor="middle" x="204.5" y="-285.5" font-family="Helvetica,sans-Serif" font-size="10.00">_test.cpp}::CCTLibIntegration</text>
</a>
</g>
</g>
<!-- Node68&#45;&gt;Node70 -->
<g id="edge2" class="edge">
<title>Node68&#45;&gt;Node70</title>
<path fill="none" stroke="midnightblue" d="M86.43,-299C98.31,-299 111.37,-299 124.33,-299"/>
<polygon fill="midnightblue" stroke="midnightblue" points="86.33,-295.5 76.33,-299 86.33,-302.5 86.33,-295.5"/>
</g>
<!-- Node71 -->
<g id="node4" class="node">
<title>Node71</title>
<g id="a_node4"><a xlink:href="classanonymous__namespace_02deadspy__integration__test_8cpp_03_1_1DeadspyIntegration.html" target="_top" xlink:title=" ">
<polygon fill="white" stroke="black" points="120,-218.5 120,-259.5 289,-259.5 289,-218.5 120,-218.5"/>
<text text-anchor="start" x="128" y="-247.5" font-family="Helvetica,sans-Serif" font-size="10.00">anonymous_namespace</text>
<text text-anchor="start" x="128" y="-236.5" font-family="Helvetica,sans-Serif" font-size="10.00">{deadspy_integration</text>
<text text-anchor="middle" x="204.5" y="-225.5" font-family="Helvetica,sans-Serif" font-size="10.00">_test.cpp}::DeadspyIntegration</text>
</a>
</g>
</g>
<!-- Node68&#45;&gt;Node71 -->
<g id="edge3" class="edge">
<title>Node68&#45;&gt;Node71</title>
<path fill="none" stroke="midnightblue" d="M70.5,-285.47C83.3,-280.12 98.27,-274.06 112,-269 120.63,-265.82 129.77,-262.62 138.81,-259.56"/>
<polygon fill="midnightblue" stroke="midnightblue" points="69.06,-282.28 61.2,-289.38 71.77,-288.73 69.06,-282.28"/>
</g>
<!-- Node73 -->
<g id="node6" class="node">
<title>Node73</title>
<g id="a_node6"><a xlink:href="classanonymous__namespace_02footprint__integration__test_8cpp_03_1_1FootprintIntegration.html" target="_top" xlink:title=" ">
<polygon fill="white" stroke="black" points="119.5,-0.5 119.5,-41.5 289.5,-41.5 289.5,-0.5 119.5,-0.5"/>
<text text-anchor="start" x="127.5" y="-29.5" font-family="Helvetica,sans-Serif" font-size="10.00">anonymous_namespace</text>
<text text-anchor="start" x="127.5" y="-18.5" font-family="Helvetica,sans-Serif" font-size="10.00">{footprint_integration</text>
<text text-anchor="middle" x="204.5" y="-7.5" font-family="Helvetica,sans-Serif" font-size="10.00">_test.cpp}::FootprintIntegration</text>
</a>
</g>
</g>
<!-- Node68&#45;&gt;Node73 -->
<g id="edge5" class="edge">
<title>Node68&#45;&gt;Node73</title>
<path fill="none" stroke="midnightblue" d="M38.95,-279.16C39.93,-232.74 48.91,-116.04 112,-51 115.38,-47.52 119.16,-44.44 123.22,-41.72"/>
<polygon fill="midnightblue" stroke="midnightblue" points="35.45,-279.34 38.85,-289.38 42.45,-279.41 35.45,-279.34"/>
</g>
<!-- Node74 -->
<g id="node7" class="node">
<title>Node74</title>
<g id="a_node7"><a xlink:href="classanonymous__namespace_02ins__reuse__integration__test_8cpp_03_1_1InsReuseIntegration.html" target="_top" xlink:title=" ">
<polygon fill="white" stroke="black" points="119.5,-518.5 119.5,-559.5 289.5,-559.5 289.5,-518.5 119.5,-518.5"/>
<text text-anchor="start" x="127.5" y="-547.5" font-family="Helvetica,sans-Serif" font-size="10.00">anonymous_namespace</text>
<text text-anchor="start" x="127.5" y="-536.5" font-family="Helvetica,sans-Serif" font-size="10.00">{ins_reuse_integration</text>
<text text-anchor="middle" x="204.5" y="-525.5" font-family="Helvetica,sans-Serif" font-size="10.00">_test.cpp}::InsReuseIntegration</text>
</a>
</g>
</g>
<!-- Node68&#45;&gt;Node74 -->
<g id="edge6" class="edge">
<title>Node68&#45;&gt;Node74</title>
<path fill="none" stroke="midnightblue" d="M40.23,-319.13C43.84,-360.54 57.89,-455.84 112,-509 115.58,-512.51 119.57,-515.62 123.84,-518.36"/>
<polygon fill="midnightblue" stroke="midnightblue" points="43.7,-318.67 39.46,-308.96 36.72,-319.19 43.7,-318.67"/>
</g>
<!-- Node75 -->
<g id="node8" class="node">
<title>Node75</title>
<g id="a_node8"><a xlink:href="classanonymous__namespace_02loadspy__integration__test_8cpp_03_1_1LoadspyIntegration.html" target="_top" xlink:title=" ">
<polygon fill="white" stroke="black" points="121,-120.5 121,-161.5 288,-161.5 288,-120.5 121,-120.5"/>
<text text-anchor="start" x="129" y="-149.5" font-family="Helvetica,sans-Serif" font-size="10.00">anonymous_namespace</text>
<text text-anchor="start" x="129" y="-138.5" font-family="Helvetica,sans-Serif" font-size="10.00">{loadspy_integration</text>
<text text-anchor="middle" x="204.5" y="-127.5" font-family="Helvetica,sans-Serif" font-size="10.00">_test.cpp}::LoadspyIntegration</text>
</a>
</g>
</g>
<!-- Node68&#45;&gt;Node75 -->
<g id="edge7" class="edge">
<title>Node68&#45;&gt;Node75</title>
<path fill="none" stroke="midnightblue" d="M45.03,-279.6C54.71,-251.63 76.31,-200.14 112,-171 116.27,-167.51 120.97,-164.42 125.9,-161.69"/>
<polygon fill="midnightblue" stroke="midnightblue" points="41.61,-278.79 41.81,-289.39 48.26,-280.99 41.61,-278.79"/>
</g>
<!-- Node77 -->
<g id="node10" class="node">
<title>Node77</title>
<g id="a_node10"><a xlink:href="classanonymous__namespace_02omp__race__integration__test_8cpp_03_1_1OmpRaceIntegration.html" target="_top" xlink:title=" ">
<polygon fill="white" stroke="black" points="118,-458.5 118,-499.5 291,-499.5 291,-458.5 118,-458.5"/>
<text text-anchor="start" x="126" y="-487.5" font-family="Helvetica,sans-Serif" font-size="10.00">anonymous_namespace</text>
<text text-anchor="start" x="126" y="-476.5" font-family="Helvetica,sans-Serif" font-size="10.00">{omp_race_integration</text>
<text text-anchor="middle" x="204.5" y="-465.5" font-family="Helvetica,sans-Serif" font-size="10.00">_test.cpp}::OmpRaceIntegration</text>
</a>
</g>
</g>
<!-- Node68&#45;&gt;Node77 -->
<g id="edge9" class="edge">
<title>Node68&#45;&gt;Node77</title>
<path fill="none" stroke="midnightblue" d="M43.28,-318.54C51.25,-350.41 71.39,-413.58 112,-449 116.03,-452.52 120.48,-455.62 125.19,-458.37"/>
<polygon fill="midnightblue" stroke="midnightblue" points="46.65,-317.6 40.95,-308.67 39.84,-319.2 46.65,-317.6"/>
</g>
<!-- Node78 -->
<g id="node11" class="node">
<title>Node78</title>
<g id="a_node11"><a xlink:href="classanonymous__namespace_02redspy__integration__test_8cpp_03_1_1RedspyIntegration.html" target="_top" xlink:title=" ">
<polygon fill="white" stroke="black" points="123.5,-60.5 123.5,-101.5 285.5,-101.5 285.5,-60.5 123.5,-60.5"/>
<text text-anchor="start" x="131.5" y="-89.5" font-family="Helvetica,sans-Serif" font-size="10.00">anonymous_namespace</text>
<text text-anchor="start" x="131.5" y="-78.5" font-family="Helvetica,sans-Serif" font-size="10.00">{redspy_integration</text>
<text text-anchor="middle" x="204.5" y="-67.5" font-family="Helvetica,sans-Serif" font-size="10.00">_test.cpp}::RedspyIntegration</text>
</a>
</g>
</g>
<!-- Node68&#45;&gt;Node78 -->
<g id="edge10" class="edge">
<title>Node68&#45;&gt;Node78</title>
<path fill="none" stroke="midnightblue" d="M41.17,-278.91C46.36,-240.76 62.95,-157.49 112,-111 115.76,-107.43 119.95,-104.29 124.42,-101.52"/>
<polygon fill="midnightblue" stroke="midnightblue" points="37.65,-278.86 39.91,-289.21 44.6,-279.71 37.65,-278.86"/>
</g>
<!-- Node80 -->
<g id="node13" class="node">
<title>Node80</title>
<g id="a_node13"><a xlink:href="classanonymous__namespace_02rvn__integration__test_8cpp_03_1_1RVNIntegration.html" target="_top" xlink:title=" ">
<polygon fill="white" stroke="black" points="131,-398.5 131,-439.5 278,-439.5 278,-398.5 131,-398.5"/>
<text text-anchor="start" x="139" y="-427.5" font-family="Helvetica,sans-Serif" font-size="10.00">anonymous_namespace</text>
<text text-anchor="start" x="139" y="-416.5" font-family="Helvetica,sans-Serif" font-size="10.00">{rvn_integration_test.cpp}</text>
<text text-anchor="middle" x="204.5" y="-405.5" font-family="Helvetica,sans-Serif" font-size="10.00">::RVNIntegration</text>
</a>
</g>
</g>
<!-- Node68&#45;&gt;Node80 -->
<g id="edge12" class="edge">
<title>Node68&#45;&gt;Node80</title>
<path fill="none" stroke="midnightblue" d="M49.39,-317.3C61.8,-337.6 84.39,-369.99 112,-389 117.78,-392.98 124.13,-396.47 130.7,-399.51"/>
<polygon fill="midnightblue" stroke="midnightblue" points="52.38,-315.49 44.28,-308.67 46.36,-319.06 52.38,-315.49"/>
</g>
<!-- Node72 -->
<g id="node5" class="node">
<title>Node72</title>
<g id="a_node5"><a xlink:href="classanonymous__namespace_02deadspy__integration__test_8cpp_03_1_1DeadspyIsa.html" target="_top" xlink:title=" ">
<polygon fill="white" stroke="black" points="333,-208.5 333,-249.5 468,-249.5 468,-208.5 333,-208.5"/>
<text text-anchor="start" x="341" y="-237.5" font-family="Helvetica,sans-Serif" font-size="10.00">anonymous_namespace</text>
<text text-anchor="start" x="341" y="-226.5" font-family="Helvetica,sans-Serif" font-size="10.00">{deadspy_integration</text>
<text text-anchor="middle" x="400.5" y="-215.5" font-family="Helvetica,sans-Serif" font-size="10.00">_test.cpp}::DeadspyIsa</text>
</a>
</g>
</g>
<!-- Node71&#45;&gt;Node72 -->
<g id="edge4" class="edge">
<title>Node71&#45;&gt;Node72</title>
<path fill="none" stroke="midnightblue" d="M299.47,-234.16C310.71,-233.58 322,-232.99 332.75,-232.44"/>
<polygon fill="midnightblue" stroke="midnightblue" points="298.99,-230.68 289.18,-234.69 299.35,-237.67 298.99,-230.68"/>
</g>
<!-- Node76 -->
<g id="node9" class="node">
<title>Node76</title>
<g id="a_node9"><a xlink:href="classanonymous__namespace_02loadspy__integration__test_8cpp_03_1_1LoadspyIsa.html" target="_top" xlink:title=" ">
<polygon fill="white" stroke="black" points="333,-139.5 333,-180.5 468,-180.5 468,-139.5 333,-139.5"/>
<text text-anchor="start" x="341" y="-168.5" font-family="Helvetica,sans-Serif" font-size="10.00">anonymous_namespace</text>
<text text-anchor="start" x="341" y="-157.5" font-family="Helvetica,sans-Serif" font-size="10.00">{loadspy_integration</text>
<text text-anchor="middle" x="400.5" y="-146.5" font-family="Helvetica,sans-Serif" font-size="10.00">_test.cpp}::LoadspyIsa</text>
</a>
</g>
</g>
<!-- Node75&#45;&gt;Node76 -->
<g id="edge8" class="edge">
<title>Node75&#45;&gt;Node76</title>
<path fill="none" stroke="midnightblue" d="M298.27,-150.09C309.95,-151.23 321.7,-152.38 332.86,-153.47"/>
<polygon fill="midnightblue" stroke="midnightblue" points="298.35,-146.58 288.05,-149.09 297.67,-153.54 298.35,-146.58"/>
</g>
<!-- Node79 -->
<g id="node12" class="node">
<title>Node79</title>
<g id="a_node12"><a xlink:href="classanonymous__namespace_02redspy__integration__test_8cpp_03_1_1RedspyIsa.html" target="_top" xlink:title=" ">
<polygon fill="white" stroke="black" points="333,-79.5 333,-120.5 468,-120.5 468,-79.5 333,-79.5"/>
<text text-anchor="start" x="341" y="-108.5" font-family="Helvetica,sans-Serif" font-size="10.00">anonymous_namespace</text>
<text text-anchor="start" x="341" y="-97.5" font-family="Helvetica,sans-Serif" font-size="10.00">{redspy_integration</text>
<text text-anchor="middle" x="400.5" y="-86.5" font-family="Helvetica,sans-Serif" font-size="10.00">_test.cpp}::RedspyIsa</text>
</a>
</g>
</g>
<!-- Node78&#45;&gt;Node79 -->
<g id="edge11" class="edge">
<title>Node78&#45;&gt;Node79</title>
<path fill="none" stroke="midnightblue" d="M295.57,-89.82C308.15,-91.05 320.88,-92.3 332.92,-93.48"/>
<polygon fill="midnightblue" stroke="midnightblue" points="295.82,-86.33 285.53,-88.84 295.14,-93.3 295.82,-86.33"/>
</g>
<!-- Node109 -->
<g id="node14" class="node">
<title>Node109</title>
<g id="a_node14"><a xlink:title=" ">
<polygon fill="white" stroke="#bfbfbf" points="128,-180.5 128,-199.5 281,-199.5 281,-180.5 128,-180.5"/>
<text text-anchor="middle" x="204.5" y="-187.5" font-family="Helvetica,sans-Serif" font-size="10.00">testing::WithParamInterface</text>
</a>
</g>
</g>
<!-- Node109&#45;&gt;Node72 -->
<g id="edge13" class="edge">
<title>Node109&#45;&gt;Node72</title>
<path fill="none" stroke="midnightblue" d="M262.79,-201.52C284.75,-205.93 309.99,-211.01 332.76,-215.58"/>
<polygon fill="midnightblue" stroke="midnightblue" points="263.45,-198.08 252.96,-199.54 262.07,-204.94 263.45,-198.08"/>
</g>
<!-- Node109&#45;&gt;Node76 -->
<g id="edge14" class="edge">
<title>Node109&#45;&gt;Node76</title>
<path fill="none" stroke="midnightblue" d="M277.15,-178.92C295.42,-176.1 314.97,-173.07 332.98,-170.29"/>
<polygon fill="midnightblue" stroke="midnightblue" points="276.5,-175.48 267.15,-180.47 277.57,-182.4 276.5,-175.48"/>
</g>
<!-- Node109&#45;&gt;Node79 -->
<g id="edge15" class="edge">
<title>Node109&#45;&gt;Node79</title>
<path fill="none" stroke="midnightblue" d="M285.33,-176.77C289.38,-175.07 293.29,-173.16 297,-171 317.95,-158.79 313.51,-144.42 333,-130 337.58,-126.61 342.61,-123.48 347.78,-120.64"/>
<polygon fill="midnightblue" stroke="midnightblue" points="283.85,-173.59 275.71,-180.36 286.3,-180.15 283.85,-173.59"/>
</g>
</g>
</svg>
