<?xml version="1.0" encoding="UTF-8" standalone="no"?>
<!DOCTYPE svg PUBLIC "-//W3C//DTD SVG 1.1//EN"
 "http://www.w3.org/Graphics/SVG/1.1/DTD/svg11.dtd">
<!-- Generated by graphviz version 2.43.0 (0)
 -->
<!-- Title: clients/ins_reuse_client.cpp Pages: 1 -->
<svg width="2571pt" height="140pt"
 viewBox="0.00 0.00 2571.00 140.00" xmlns="http://www.w3.org/2000/svg" xmlns:xlink="http://www.w3.org/1999/xlink">
<g id="graph0" class="graph" transform="scale(1 1) rotate(0) translate(4 136)">
<title>clients/ins_reuse_client.cpp</title>
<polygon fill="white" stroke="transparent" points="-4,4 -4,-136 2567,-136 2567,4 -4,4"/>
<!-- Node1 -->
<g id="node1" class="node">
<title>Node1</title>
<g id="a_node1"><a xlink:title=" ">
<polygon fill="#bfbfbf" stroke="black" points="893,-112.5 893,-131.5 1044,-131.5 1044,-112.5 893,-112.5"/>
<text text-anchor="middle" x="968.5" y="-119.5" font-family="Helvetica,sans-Serif" font-size="10.00">clients/ins_reuse_client.cpp</text>
</a>
</g>
</g>
<!-- Node2 -->
<g id="node2" class="node">
<title>Node2</title>
<g id="a_node2"><a xlink:title=" ">
<polygon fill="white" stroke="#bfbfbf" points="443.5,-0.5 443.5,-19.5 493.5,-19.5 493.5,-0.5 443.5,-0.5"/>
<text text-anchor="middle" x="468.5" y="-7.5" font-family="Helvetica,sans-Serif" font-size="10.00">stdio.h</text>
</a>
</g>
</g>
<!-- Node1&#45;&gt;Node2 -->
<g id="edge1" class="edge">
<title>Node1&#45;&gt;Node2</title>
<path fill="none" stroke="midnightblue" d="M892.8,-118.66C764.64,-114.01 515.83,-101.75 485.5,-76 472.32,-64.81 468.7,-44.79 467.99,-29.91"/>
<polygon fill="midnightblue" stroke="midnightblue" points="471.49,-29.74 467.91,-19.77 464.49,-29.8 471.49,-29.74"/>
</g>
<!-- Node3 -->
<g id="node3" class="node">
<title>Node3</title>
<g id="a_node3"><a xlink:title=" ">
<polygon fill="white" stroke="#bfbfbf" points="0,-0.5 0,-19.5 53,-19.5 53,-0.5 0,-0.5"/>
<text text-anchor="middle" x="26.5" y="-7.5" font-family="Helvetica,sans-Serif" font-size="10.00">stdlib.h</text>
</a>
</g>
</g>
<!-- Node1&#45;&gt;Node3 -->
<g id="edge2" class="edge">
<title>Node1&#45;&gt;Node3</title>
<path fill="none" stroke="midnightblue" d="M892.73,-119.73C695.93,-116.04 178.75,-103.79 106.5,-76 79.76,-65.71 55.18,-42.87 40.51,-27.2"/>
<polygon fill="midnightblue" stroke="midnightblue" points="43.09,-24.84 33.79,-19.77 37.9,-29.53 43.09,-24.84"/>
</g>
<!-- Node4 -->
<g id="node4" class="node">
<title>Node4</title>
<g id="a_node4"><a xlink:title=" ">
<polygon fill="white" stroke="#bfbfbf" points="294,-0.5 294,-19.5 347,-19.5 347,-0.5 294,-0.5"/>
<text text-anchor="middle" x="320.5" y="-7.5" font-family="Helvetica,sans-Serif" font-size="10.00">stdint.h</text>
</a>
</g>
</g>
<!-- Node1&#45;&gt;Node4 -->
<g id="edge3" class="edge">
<title>Node1&#45;&gt;Node4</title>
<path fill="none" stroke="midnightblue" d="M892.73,-120.58C733.84,-119 377,-111.49 335.5,-76 322.45,-64.84 319.49,-44.82 319.3,-29.93"/>
<polygon fill="midnightblue" stroke="midnightblue" points="322.8,-29.87 319.58,-19.78 315.81,-29.68 322.8,-29.87"/>
</g>
<!-- Node5 -->
<g id="node5" class="node">
<title>Node5</title>
<g id="a_node5"><a xlink:title=" ">
<polygon fill="white" stroke="#bfbfbf" points="71.5,-0.5 71.5,-19.5 121.5,-19.5 121.5,-0.5 71.5,-0.5"/>
<text text-anchor="middle" x="96.5" y="-7.5" font-family="Helvetica,sans-Serif" font-size="10.00">atomic</text>
</a>
</g>
</g>
<!-- Node1&#45;&gt;Node5 -->
<g id="edge4" class="edge">
<title>Node1&#45;&gt;Node5</title>
<path fill="none" stroke="midnightblue" d="M892.77,-121.41C697.51,-121.85 187.81,-118.84 125.5,-76 110.1,-65.41 102.77,-44.64 99.35,-29.42"/>
<polygon fill="midnightblue" stroke="midnightblue" points="102.79,-28.72 97.5,-19.54 95.91,-30.01 102.79,-28.72"/>
</g>
<!-- Node6 -->
<g id="node6" class="node">
<title>Node6</title>
<g id="a_node6"><a xlink:title=" ">
<polygon fill="white" stroke="#bfbfbf" points="643,-56.5 643,-75.5 702,-75.5 702,-56.5 643,-56.5"/>
<text text-anchor="middle" x="672.5" y="-63.5" font-family="Helvetica,sans-Serif" font-size="10.00">malloc.h</text>
</a>
</g>
</g>
<!-- Node1&#45;&gt;Node6 -->
<g id="edge5" class="edge">
<title>Node1&#45;&gt;Node6</title>
<path fill="none" stroke="midnightblue" d="M914.69,-112.44C864.82,-104.31 788.34,-91.35 712.49,-76.11"/>
<polygon fill="midnightblue" stroke="midnightblue" points="712.77,-72.6 702.27,-74.04 711.38,-79.46 712.77,-72.6"/>
</g>
<!-- Node7 -->
<g id="node7" class="node">
<title>Node7</title>
<g id="a_node7"><a xlink:title=" ">
<polygon fill="white" stroke="#bfbfbf" points="365.5,-0.5 365.5,-19.5 425.5,-19.5 425.5,-0.5 365.5,-0.5"/>
<text text-anchor="middle" x="395.5" y="-7.5" font-family="Helvetica,sans-Serif" font-size="10.00">iostream</text>
</a>
</g>
</g>
<!-- Node1&#45;&gt;Node7 -->
<g id="edge6" class="edge">
<title>Node1&#45;&gt;Node7</title>
<path fill="none" stroke="midnightblue" d="M892.68,-119.88C772.34,-117.15 543.64,-107.81 469.5,-76 444.57,-65.3 422.13,-42.91 408.66,-27.42"/>
<polygon fill="midnightblue" stroke="midnightblue" points="411.24,-25.05 402.14,-19.64 405.88,-29.55 411.24,-25.05"/>
</g>
<!-- Node8 -->
<g id="node8" class="node">
<title>Node8</title>
<g id="a_node8"><a xlink:title=" ">
<polygon fill="white" stroke="#bfbfbf" points="720,-56.5 720,-75.5 775,-75.5 775,-56.5 720,-56.5"/>
<text text-anchor="middle" x="747.5" y="-63.5" font-family="Helvetica,sans-Serif" font-size="10.00">fstream</text>
</a>
</g>
</g>
<!-- Node1&#45;&gt;Node8 -->
<g id="edge7" class="edge">
<title>Node1&#45;&gt;Node8</title>
<path fill="none" stroke="midnightblue" d="M933.48,-112.44C892.89,-102.53 826.27,-86.25 784.75,-76.1"/>
<polygon fill="midnightblue" stroke="midnightblue" points="785.57,-72.7 775.02,-73.73 783.91,-79.5 785.57,-72.7"/>
</g>
<!-- Node9 -->
<g id="node9" class="node">
<title>Node9</title>
<g id="a_node9"><a xlink:title=" ">
<polygon fill="white" stroke="#bfbfbf" points="793.5,-56.5 793.5,-75.5 849.5,-75.5 849.5,-56.5 793.5,-56.5"/>
<text text-anchor="middle" x="821.5" y="-63.5" font-family="Helvetica,sans-Serif" font-size="10.00">unistd.h</text>
</a>
</g>
</g>
<!-- Node1&#45;&gt;Node9 -->
<g id="edge8" class="edge">
<title>Node1&#45;&gt;Node9</title>
<path fill="none" stroke="midnightblue" d="M945.21,-112.44C920.69,-103.44 881.9,-89.19 854.3,-79.05"/>
<polygon fill="midnightblue" stroke="midnightblue" points="855.28,-75.68 844.68,-75.52 852.86,-82.25 855.28,-75.68"/>
</g>
<!-- Node10 -->
<g id="node10" class="node">
<title>Node10</title>
<g id="a_node10"><a xlink:title=" ">
<polygon fill="white" stroke="#bfbfbf" points="867.5,-56.5 867.5,-75.5 923.5,-75.5 923.5,-56.5 867.5,-56.5"/>
<text text-anchor="middle" x="895.5" y="-63.5" font-family="Helvetica,sans-Serif" font-size="10.00">assert.h</text>
</a>
</g>
</g>
<!-- Node1&#45;&gt;Node10 -->
<g id="edge9" class="edge">
<title>Node1&#45;&gt;Node10</title>
<path fill="none" stroke="midnightblue" d="M956.77,-112.32C945.66,-104.11 928.76,-91.6 915.52,-81.81"/>
<polygon fill="midnightblue" stroke="midnightblue" points="917.56,-78.97 907.44,-75.83 913.4,-84.59 917.56,-78.97"/>
</g>
<!-- Node11 -->
<g id="node11" class="node">
<title>Node11</title>
<g id="a_node11"><a xlink:title=" ">
<polygon fill="white" stroke="#bfbfbf" points="942,-56.5 942,-75.5 995,-75.5 995,-56.5 942,-56.5"/>
<text text-anchor="middle" x="968.5" y="-63.5" font-family="Helvetica,sans-Serif" font-size="10.00">string.h</text>
</a>
</g>
</g>
<!-- Node1&#45;&gt;Node11 -->
<g id="edge10" class="edge">
<title>Node1&#45;&gt;Node11</title>
<path fill="none" stroke="midnightblue" d="M968.5,-112.08C968.5,-105.01 968.5,-94.86 968.5,-85.99"/>
<polygon fill="midnightblue" stroke="midnightblue" points="972,-85.75 968.5,-75.75 965,-85.75 972,-85.75"/>
</g>
<!-- Node12 -->
<g id="node12" class="node">
<title>Node12</title>
<g id="a_node12"><a xlink:title=" ">
<polygon fill="white" stroke="#bfbfbf" points="199,-0.5 199,-19.5 276,-19.5 276,-0.5 199,-0.5"/>
<text text-anchor="middle" x="237.5" y="-7.5" font-family="Helvetica,sans-Serif" font-size="10.00">sys/mman.h</text>
</a>
</g>
</g>
<!-- Node1&#45;&gt;Node12 -->
<g id="edge11" class="edge">
<title>Node1&#45;&gt;Node12</title>
<path fill="none" stroke="midnightblue" d="M892.72,-121.33C744.58,-121.07 422.11,-115.77 319.5,-76 292.38,-65.49 267.11,-42.7 251.99,-27.11"/>
<polygon fill="midnightblue" stroke="midnightblue" points="254.44,-24.61 245.04,-19.71 249.33,-29.4 254.44,-24.61"/>
</g>
<!-- Node13 -->
<g id="node13" class="node">
<title>Node13</title>
<g id="a_node13"><a xlink:title=" ">
<polygon fill="white" stroke="#bfbfbf" points="1013.5,-56.5 1013.5,-75.5 1069.5,-75.5 1069.5,-56.5 1013.5,-56.5"/>
<text text-anchor="middle" x="1041.5" y="-63.5" font-family="Helvetica,sans-Serif" font-size="10.00">sstream</text>
</a>
</g>
</g>
<!-- Node1&#45;&gt;Node13 -->
<g id="edge12" class="edge">
<title>Node1&#45;&gt;Node13</title>
<path fill="none" stroke="midnightblue" d="M980.23,-112.32C991.34,-104.11 1008.24,-91.6 1021.48,-81.81"/>
<polygon fill="midnightblue" stroke="midnightblue" points="1023.6,-84.59 1029.56,-75.83 1019.44,-78.97 1023.6,-84.59"/>
</g>
<!-- Node14 -->
<g id="node14" class="node">
<title>Node14</title>
<g id="a_node14"><a xlink:title=" ">
<polygon fill="white" stroke="#bfbfbf" points="1088,-56.5 1088,-75.5 1153,-75.5 1153,-56.5 1088,-56.5"/>
<text text-anchor="middle" x="1120.5" y="-63.5" font-family="Helvetica,sans-Serif" font-size="10.00">functional</text>
</a>
</g>
</g>
<!-- Node1&#45;&gt;Node14 -->
<g id="edge13" class="edge">
<title>Node1&#45;&gt;Node14</title>
<path fill="none" stroke="midnightblue" d="M992.58,-112.44C1018.04,-103.4 1058.39,-89.06 1086.96,-78.92"/>
<polygon fill="midnightblue" stroke="midnightblue" points="1088.28,-82.16 1096.53,-75.52 1085.93,-75.57 1088.28,-82.16"/>
</g>
<!-- Node15 -->
<g id="node15" class="node">
<title>Node15</title>
<g id="a_node15"><a xlink:title=" ">
<polygon fill="white" stroke="#bfbfbf" points="1171.5,-56.5 1171.5,-75.5 1257.5,-75.5 1257.5,-56.5 1171.5,-56.5"/>
<text text-anchor="middle" x="1214.5" y="-63.5" font-family="Helvetica,sans-Serif" font-size="10.00">unordered_set</text>
</a>
</g>
</g>
<!-- Node1&#45;&gt;Node15 -->
<g id="edge14" class="edge">
<title>Node1&#45;&gt;Node15</title>
<path fill="none" stroke="midnightblue" d="M1007.48,-112.44C1050.39,-103.02 1119.45,-87.87 1165.87,-77.68"/>
<polygon fill="midnightblue" stroke="midnightblue" points="1166.69,-81.08 1175.7,-75.52 1165.19,-74.24 1166.69,-81.08"/>
</g>
<!-- Node16 -->
<g id="node16" class="node">
<title>Node16</title>
<g id="a_node16"><a xlink:title=" ">
<polygon fill="white" stroke="#bfbfbf" points="574,-0.5 574,-19.5 621,-19.5 621,-0.5 574,-0.5"/>
<text text-anchor="middle" x="597.5" y="-7.5" font-family="Helvetica,sans-Serif" font-size="10.00">vector</text>
</a>
</g>
</g>
<!-- Node1&#45;&gt;Node16 -->
<g id="edge15" class="edge">
<title>Node1&#45;&gt;Node16</title>
<path fill="none" stroke="midnightblue" d="M892.66,-119.74C804.32,-116.82 665.26,-107.22 624.5,-76 610.12,-64.99 603.34,-44.94 600.18,-30.01"/>
<polygon fill="midnightblue" stroke="midnightblue" points="603.57,-29.07 598.4,-19.82 596.68,-30.27 603.57,-29.07"/>
</g>
<!-- Node17 -->
<g id="node17" class="node">
<title>Node17</title>
<g id="a_node17"><a xlink:title=" ">
<polygon fill="white" stroke="#bfbfbf" points="1276,-56.5 1276,-75.5 1369,-75.5 1369,-56.5 1276,-56.5"/>
<text text-anchor="middle" x="1322.5" y="-63.5" font-family="Helvetica,sans-Serif" font-size="10.00">unordered_map</text>
</a>
</g>
</g>
<!-- Node1&#45;&gt;Node17 -->
<g id="edge16" class="edge">
<title>Node1&#45;&gt;Node17</title>
<path fill="none" stroke="midnightblue" d="M1025.93,-112.49C1083.79,-103.88 1175.92,-90.08 1265.67,-76.12"/>
<polygon fill="midnightblue" stroke="midnightblue" points="1266.41,-79.54 1275.75,-74.55 1265.33,-72.63 1266.41,-79.54"/>
</g>
<!-- Node18 -->
<g id="node18" class="node">
<title>Node18</title>
<g id="a_node18"><a xlink:title=" ">
<polygon fill="white" stroke="#bfbfbf" points="1387.5,-56.5 1387.5,-75.5 1451.5,-75.5 1451.5,-56.5 1387.5,-56.5"/>
<text text-anchor="middle" x="1419.5" y="-63.5" font-family="Helvetica,sans-Serif" font-size="10.00">algorithm</text>
</a>
</g>
</g>
<!-- Node1&#45;&gt;Node18 -->
<g id="edge17" class="edge">
<title>Node1&#45;&gt;Node18</title>
<path fill="none" stroke="midnightblue" d="M1044.02,-115.14C1124.35,-108.36 1255.31,-95.74 1377.43,-76.02"/>
<polygon fill="midnightblue" stroke="midnightblue" points="1378.03,-79.47 1387.33,-74.4 1376.9,-72.56 1378.03,-79.47"/>
</g>
<!-- Node19 -->
<g id="node19" class="node">
<title>Node19</title>
<g id="a_node19"><a xlink:title=" ">
<polygon fill="white" stroke="#bfbfbf" points="1469.5,-56.5 1469.5,-75.5 1501.5,-75.5 1501.5,-56.5 1469.5,-56.5"/>
<text text-anchor="middle" x="1485.5" y="-63.5" font-family="Helvetica,sans-Serif" font-size="10.00">list</text>
</a>
</g>
</g>
<!-- Node1&#45;&gt;Node19 -->
<g id="edge18" class="edge">
<title>Node1&#45;&gt;Node19</title>
<path fill="none" stroke="midnightblue" d="M1044.01,-120.03C1139.28,-117.48 1307.98,-108.59 1459.33,-75.71"/>
<polygon fill="midnightblue" stroke="midnightblue" points="1460.26,-79.09 1469.27,-73.51 1458.75,-72.26 1460.26,-79.09"/>
</g>
<!-- Node20 -->
<g id="node20" class="node">
<title>Node20</title>
<g id="a_node20"><a xlink:title=" ">
<polygon fill="white" stroke="#bfbfbf" points="1519.5,-56.5 1519.5,-75.5 1629.5,-75.5 1629.5,-56.5 1519.5,-56.5"/>
<text text-anchor="middle" x="1574.5" y="-63.5" font-family="Helvetica,sans-Serif" font-size="10.00">nlohmann/json.hpp</text>
</a>
</g>
</g>
<!-- Node1&#45;&gt;Node20 -->
<g id="edge19" class="edge">
<title>Node1&#45;&gt;Node20</title>
<path fill="none" stroke="midnightblue" d="M1044.04,-116.09C1146.89,-109.1 1336.99,-95.1 1509.35,-76.07"/>
<polygon fill="midnightblue" stroke="midnightblue" points="1509.82,-79.54 1519.37,-74.96 1509.04,-72.58 1509.82,-79.54"/>
</g>
<!-- Node21 -->
<g id="node21" class="node">
<title>Node21</title>
<g id="a_node21"><a xlink:title=" ">
<polygon fill="white" stroke="#bfbfbf" points="639.5,-0.5 639.5,-19.5 681.5,-19.5 681.5,-0.5 639.5,-0.5"/>
<text text-anchor="middle" x="660.5" y="-7.5" font-family="Helvetica,sans-Serif" font-size="10.00">pin.H</text>
</a>
</g>
</g>
<!-- Node1&#45;&gt;Node21 -->
<g id="edge20" class="edge">
<title>Node1&#45;&gt;Node21</title>
<path fill="none" stroke="midnightblue" d="M892.99,-121.86C804.99,-121.07 667.38,-113.61 634.5,-76 622.31,-62.06 633.84,-41.68 645.18,-27.48"/>
<polygon fill="midnightblue" stroke="midnightblue" points="648.13,-29.4 651.99,-19.54 642.82,-24.84 648.13,-29.4"/>
</g>
<!-- Node22 -->
<g id="node22" class="node">
<title>Node22</title>
<g id="a_node22"><a xlink:href="cctlib_8H.html" target="_top" xlink:title=" ">
<polygon fill="white" stroke="black" points="495,-56.5 495,-75.5 548,-75.5 548,-56.5 495,-56.5"/>
<text text-anchor="middle" x="521.5" y="-63.5" font-family="Helvetica,sans-Serif" font-size="10.00">cctlib.H</text>
</a>
</g>
</g>
<!-- Node1&#45;&gt;Node22 -->
<g id="edge21" class="edge">
<title>Node1&#45;&gt;Node22</title>
<path fill="none" stroke="midnightblue" d="M892.97,-115.03C811.2,-108.01 677.08,-94.87 562.5,-76 561.21,-75.79 559.89,-75.56 558.56,-75.32"/>
<polygon fill="midnightblue" stroke="midnightblue" points="558.81,-71.8 548.33,-73.31 557.47,-78.67 558.81,-71.8"/>
</g>
<!-- Node24 -->
<g id="node24" class="node">
<title>Node24</title>
<g id="a_node24"><a xlink:href="shadow__memory_8H.html" target="_top" xlink:title=" ">
<polygon fill="white" stroke="black" points="134.5,-56.5 134.5,-75.5 244.5,-75.5 244.5,-56.5 134.5,-56.5"/>
<text text-anchor="middle" x="189.5" y="-63.5" font-family="Helvetica,sans-Serif" font-size="10.00">shadow_memory.H</text>
</a>
</g>
</g>
<!-- Node1&#45;&gt;Node24 -->
<g id="edge27" class="edge">
<title>Node1&#45;&gt;Node24</title>
<path fill="none" stroke="midnightblue" d="M892.9,-117.65C763.57,-111.59 491.63,-97.41 262.5,-76 260,-75.77 257.45,-75.52 254.87,-75.25"/>
<polygon fill="midnightblue" stroke="midnightblue" points="255.18,-71.76 244.87,-74.17 254.43,-78.72 255.18,-71.76"/>
</g>
<!-- Node26 -->
<g id="node26" class="node">
<title>Node26</title>
<g id="a_node26"><a xlink:href="rbtree_8h.html" target="_top" xlink:title=" ">
<polygon fill="white" stroke="black" points="345,-56.5 345,-75.5 400,-75.5 400,-56.5 345,-56.5"/>
<text text-anchor="middle" x="372.5" y="-63.5" font-family="Helvetica,sans-Serif" font-size="10.00">rbtree.h</text>
</a>
</g>
</g>
<!-- Node1&#45;&gt;Node26 -->
<g id="edge33" class="edge">
<title>Node1&#45;&gt;Node26</title>
<path fill="none" stroke="midnightblue" d="M892.88,-117.98C785.89,-112.99 584.44,-101 414.5,-76 413.21,-75.81 411.91,-75.61 410.59,-75.39"/>
<polygon fill="midnightblue" stroke="midnightblue" points="410.89,-71.88 400.42,-73.51 409.62,-78.77 410.89,-71.88"/>
</g>
<!-- Node27 -->
<g id="node27" class="node">
<title>Node27</title>
<g id="a_node27"><a xlink:title=" ">
<polygon fill="white" stroke="#bfbfbf" points="1648,-56.5 1648,-75.5 1725,-75.5 1725,-56.5 1648,-56.5"/>
<text text-anchor="middle" x="1686.5" y="-63.5" font-family="Helvetica,sans-Serif" font-size="10.00">xmmintrin.h</text>
</a>
</g>
</g>
<!-- Node1&#45;&gt;Node27 -->
<g id="edge36" class="edge">
<title>Node1&#45;&gt;Node27</title>
<path fill="none" stroke="midnightblue" d="M1044.14,-118.83C1166.66,-114.68 1416.26,-103.56 1637.6,-75.95"/>
<polygon fill="midnightblue" stroke="midnightblue" points="1638.31,-79.39 1647.79,-74.66 1637.43,-72.44 1638.31,-79.39"/>
</g>
<!-- Node28 -->
<g id="node28" class="node">
<title>Node28</title>
<g id="a_node28"><a xlink:title=" ">
<polygon fill="white" stroke="#bfbfbf" points="1743.5,-56.5 1743.5,-75.5 1817.5,-75.5 1817.5,-56.5 1743.5,-56.5"/>
<text text-anchor="middle" x="1780.5" y="-63.5" font-family="Helvetica,sans-Serif" font-size="10.00">immintrin.h</text>
</a>
</g>
</g>
<!-- Node1&#45;&gt;Node28 -->
<g id="edge37" class="edge">
<title>Node1&#45;&gt;Node28</title>
<path fill="none" stroke="midnightblue" d="M1044.1,-119.92C1180.14,-117.25 1475.28,-108.09 1733.47,-75.95"/>
<polygon fill="midnightblue" stroke="midnightblue" points="1733.93,-79.42 1743.41,-74.7 1733.05,-72.48 1733.93,-79.42"/>
</g>
<!-- Node29 -->
<g id="node29" class="node">
<title>Node29</title>
<g id="a_node29"><a xlink:title=" ">
<polygon fill="white" stroke="#bfbfbf" points="1835.5,-56.5 1835.5,-75.5 1903.5,-75.5 1903.5,-56.5 1835.5,-56.5"/>
<text text-anchor="middle" x="1869.5" y="-63.5" font-family="Helvetica,sans-Serif" font-size="10.00">sys/time.h</text>
</a>
</g>
</g>
<!-- Node1&#45;&gt;Node29 -->
<g id="edge38" class="edge">
<title>Node1&#45;&gt;Node29</title>
<path fill="none" stroke="midnightblue" d="M1044.03,-120.93C1192.2,-119.95 1531.44,-113.52 1825.32,-75.94"/>
<polygon fill="midnightblue" stroke="midnightblue" points="1825.85,-79.4 1835.31,-74.65 1824.95,-72.46 1825.85,-79.4"/>
</g>
<!-- Node30 -->
<g id="node30" class="node">
<title>Node30</title>
<g id="a_node30"><a xlink:title=" ">
<polygon fill="white" stroke="#bfbfbf" points="1922,-56.5 1922,-75.5 2009,-75.5 2009,-56.5 1922,-56.5"/>
<text text-anchor="middle" x="1965.5" y="-63.5" font-family="Helvetica,sans-Serif" font-size="10.00">sys/resource.h</text>
</a>
</g>
</g>
<!-- Node1&#45;&gt;Node30 -->
<g id="edge39" class="edge">
<title>Node1&#45;&gt;Node30</title>
<path fill="none" stroke="midnightblue" d="M1044.3,-120.48C1203.23,-118.72 1583.05,-111 1911.69,-75.93"/>
<polygon fill="midnightblue" stroke="midnightblue" points="1912.32,-79.39 1921.89,-74.83 1911.57,-72.43 1912.32,-79.39"/>
</g>
<!-- Node31 -->
<g id="node31" class="node">
<title>Node31</title>
<g id="a_node31"><a xlink:title=" ">
<polygon fill="white" stroke="#bfbfbf" points="2027.5,-56.5 2027.5,-75.5 2117.5,-75.5 2117.5,-56.5 2027.5,-56.5"/>
<text text-anchor="middle" x="2072.5" y="-63.5" font-family="Helvetica,sans-Serif" font-size="10.00">xed&#45;interface.h</text>
</a>
</g>
</g>
<!-- Node1&#45;&gt;Node31 -->
<g id="edge40" class="edge">
<title>Node1&#45;&gt;Node31</title>
<path fill="none" stroke="midnightblue" d="M1044.17,-120.92C1215.64,-120.07 1646.99,-114.06 2017.36,-75.98"/>
<polygon fill="midnightblue" stroke="midnightblue" points="2017.89,-79.44 2027.47,-74.93 2017.17,-72.48 2017.89,-79.44"/>
</g>
<!-- Node32 -->
<g id="node32" class="node">
<title>Node32</title>
<g id="a_node32"><a xlink:title=" ">
<polygon fill="white" stroke="#bfbfbf" points="2135.5,-56.5 2135.5,-75.5 2249.5,-75.5 2249.5,-56.5 2135.5,-56.5"/>
<text text-anchor="middle" x="2192.5" y="-63.5" font-family="Helvetica,sans-Serif" font-size="10.00">xed&#45;common&#45;hdrs.h</text>
</a>
</g>
</g>
<!-- Node1&#45;&gt;Node32 -->
<g id="edge41" class="edge">
<title>Node1&#45;&gt;Node32</title>
<path fill="none" stroke="midnightblue" d="M1044.19,-120.59C1227.79,-119.04 1711.5,-111.7 2125.23,-76.02"/>
<polygon fill="midnightblue" stroke="midnightblue" points="2125.64,-79.5 2135.3,-75.14 2125.03,-72.52 2125.64,-79.5"/>
</g>
<!-- Node33 -->
<g id="node33" class="node">
<title>Node33</title>
<g id="a_node33"><a xlink:title=" ">
<polygon fill="white" stroke="#bfbfbf" points="2267.5,-56.5 2267.5,-75.5 2407.5,-75.5 2407.5,-56.5 2267.5,-56.5"/>
<text text-anchor="middle" x="2337.5" y="-63.5" font-family="Helvetica,sans-Serif" font-size="10.00">google/sparse_hash_map</text>
</a>
</g>
</g>
<!-- Node1&#45;&gt;Node33 -->
<g id="edge42" class="edge">
<title>Node1&#45;&gt;Node33</title>
<path fill="none" stroke="midnightblue" d="M1044.22,-120.43C1241.96,-118.51 1790.3,-110.32 2257.34,-76.02"/>
<polygon fill="midnightblue" stroke="midnightblue" points="2257.6,-79.51 2267.32,-75.29 2257.08,-72.53 2257.6,-79.51"/>
</g>
<!-- Node34 -->
<g id="node34" class="node">
<title>Node34</title>
<g id="a_node34"><a xlink:title=" ">
<polygon fill="white" stroke="#bfbfbf" points="2426,-56.5 2426,-75.5 2563,-75.5 2563,-56.5 2426,-56.5"/>
<text text-anchor="middle" x="2494.5" y="-63.5" font-family="Helvetica,sans-Serif" font-size="10.00">google/dense_hash_map</text>
</a>
</g>
</g>
<!-- Node1&#45;&gt;Node34 -->
<g id="edge43" class="edge">
<title>Node1&#45;&gt;Node34</title>
<path fill="none" stroke="midnightblue" d="M1044.37,-120.88C1258.27,-120.06 1884.54,-114.37 2415.46,-76"/>
<polygon fill="midnightblue" stroke="midnightblue" points="2415.91,-79.48 2425.63,-75.26 2415.4,-72.5 2415.91,-79.48"/>
</g>
<!-- Node22&#45;&gt;Node2 -->
<g id="edge24" class="edge">
<title>Node22&#45;&gt;Node2</title>
<path fill="none" stroke="midnightblue" d="M512.75,-56.08C505.03,-48.22 493.6,-36.57 484.28,-27.08"/>
<polygon fill="midnightblue" stroke="midnightblue" points="486.59,-24.44 477.09,-19.75 481.6,-29.34 486.59,-24.44"/>
</g>
<!-- Node22&#45;&gt;Node4 -->
<g id="edge23" class="edge">
<title>Node22&#45;&gt;Node4</title>
<path fill="none" stroke="midnightblue" d="M494.81,-57.83C459.44,-48.33 396.9,-31.53 357.14,-20.84"/>
<polygon fill="midnightblue" stroke="midnightblue" points="357.87,-17.41 347.3,-18.2 356.05,-24.18 357.87,-17.41"/>
</g>
<!-- Node22&#45;&gt;Node16 -->
<g id="edge26" class="edge">
<title>Node22&#45;&gt;Node16</title>
<path fill="none" stroke="midnightblue" d="M533.71,-56.32C545.28,-48.11 562.88,-35.6 576.66,-25.81"/>
<polygon fill="midnightblue" stroke="midnightblue" points="578.94,-28.48 585.07,-19.83 574.89,-22.77 578.94,-28.48"/>
</g>
<!-- Node22&#45;&gt;Node21 -->
<g id="edge22" class="edge">
<title>Node22&#45;&gt;Node21</title>
<path fill="none" stroke="midnightblue" d="M543.52,-56.44C566.88,-47.37 603.92,-32.98 630.06,-22.83"/>
<polygon fill="midnightblue" stroke="midnightblue" points="631.43,-26.05 639.49,-19.16 628.9,-19.52 631.43,-26.05"/>
</g>
<!-- Node23 -->
<g id="node23" class="node">
<title>Node23</title>
<g id="a_node23"><a xlink:title=" ">
<polygon fill="white" stroke="#bfbfbf" points="511.5,-0.5 511.5,-19.5 555.5,-19.5 555.5,-0.5 511.5,-0.5"/>
<text text-anchor="middle" x="533.5" y="-7.5" font-family="Helvetica,sans-Serif" font-size="10.00">string</text>
</a>
</g>
</g>
<!-- Node22&#45;&gt;Node23 -->
<g id="edge25" class="edge">
<title>Node22&#45;&gt;Node23</title>
<path fill="none" stroke="midnightblue" d="M523.48,-56.08C525.07,-48.93 527.36,-38.64 529.35,-29.69"/>
<polygon fill="midnightblue" stroke="midnightblue" points="532.8,-30.27 531.56,-19.75 525.97,-28.75 532.8,-30.27"/>
</g>
<!-- Node24&#45;&gt;Node3 -->
<g id="edge30" class="edge">
<title>Node24&#45;&gt;Node3</title>
<path fill="none" stroke="midnightblue" d="M163.67,-56.44C136.25,-47.36 92.72,-32.94 62.07,-22.78"/>
<polygon fill="midnightblue" stroke="midnightblue" points="62.8,-19.34 52.21,-19.52 60.6,-25.98 62.8,-19.34"/>
</g>
<!-- Node24&#45;&gt;Node4 -->
<g id="edge28" class="edge">
<title>Node24&#45;&gt;Node4</title>
<path fill="none" stroke="midnightblue" d="M210.26,-56.44C231.82,-47.56 265.76,-33.56 290.29,-23.45"/>
<polygon fill="midnightblue" stroke="midnightblue" points="291.93,-26.56 299.84,-19.52 289.26,-20.09 291.93,-26.56"/>
</g>
<!-- Node24&#45;&gt;Node5 -->
<g id="edge29" class="edge">
<title>Node24&#45;&gt;Node5</title>
<path fill="none" stroke="midnightblue" d="M174.56,-56.32C159.91,-47.82 137.37,-34.73 120.26,-24.8"/>
<polygon fill="midnightblue" stroke="midnightblue" points="121.81,-21.65 111.4,-19.65 118.3,-27.7 121.81,-21.65"/>
</g>
<!-- Node24&#45;&gt;Node12 -->
<g id="edge31" class="edge">
<title>Node24&#45;&gt;Node12</title>
<path fill="none" stroke="midnightblue" d="M197.43,-56.08C204.35,-48.3 214.57,-36.8 222.95,-27.37"/>
<polygon fill="midnightblue" stroke="midnightblue" points="225.69,-29.55 229.72,-19.75 220.46,-24.9 225.69,-29.55"/>
</g>
<!-- Node25 -->
<g id="node25" class="node">
<title>Node25</title>
<g id="a_node25"><a xlink:title=" ">
<polygon fill="white" stroke="#bfbfbf" points="140,-0.5 140,-19.5 181,-19.5 181,-0.5 140,-0.5"/>
<text text-anchor="middle" x="160.5" y="-7.5" font-family="Helvetica,sans-Serif" font-size="10.00">tuple</text>
</a>
</g>
</g>
<!-- Node24&#45;&gt;Node25 -->
<g id="edge32" class="edge">
<title>Node24&#45;&gt;Node25</title>
<path fill="none" stroke="midnightblue" d="M184.71,-56.08C180.74,-48.69 174.97,-37.95 170.07,-28.81"/>
<polygon fill="midnightblue" stroke="midnightblue" points="173.01,-26.91 165.2,-19.75 166.85,-30.22 173.01,-26.91"/>
</g>
<!-- Node26&#45;&gt;Node4 -->
<g id="edge35" class="edge">
<title>Node26&#45;&gt;Node4</title>
<path fill="none" stroke="midnightblue" d="M363.91,-56.08C356.34,-48.22 345.12,-36.57 335.99,-27.08"/>
<polygon fill="midnightblue" stroke="midnightblue" points="338.38,-24.53 328.93,-19.75 333.34,-29.38 338.38,-24.53"/>
</g>
<!-- Node26&#45;&gt;Node7 -->
<g id="edge34" class="edge">
<title>Node26&#45;&gt;Node7</title>
<path fill="none" stroke="midnightblue" d="M376.3,-56.08C379.41,-48.77 383.92,-38.18 387.79,-29.1"/>
<polygon fill="midnightblue" stroke="midnightblue" points="391.07,-30.32 391.77,-19.75 384.63,-27.58 391.07,-30.32"/>
</g>
</g>
</svg>
