<?xml version="1.0" encoding="UTF-8" standalone="no"?>
<!DOCTYPE svg PUBLIC "-//W3C//DTD SVG 1.1//EN"
 "http://www.w3.org/Graphics/SVG/1.1/DTD/svg11.dtd">
<!-- Generated by graphviz version 2.43.0 (0)
 -->
<!-- Title: clients/omp_datarace_client.cpp Pages: 1 -->
<!--zoomable 151 -->
<svg id="main" version="1.1" xmlns="http://www.w3.org/2000/svg" xmlns:xlink="http://www.w3.org/1999/xlink" xml:space="preserve" onload="init(evt)">
<style type="text/css"><![CDATA[
.edge:hover path { stroke: red; }
.edge:hover polygon { stroke: red; fill: red; }
]]></style>
<script type="text/javascript"><![CDATA[
var edges = document.getElementsByTagName('g');
if (edges && edges.length) {
  for (var i=0;i<edges.length;i++) {
    if (edges[i].id.substr(0,4)=='edge') {
      edges[i].setAttribute('class','edge');
    }
  }
}
]]></script>
        <defs>
                <circle id="rim" cx="0" cy="0" r="7"/>
                <circle id="rim2" cx="0" cy="0" r="3.5"/>
                <g id="zoomPlus">
                        <use xlink:href="#rim" fill="#404040">
                                <set attributeName="fill" to="#808080" begin="zoomplus.mouseover" end="zoomplus.mouseout"/>
                        </use>
                        <path d="M-4,0h8M0,-4v8" fill="none" stroke="white" stroke-width="1.5" pointer-events="none"/>
                </g>
                <g id="zoomMin">
                        <use xlink:href="#rim" fill="#404040">
                                <set attributeName="fill" to="#808080" begin="zoomminus.mouseover" end="zoomminus.mouseout"/>
                        </use>
                        <path d="M-4,0h8" fill="none" stroke="white" stroke-width="1.5" pointer-events="none"/>
                </g>
                <g id="dirArrow">
                        <path fill="none" stroke="white" stroke-width="1.5" d="M0,-3.0v7 M-2.5,-0.5L0,-3.0L2.5,-0.5"/>
                </g>
               <g id="resetDef">
                       <use xlink:href="#rim2" fill="#404040">
                               <set attributeName="fill" to="#808080" begin="reset.mouseover" end="reset.mouseout"/>
                       </use>
               </g>
        </defs>

<script type="text/javascript">
var viewWidth = 2171;
var viewHeight = 151;
var sectionId = 'dynsection-0';
</script>
<script xlink:href="svgpan.js"/>
<svg id="graph" class="graph">
<g id="viewport">
<title>clients/omp_datarace_client.cpp</title>
<polygon fill="white" stroke="transparent" points="-4,4 -4,-147 2166.5,-147 2166.5,4 -4,4"/>
<!-- Node1 -->
<g id="node1" class="node">
<title>Node1</title>
<g id="a_node1"><a xlink:title=" ">
<polygon fill="#bfbfbf" stroke="black" points="979,-112.5 979,-142.5 1101,-142.5 1101,-112.5 979,-112.5"/>
<text text-anchor="start" x="987" y="-130.5" font-family="Helvetica,sans-Serif" font-size="10.00">clients/omp_datarace</text>
<text text-anchor="middle" x="1040" y="-119.5" font-family="Helvetica,sans-Serif" font-size="10.00">_client.cpp</text>
</a>
</g>
</g>
<!-- Node2 -->
<g id="node2" class="node">
<title>Node2</title>
<g id="a_node2"><a xlink:title=" ">
<polygon fill="white" stroke="#bfbfbf" points="365,-0.5 365,-19.5 415,-19.5 415,-0.5 365,-0.5"/>
<text text-anchor="middle" x="390" y="-7.5" font-family="Helvetica,sans-Serif" font-size="10.00">stdio.h</text>
</a>
</g>
</g>
<!-- Node1&#45;&gt;Node2 -->
<g id="edge1" class="edge">
<title>Node1&#45;&gt;Node2</title>
<path fill="none" stroke="midnightblue" d="M978.76,-125.87C827.06,-123.71 443.05,-114.48 401,-76 388.48,-64.55 386.77,-44.57 387.55,-29.77"/>
<polygon fill="midnightblue" stroke="midnightblue" points="391.05,-29.98 388.49,-19.7 384.08,-29.33 391.05,-29.98"/>
</g>
<!-- Node3 -->
<g id="node3" class="node">
<title>Node3</title>
<g id="a_node3"><a xlink:title=" ">
<polygon fill="white" stroke="#bfbfbf" points="0,-0.5 0,-19.5 50,-19.5 50,-0.5 0,-0.5"/>
<text text-anchor="middle" x="25" y="-7.5" font-family="Helvetica,sans-Serif" font-size="10.00">atomic</text>
</a>
</g>
</g>
<!-- Node1&#45;&gt;Node3 -->
<g id="edge2" class="edge">
<title>Node1&#45;&gt;Node3</title>
<path fill="none" stroke="midnightblue" d="M978.77,-125.34C784.21,-121.34 188.06,-106.71 107,-76 79.8,-65.7 54.55,-42.86 39.45,-27.19"/>
<polygon fill="midnightblue" stroke="midnightblue" points="41.9,-24.69 32.52,-19.76 36.78,-29.46 41.9,-24.69"/>
</g>
<!-- Node4 -->
<g id="node4" class="node">
<title>Node4</title>
<g id="a_node4"><a xlink:title=" ">
<polygon fill="white" stroke="#bfbfbf" points="68.5,-0.5 68.5,-19.5 121.5,-19.5 121.5,-0.5 68.5,-0.5"/>
<text text-anchor="middle" x="95" y="-7.5" font-family="Helvetica,sans-Serif" font-size="10.00">stdlib.h</text>
</a>
</g>
</g>
<!-- Node1&#45;&gt;Node4 -->
<g id="edge3" class="edge">
<title>Node1&#45;&gt;Node4</title>
<path fill="none" stroke="midnightblue" d="M978.8,-126.61C785.86,-126.48 198.88,-122.25 128,-76 111.97,-65.54 103.36,-44.74 99,-29.48"/>
<polygon fill="midnightblue" stroke="midnightblue" points="102.34,-28.43 96.53,-19.57 95.55,-30.12 102.34,-28.43"/>
</g>
<!-- Node5 -->
<g id="node5" class="node">
<title>Node5</title>
<g id="a_node5"><a xlink:title=" ">
<polygon fill="white" stroke="#bfbfbf" points="642,-56.5 642,-75.5 680,-75.5 680,-56.5 642,-56.5"/>
<text text-anchor="middle" x="661" y="-63.5" font-family="Helvetica,sans-Serif" font-size="10.00">map</text>
</a>
</g>
</g>
<!-- Node1&#45;&gt;Node5 -->
<g id="edge4" class="edge">
<title>Node1&#45;&gt;Node5</title>
<path fill="none" stroke="midnightblue" d="M978.87,-120.85C910.51,-113.84 796.49,-100.04 690.1,-75.92"/>
<polygon fill="midnightblue" stroke="midnightblue" points="690.69,-72.46 680.16,-73.63 689.12,-79.28 690.69,-72.46"/>
</g>
<!-- Node6 -->
<g id="node6" class="node">
<title>Node6</title>
<g id="a_node6"><a xlink:title=" ">
<polygon fill="white" stroke="#bfbfbf" points="698,-56.5 698,-75.5 730,-75.5 730,-56.5 698,-56.5"/>
<text text-anchor="middle" x="714" y="-63.5" font-family="Helvetica,sans-Serif" font-size="10.00">list</text>
</a>
</g>
</g>
<!-- Node1&#45;&gt;Node6 -->
<g id="edge5" class="edge">
<title>Node1&#45;&gt;Node6</title>
<path fill="none" stroke="midnightblue" d="M978.79,-119.5C919.7,-112.01 827.71,-98.42 739.86,-75.82"/>
<polygon fill="midnightblue" stroke="midnightblue" points="740.56,-72.39 730,-73.24 738.79,-79.16 740.56,-72.39"/>
</g>
<!-- Node7 -->
<g id="node7" class="node">
<title>Node7</title>
<g id="a_node7"><a xlink:title=" ">
<polygon fill="white" stroke="#bfbfbf" points="293.5,-0.5 293.5,-19.5 346.5,-19.5 346.5,-0.5 293.5,-0.5"/>
<text text-anchor="middle" x="320" y="-7.5" font-family="Helvetica,sans-Serif" font-size="10.00">stdint.h</text>
</a>
</g>
</g>
<!-- Node1&#45;&gt;Node7 -->
<g id="edge6" class="edge">
<title>Node1&#45;&gt;Node7</title>
<path fill="none" stroke="midnightblue" d="M978.95,-127.07C837.35,-127.56 490.67,-123.68 386,-76 363,-65.52 343.37,-43.41 331.63,-27.9"/>
<polygon fill="midnightblue" stroke="midnightblue" points="334.37,-25.72 325.67,-19.67 328.7,-29.82 334.37,-25.72"/>
</g>
<!-- Node8 -->
<g id="node8" class="node">
<title>Node8</title>
<g id="a_node8"><a xlink:title=" ">
<polygon fill="white" stroke="#bfbfbf" points="748,-56.5 748,-75.5 820,-75.5 820,-56.5 748,-56.5"/>
<text text-anchor="middle" x="784" y="-63.5" font-family="Helvetica,sans-Serif" font-size="10.00">sys/types.h</text>
</a>
</g>
</g>
<!-- Node1&#45;&gt;Node8 -->
<g id="edge7" class="edge">
<title>Node1&#45;&gt;Node8</title>
<path fill="none" stroke="midnightblue" d="M979.66,-112.47C933.91,-101.84 871.98,-87.45 830.14,-77.73"/>
<polygon fill="midnightblue" stroke="midnightblue" points="830.76,-74.27 820.23,-75.42 829.18,-81.09 830.76,-74.27"/>
</g>
<!-- Node9 -->
<g id="node9" class="node">
<title>Node9</title>
<g id="a_node9"><a xlink:title=" ">
<polygon fill="white" stroke="#bfbfbf" points="838.5,-56.5 838.5,-75.5 897.5,-75.5 897.5,-56.5 838.5,-56.5"/>
<text text-anchor="middle" x="868" y="-63.5" font-family="Helvetica,sans-Serif" font-size="10.00">sys/ipc.h</text>
</a>
</g>
</g>
<!-- Node1&#45;&gt;Node9 -->
<g id="edge8" class="edge">
<title>Node1&#45;&gt;Node9</title>
<path fill="none" stroke="midnightblue" d="M999.24,-112.4C969.78,-102.21 930.41,-88.59 902.5,-78.93"/>
<polygon fill="midnightblue" stroke="midnightblue" points="903.37,-75.53 892.78,-75.57 901.08,-82.15 903.37,-75.53"/>
</g>
<!-- Node10 -->
<g id="node10" class="node">
<title>Node10</title>
<g id="a_node10"><a xlink:title=" ">
<polygon fill="white" stroke="#bfbfbf" points="916,-56.5 916,-75.5 982,-75.5 982,-56.5 916,-56.5"/>
<text text-anchor="middle" x="949" y="-63.5" font-family="Helvetica,sans-Serif" font-size="10.00">sys/shm.h</text>
</a>
</g>
</g>
<!-- Node1&#45;&gt;Node10 -->
<g id="edge9" class="edge">
<title>Node1&#45;&gt;Node10</title>
<path fill="none" stroke="midnightblue" d="M1018.43,-112.4C1004.12,-103.04 985.39,-90.79 970.99,-81.38"/>
<polygon fill="midnightblue" stroke="midnightblue" points="972.53,-78.2 962.24,-75.66 968.7,-84.06 972.53,-78.2"/>
</g>
<!-- Node11 -->
<g id="node11" class="node">
<title>Node11</title>
<g id="a_node11"><a xlink:title=" ">
<polygon fill="white" stroke="#bfbfbf" points="1000,-56.5 1000,-75.5 1080,-75.5 1080,-56.5 1000,-56.5"/>
<text text-anchor="middle" x="1040" y="-63.5" font-family="Helvetica,sans-Serif" font-size="10.00">semaphore.h</text>
</a>
</g>
</g>
<!-- Node1&#45;&gt;Node11 -->
<g id="edge10" class="edge">
<title>Node1&#45;&gt;Node11</title>
<path fill="none" stroke="midnightblue" d="M1040,-112.4C1040,-104.47 1040,-94.46 1040,-85.86"/>
<polygon fill="midnightblue" stroke="midnightblue" points="1043.5,-85.66 1040,-75.66 1036.5,-85.66 1043.5,-85.66"/>
</g>
<!-- Node12 -->
<g id="node12" class="node">
<title>Node12</title>
<g id="a_node12"><a xlink:title=" ">
<polygon fill="white" stroke="#bfbfbf" points="1098,-56.5 1098,-75.5 1162,-75.5 1162,-56.5 1098,-56.5"/>
<text text-anchor="middle" x="1130" y="-63.5" font-family="Helvetica,sans-Serif" font-size="10.00">sys/stat.h</text>
</a>
</g>
</g>
<!-- Node1&#45;&gt;Node12 -->
<g id="edge11" class="edge">
<title>Node1&#45;&gt;Node12</title>
<path fill="none" stroke="midnightblue" d="M1061.33,-112.4C1075.49,-103.04 1094.01,-90.79 1108.25,-81.38"/>
<polygon fill="midnightblue" stroke="midnightblue" points="1110.49,-84.09 1116.9,-75.66 1106.63,-78.25 1110.49,-84.09"/>
</g>
<!-- Node13 -->
<g id="node13" class="node">
<title>Node13</title>
<g id="a_node13"><a xlink:title=" ">
<polygon fill="white" stroke="#bfbfbf" points="1180.5,-56.5 1180.5,-75.5 1227.5,-75.5 1227.5,-56.5 1180.5,-56.5"/>
<text text-anchor="middle" x="1204" y="-63.5" font-family="Helvetica,sans-Serif" font-size="10.00">fcntl.h</text>
</a>
</g>
</g>
<!-- Node1&#45;&gt;Node13 -->
<g id="edge12" class="edge">
<title>Node1&#45;&gt;Node13</title>
<path fill="none" stroke="midnightblue" d="M1078.87,-112.4C1106.75,-102.28 1143.94,-88.79 1170.51,-79.15"/>
<polygon fill="midnightblue" stroke="midnightblue" points="1171.93,-82.36 1180.14,-75.66 1169.54,-75.78 1171.93,-82.36"/>
</g>
<!-- Node14 -->
<g id="node14" class="node">
<title>Node14</title>
<g id="a_node14"><a xlink:title=" ">
<polygon fill="white" stroke="#bfbfbf" points="1246,-56.5 1246,-75.5 1306,-75.5 1306,-56.5 1246,-56.5"/>
<text text-anchor="middle" x="1276" y="-63.5" font-family="Helvetica,sans-Serif" font-size="10.00">iostream</text>
</a>
</g>
</g>
<!-- Node1&#45;&gt;Node14 -->
<g id="edge13" class="edge">
<title>Node1&#45;&gt;Node14</title>
<path fill="none" stroke="midnightblue" d="M1095.63,-112.47C1138.79,-101.59 1197.57,-86.77 1236.13,-77.05"/>
<polygon fill="midnightblue" stroke="midnightblue" points="1237.11,-80.41 1245.96,-74.57 1235.4,-73.63 1237.11,-80.41"/>
</g>
<!-- Node15 -->
<g id="node15" class="node">
<title>Node15</title>
<g id="a_node15"><a xlink:title=" ">
<polygon fill="white" stroke="#bfbfbf" points="1324,-56.5 1324,-75.5 1370,-75.5 1370,-56.5 1324,-56.5"/>
<text text-anchor="middle" x="1347" y="-63.5" font-family="Helvetica,sans-Serif" font-size="10.00">locale</text>
</a>
</g>
</g>
<!-- Node1&#45;&gt;Node15 -->
<g id="edge14" class="edge">
<title>Node1&#45;&gt;Node15</title>
<path fill="none" stroke="midnightblue" d="M1101.23,-116.93C1154.88,-108.16 1235.15,-94.13 1313.9,-76.08"/>
<polygon fill="midnightblue" stroke="midnightblue" points="1315.04,-79.41 1323.99,-73.75 1313.46,-72.59 1315.04,-79.41"/>
</g>
<!-- Node16 -->
<g id="node16" class="node">
<title>Node16</title>
<g id="a_node16"><a xlink:title=" ">
<polygon fill="white" stroke="#bfbfbf" points="1388,-56.5 1388,-75.5 1444,-75.5 1444,-56.5 1388,-56.5"/>
<text text-anchor="middle" x="1416" y="-63.5" font-family="Helvetica,sans-Serif" font-size="10.00">unistd.h</text>
</a>
</g>
</g>
<!-- Node1&#45;&gt;Node16 -->
<g id="edge15" class="edge">
<title>Node1&#45;&gt;Node16</title>
<path fill="none" stroke="midnightblue" d="M1101.22,-119.08C1167.2,-110.7 1275.47,-95.85 1377.89,-76.07"/>
<polygon fill="midnightblue" stroke="midnightblue" points="1378.63,-79.49 1387.78,-74.14 1377.29,-72.62 1378.63,-79.49"/>
</g>
<!-- Node17 -->
<g id="node17" class="node">
<title>Node17</title>
<g id="a_node17"><a xlink:title=" ">
<polygon fill="white" stroke="#bfbfbf" points="1462.5,-56.5 1462.5,-75.5 1541.5,-75.5 1541.5,-56.5 1462.5,-56.5"/>
<text text-anchor="middle" x="1502" y="-63.5" font-family="Helvetica,sans-Serif" font-size="10.00">sys/syscall.h</text>
</a>
</g>
</g>
<!-- Node1&#45;&gt;Node17 -->
<g id="edge16" class="edge">
<title>Node1&#45;&gt;Node17</title>
<path fill="none" stroke="midnightblue" d="M1101.04,-120.19C1179.72,-111.81 1320.99,-95.88 1452.22,-76.03"/>
<polygon fill="midnightblue" stroke="midnightblue" points="1453.1,-79.44 1462.45,-74.47 1452.04,-72.52 1453.1,-79.44"/>
</g>
<!-- Node18 -->
<g id="node18" class="node">
<title>Node18</title>
<g id="a_node18"><a xlink:title=" ">
<polygon fill="white" stroke="#bfbfbf" points="1559,-56.5 1559,-75.5 1615,-75.5 1615,-56.5 1559,-56.5"/>
<text text-anchor="middle" x="1587" y="-63.5" font-family="Helvetica,sans-Serif" font-size="10.00">assert.h</text>
</a>
</g>
</g>
<!-- Node1&#45;&gt;Node18 -->
<g id="edge17" class="edge">
<title>Node1&#45;&gt;Node18</title>
<path fill="none" stroke="midnightblue" d="M1101.35,-123.35C1195.8,-117.85 1382.56,-104.46 1548.87,-76.18"/>
<polygon fill="midnightblue" stroke="midnightblue" points="1549.52,-79.62 1558.78,-74.47 1548.34,-72.72 1549.52,-79.62"/>
</g>
<!-- Node19 -->
<g id="node19" class="node">
<title>Node19</title>
<g id="a_node19"><a xlink:title=" ">
<polygon fill="white" stroke="#bfbfbf" points="198.5,-0.5 198.5,-19.5 275.5,-19.5 275.5,-0.5 198.5,-0.5"/>
<text text-anchor="middle" x="237" y="-7.5" font-family="Helvetica,sans-Serif" font-size="10.00">sys/mman.h</text>
</a>
</g>
</g>
<!-- Node1&#45;&gt;Node19 -->
<g id="edge18" class="edge">
<title>Node1&#45;&gt;Node19</title>
<path fill="none" stroke="midnightblue" d="M978.9,-125.36C833.45,-122.12 470.14,-110.69 354,-76 317.21,-65.01 279.17,-41.13 256.82,-25.57"/>
<polygon fill="midnightblue" stroke="midnightblue" points="258.7,-22.62 248.52,-19.68 254.64,-28.32 258.7,-22.62"/>
</g>
<!-- Node20 -->
<g id="node20" class="node">
<title>Node20</title>
<g id="a_node20"><a xlink:title=" ">
<polygon fill="white" stroke="#bfbfbf" points="1633.5,-56.5 1633.5,-75.5 1698.5,-75.5 1698.5,-56.5 1633.5,-56.5"/>
<text text-anchor="middle" x="1666" y="-63.5" font-family="Helvetica,sans-Serif" font-size="10.00">exception</text>
</a>
</g>
</g>
<!-- Node1&#45;&gt;Node20 -->
<g id="edge19" class="edge">
<title>Node1&#45;&gt;Node20</title>
<path fill="none" stroke="midnightblue" d="M1101.25,-123.72C1206.15,-118.42 1427.05,-104.84 1623.15,-75.94"/>
<polygon fill="midnightblue" stroke="midnightblue" points="1623.68,-79.4 1633.06,-74.47 1622.65,-72.48 1623.68,-79.4"/>
</g>
<!-- Node21 -->
<g id="node21" class="node">
<title>Node21</title>
<g id="a_node21"><a xlink:title=" ">
<polygon fill="white" stroke="#bfbfbf" points="1717,-56.5 1717,-75.5 1785,-75.5 1785,-56.5 1717,-56.5"/>
<text text-anchor="middle" x="1751" y="-63.5" font-family="Helvetica,sans-Serif" font-size="10.00">sys/time.h</text>
</a>
</g>
</g>
<!-- Node1&#45;&gt;Node21 -->
<g id="edge20" class="edge">
<title>Node1&#45;&gt;Node21</title>
<path fill="none" stroke="midnightblue" d="M1101.08,-124.56C1217.21,-120.28 1477.97,-107.89 1706.63,-76.01"/>
<polygon fill="midnightblue" stroke="midnightblue" points="1707.39,-79.44 1716.8,-74.58 1706.41,-72.51 1707.39,-79.44"/>
</g>
<!-- Node22 -->
<g id="node22" class="node">
<title>Node22</title>
<g id="a_node22"><a xlink:title=" ">
<polygon fill="white" stroke="#bfbfbf" points="1803.5,-56.5 1803.5,-75.5 1858.5,-75.5 1858.5,-56.5 1803.5,-56.5"/>
<text text-anchor="middle" x="1831" y="-63.5" font-family="Helvetica,sans-Serif" font-size="10.00">signal.h</text>
</a>
</g>
</g>
<!-- Node1&#45;&gt;Node22 -->
<g id="edge21" class="edge">
<title>Node1&#45;&gt;Node22</title>
<path fill="none" stroke="midnightblue" d="M1101.47,-125.95C1228.9,-124.03 1531.08,-115.49 1793.13,-75.84"/>
<polygon fill="midnightblue" stroke="midnightblue" points="1793.87,-79.27 1803.22,-74.3 1792.81,-72.35 1793.87,-79.27"/>
</g>
<!-- Node23 -->
<g id="node23" class="node">
<title>Node23</title>
<g id="a_node23"><a xlink:title=" ">
<polygon fill="white" stroke="#bfbfbf" points="1876.5,-56.5 1876.5,-75.5 1929.5,-75.5 1929.5,-56.5 1876.5,-56.5"/>
<text text-anchor="middle" x="1903" y="-63.5" font-family="Helvetica,sans-Serif" font-size="10.00">string.h</text>
</a>
</g>
</g>
<!-- Node1&#45;&gt;Node23 -->
<g id="edge22" class="edge">
<title>Node1&#45;&gt;Node23</title>
<path fill="none" stroke="midnightblue" d="M1101.2,-126.74C1237.4,-126.43 1575.78,-120.91 1866.05,-76.02"/>
<polygon fill="midnightblue" stroke="midnightblue" points="1867.02,-79.41 1876.36,-74.41 1865.94,-72.5 1867.02,-79.41"/>
</g>
<!-- Node24 -->
<g id="node24" class="node">
<title>Node24</title>
<g id="a_node24"><a xlink:title=" ">
<polygon fill="white" stroke="#bfbfbf" points="1947.5,-56.5 1947.5,-75.5 2006.5,-75.5 2006.5,-56.5 1947.5,-56.5"/>
<text text-anchor="middle" x="1977" y="-63.5" font-family="Helvetica,sans-Serif" font-size="10.00">setjmp.h</text>
</a>
</g>
</g>
<!-- Node1&#45;&gt;Node24 -->
<g id="edge23" class="edge">
<title>Node1&#45;&gt;Node24</title>
<path fill="none" stroke="midnightblue" d="M1101.14,-126.77C1245.4,-126.61 1618.2,-121.56 1936.86,-76.07"/>
<polygon fill="midnightblue" stroke="midnightblue" points="1937.83,-79.47 1947.22,-74.58 1936.83,-72.54 1937.83,-79.47"/>
</g>
<!-- Node25 -->
<g id="node25" class="node">
<title>Node25</title>
<g id="a_node25"><a xlink:title=" ">
<polygon fill="white" stroke="#bfbfbf" points="2025,-56.5 2025,-75.5 2081,-75.5 2081,-56.5 2025,-56.5"/>
<text text-anchor="middle" x="2053" y="-63.5" font-family="Helvetica,sans-Serif" font-size="10.00">sstream</text>
</a>
</g>
</g>
<!-- Node1&#45;&gt;Node25 -->
<g id="edge24" class="edge">
<title>Node1&#45;&gt;Node25</title>
<path fill="none" stroke="midnightblue" d="M1101.2,-127.29C1254.09,-128.4 1664.96,-126.2 2014.75,-75.89"/>
<polygon fill="midnightblue" stroke="midnightblue" points="2015.43,-79.33 2024.82,-74.43 2014.43,-72.4 2015.43,-79.33"/>
</g>
<!-- Node26 -->
<g id="node26" class="node">
<title>Node26</title>
<g id="a_node26"><a xlink:title=" ">
<polygon fill="white" stroke="#bfbfbf" points="2099.5,-56.5 2099.5,-75.5 2162.5,-75.5 2162.5,-56.5 2099.5,-56.5"/>
<text text-anchor="middle" x="2131" y="-63.5" font-family="Helvetica,sans-Serif" font-size="10.00">pthread.h</text>
</a>
</g>
</g>
<!-- Node1&#45;&gt;Node26 -->
<g id="edge25" class="edge">
<title>Node1&#45;&gt;Node26</title>
<path fill="none" stroke="midnightblue" d="M1101.28,-127.14C1262,-128.04 1708.92,-125.61 2089.21,-75.84"/>
<polygon fill="midnightblue" stroke="midnightblue" points="2089.85,-79.29 2099.31,-74.51 2088.94,-72.35 2089.85,-79.29"/>
</g>
<!-- Node27 -->
<g id="node27" class="node">
<title>Node27</title>
<g id="a_node27"><a xlink:title=" ">
<polygon fill="white" stroke="#bfbfbf" points="561,-0.5 561,-19.5 603,-19.5 603,-0.5 561,-0.5"/>
<text text-anchor="middle" x="582" y="-7.5" font-family="Helvetica,sans-Serif" font-size="10.00">pin.H</text>
</a>
</g>
</g>
<!-- Node1&#45;&gt;Node27 -->
<g id="edge26" class="edge">
<title>Node1&#45;&gt;Node27</title>
<path fill="none" stroke="midnightblue" d="M978.59,-125.18C845.93,-121.7 541.95,-110.05 511,-76 493.18,-56.4 524.66,-36.15 551.21,-23.57"/>
<polygon fill="midnightblue" stroke="midnightblue" points="553,-26.6 560.67,-19.3 550.12,-20.22 553,-26.6"/>
</g>
<!-- Node28 -->
<g id="node28" class="node">
<title>Node28</title>
<g id="a_node28"><a xlink:href="pin__isa__compat_8H.html" target="_top" xlink:title=" ">
<polygon fill="white" stroke="black" points="520,-56.5 520,-75.5 624,-75.5 624,-56.5 520,-56.5"/>
<text text-anchor="middle" x="572" y="-63.5" font-family="Helvetica,sans-Serif" font-size="10.00">pin_isa_compat.H</text>
</a>
</g>
</g>
<!-- Node1&#45;&gt;Node28 -->
<g id="edge27" class="edge">
<title>Node1&#45;&gt;Node28</title>
<path fill="none" stroke="midnightblue" d="M978.92,-119.37C901.28,-110.2 762.84,-93.52 634.26,-76.15"/>
<polygon fill="midnightblue" stroke="midnightblue" points="634.61,-72.66 624.23,-74.79 633.67,-79.6 634.61,-72.66"/>
</g>
<!-- Node30 -->
<g id="node30" class="node">
<title>Node30</title>
<g id="a_node30"><a xlink:href="cctlib_8H.html" target="_top" xlink:title=" ">
<polygon fill="white" stroke="black" points="410.5,-56.5 410.5,-75.5 463.5,-75.5 463.5,-56.5 410.5,-56.5"/>
<text text-anchor="middle" x="437" y="-63.5" font-family="Helvetica,sans-Serif" font-size="10.00">cctlib.H</text>
</a>
</g>
</g>
<!-- Node1&#45;&gt;Node30 -->
<g id="edge30" class="edge">
<title>Node1&#45;&gt;Node30</title>
<path fill="none" stroke="midnightblue" d="M978.98,-123.55C875.47,-117.98 659.05,-103.89 478,-76 476.7,-75.8 475.39,-75.58 474.06,-75.35"/>
<polygon fill="midnightblue" stroke="midnightblue" points="474.29,-71.84 463.81,-73.4 472.98,-78.71 474.29,-71.84"/>
</g>
<!-- Node33 -->
<g id="node33" class="node">
<title>Node33</title>
<g id="a_node33"><a xlink:href="shadow__memory_8H.html" target="_top" xlink:title=" ">
<polygon fill="white" stroke="black" points="137,-56.5 137,-75.5 247,-75.5 247,-56.5 137,-56.5"/>
<text text-anchor="middle" x="192" y="-63.5" font-family="Helvetica,sans-Serif" font-size="10.00">shadow_memory.H</text>
</a>
</g>
</g>
<!-- Node1&#45;&gt;Node33 -->
<g id="edge36" class="edge">
<title>Node1&#45;&gt;Node33</title>
<path fill="none" stroke="midnightblue" d="M978.62,-123.47C848.19,-116.81 533.85,-99.59 271,-76 266.55,-75.6 261.96,-75.16 257.34,-74.69"/>
<polygon fill="midnightblue" stroke="midnightblue" points="257.53,-71.19 247.22,-73.63 256.8,-78.15 257.53,-71.19"/>
</g>
<!-- Node28&#45;&gt;Node27 -->
<g id="edge28" class="edge">
<title>Node28&#45;&gt;Node27</title>
<path fill="none" stroke="midnightblue" d="M573.65,-56.08C574.98,-48.93 576.88,-38.64 578.54,-29.69"/>
<polygon fill="midnightblue" stroke="midnightblue" points="582,-30.22 580.38,-19.75 575.12,-28.95 582,-30.22"/>
</g>
<!-- Node29 -->
<g id="node29" class="node">
<title>Node29</title>
<g id="a_node29"><a xlink:title=" ">
<polygon fill="white" stroke="#bfbfbf" points="621.5,-0.5 621.5,-19.5 716.5,-19.5 716.5,-0.5 621.5,-0.5"/>
<text text-anchor="middle" x="669" y="-7.5" font-family="Helvetica,sans-Serif" font-size="10.00">regvalue_utils.h</text>
</a>
</g>
</g>
<!-- Node28&#45;&gt;Node29 -->
<g id="edge29" class="edge">
<title>Node28&#45;&gt;Node29</title>
<path fill="none" stroke="midnightblue" d="M587.58,-56.32C603,-47.74 626.81,-34.49 644.71,-24.52"/>
<polygon fill="midnightblue" stroke="midnightblue" points="646.42,-27.58 653.45,-19.65 643.01,-21.46 646.42,-27.58"/>
</g>
<!-- Node30&#45;&gt;Node2 -->
<g id="edge33" class="edge">
<title>Node30&#45;&gt;Node2</title>
<path fill="none" stroke="midnightblue" d="M429.24,-56.08C422.46,-48.3 412.46,-36.8 404.24,-27.37"/>
<polygon fill="midnightblue" stroke="midnightblue" points="406.82,-25 397.62,-19.75 401.54,-29.59 406.82,-25"/>
</g>
<!-- Node30&#45;&gt;Node7 -->
<g id="edge32" class="edge">
<title>Node30&#45;&gt;Node7</title>
<path fill="none" stroke="midnightblue" d="M418.46,-56.44C399.38,-47.64 369.43,-33.81 347.56,-23.72"/>
<polygon fill="midnightblue" stroke="midnightblue" points="349,-20.53 338.45,-19.52 346.07,-26.88 349,-20.53"/>
</g>
<!-- Node30&#45;&gt;Node27 -->
<g id="edge31" class="edge">
<title>Node30&#45;&gt;Node27</title>
<path fill="none" stroke="midnightblue" d="M459.98,-56.44C484.58,-47.28 523.77,-32.68 551.08,-22.52"/>
<polygon fill="midnightblue" stroke="midnightblue" points="552.4,-25.76 560.55,-18.99 549.96,-19.2 552.4,-25.76"/>
</g>
<!-- Node31 -->
<g id="node31" class="node">
<title>Node31</title>
<g id="a_node31"><a xlink:title=" ">
<polygon fill="white" stroke="#bfbfbf" points="433,-0.5 433,-19.5 477,-19.5 477,-0.5 433,-0.5"/>
<text text-anchor="middle" x="455" y="-7.5" font-family="Helvetica,sans-Serif" font-size="10.00">string</text>
</a>
</g>
</g>
<!-- Node30&#45;&gt;Node31 -->
<g id="edge34" class="edge">
<title>Node30&#45;&gt;Node31</title>
<path fill="none" stroke="midnightblue" d="M439.97,-56.08C442.38,-48.85 445.86,-38.41 448.87,-29.4"/>
<polygon fill="midnightblue" stroke="midnightblue" points="452.24,-30.34 452.08,-19.75 445.6,-28.13 452.24,-30.34"/>
</g>
<!-- Node32 -->
<g id="node32" class="node">
<title>Node32</title>
<g id="a_node32"><a xlink:title=" ">
<polygon fill="white" stroke="#bfbfbf" points="495.5,-0.5 495.5,-19.5 542.5,-19.5 542.5,-0.5 495.5,-0.5"/>
<text text-anchor="middle" x="519" y="-7.5" font-family="Helvetica,sans-Serif" font-size="10.00">vector</text>
</a>
</g>
</g>
<!-- Node30&#45;&gt;Node32 -->
<g id="edge35" class="edge">
<title>Node30&#45;&gt;Node32</title>
<path fill="none" stroke="midnightblue" d="M450.17,-56.32C462.85,-47.98 482.23,-35.21 497.21,-25.35"/>
<polygon fill="midnightblue" stroke="midnightblue" points="499.43,-28.08 505.86,-19.65 495.58,-22.23 499.43,-28.08"/>
</g>
<!-- Node33&#45;&gt;Node3 -->
<g id="edge38" class="edge">
<title>Node33&#45;&gt;Node3</title>
<path fill="none" stroke="midnightblue" d="M165.54,-56.44C136.99,-47.21 91.4,-32.47 59.93,-22.29"/>
<polygon fill="midnightblue" stroke="midnightblue" points="60.84,-18.91 50.24,-19.16 58.68,-25.57 60.84,-18.91"/>
</g>
<!-- Node33&#45;&gt;Node4 -->
<g id="edge39" class="edge">
<title>Node33&#45;&gt;Node4</title>
<path fill="none" stroke="midnightblue" d="M176.42,-56.32C161,-47.74 137.19,-34.49 119.29,-24.52"/>
<polygon fill="midnightblue" stroke="midnightblue" points="120.99,-21.46 110.55,-19.65 117.58,-27.58 120.99,-21.46"/>
</g>
<!-- Node33&#45;&gt;Node7 -->
<g id="edge37" class="edge">
<title>Node33&#45;&gt;Node7</title>
<path fill="none" stroke="midnightblue" d="M212.28,-56.44C233.35,-47.56 266.52,-33.56 290.49,-23.45"/>
<polygon fill="midnightblue" stroke="midnightblue" points="291.96,-26.63 299.81,-19.52 289.24,-20.18 291.96,-26.63"/>
</g>
<!-- Node33&#45;&gt;Node19 -->
<g id="edge40" class="edge">
<title>Node33&#45;&gt;Node19</title>
<path fill="none" stroke="midnightblue" d="M199.43,-56.08C205.85,-48.38 215.31,-37.03 223.12,-27.65"/>
<polygon fill="midnightblue" stroke="midnightblue" points="225.99,-29.67 229.71,-19.75 220.62,-25.19 225.99,-29.67"/>
</g>
<!-- Node34 -->
<g id="node34" class="node">
<title>Node34</title>
<g id="a_node34"><a xlink:title=" ">
<polygon fill="white" stroke="#bfbfbf" points="139.5,-0.5 139.5,-19.5 180.5,-19.5 180.5,-0.5 139.5,-0.5"/>
<text text-anchor="middle" x="160" y="-7.5" font-family="Helvetica,sans-Serif" font-size="10.00">tuple</text>
</a>
</g>
</g>
<!-- Node33&#45;&gt;Node34 -->
<g id="edge41" class="edge">
<title>Node33&#45;&gt;Node34</title>
<path fill="none" stroke="midnightblue" d="M186.72,-56.08C182.29,-48.61 175.84,-37.72 170.38,-28.52"/>
<polygon fill="midnightblue" stroke="midnightblue" points="173.29,-26.57 165.19,-19.75 167.27,-30.14 173.29,-26.57"/>
</g>
</g>
</svg>
        <g id="navigator" transform="translate(0 0)" fill="#404254">
                <rect fill="#f2f5e9" fill-opacity="0.5" stroke="#606060" stroke-width=".5" x="0" y="0" width="60" height="60"/>
                <use id="zoomplus" xlink:href="#zoomPlus" x="17" y="9" onmousedown="handleZoom(evt,'in')"/>
                <use id="zoomminus" xlink:href="#zoomMin" x="42" y="9" onmousedown="handleZoom(evt,'out')"/>
                <use id="reset" xlink:href="#resetDef" x="30" y="36" onmousedown="handleReset()"/>
                <g id="arrowUp" xlink:href="#dirArrow" transform="translate(30 24)" onmousedown="handlePan(0,-1)">
                  <use xlink:href="#rim" fill="#404040">
                        <set attributeName="fill" to="#808080" begin="arrowUp.mouseover" end="arrowUp.mouseout"/>
                  </use>
                  <path fill="none" stroke="white" stroke-width="1.5" d="M0,-3.0v7 M-2.5,-0.5L0,-3.0L2.5,-0.5"/>
                </g>
                <g id="arrowRight" xlink:href="#dirArrow" transform="rotate(90) translate(36 -43)" onmousedown="handlePan(1,0)">
                  <use xlink:href="#rim" fill="#404040">
                        <set attributeName="fill" to="#808080" begin="arrowRight.mouseover" end="arrowRight.mouseout"/>
                  </use>
                  <path fill="none" stroke="white" stroke-width="1.5" d="M0,-3.0v7 M-2.5,-0.5L0,-3.0L2.5,-0.5"/>
                </g>
                <g id="arrowDown" xlink:href="#dirArrow" transform="rotate(180) translate(-30 -48)" onmousedown="handlePan(0,1)">
                  <use xlink:href="#rim" fill="#404040">
                        <set attributeName="fill" to="#808080" begin="arrowDown.mouseover" end="arrowDown.mouseout"/>
                  </use>
                  <path fill="none" stroke="white" stroke-width="1.5" d="M0,-3.0v7 M-2.5,-0.5L0,-3.0L2.5,-0.5"/>
                </g>
                <g id="arrowLeft" xlink:href="#dirArrow" transform="rotate(270) translate(-36 17)" onmousedown="handlePan(-1,0)">
                  <use xlink:href="#rim" fill="#404040">
                        <set attributeName="fill" to="#808080" begin="arrowLeft.mouseover" end="arrowLeft.mouseout"/>
                  </use>
                  <path fill="none" stroke="white" stroke-width="1.5" d="M0,-3.0v7 M-2.5,-0.5L0,-3.0L2.5,-0.5"/>
                </g>
        </g>
        <svg viewBox="0 0 15 15" width="100%" height="30px" preserveAspectRatio="xMaxYMin meet">
         <g id="arrow_out" transform="scale(0.3 0.3)">
          <a xlink:href="omp__datarace__client_8cpp__incl_org.svg" target="_base">
           <rect id="button" ry="5" rx="5" y="6" x="6" height="38" width="38"
                fill="#f2f5e9" fill-opacity="0.5" stroke="#606060" stroke-width="1.0"/>
           <path id="arrow"
             d="M 11.500037,31.436501 C 11.940474,20.09759 22.043105,11.32322 32.158766,21.979434 L 37.068811,17.246167 C 37.068811,17.246167 37.088388,32 37.088388,32 L 22.160133,31.978069 C 22.160133,31.978069 26.997745,27.140456 26.997745,27.140456 C 18.528582,18.264221 13.291696,25.230495 11.500037,31.436501 z"
             style="fill:#404040;"/>
          </a>
         </g>
        </svg>
</svg>
