<?xml version="1.0" encoding="UTF-8" standalone="no"?>
<!DOCTYPE svg PUBLIC "-//W3C//DTD SVG 1.1//EN"
 "http://www.w3.org/Graphics/SVG/1.1/DTD/svg11.dtd">
<!-- Generated by graphviz version 2.43.0 (0)
 -->
<!-- Title: src/rbtree.h Pages: 1 -->
<svg width="278pt" height="95pt"
 viewBox="0.00 0.00 278.00 95.00" xmlns="http://www.w3.org/2000/svg" xmlns:xlink="http://www.w3.org/1999/xlink">
<g id="graph0" class="graph" transform="scale(1 1) rotate(0) translate(4 91)">
<title>src/rbtree.h</title>
<polygon fill="white" stroke="transparent" points="-4,4 -4,-91 274,-91 274,4 -4,4"/>
<!-- Node1 -->
<g id="node1" class="node">
<title>Node1</title>
<g id="a_node1"><a xlink:title=" ">
<polygon fill="#bfbfbf" stroke="black" points="111.5,-67.5 111.5,-86.5 183.5,-86.5 183.5,-67.5 111.5,-67.5"/>
<text text-anchor="middle" x="147.5" y="-74.5" font-family="Helvetica,sans-Serif" font-size="10.00">src/rbtree.h</text>
</a>
</g>
</g>
<!-- Node2 -->
<g id="node2" class="node">
<title>Node2</title>
<g id="a_node2"><a xlink:href="ins__reuse__client_8cpp.html" target="_top" xlink:title=" ">
<polygon fill="white" stroke="black" points="0,-6 0,-25 151,-25 151,-6 0,-6"/>
<text text-anchor="middle" x="75.5" y="-13" font-family="Helvetica,sans-Serif" font-size="10.00">clients/ins_reuse_client.cpp</text>
</a>
</g>
</g>
<!-- Node1&#45;&gt;Node2 -->
<g id="edge1" class="edge">
<title>Node1&#45;&gt;Node2</title>
<path fill="none" stroke="midnightblue" d="M129.32,-60.97C115.54,-49.59 97.12,-34.37 85.8,-25.01"/>
<polygon fill="midnightblue" stroke="midnightblue" points="127.25,-63.8 137.18,-67.48 131.71,-58.41 127.25,-63.8"/>
</g>
<!-- Node3 -->
<g id="node3" class="node">
<title>Node3</title>
<g id="a_node3"><a xlink:href="rbtree__test_8cpp.html" target="_top" xlink:title=" ">
<polygon fill="white" stroke="black" points="169,-0.5 169,-30.5 270,-30.5 270,-0.5 169,-0.5"/>
<text text-anchor="start" x="177" y="-18.5" font-family="Helvetica,sans-Serif" font-size="10.00">tests/gtest/rbtree</text>
<text text-anchor="middle" x="219.5" y="-7.5" font-family="Helvetica,sans-Serif" font-size="10.00">_test.cpp</text>
</a>
</g>
</g>
<!-- Node1&#45;&gt;Node3 -->
<g id="edge2" class="edge">
<title>Node1&#45;&gt;Node3</title>
<path fill="none" stroke="midnightblue" d="M165.75,-60.92C177.05,-51.58 191.47,-39.66 202.53,-30.52"/>
<polygon fill="midnightblue" stroke="midnightblue" points="163.29,-58.41 157.82,-67.48 167.75,-63.8 163.29,-58.41"/>
</g>
</g>
</svg>
