<?xml version="1.0" encoding="UTF-8" standalone="no"?>
<!DOCTYPE svg PUBLIC "-//W3C//DTD SVG 1.1//EN"
 "http://www.w3.org/Graphics/SVG/1.1/DTD/svg11.dtd">
<!-- Generated by graphviz version 2.43.0 (0)
 -->
<!-- Title: tests/gtest/rbtree_test.cpp Pages: 1 -->
<svg width="452pt" height="151pt"
 viewBox="0.00 0.00 451.50 151.00" xmlns="http://www.w3.org/2000/svg" xmlns:xlink="http://www.w3.org/1999/xlink">
<g id="graph0" class="graph" transform="scale(1 1) rotate(0) translate(4 147)">
<title>tests/gtest/rbtree_test.cpp</title>
<polygon fill="white" stroke="transparent" points="-4,4 -4,-147 447.5,-147 447.5,4 -4,4"/>
<!-- Node1 -->
<g id="node1" class="node">
<title>Node1</title>
<g id="a_node1"><a xlink:title=" ">
<polygon fill="#bfbfbf" stroke="black" points="134.5,-112.5 134.5,-142.5 235.5,-142.5 235.5,-112.5 134.5,-112.5"/>
<text text-anchor="start" x="142.5" y="-130.5" font-family="Helvetica,sans-Serif" font-size="10.00">tests/gtest/rbtree</text>
<text text-anchor="middle" x="185" y="-119.5" font-family="Helvetica,sans-Serif" font-size="10.00">_test.cpp</text>
</a>
</g>
</g>
<!-- Node2 -->
<g id="node2" class="node">
<title>Node2</title>
<g id="a_node2"><a xlink:title=" ">
<polygon fill="white" stroke="#bfbfbf" points="0,-56.5 0,-75.5 50,-75.5 50,-56.5 0,-56.5"/>
<text text-anchor="middle" x="25" y="-63.5" font-family="Helvetica,sans-Serif" font-size="10.00">cstdint</text>
</a>
</g>
</g>
<!-- Node1&#45;&gt;Node2 -->
<g id="edge1" class="edge">
<title>Node1&#45;&gt;Node2</title>
<path fill="none" stroke="midnightblue" d="M147.08,-112.4C119.88,-102.28 83.6,-88.79 57.67,-79.15"/>
<polygon fill="midnightblue" stroke="midnightblue" points="58.87,-75.86 48.28,-75.66 56.43,-82.42 58.87,-75.86"/>
</g>
<!-- Node3 -->
<g id="node3" class="node">
<title>Node3</title>
<g id="a_node3"><a xlink:title=" ">
<polygon fill="white" stroke="#bfbfbf" points="68,-56.5 68,-75.5 122,-75.5 122,-56.5 68,-56.5"/>
<text text-anchor="middle" x="95" y="-63.5" font-family="Helvetica,sans-Serif" font-size="10.00">random</text>
</a>
</g>
</g>
<!-- Node1&#45;&gt;Node3 -->
<g id="edge2" class="edge">
<title>Node1&#45;&gt;Node3</title>
<path fill="none" stroke="midnightblue" d="M163.67,-112.4C149.51,-103.04 130.99,-90.79 116.75,-81.38"/>
<polygon fill="midnightblue" stroke="midnightblue" points="118.37,-78.25 108.1,-75.66 114.51,-84.09 118.37,-78.25"/>
</g>
<!-- Node4 -->
<g id="node4" class="node">
<title>Node4</title>
<g id="a_node4"><a xlink:title=" ">
<polygon fill="white" stroke="#bfbfbf" points="140,-56.5 140,-75.5 172,-75.5 172,-56.5 140,-56.5"/>
<text text-anchor="middle" x="156" y="-63.5" font-family="Helvetica,sans-Serif" font-size="10.00">set</text>
</a>
</g>
</g>
<!-- Node1&#45;&gt;Node4 -->
<g id="edge3" class="edge">
<title>Node1&#45;&gt;Node4</title>
<path fill="none" stroke="midnightblue" d="M178.13,-112.4C174.09,-104.11 168.94,-93.55 164.63,-84.71"/>
<polygon fill="midnightblue" stroke="midnightblue" points="167.75,-83.11 160.22,-75.66 161.45,-86.18 167.75,-83.11"/>
</g>
<!-- Node5 -->
<g id="node5" class="node">
<title>Node5</title>
<g id="a_node5"><a xlink:title=" ">
<polygon fill="white" stroke="#bfbfbf" points="190.5,-56.5 190.5,-75.5 237.5,-75.5 237.5,-56.5 190.5,-56.5"/>
<text text-anchor="middle" x="214" y="-63.5" font-family="Helvetica,sans-Serif" font-size="10.00">vector</text>
</a>
</g>
</g>
<!-- Node1&#45;&gt;Node5 -->
<g id="edge4" class="edge">
<title>Node1&#45;&gt;Node5</title>
<path fill="none" stroke="midnightblue" d="M191.87,-112.4C195.91,-104.11 201.06,-93.55 205.37,-84.71"/>
<polygon fill="midnightblue" stroke="midnightblue" points="208.55,-86.18 209.78,-75.66 202.25,-83.11 208.55,-86.18"/>
</g>
<!-- Node6 -->
<g id="node6" class="node">
<title>Node6</title>
<g id="a_node6"><a xlink:title=" ">
<polygon fill="white" stroke="#bfbfbf" points="256,-56.5 256,-75.5 334,-75.5 334,-56.5 256,-56.5"/>
<text text-anchor="middle" x="295" y="-63.5" font-family="Helvetica,sans-Serif" font-size="10.00">gtest/gtest.h</text>
</a>
</g>
</g>
<!-- Node1&#45;&gt;Node6 -->
<g id="edge5" class="edge">
<title>Node1&#45;&gt;Node6</title>
<path fill="none" stroke="midnightblue" d="M211.07,-112.4C228.87,-102.77 252.31,-90.09 269.9,-80.58"/>
<polygon fill="midnightblue" stroke="midnightblue" points="271.86,-83.49 278.99,-75.66 268.53,-77.34 271.86,-83.49"/>
</g>
<!-- Node7 -->
<g id="node7" class="node">
<title>Node7</title>
<g id="a_node7"><a xlink:href="rbtree_8h.html" target="_top" xlink:title=" ">
<polygon fill="white" stroke="black" points="352.5,-56.5 352.5,-75.5 407.5,-75.5 407.5,-56.5 352.5,-56.5"/>
<text text-anchor="middle" x="380" y="-63.5" font-family="Helvetica,sans-Serif" font-size="10.00">rbtree.h</text>
</a>
</g>
</g>
<!-- Node1&#45;&gt;Node7 -->
<g id="edge6" class="edge">
<title>Node1&#45;&gt;Node7</title>
<path fill="none" stroke="midnightblue" d="M231.21,-112.4C265.26,-102.01 310.97,-88.06 342.7,-78.38"/>
<polygon fill="midnightblue" stroke="midnightblue" points="343.93,-81.66 352.48,-75.4 341.89,-74.97 343.93,-81.66"/>
</g>
<!-- Node8 -->
<g id="node8" class="node">
<title>Node8</title>
<g id="a_node8"><a xlink:title=" ">
<polygon fill="white" stroke="#bfbfbf" points="312,-0.5 312,-19.5 372,-19.5 372,-0.5 312,-0.5"/>
<text text-anchor="middle" x="342" y="-7.5" font-family="Helvetica,sans-Serif" font-size="10.00">iostream</text>
</a>
</g>
</g>
<!-- Node7&#45;&gt;Node8 -->
<g id="edge7" class="edge">
<title>Node7&#45;&gt;Node8</title>
<path fill="none" stroke="midnightblue" d="M373.73,-56.08C368.36,-48.46 360.48,-37.26 353.92,-27.94"/>
<polygon fill="midnightblue" stroke="midnightblue" points="356.78,-25.91 348.16,-19.75 351.05,-29.94 356.78,-25.91"/>
</g>
<!-- Node9 -->
<g id="node9" class="node">
<title>Node9</title>
<g id="a_node9"><a xlink:title=" ">
<polygon fill="white" stroke="#bfbfbf" points="390.5,-0.5 390.5,-19.5 443.5,-19.5 443.5,-0.5 390.5,-0.5"/>
<text text-anchor="middle" x="417" y="-7.5" font-family="Helvetica,sans-Serif" font-size="10.00">stdint.h</text>
</a>
</g>
</g>
<!-- Node7&#45;&gt;Node9 -->
<g id="edge8" class="edge">
<title>Node7&#45;&gt;Node9</title>
<path fill="none" stroke="midnightblue" d="M386.11,-56.08C391.28,-48.53 398.85,-37.49 405.19,-28.23"/>
<polygon fill="midnightblue" stroke="midnightblue" points="408.24,-29.98 411,-19.75 402.46,-26.02 408.24,-29.98"/>
</g>
</g>
</svg>
