<?xml version="1.0" encoding="UTF-8" standalone="no"?>
<!DOCTYPE svg PUBLIC "-//W3C//DTD SVG 1.1//EN"
 "http://www.w3.org/Graphics/SVG/1.1/DTD/svg11.dtd">
<!-- Generated by graphviz version 2.43.0 (0)
 -->
<!-- Title: tests/gtest/redspy_integration_test.cpp Pages: 1 -->
<svg width="913pt" height="95pt"
 viewBox="0.00 0.00 912.50 95.00" xmlns="http://www.w3.org/2000/svg" xmlns:xlink="http://www.w3.org/1999/xlink">
<g id="graph0" class="graph" transform="scale(1 1) rotate(0) translate(4 91)">
<title>tests/gtest/redspy_integration_test.cpp</title>
<polygon fill="white" stroke="transparent" points="-4,4 -4,-91 908.5,-91 908.5,4 -4,4"/>
<!-- Node1 -->
<g id="node1" class="node">
<title>Node1</title>
<g id="a_node1"><a xlink:title=" ">
<polygon fill="#bfbfbf" stroke="black" points="367,-56.5 367,-86.5 486,-86.5 486,-56.5 367,-56.5"/>
<text text-anchor="start" x="375" y="-74.5" font-family="Helvetica,sans-Serif" font-size="10.00">tests/gtest/redspy</text>
<text text-anchor="middle" x="426.5" y="-63.5" font-family="Helvetica,sans-Serif" font-size="10.00">_integration_test.cpp</text>
</a>
</g>
</g>
<!-- Node2 -->
<g id="node2" class="node">
<title>Node2</title>
<g id="a_node2"><a xlink:title=" ">
<polygon fill="white" stroke="#bfbfbf" points="0,-0.5 0,-19.5 47,-19.5 47,-0.5 0,-0.5"/>
<text text-anchor="middle" x="23.5" y="-7.5" font-family="Helvetica,sans-Serif" font-size="10.00">cerrno</text>
</a>
</g>
</g>
<!-- Node1&#45;&gt;Node2 -->
<g id="edge1" class="edge">
<title>Node1&#45;&gt;Node2</title>
<path fill="none" stroke="midnightblue" d="M366.82,-64.78C295.43,-57.4 172.2,-42.94 57.23,-19.9"/>
<polygon fill="midnightblue" stroke="midnightblue" points="57.7,-16.42 47.2,-17.86 56.31,-23.28 57.7,-16.42"/>
</g>
<!-- Node3 -->
<g id="node3" class="node">
<title>Node3</title>
<g id="a_node3"><a xlink:title=" ">
<polygon fill="white" stroke="#bfbfbf" points="65.5,-0.5 65.5,-19.5 111.5,-19.5 111.5,-0.5 65.5,-0.5"/>
<text text-anchor="middle" x="88.5" y="-7.5" font-family="Helvetica,sans-Serif" font-size="10.00">cstdio</text>
</a>
</g>
</g>
<!-- Node1&#45;&gt;Node3 -->
<g id="edge2" class="edge">
<title>Node1&#45;&gt;Node3</title>
<path fill="none" stroke="midnightblue" d="M366.89,-62.65C307.13,-54.34 212.34,-39.94 121.73,-20.08"/>
<polygon fill="midnightblue" stroke="midnightblue" points="122.36,-16.64 111.84,-17.89 120.85,-23.47 122.36,-16.64"/>
</g>
<!-- Node4 -->
<g id="node4" class="node">
<title>Node4</title>
<g id="a_node4"><a xlink:title=" ">
<polygon fill="white" stroke="#bfbfbf" points="130,-0.5 130,-19.5 179,-19.5 179,-0.5 130,-0.5"/>
<text text-anchor="middle" x="154.5" y="-7.5" font-family="Helvetica,sans-Serif" font-size="10.00">cstdlib</text>
</a>
</g>
</g>
<!-- Node1&#45;&gt;Node4 -->
<g id="edge3" class="edge">
<title>Node1&#45;&gt;Node4</title>
<path fill="none" stroke="midnightblue" d="M366.65,-58.66C320.67,-49.36 255.37,-35.74 189.13,-20.06"/>
<polygon fill="midnightblue" stroke="midnightblue" points="189.89,-16.64 179.35,-17.73 188.26,-23.45 189.89,-16.64"/>
</g>
<!-- Node5 -->
<g id="node5" class="node">
<title>Node5</title>
<g id="a_node5"><a xlink:title=" ">
<polygon fill="white" stroke="#bfbfbf" points="197.5,-0.5 197.5,-19.5 247.5,-19.5 247.5,-0.5 197.5,-0.5"/>
<text text-anchor="middle" x="222.5" y="-7.5" font-family="Helvetica,sans-Serif" font-size="10.00">cstring</text>
</a>
</g>
</g>
<!-- Node1&#45;&gt;Node5 -->
<g id="edge4" class="edge">
<title>Node1&#45;&gt;Node5</title>
<path fill="none" stroke="midnightblue" d="M378.41,-56.47C341.26,-45.64 290.72,-30.9 257.39,-21.17"/>
<polygon fill="midnightblue" stroke="midnightblue" points="258.2,-17.77 247.62,-18.33 256.24,-24.49 258.2,-17.77"/>
</g>
<!-- Node6 -->
<g id="node6" class="node">
<title>Node6</title>
<g id="a_node6"><a xlink:title=" ">
<polygon fill="white" stroke="#bfbfbf" points="266,-0.5 266,-19.5 313,-19.5 313,-0.5 266,-0.5"/>
<text text-anchor="middle" x="289.5" y="-7.5" font-family="Helvetica,sans-Serif" font-size="10.00">fcntl.h</text>
</a>
</g>
</g>
<!-- Node1&#45;&gt;Node6 -->
<g id="edge5" class="edge">
<title>Node1&#45;&gt;Node6</title>
<path fill="none" stroke="midnightblue" d="M394.03,-56.4C371.15,-46.46 340.77,-33.26 318.66,-23.66"/>
<polygon fill="midnightblue" stroke="midnightblue" points="320,-20.43 309.43,-19.66 317.21,-26.85 320,-20.43"/>
</g>
<!-- Node7 -->
<g id="node7" class="node">
<title>Node7</title>
<g id="a_node7"><a xlink:title=" ">
<polygon fill="white" stroke="#bfbfbf" points="331,-0.5 331,-19.5 386,-19.5 386,-0.5 331,-0.5"/>
<text text-anchor="middle" x="358.5" y="-7.5" font-family="Helvetica,sans-Serif" font-size="10.00">fstream</text>
</a>
</g>
</g>
<!-- Node1&#45;&gt;Node7 -->
<g id="edge6" class="edge">
<title>Node1&#45;&gt;Node7</title>
<path fill="none" stroke="midnightblue" d="M410.38,-56.4C400.1,-47.4 386.75,-35.72 376.17,-26.47"/>
<polygon fill="midnightblue" stroke="midnightblue" points="378.23,-23.61 368.39,-19.66 373.62,-28.88 378.23,-23.61"/>
</g>
<!-- Node8 -->
<g id="node8" class="node">
<title>Node8</title>
<g id="a_node8"><a xlink:title=" ">
<polygon fill="white" stroke="#bfbfbf" points="404.5,-0.5 404.5,-19.5 448.5,-19.5 448.5,-0.5 404.5,-0.5"/>
<text text-anchor="middle" x="426.5" y="-7.5" font-family="Helvetica,sans-Serif" font-size="10.00">regex</text>
</a>
</g>
</g>
<!-- Node1&#45;&gt;Node8 -->
<g id="edge7" class="edge">
<title>Node1&#45;&gt;Node8</title>
<path fill="none" stroke="midnightblue" d="M426.5,-56.4C426.5,-48.47 426.5,-38.46 426.5,-29.86"/>
<polygon fill="midnightblue" stroke="midnightblue" points="430,-29.66 426.5,-19.66 423,-29.66 430,-29.66"/>
</g>
<!-- Node9 -->
<g id="node9" class="node">
<title>Node9</title>
<g id="a_node9"><a xlink:title=" ">
<polygon fill="white" stroke="#bfbfbf" points="466.5,-0.5 466.5,-19.5 522.5,-19.5 522.5,-0.5 466.5,-0.5"/>
<text text-anchor="middle" x="494.5" y="-7.5" font-family="Helvetica,sans-Serif" font-size="10.00">sstream</text>
</a>
</g>
</g>
<!-- Node1&#45;&gt;Node9 -->
<g id="edge8" class="edge">
<title>Node1&#45;&gt;Node9</title>
<path fill="none" stroke="midnightblue" d="M442.62,-56.4C452.9,-47.4 466.25,-35.72 476.83,-26.47"/>
<polygon fill="midnightblue" stroke="midnightblue" points="479.38,-28.88 484.61,-19.66 474.77,-23.61 479.38,-28.88"/>
</g>
<!-- Node10 -->
<g id="node10" class="node">
<title>Node10</title>
<g id="a_node10"><a xlink:title=" ">
<polygon fill="white" stroke="#bfbfbf" points="540.5,-0.5 540.5,-19.5 584.5,-19.5 584.5,-0.5 540.5,-0.5"/>
<text text-anchor="middle" x="562.5" y="-7.5" font-family="Helvetica,sans-Serif" font-size="10.00">string</text>
</a>
</g>
</g>
<!-- Node1&#45;&gt;Node10 -->
<g id="edge9" class="edge">
<title>Node1&#45;&gt;Node10</title>
<path fill="none" stroke="midnightblue" d="M458.73,-56.4C481.34,-46.51 511.34,-33.38 533.26,-23.79"/>
<polygon fill="midnightblue" stroke="midnightblue" points="534.95,-26.87 542.71,-19.66 532.15,-20.46 534.95,-26.87"/>
</g>
<!-- Node11 -->
<g id="node11" class="node">
<title>Node11</title>
<g id="a_node11"><a xlink:title=" ">
<polygon fill="white" stroke="#bfbfbf" points="602.5,-0.5 602.5,-19.5 668.5,-19.5 668.5,-0.5 602.5,-0.5"/>
<text text-anchor="middle" x="635.5" y="-7.5" font-family="Helvetica,sans-Serif" font-size="10.00">sys/wait.h</text>
</a>
</g>
</g>
<!-- Node1&#45;&gt;Node11 -->
<g id="edge10" class="edge">
<title>Node1&#45;&gt;Node11</title>
<path fill="none" stroke="midnightblue" d="M475.77,-56.47C512.45,-46.03 561.88,-31.96 595.99,-22.25"/>
<polygon fill="midnightblue" stroke="midnightblue" points="596.96,-25.61 605.62,-19.51 595.04,-18.88 596.96,-25.61"/>
</g>
<!-- Node12 -->
<g id="node12" class="node">
<title>Node12</title>
<g id="a_node12"><a xlink:title=" ">
<polygon fill="white" stroke="#bfbfbf" points="686.5,-0.5 686.5,-19.5 742.5,-19.5 742.5,-0.5 686.5,-0.5"/>
<text text-anchor="middle" x="714.5" y="-7.5" font-family="Helvetica,sans-Serif" font-size="10.00">unistd.h</text>
</a>
</g>
</g>
<!-- Node1&#45;&gt;Node12 -->
<g id="edge11" class="edge">
<title>Node1&#45;&gt;Node12</title>
<path fill="none" stroke="midnightblue" d="M486.23,-59.18C534.89,-49.8 605.6,-35.81 676.28,-20.21"/>
<polygon fill="midnightblue" stroke="midnightblue" points="677.24,-23.58 686.25,-18 675.72,-16.74 677.24,-23.58"/>
</g>
<!-- Node13 -->
<g id="node13" class="node">
<title>Node13</title>
<g id="a_node13"><a xlink:title=" ">
<polygon fill="white" stroke="#bfbfbf" points="761,-0.5 761,-19.5 808,-19.5 808,-0.5 761,-0.5"/>
<text text-anchor="middle" x="784.5" y="-7.5" font-family="Helvetica,sans-Serif" font-size="10.00">vector</text>
</a>
</g>
</g>
<!-- Node1&#45;&gt;Node13 -->
<g id="edge12" class="edge">
<title>Node1&#45;&gt;Node13</title>
<path fill="none" stroke="midnightblue" d="M486.17,-63.27C549.53,-55.13 652.72,-40.58 750.99,-19.9"/>
<polygon fill="midnightblue" stroke="midnightblue" points="751.73,-23.32 760.78,-17.81 750.28,-16.47 751.73,-23.32"/>
</g>
<!-- Node14 -->
<g id="node14" class="node">
<title>Node14</title>
<g id="a_node14"><a xlink:title=" ">
<polygon fill="white" stroke="#bfbfbf" points="826.5,-0.5 826.5,-19.5 904.5,-19.5 904.5,-0.5 826.5,-0.5"/>
<text text-anchor="middle" x="865.5" y="-7.5" font-family="Helvetica,sans-Serif" font-size="10.00">gtest/gtest.h</text>
</a>
</g>
</g>
<!-- Node1&#45;&gt;Node14 -->
<g id="edge13" class="edge">
<title>Node1&#45;&gt;Node14</title>
<path fill="none" stroke="midnightblue" d="M486.27,-63.85C561.07,-55.29 693.34,-39.37 816.51,-20.08"/>
<polygon fill="midnightblue" stroke="midnightblue" points="817.17,-23.52 826.5,-18.5 816.08,-16.6 817.17,-23.52"/>
</g>
</g>
</svg>
