<?xml version="1.0" encoding="UTF-8" standalone="no"?>
<!DOCTYPE svg PUBLIC "-//W3C//DTD SVG 1.1//EN"
 "http://www.w3.org/Graphics/SVG/1.1/DTD/svg11.dtd">
<!-- Generated by graphviz version 2.43.0 (0)
 -->
<!-- Title: tests/gtest/apps/isa/redspy_cross_page_tp.c Pages: 1 -->
<svg width="231pt" height="95pt"
 viewBox="0.00 0.00 231.00 95.00" xmlns="http://www.w3.org/2000/svg" xmlns:xlink="http://www.w3.org/1999/xlink">
<g id="graph0" class="graph" transform="scale(1 1) rotate(0) translate(4 91)">
<title>tests/gtest/apps/isa/redspy_cross_page_tp.c</title>
<polygon fill="white" stroke="transparent" points="-4,4 -4,-91 227,-91 227,4 -4,4"/>
<!-- Node1 -->
<g id="node1" class="node">
<title>Node1</title>
<g id="a_node1"><a xlink:title=" ">
<polygon fill="#bfbfbf" stroke="black" points="31.5,-56.5 31.5,-86.5 167.5,-86.5 167.5,-56.5 31.5,-56.5"/>
<text text-anchor="start" x="39.5" y="-74.5" font-family="Helvetica,sans-Serif" font-size="10.00">tests/gtest/apps/isa</text>
<text text-anchor="middle" x="99.5" y="-63.5" font-family="Helvetica,sans-Serif" font-size="10.00">/redspy_cross_page_tp.c</text>
</a>
</g>
</g>
<!-- Node2 -->
<g id="node2" class="node">
<title>Node2</title>
<g id="a_node2"><a xlink:title=" ">
<polygon fill="white" stroke="#bfbfbf" points="0,-0.5 0,-19.5 53,-19.5 53,-0.5 0,-0.5"/>
<text text-anchor="middle" x="26.5" y="-7.5" font-family="Helvetica,sans-Serif" font-size="10.00">stdint.h</text>
</a>
</g>
</g>
<!-- Node1&#45;&gt;Node2 -->
<g id="edge1" class="edge">
<title>Node1&#45;&gt;Node2</title>
<path fill="none" stroke="midnightblue" d="M82.2,-56.4C71.05,-47.31 56.55,-35.49 45.14,-26.19"/>
<polygon fill="midnightblue" stroke="midnightblue" points="47.08,-23.26 37.12,-19.66 42.66,-28.69 47.08,-23.26"/>
</g>
<!-- Node3 -->
<g id="node3" class="node">
<title>Node3</title>
<g id="a_node3"><a xlink:title=" ">
<polygon fill="white" stroke="#bfbfbf" points="71.5,-0.5 71.5,-19.5 127.5,-19.5 127.5,-0.5 71.5,-0.5"/>
<text text-anchor="middle" x="99.5" y="-7.5" font-family="Helvetica,sans-Serif" font-size="10.00">stddef.h</text>
</a>
</g>
</g>
<!-- Node1&#45;&gt;Node3 -->
<g id="edge2" class="edge">
<title>Node1&#45;&gt;Node3</title>
<path fill="none" stroke="midnightblue" d="M99.5,-56.4C99.5,-48.47 99.5,-38.46 99.5,-29.86"/>
<polygon fill="midnightblue" stroke="midnightblue" points="103,-29.66 99.5,-19.66 96,-29.66 103,-29.66"/>
</g>
<!-- Node4 -->
<g id="node4" class="node">
<title>Node4</title>
<g id="a_node4"><a xlink:title=" ">
<polygon fill="white" stroke="#bfbfbf" points="146,-0.5 146,-19.5 223,-19.5 223,-0.5 146,-0.5"/>
<text text-anchor="middle" x="184.5" y="-7.5" font-family="Helvetica,sans-Serif" font-size="10.00">sys/mman.h</text>
</a>
</g>
</g>
<!-- Node1&#45;&gt;Node4 -->
<g id="edge3" class="edge">
<title>Node1&#45;&gt;Node4</title>
<path fill="none" stroke="midnightblue" d="M119.64,-56.4C132.89,-47.13 150.18,-35.03 163.58,-25.65"/>
<polygon fill="midnightblue" stroke="midnightblue" points="165.95,-28.26 172.13,-19.66 161.93,-22.53 165.95,-28.26"/>
</g>
</g>
</svg>
