<?xml version="1.0" encoding="UTF-8" standalone="no"?>
<!DOCTYPE svg PUBLIC "-//W3C//DTD SVG 1.1//EN"
 "http://www.w3.org/Graphics/SVG/1.1/DTD/svg11.dtd">
<!-- Generated by graphviz version 2.43.0 (0)
 -->
<!-- Title: clients/redspy_client.cpp Pages: 1 -->
<svg width="1316pt" height="140pt"
 viewBox="0.00 0.00 1316.00 140.00" xmlns="http://www.w3.org/2000/svg" xmlns:xlink="http://www.w3.org/1999/xlink">
<g id="graph0" class="graph" transform="scale(1 1) rotate(0) translate(4 136)">
<title>clients/redspy_client.cpp</title>
<polygon fill="white" stroke="transparent" points="-4,4 -4,-136 1312,-136 1312,4 -4,4"/>
<!-- Node1 -->
<g id="node1" class="node">
<title>Node1</title>
<g id="a_node1"><a xlink:title=" ">
<polygon fill="#bfbfbf" stroke="black" points="514.5,-112.5 514.5,-131.5 651.5,-131.5 651.5,-112.5 514.5,-112.5"/>
<text text-anchor="middle" x="583" y="-119.5" font-family="Helvetica,sans-Serif" font-size="10.00">clients/redspy_client.cpp</text>
</a>
</g>
</g>
<!-- Node2 -->
<g id="node2" class="node">
<title>Node2</title>
<g id="a_node2"><a xlink:title=" ">
<polygon fill="white" stroke="#bfbfbf" points="0,-0.5 0,-19.5 50,-19.5 50,-0.5 0,-0.5"/>
<text text-anchor="middle" x="25" y="-7.5" font-family="Helvetica,sans-Serif" font-size="10.00">stdio.h</text>
</a>
</g>
</g>
<!-- Node1&#45;&gt;Node2 -->
<g id="edge1" class="edge">
<title>Node1&#45;&gt;Node2</title>
<path fill="none" stroke="midnightblue" d="M514.34,-119.35C400.56,-115.82 178.27,-105.3 106,-76 79.25,-65.16 54.28,-42.45 39.32,-26.97"/>
<polygon fill="midnightblue" stroke="midnightblue" points="41.85,-24.54 32.46,-19.63 36.73,-29.32 41.85,-24.54"/>
</g>
<!-- Node3 -->
<g id="node3" class="node">
<title>Node3</title>
<g id="a_node3"><a xlink:title=" ">
<polygon fill="white" stroke="#bfbfbf" points="405.5,-56.5 405.5,-75.5 458.5,-75.5 458.5,-56.5 405.5,-56.5"/>
<text text-anchor="middle" x="432" y="-63.5" font-family="Helvetica,sans-Serif" font-size="10.00">stdlib.h</text>
</a>
</g>
</g>
<!-- Node1&#45;&gt;Node3 -->
<g id="edge2" class="edge">
<title>Node1&#45;&gt;Node3</title>
<path fill="none" stroke="midnightblue" d="M559.07,-112.44C533.78,-103.4 493.7,-89.06 465.32,-78.92"/>
<polygon fill="midnightblue" stroke="midnightblue" points="466.41,-75.59 455.81,-75.52 464.05,-82.18 466.41,-75.59"/>
</g>
<!-- Node4 -->
<g id="node4" class="node">
<title>Node4</title>
<g id="a_node4"><a xlink:title=" ">
<polygon fill="white" stroke="#bfbfbf" points="68.5,-0.5 68.5,-19.5 121.5,-19.5 121.5,-0.5 68.5,-0.5"/>
<text text-anchor="middle" x="95" y="-7.5" font-family="Helvetica,sans-Serif" font-size="10.00">stdint.h</text>
</a>
</g>
</g>
<!-- Node1&#45;&gt;Node4 -->
<g id="edge3" class="edge">
<title>Node1&#45;&gt;Node4</title>
<path fill="none" stroke="midnightblue" d="M514.19,-117.93C394.34,-112.04 157.04,-97.78 126,-76 110.68,-65.25 102.68,-44.85 98.67,-29.76"/>
<polygon fill="midnightblue" stroke="midnightblue" points="102.07,-28.89 96.42,-19.93 95.24,-30.46 102.07,-28.89"/>
</g>
<!-- Node5 -->
<g id="node5" class="node">
<title>Node5</title>
<g id="a_node5"><a xlink:title=" ">
<polygon fill="white" stroke="#bfbfbf" points="477,-56.5 477,-75.5 537,-75.5 537,-56.5 477,-56.5"/>
<text text-anchor="middle" x="507" y="-63.5" font-family="Helvetica,sans-Serif" font-size="10.00">iostream</text>
</a>
</g>
</g>
<!-- Node1&#45;&gt;Node5 -->
<g id="edge4" class="edge">
<title>Node1&#45;&gt;Node5</title>
<path fill="none" stroke="midnightblue" d="M570.79,-112.32C559.22,-104.11 541.62,-91.6 527.84,-81.81"/>
<polygon fill="midnightblue" stroke="midnightblue" points="529.61,-78.77 519.43,-75.83 525.56,-84.48 529.61,-78.77"/>
</g>
<!-- Node6 -->
<g id="node6" class="node">
<title>Node6</title>
<g id="a_node6"><a xlink:title=" ">
<polygon fill="white" stroke="#bfbfbf" points="555,-56.5 555,-75.5 611,-75.5 611,-56.5 555,-56.5"/>
<text text-anchor="middle" x="583" y="-63.5" font-family="Helvetica,sans-Serif" font-size="10.00">unistd.h</text>
</a>
</g>
</g>
<!-- Node1&#45;&gt;Node6 -->
<g id="edge5" class="edge">
<title>Node1&#45;&gt;Node6</title>
<path fill="none" stroke="midnightblue" d="M583,-112.08C583,-105.01 583,-94.86 583,-85.99"/>
<polygon fill="midnightblue" stroke="midnightblue" points="586.5,-85.75 583,-75.75 579.5,-85.75 586.5,-85.75"/>
</g>
<!-- Node7 -->
<g id="node7" class="node">
<title>Node7</title>
<g id="a_node7"><a xlink:title=" ">
<polygon fill="white" stroke="#bfbfbf" points="629,-56.5 629,-75.5 685,-75.5 685,-56.5 629,-56.5"/>
<text text-anchor="middle" x="657" y="-63.5" font-family="Helvetica,sans-Serif" font-size="10.00">assert.h</text>
</a>
</g>
</g>
<!-- Node1&#45;&gt;Node7 -->
<g id="edge6" class="edge">
<title>Node1&#45;&gt;Node7</title>
<path fill="none" stroke="midnightblue" d="M594.89,-112.32C606.15,-104.11 623.29,-91.6 636.71,-81.81"/>
<polygon fill="midnightblue" stroke="midnightblue" points="638.88,-84.56 644.89,-75.83 634.75,-78.9 638.88,-84.56"/>
</g>
<!-- Node8 -->
<g id="node8" class="node">
<title>Node8</title>
<g id="a_node8"><a xlink:title=" ">
<polygon fill="white" stroke="#bfbfbf" points="703.5,-56.5 703.5,-75.5 756.5,-75.5 756.5,-56.5 703.5,-56.5"/>
<text text-anchor="middle" x="730" y="-63.5" font-family="Helvetica,sans-Serif" font-size="10.00">string.h</text>
</a>
</g>
</g>
<!-- Node1&#45;&gt;Node8 -->
<g id="edge7" class="edge">
<title>Node1&#45;&gt;Node8</title>
<path fill="none" stroke="midnightblue" d="M606.29,-112.44C630.81,-103.44 669.6,-89.19 697.2,-79.05"/>
<polygon fill="midnightblue" stroke="midnightblue" points="698.64,-82.25 706.82,-75.52 696.22,-75.68 698.64,-82.25"/>
</g>
<!-- Node9 -->
<g id="node9" class="node">
<title>Node9</title>
<g id="a_node9"><a xlink:title=" ">
<polygon fill="white" stroke="#bfbfbf" points="774.5,-56.5 774.5,-75.5 851.5,-75.5 851.5,-56.5 774.5,-56.5"/>
<text text-anchor="middle" x="813" y="-63.5" font-family="Helvetica,sans-Serif" font-size="10.00">sys/mman.h</text>
</a>
</g>
</g>
<!-- Node1&#45;&gt;Node9 -->
<g id="edge8" class="edge">
<title>Node1&#45;&gt;Node9</title>
<path fill="none" stroke="midnightblue" d="M619.44,-112.44C659.4,-103.06 723.59,-87.99 766.98,-77.8"/>
<polygon fill="midnightblue" stroke="midnightblue" points="767.79,-81.21 776.73,-75.52 766.19,-74.39 767.79,-81.21"/>
</g>
<!-- Node10 -->
<g id="node10" class="node">
<title>Node10</title>
<g id="a_node10"><a xlink:title=" ">
<polygon fill="white" stroke="#bfbfbf" points="870,-56.5 870,-75.5 926,-75.5 926,-56.5 870,-56.5"/>
<text text-anchor="middle" x="898" y="-63.5" font-family="Helvetica,sans-Serif" font-size="10.00">sstream</text>
</a>
</g>
</g>
<!-- Node1&#45;&gt;Node10 -->
<g id="edge9" class="edge">
<title>Node1&#45;&gt;Node10</title>
<path fill="none" stroke="midnightblue" d="M644.26,-112.49C698.44,-104.64 779.83,-92.08 859.55,-76.17"/>
<polygon fill="midnightblue" stroke="midnightblue" points="860.66,-79.51 869.77,-74.11 859.27,-72.65 860.66,-79.51"/>
</g>
<!-- Node11 -->
<g id="node11" class="node">
<title>Node11</title>
<g id="a_node11"><a xlink:title=" ">
<polygon fill="white" stroke="#bfbfbf" points="944.5,-56.5 944.5,-75.5 1009.5,-75.5 1009.5,-56.5 944.5,-56.5"/>
<text text-anchor="middle" x="977" y="-63.5" font-family="Helvetica,sans-Serif" font-size="10.00">functional</text>
</a>
</g>
</g>
<!-- Node1&#45;&gt;Node11 -->
<g id="edge10" class="edge">
<title>Node1&#45;&gt;Node11</title>
<path fill="none" stroke="midnightblue" d="M651.72,-113.94C720.63,-106.47 829.98,-93.56 934.4,-75.96"/>
<polygon fill="midnightblue" stroke="midnightblue" points="935.22,-79.38 944.49,-74.25 934.05,-72.48 935.22,-79.38"/>
</g>
<!-- Node12 -->
<g id="node12" class="node">
<title>Node12</title>
<g id="a_node12"><a xlink:title=" ">
<polygon fill="white" stroke="#bfbfbf" points="1028,-56.5 1028,-75.5 1114,-75.5 1114,-56.5 1028,-56.5"/>
<text text-anchor="middle" x="1071" y="-63.5" font-family="Helvetica,sans-Serif" font-size="10.00">unordered_set</text>
</a>
</g>
</g>
<!-- Node1&#45;&gt;Node12 -->
<g id="edge11" class="edge">
<title>Node1&#45;&gt;Node12</title>
<path fill="none" stroke="midnightblue" d="M651.52,-115.39C735.44,-108.19 882.15,-94.55 1017.75,-76.09"/>
<polygon fill="midnightblue" stroke="midnightblue" points="1018.47,-79.52 1027.91,-74.69 1017.52,-72.59 1018.47,-79.52"/>
</g>
<!-- Node13 -->
<g id="node13" class="node">
<title>Node13</title>
<g id="a_node13"><a xlink:title=" ">
<polygon fill="white" stroke="#bfbfbf" points="202.5,-0.5 202.5,-19.5 249.5,-19.5 249.5,-0.5 202.5,-0.5"/>
<text text-anchor="middle" x="226" y="-7.5" font-family="Helvetica,sans-Serif" font-size="10.00">vector</text>
</a>
</g>
</g>
<!-- Node1&#45;&gt;Node13 -->
<g id="edge12" class="edge">
<title>Node1&#45;&gt;Node13</title>
<path fill="none" stroke="midnightblue" d="M514.25,-118.12C433.27,-113.57 304.73,-102.34 265,-76 248.58,-65.12 238.03,-44.74 232.1,-29.69"/>
<polygon fill="midnightblue" stroke="midnightblue" points="235.25,-28.12 228.58,-19.89 228.66,-30.48 235.25,-28.12"/>
</g>
<!-- Node14 -->
<g id="node14" class="node">
<title>Node14</title>
<g id="a_node14"><a xlink:title=" ">
<polygon fill="white" stroke="#bfbfbf" points="1132.5,-56.5 1132.5,-75.5 1225.5,-75.5 1225.5,-56.5 1132.5,-56.5"/>
<text text-anchor="middle" x="1179" y="-63.5" font-family="Helvetica,sans-Serif" font-size="10.00">unordered_map</text>
</a>
</g>
</g>
<!-- Node1&#45;&gt;Node14 -->
<g id="edge13" class="edge">
<title>Node1&#45;&gt;Node14</title>
<path fill="none" stroke="midnightblue" d="M651.79,-116.95C752.66,-110.64 946.83,-97.08 1122.35,-75.99"/>
<polygon fill="midnightblue" stroke="midnightblue" points="1122.78,-79.46 1132.29,-74.78 1121.94,-72.51 1122.78,-79.46"/>
</g>
<!-- Node15 -->
<g id="node15" class="node">
<title>Node15</title>
<g id="a_node15"><a xlink:title=" ">
<polygon fill="white" stroke="#bfbfbf" points="1244,-56.5 1244,-75.5 1308,-75.5 1308,-56.5 1244,-56.5"/>
<text text-anchor="middle" x="1276" y="-63.5" font-family="Helvetica,sans-Serif" font-size="10.00">algorithm</text>
</a>
</g>
</g>
<!-- Node1&#45;&gt;Node15 -->
<g id="edge14" class="edge">
<title>Node1&#45;&gt;Node15</title>
<path fill="none" stroke="midnightblue" d="M651.88,-119.57C769.39,-116.41 1016.23,-106.6 1233.84,-75.95"/>
<polygon fill="midnightblue" stroke="midnightblue" points="1234.45,-79.4 1243.85,-74.53 1233.46,-72.47 1234.45,-79.4"/>
</g>
<!-- Node16 -->
<g id="node16" class="node">
<title>Node16</title>
<g id="a_node16"><a xlink:title=" ">
<polygon fill="white" stroke="#bfbfbf" points="268,-0.5 268,-19.5 310,-19.5 310,-0.5 268,-0.5"/>
<text text-anchor="middle" x="289" y="-7.5" font-family="Helvetica,sans-Serif" font-size="10.00">pin.H</text>
</a>
</g>
</g>
<!-- Node1&#45;&gt;Node16 -->
<g id="edge15" class="edge">
<title>Node1&#45;&gt;Node16</title>
<path fill="none" stroke="midnightblue" d="M514.17,-121.02C432.75,-119.41 304.41,-111.16 274,-76 262.67,-62.9 269.69,-42.94 277.49,-28.59"/>
<polygon fill="midnightblue" stroke="midnightblue" points="280.67,-30.09 282.8,-19.71 274.66,-26.5 280.67,-30.09"/>
</g>
<!-- Node17 -->
<g id="node17" class="node">
<title>Node17</title>
<g id="a_node17"><a xlink:href="pin__isa__compat_8H.html" target="_top" xlink:title=" ">
<polygon fill="white" stroke="black" points="283,-56.5 283,-75.5 387,-75.5 387,-56.5 283,-56.5"/>
<text text-anchor="middle" x="335" y="-63.5" font-family="Helvetica,sans-Serif" font-size="10.00">pin_isa_compat.H</text>
</a>
</g>
</g>
<!-- Node1&#45;&gt;Node17 -->
<g id="edge16" class="edge">
<title>Node1&#45;&gt;Node17</title>
<path fill="none" stroke="midnightblue" d="M543.7,-112.44C500.44,-103.02 430.83,-87.87 384.03,-77.68"/>
<polygon fill="midnightblue" stroke="midnightblue" points="384.63,-74.22 374.11,-75.52 383.14,-81.06 384.63,-74.22"/>
</g>
<!-- Node19 -->
<g id="node19" class="node">
<title>Node19</title>
<g id="a_node19"><a xlink:href="cctlib_8H.html" target="_top" xlink:title=" ">
<polygon fill="white" stroke="black" points="135.5,-56.5 135.5,-75.5 188.5,-75.5 188.5,-56.5 135.5,-56.5"/>
<text text-anchor="middle" x="162" y="-63.5" font-family="Helvetica,sans-Serif" font-size="10.00">cctlib.H</text>
</a>
</g>
</g>
<!-- Node1&#45;&gt;Node19 -->
<g id="edge19" class="edge">
<title>Node1&#45;&gt;Node19</title>
<path fill="none" stroke="midnightblue" d="M514.41,-114.92C438.09,-107.69 311.25,-94.25 203,-76 201.71,-75.78 200.39,-75.55 199.07,-75.31"/>
<polygon fill="midnightblue" stroke="midnightblue" points="199.32,-71.79 188.83,-73.29 197.96,-78.66 199.32,-71.79"/>
</g>
<!-- Node17&#45;&gt;Node16 -->
<g id="edge17" class="edge">
<title>Node17&#45;&gt;Node16</title>
<path fill="none" stroke="midnightblue" d="M327.4,-56.08C320.77,-48.3 310.98,-36.8 302.94,-27.37"/>
<polygon fill="midnightblue" stroke="midnightblue" points="305.6,-25.09 296.45,-19.75 300.27,-29.63 305.6,-25.09"/>
</g>
<!-- Node18 -->
<g id="node18" class="node">
<title>Node18</title>
<g id="a_node18"><a xlink:title=" ">
<polygon fill="white" stroke="#bfbfbf" points="328.5,-0.5 328.5,-19.5 423.5,-19.5 423.5,-0.5 328.5,-0.5"/>
<text text-anchor="middle" x="376" y="-7.5" font-family="Helvetica,sans-Serif" font-size="10.00">regvalue_utils.h</text>
</a>
</g>
</g>
<!-- Node17&#45;&gt;Node18 -->
<g id="edge18" class="edge">
<title>Node17&#45;&gt;Node18</title>
<path fill="none" stroke="midnightblue" d="M341.77,-56.08C347.56,-48.46 356.06,-37.26 363.14,-27.94"/>
<polygon fill="midnightblue" stroke="midnightblue" points="366.1,-29.83 369.36,-19.75 360.52,-25.6 366.1,-29.83"/>
</g>
<!-- Node19&#45;&gt;Node2 -->
<g id="edge22" class="edge">
<title>Node19&#45;&gt;Node2</title>
<path fill="none" stroke="midnightblue" d="M140.29,-56.44C117.65,-47.52 81.93,-33.44 56.25,-23.32"/>
<polygon fill="midnightblue" stroke="midnightblue" points="57.19,-19.93 46.61,-19.52 54.63,-26.44 57.19,-19.93"/>
</g>
<!-- Node19&#45;&gt;Node4 -->
<g id="edge21" class="edge">
<title>Node19&#45;&gt;Node4</title>
<path fill="none" stroke="midnightblue" d="M151.24,-56.32C141.23,-48.26 126.11,-36.08 114.07,-26.37"/>
<polygon fill="midnightblue" stroke="midnightblue" points="115.94,-23.38 105.96,-19.83 111.55,-28.83 115.94,-23.38"/>
</g>
<!-- Node19&#45;&gt;Node13 -->
<g id="edge24" class="edge">
<title>Node19&#45;&gt;Node13</title>
<path fill="none" stroke="midnightblue" d="M172.28,-56.32C181.84,-48.26 196.28,-36.08 207.78,-26.37"/>
<polygon fill="midnightblue" stroke="midnightblue" points="210.14,-28.96 215.53,-19.83 205.63,-23.61 210.14,-28.96"/>
</g>
<!-- Node19&#45;&gt;Node16 -->
<g id="edge20" class="edge">
<title>Node19&#45;&gt;Node16</title>
<path fill="none" stroke="midnightblue" d="M182.12,-56.44C203.02,-47.56 235.93,-33.56 259.72,-23.45"/>
<polygon fill="midnightblue" stroke="midnightblue" points="261.14,-26.65 268.97,-19.52 258.4,-20.21 261.14,-26.65"/>
</g>
<!-- Node20 -->
<g id="node20" class="node">
<title>Node20</title>
<g id="a_node20"><a xlink:title=" ">
<polygon fill="white" stroke="#bfbfbf" points="140,-0.5 140,-19.5 184,-19.5 184,-0.5 140,-0.5"/>
<text text-anchor="middle" x="162" y="-7.5" font-family="Helvetica,sans-Serif" font-size="10.00">string</text>
</a>
</g>
</g>
<!-- Node19&#45;&gt;Node20 -->
<g id="edge23" class="edge">
<title>Node19&#45;&gt;Node20</title>
<path fill="none" stroke="midnightblue" d="M162,-56.08C162,-49.01 162,-38.86 162,-29.99"/>
<polygon fill="midnightblue" stroke="midnightblue" points="165.5,-29.75 162,-19.75 158.5,-29.75 165.5,-29.75"/>
</g>
</g>
</svg>
