<?xml version="1.0" encoding="UTF-8" standalone="no"?>
<!DOCTYPE svg PUBLIC "-//W3C//DTD SVG 1.1//EN"
 "http://www.w3.org/Graphics/SVG/1.1/DTD/svg11.dtd">
<!-- Generated by graphviz version 2.43.0 (0)
 -->
<!-- Title: clients/redspy_temporal_client.cpp Pages: 1 -->
<svg width="2294pt" height="151pt"
 viewBox="0.00 0.00 2294.00 151.00" xmlns="http://www.w3.org/2000/svg" xmlns:xlink="http://www.w3.org/1999/xlink">
<g id="graph0" class="graph" transform="scale(1 1) rotate(0) translate(4 147)">
<title>clients/redspy_temporal_client.cpp</title>
<polygon fill="white" stroke="transparent" points="-4,4 -4,-147 2290,-147 2290,4 -4,4"/>
<!-- Node1 -->
<g id="node1" class="node">
<title>Node1</title>
<g id="a_node1"><a xlink:title=" ">
<polygon fill="#bfbfbf" stroke="black" points="907.5,-112.5 907.5,-142.5 1041.5,-142.5 1041.5,-112.5 907.5,-112.5"/>
<text text-anchor="start" x="915.5" y="-130.5" font-family="Helvetica,sans-Serif" font-size="10.00">clients/redspy_temporal</text>
<text text-anchor="middle" x="974.5" y="-119.5" font-family="Helvetica,sans-Serif" font-size="10.00">_client.cpp</text>
</a>
</g>
</g>
<!-- Node2 -->
<g id="node2" class="node">
<title>Node2</title>
<g id="a_node2"><a xlink:title=" ">
<polygon fill="white" stroke="#bfbfbf" points="365.5,-0.5 365.5,-19.5 415.5,-19.5 415.5,-0.5 365.5,-0.5"/>
<text text-anchor="middle" x="390.5" y="-7.5" font-family="Helvetica,sans-Serif" font-size="10.00">stdio.h</text>
</a>
</g>
</g>
<!-- Node1&#45;&gt;Node2 -->
<g id="edge1" class="edge">
<title>Node1&#45;&gt;Node2</title>
<path fill="none" stroke="midnightblue" d="M907.36,-125.12C764,-121.52 438,-109.7 401.5,-76 389.04,-64.49 387.32,-44.52 388.08,-29.74"/>
<polygon fill="midnightblue" stroke="midnightblue" points="391.57,-29.96 389.01,-19.68 384.6,-29.32 391.57,-29.96"/>
</g>
<!-- Node3 -->
<g id="node3" class="node">
<title>Node3</title>
<g id="a_node3"><a xlink:title=" ">
<polygon fill="white" stroke="#bfbfbf" points="0,-0.5 0,-19.5 53,-19.5 53,-0.5 0,-0.5"/>
<text text-anchor="middle" x="26.5" y="-7.5" font-family="Helvetica,sans-Serif" font-size="10.00">stdlib.h</text>
</a>
</g>
</g>
<!-- Node1&#45;&gt;Node3 -->
<g id="edge2" class="edge">
<title>Node1&#45;&gt;Node3</title>
<path fill="none" stroke="midnightblue" d="M907.31,-124.86C717.17,-119.89 184.28,-103.64 110.5,-76 82.86,-65.64 56.94,-42.82 41.4,-27.17"/>
<polygon fill="midnightblue" stroke="midnightblue" points="43.71,-24.53 34.26,-19.75 38.67,-29.38 43.71,-24.53"/>
</g>
<!-- Node4 -->
<g id="node4" class="node">
<title>Node4</title>
<g id="a_node4"><a xlink:title=" ">
<polygon fill="white" stroke="#bfbfbf" points="294,-0.5 294,-19.5 347,-19.5 347,-0.5 294,-0.5"/>
<text text-anchor="middle" x="320.5" y="-7.5" font-family="Helvetica,sans-Serif" font-size="10.00">stdint.h</text>
</a>
</g>
</g>
<!-- Node1&#45;&gt;Node4 -->
<g id="edge3" class="edge">
<title>Node1&#45;&gt;Node4</title>
<path fill="none" stroke="midnightblue" d="M907.26,-126.4C773.17,-125.28 477.58,-117.96 386.5,-76 363.54,-65.42 343.9,-43.34 332.15,-27.86"/>
<polygon fill="midnightblue" stroke="midnightblue" points="334.89,-25.68 326.18,-19.64 329.23,-29.79 334.89,-25.68"/>
</g>
<!-- Node5 -->
<g id="node5" class="node">
<title>Node5</title>
<g id="a_node5"><a xlink:title=" ">
<polygon fill="white" stroke="#bfbfbf" points="681,-56.5 681,-75.5 740,-75.5 740,-56.5 681,-56.5"/>
<text text-anchor="middle" x="710.5" y="-63.5" font-family="Helvetica,sans-Serif" font-size="10.00">malloc.h</text>
</a>
</g>
</g>
<!-- Node1&#45;&gt;Node5 -->
<g id="edge4" class="edge">
<title>Node1&#45;&gt;Node5</title>
<path fill="none" stroke="midnightblue" d="M911.44,-112.45C868.7,-102.91 810.66,-89.9 750.39,-76.19"/>
<polygon fill="midnightblue" stroke="midnightblue" points="750.83,-72.7 740.31,-73.9 749.28,-79.53 750.83,-72.7"/>
</g>
<!-- Node6 -->
<g id="node6" class="node">
<title>Node6</title>
<g id="a_node6"><a xlink:title=" ">
<polygon fill="white" stroke="#bfbfbf" points="758.5,-56.5 758.5,-75.5 818.5,-75.5 818.5,-56.5 758.5,-56.5"/>
<text text-anchor="middle" x="788.5" y="-63.5" font-family="Helvetica,sans-Serif" font-size="10.00">iostream</text>
</a>
</g>
</g>
<!-- Node1&#45;&gt;Node6 -->
<g id="edge5" class="edge">
<title>Node1&#45;&gt;Node6</title>
<path fill="none" stroke="midnightblue" d="M930.42,-112.4C898.28,-102.12 855.24,-88.35 825.02,-78.68"/>
<polygon fill="midnightblue" stroke="midnightblue" points="825.88,-75.28 815.29,-75.57 823.75,-81.95 825.88,-75.28"/>
</g>
<!-- Node7 -->
<g id="node7" class="node">
<title>Node7</title>
<g id="a_node7"><a xlink:title=" ">
<polygon fill="white" stroke="#bfbfbf" points="836.5,-56.5 836.5,-75.5 892.5,-75.5 892.5,-56.5 836.5,-56.5"/>
<text text-anchor="middle" x="864.5" y="-63.5" font-family="Helvetica,sans-Serif" font-size="10.00">unistd.h</text>
</a>
</g>
</g>
<!-- Node1&#45;&gt;Node7 -->
<g id="edge6" class="edge">
<title>Node1&#45;&gt;Node7</title>
<path fill="none" stroke="midnightblue" d="M948.43,-112.4C930.63,-102.77 907.19,-90.09 889.6,-80.58"/>
<polygon fill="midnightblue" stroke="midnightblue" points="890.97,-77.34 880.51,-75.66 887.64,-83.49 890.97,-77.34"/>
</g>
<!-- Node8 -->
<g id="node8" class="node">
<title>Node8</title>
<g id="a_node8"><a xlink:title=" ">
<polygon fill="white" stroke="#bfbfbf" points="910.5,-56.5 910.5,-75.5 966.5,-75.5 966.5,-56.5 910.5,-56.5"/>
<text text-anchor="middle" x="938.5" y="-63.5" font-family="Helvetica,sans-Serif" font-size="10.00">assert.h</text>
</a>
</g>
</g>
<!-- Node1&#45;&gt;Node8 -->
<g id="edge7" class="edge">
<title>Node1&#45;&gt;Node8</title>
<path fill="none" stroke="midnightblue" d="M965.97,-112.4C960.9,-104.02 954.43,-93.33 949.04,-84.42"/>
<polygon fill="midnightblue" stroke="midnightblue" points="951.91,-82.4 943.74,-75.66 945.92,-86.03 951.91,-82.4"/>
</g>
<!-- Node9 -->
<g id="node9" class="node">
<title>Node9</title>
<g id="a_node9"><a xlink:title=" ">
<polygon fill="white" stroke="#bfbfbf" points="985,-56.5 985,-75.5 1038,-75.5 1038,-56.5 985,-56.5"/>
<text text-anchor="middle" x="1011.5" y="-63.5" font-family="Helvetica,sans-Serif" font-size="10.00">string.h</text>
</a>
</g>
</g>
<!-- Node1&#45;&gt;Node9 -->
<g id="edge8" class="edge">
<title>Node1&#45;&gt;Node9</title>
<path fill="none" stroke="midnightblue" d="M983.27,-112.4C988.48,-104.02 995.13,-93.33 1000.67,-84.42"/>
<polygon fill="midnightblue" stroke="midnightblue" points="1003.81,-86 1006.12,-75.66 997.86,-82.3 1003.81,-86"/>
</g>
<!-- Node10 -->
<g id="node10" class="node">
<title>Node10</title>
<g id="a_node10"><a xlink:title=" ">
<polygon fill="white" stroke="#bfbfbf" points="199,-0.5 199,-19.5 276,-19.5 276,-0.5 199,-0.5"/>
<text text-anchor="middle" x="237.5" y="-7.5" font-family="Helvetica,sans-Serif" font-size="10.00">sys/mman.h</text>
</a>
</g>
</g>
<!-- Node1&#45;&gt;Node10 -->
<g id="edge9" class="edge">
<title>Node1&#45;&gt;Node10</title>
<path fill="none" stroke="midnightblue" d="M907.37,-124.61C768.97,-120.14 456.37,-106.86 354.5,-76 317.75,-64.87 279.7,-41.03 257.34,-25.52"/>
<polygon fill="midnightblue" stroke="midnightblue" points="259.21,-22.56 249.03,-19.64 255.17,-28.28 259.21,-22.56"/>
</g>
<!-- Node11 -->
<g id="node11" class="node">
<title>Node11</title>
<g id="a_node11"><a xlink:title=" ">
<polygon fill="white" stroke="#bfbfbf" points="1056.5,-56.5 1056.5,-75.5 1112.5,-75.5 1112.5,-56.5 1056.5,-56.5"/>
<text text-anchor="middle" x="1084.5" y="-63.5" font-family="Helvetica,sans-Serif" font-size="10.00">sstream</text>
</a>
</g>
</g>
<!-- Node1&#45;&gt;Node11 -->
<g id="edge10" class="edge">
<title>Node1&#45;&gt;Node11</title>
<path fill="none" stroke="midnightblue" d="M1000.57,-112.4C1018.37,-102.77 1041.81,-90.09 1059.4,-80.58"/>
<polygon fill="midnightblue" stroke="midnightblue" points="1061.36,-83.49 1068.49,-75.66 1058.03,-77.34 1061.36,-83.49"/>
</g>
<!-- Node12 -->
<g id="node12" class="node">
<title>Node12</title>
<g id="a_node12"><a xlink:title=" ">
<polygon fill="white" stroke="#bfbfbf" points="1131,-56.5 1131,-75.5 1196,-75.5 1196,-56.5 1131,-56.5"/>
<text text-anchor="middle" x="1163.5" y="-63.5" font-family="Helvetica,sans-Serif" font-size="10.00">functional</text>
</a>
</g>
</g>
<!-- Node1&#45;&gt;Node12 -->
<g id="edge11" class="edge">
<title>Node1&#45;&gt;Node12</title>
<path fill="none" stroke="midnightblue" d="M1019.29,-112.4C1051.95,-102.12 1095.68,-88.35 1126.39,-78.68"/>
<polygon fill="midnightblue" stroke="midnightblue" points="1127.79,-81.91 1136.27,-75.57 1125.69,-75.24 1127.79,-81.91"/>
</g>
<!-- Node13 -->
<g id="node13" class="node">
<title>Node13</title>
<g id="a_node13"><a xlink:title=" ">
<polygon fill="white" stroke="#bfbfbf" points="1214.5,-56.5 1214.5,-75.5 1300.5,-75.5 1300.5,-56.5 1214.5,-56.5"/>
<text text-anchor="middle" x="1257.5" y="-63.5" font-family="Helvetica,sans-Serif" font-size="10.00">unordered_set</text>
</a>
</g>
</g>
<!-- Node1&#45;&gt;Node13 -->
<g id="edge12" class="edge">
<title>Node1&#45;&gt;Node13</title>
<path fill="none" stroke="midnightblue" d="M1041.21,-112.47C1092.06,-101.78 1160.99,-87.29 1207.24,-77.57"/>
<polygon fill="midnightblue" stroke="midnightblue" points="1207.98,-80.99 1217.04,-75.51 1206.53,-74.14 1207.98,-80.99"/>
</g>
<!-- Node14 -->
<g id="node14" class="node">
<title>Node14</title>
<g id="a_node14"><a xlink:title=" ">
<polygon fill="white" stroke="#bfbfbf" points="496,-0.5 496,-19.5 543,-19.5 543,-0.5 496,-0.5"/>
<text text-anchor="middle" x="519.5" y="-7.5" font-family="Helvetica,sans-Serif" font-size="10.00">vector</text>
</a>
</g>
</g>
<!-- Node1&#45;&gt;Node14 -->
<g id="edge13" class="edge">
<title>Node1&#45;&gt;Node14</title>
<path fill="none" stroke="midnightblue" d="M907.13,-127.27C799.43,-127.13 595.04,-120.75 540.5,-76 526.91,-64.85 522.02,-44.82 520.31,-29.93"/>
<polygon fill="midnightblue" stroke="midnightblue" points="523.78,-29.49 519.53,-19.78 516.8,-30.02 523.78,-29.49"/>
</g>
<!-- Node15 -->
<g id="node15" class="node">
<title>Node15</title>
<g id="a_node15"><a xlink:title=" ">
<polygon fill="white" stroke="#bfbfbf" points="1319,-56.5 1319,-75.5 1412,-75.5 1412,-56.5 1319,-56.5"/>
<text text-anchor="middle" x="1365.5" y="-63.5" font-family="Helvetica,sans-Serif" font-size="10.00">unordered_map</text>
</a>
</g>
</g>
<!-- Node1&#45;&gt;Node15 -->
<g id="edge14" class="edge">
<title>Node1&#45;&gt;Node15</title>
<path fill="none" stroke="midnightblue" d="M1041.58,-116.58C1107.06,-106.86 1209.78,-91.49 1308.87,-76.09"/>
<polygon fill="midnightblue" stroke="midnightblue" points="1309.41,-79.54 1318.75,-74.55 1308.34,-72.63 1309.41,-79.54"/>
</g>
<!-- Node16 -->
<g id="node16" class="node">
<title>Node16</title>
<g id="a_node16"><a xlink:title=" ">
<polygon fill="white" stroke="#bfbfbf" points="1430.5,-56.5 1430.5,-75.5 1494.5,-75.5 1494.5,-56.5 1430.5,-56.5"/>
<text text-anchor="middle" x="1462.5" y="-63.5" font-family="Helvetica,sans-Serif" font-size="10.00">algorithm</text>
</a>
</g>
</g>
<!-- Node1&#45;&gt;Node16 -->
<g id="edge15" class="edge">
<title>Node1&#45;&gt;Node16</title>
<path fill="none" stroke="midnightblue" d="M1041.82,-121.08C1127.51,-113.7 1280.26,-98.91 1420.27,-76.05"/>
<polygon fill="midnightblue" stroke="midnightblue" points="1421.04,-79.47 1430.33,-74.39 1419.9,-72.57 1421.04,-79.47"/>
</g>
<!-- Node17 -->
<g id="node17" class="node">
<title>Node17</title>
<g id="a_node17"><a xlink:title=" ">
<polygon fill="white" stroke="#bfbfbf" points="1512.5,-56.5 1512.5,-75.5 1544.5,-75.5 1544.5,-56.5 1512.5,-56.5"/>
<text text-anchor="middle" x="1528.5" y="-63.5" font-family="Helvetica,sans-Serif" font-size="10.00">list</text>
</a>
</g>
</g>
<!-- Node1&#45;&gt;Node17 -->
<g id="edge16" class="edge">
<title>Node1&#45;&gt;Node17</title>
<path fill="none" stroke="midnightblue" d="M1041.73,-125.45C1141.11,-122.71 1332.85,-112.93 1502.42,-75.7"/>
<polygon fill="midnightblue" stroke="midnightblue" points="1503.27,-79.1 1512.27,-73.5 1501.75,-72.27 1503.27,-79.1"/>
</g>
<!-- Node18 -->
<g id="node18" class="node">
<title>Node18</title>
<g id="a_node18"><a xlink:title=" ">
<polygon fill="white" stroke="#bfbfbf" points="561.5,-0.5 561.5,-19.5 603.5,-19.5 603.5,-0.5 561.5,-0.5"/>
<text text-anchor="middle" x="582.5" y="-7.5" font-family="Helvetica,sans-Serif" font-size="10.00">pin.H</text>
</a>
</g>
</g>
<!-- Node1&#45;&gt;Node18 -->
<g id="edge17" class="edge">
<title>Node1&#45;&gt;Node18</title>
<path fill="none" stroke="midnightblue" d="M907.2,-123.33C793.35,-117.27 572.81,-102.25 549.5,-76 536.59,-61.47 551.05,-40.98 564.68,-26.91"/>
<polygon fill="midnightblue" stroke="midnightblue" points="567.24,-29.31 571.99,-19.84 562.37,-24.28 567.24,-29.31"/>
</g>
<!-- Node19 -->
<g id="node19" class="node">
<title>Node19</title>
<g id="a_node19"><a xlink:href="pin__isa__compat_8H.html" target="_top" xlink:title=" ">
<polygon fill="white" stroke="black" points="558.5,-56.5 558.5,-75.5 662.5,-75.5 662.5,-56.5 558.5,-56.5"/>
<text text-anchor="middle" x="610.5" y="-63.5" font-family="Helvetica,sans-Serif" font-size="10.00">pin_isa_compat.H</text>
</a>
</g>
</g>
<!-- Node1&#45;&gt;Node19 -->
<g id="edge18" class="edge">
<title>Node1&#45;&gt;Node19</title>
<path fill="none" stroke="midnightblue" d="M907.31,-115.52C840.24,-104.55 737.99,-87.84 672.72,-77.17"/>
<polygon fill="midnightblue" stroke="midnightblue" points="673.01,-73.67 662.57,-75.51 671.88,-80.58 673.01,-73.67"/>
</g>
<!-- Node21 -->
<g id="node21" class="node">
<title>Node21</title>
<g id="a_node21"><a xlink:href="cctlib_8H.html" target="_top" xlink:title=" ">
<polygon fill="white" stroke="black" points="411,-56.5 411,-75.5 464,-75.5 464,-56.5 411,-56.5"/>
<text text-anchor="middle" x="437.5" y="-63.5" font-family="Helvetica,sans-Serif" font-size="10.00">cctlib.H</text>
</a>
</g>
</g>
<!-- Node1&#45;&gt;Node21 -->
<g id="edge21" class="edge">
<title>Node1&#45;&gt;Node21</title>
<path fill="none" stroke="midnightblue" d="M907.19,-122.11C811.51,-115.3 630.85,-100.39 478.5,-76 477.2,-75.79 475.89,-75.57 474.56,-75.33"/>
<polygon fill="midnightblue" stroke="midnightblue" points="474.81,-71.82 464.32,-73.35 473.47,-78.69 474.81,-71.82"/>
</g>
<!-- Node23 -->
<g id="node23" class="node">
<title>Node23</title>
<g id="a_node23"><a xlink:href="shadow__memory_8H.html" target="_top" xlink:title=" ">
<polygon fill="white" stroke="black" points="119.5,-56.5 119.5,-75.5 229.5,-75.5 229.5,-56.5 119.5,-56.5"/>
<text text-anchor="middle" x="174.5" y="-63.5" font-family="Helvetica,sans-Serif" font-size="10.00">shadow_memory.H</text>
</a>
</g>
</g>
<!-- Node1&#45;&gt;Node23 -->
<g id="edge27" class="edge">
<title>Node1&#45;&gt;Node23</title>
<path fill="none" stroke="midnightblue" d="M907.21,-122.61C780.13,-115.07 496.14,-97.33 257.5,-76 251.77,-75.49 245.81,-74.92 239.85,-74.32"/>
<polygon fill="midnightblue" stroke="midnightblue" points="240.14,-70.83 229.83,-73.29 239.42,-77.79 240.14,-70.83"/>
</g>
<!-- Node26 -->
<g id="node26" class="node">
<title>Node26</title>
<g id="a_node26"><a xlink:title=" ">
<polygon fill="white" stroke="#bfbfbf" points="1563,-56.5 1563,-75.5 1640,-75.5 1640,-56.5 1563,-56.5"/>
<text text-anchor="middle" x="1601.5" y="-63.5" font-family="Helvetica,sans-Serif" font-size="10.00">xmmintrin.h</text>
</a>
</g>
</g>
<!-- Node1&#45;&gt;Node26 -->
<g id="edge33" class="edge">
<title>Node1&#45;&gt;Node26</title>
<path fill="none" stroke="midnightblue" d="M1041.61,-122.8C1147.88,-116.46 1361.59,-101.79 1552.83,-75.96"/>
<polygon fill="midnightblue" stroke="midnightblue" points="1553.35,-79.42 1562.78,-74.6 1552.4,-72.48 1553.35,-79.42"/>
</g>
<!-- Node27 -->
<g id="node27" class="node">
<title>Node27</title>
<g id="a_node27"><a xlink:title=" ">
<polygon fill="white" stroke="#bfbfbf" points="1658.5,-56.5 1658.5,-75.5 1732.5,-75.5 1732.5,-56.5 1658.5,-56.5"/>
<text text-anchor="middle" x="1695.5" y="-63.5" font-family="Helvetica,sans-Serif" font-size="10.00">immintrin.h</text>
</a>
</g>
</g>
<!-- Node1&#45;&gt;Node27 -->
<g id="edge34" class="edge">
<title>Node1&#45;&gt;Node27</title>
<path fill="none" stroke="midnightblue" d="M1041.84,-124.11C1161.8,-119.26 1420.5,-106.21 1648.27,-76.01"/>
<polygon fill="midnightblue" stroke="midnightblue" points="1648.96,-79.45 1658.41,-74.65 1648.03,-72.51 1648.96,-79.45"/>
</g>
<!-- Node28 -->
<g id="node28" class="node">
<title>Node28</title>
<g id="a_node28"><a xlink:title=" ">
<polygon fill="white" stroke="#bfbfbf" points="1750.5,-56.5 1750.5,-75.5 1840.5,-75.5 1840.5,-56.5 1750.5,-56.5"/>
<text text-anchor="middle" x="1795.5" y="-63.5" font-family="Helvetica,sans-Serif" font-size="10.00">xed&#45;interface.h</text>
</a>
</g>
</g>
<!-- Node1&#45;&gt;Node28 -->
<g id="edge35" class="edge">
<title>Node1&#45;&gt;Node28</title>
<path fill="none" stroke="midnightblue" d="M1041.65,-124.32C1173.58,-119.56 1476.03,-106.22 1740.29,-76.02"/>
<polygon fill="midnightblue" stroke="midnightblue" points="1740.93,-79.47 1750.47,-74.85 1740.13,-72.52 1740.93,-79.47"/>
</g>
<!-- Node29 -->
<g id="node29" class="node">
<title>Node29</title>
<g id="a_node29"><a xlink:title=" ">
<polygon fill="white" stroke="#bfbfbf" points="1858.5,-56.5 1858.5,-75.5 1972.5,-75.5 1972.5,-56.5 1858.5,-56.5"/>
<text text-anchor="middle" x="1915.5" y="-63.5" font-family="Helvetica,sans-Serif" font-size="10.00">xed&#45;common&#45;hdrs.h</text>
</a>
</g>
</g>
<!-- Node1&#45;&gt;Node29 -->
<g id="edge36" class="edge">
<title>Node1&#45;&gt;Node29</title>
<path fill="none" stroke="midnightblue" d="M1041.6,-124.41C1186.8,-119.5 1541.14,-105.44 1848.31,-76.04"/>
<polygon fill="midnightblue" stroke="midnightblue" points="1848.68,-79.52 1858.29,-75.08 1848,-72.55 1848.68,-79.52"/>
</g>
<!-- Node30 -->
<g id="node30" class="node">
<title>Node30</title>
<g id="a_node30"><a xlink:title=" ">
<polygon fill="white" stroke="#bfbfbf" points="1990.5,-56.5 1990.5,-75.5 2130.5,-75.5 2130.5,-56.5 1990.5,-56.5"/>
<text text-anchor="middle" x="2060.5" y="-63.5" font-family="Helvetica,sans-Serif" font-size="10.00">google/sparse_hash_map</text>
</a>
</g>
</g>
<!-- Node1&#45;&gt;Node30 -->
<g id="edge37" class="edge">
<title>Node1&#45;&gt;Node30</title>
<path fill="none" stroke="midnightblue" d="M1041.77,-124.6C1202.25,-119.75 1620.36,-105.23 1980.22,-76.05"/>
<polygon fill="midnightblue" stroke="midnightblue" points="1980.63,-79.53 1990.31,-75.23 1980.06,-72.55 1980.63,-79.53"/>
</g>
<!-- Node31 -->
<g id="node31" class="node">
<title>Node31</title>
<g id="a_node31"><a xlink:title=" ">
<polygon fill="white" stroke="#bfbfbf" points="2149,-56.5 2149,-75.5 2286,-75.5 2286,-56.5 2149,-56.5"/>
<text text-anchor="middle" x="2217.5" y="-63.5" font-family="Helvetica,sans-Serif" font-size="10.00">google/dense_hash_map</text>
</a>
</g>
</g>
<!-- Node1&#45;&gt;Node31 -->
<g id="edge38" class="edge">
<title>Node1&#45;&gt;Node31</title>
<path fill="none" stroke="midnightblue" d="M1041.58,-125.27C1218.91,-121.66 1714.92,-109.23 2138.63,-76.01"/>
<polygon fill="midnightblue" stroke="midnightblue" points="2138.93,-79.49 2148.62,-75.22 2138.38,-72.52 2138.93,-79.49"/>
</g>
<!-- Node19&#45;&gt;Node18 -->
<g id="edge19" class="edge">
<title>Node19&#45;&gt;Node18</title>
<path fill="none" stroke="midnightblue" d="M605.88,-56.08C602.04,-48.69 596.48,-37.95 591.74,-28.81"/>
<polygon fill="midnightblue" stroke="midnightblue" points="594.75,-27.02 587.04,-19.75 588.53,-30.24 594.75,-27.02"/>
</g>
<!-- Node20 -->
<g id="node20" class="node">
<title>Node20</title>
<g id="a_node20"><a xlink:title=" ">
<polygon fill="white" stroke="#bfbfbf" points="622,-0.5 622,-19.5 717,-19.5 717,-0.5 622,-0.5"/>
<text text-anchor="middle" x="669.5" y="-7.5" font-family="Helvetica,sans-Serif" font-size="10.00">regvalue_utils.h</text>
</a>
</g>
</g>
<!-- Node19&#45;&gt;Node20 -->
<g id="edge20" class="edge">
<title>Node19&#45;&gt;Node20</title>
<path fill="none" stroke="midnightblue" d="M619.98,-56.32C628.7,-48.34 641.84,-36.31 652.4,-26.65"/>
<polygon fill="midnightblue" stroke="midnightblue" points="654.83,-29.17 659.85,-19.83 650.11,-24 654.83,-29.17"/>
</g>
<!-- Node21&#45;&gt;Node2 -->
<g id="edge24" class="edge">
<title>Node21&#45;&gt;Node2</title>
<path fill="none" stroke="midnightblue" d="M429.74,-56.08C422.96,-48.3 412.96,-36.8 404.74,-27.37"/>
<polygon fill="midnightblue" stroke="midnightblue" points="407.32,-25 398.12,-19.75 402.04,-29.59 407.32,-25"/>
</g>
<!-- Node21&#45;&gt;Node4 -->
<g id="edge23" class="edge">
<title>Node21&#45;&gt;Node4</title>
<path fill="none" stroke="midnightblue" d="M418.96,-56.44C399.88,-47.64 369.93,-33.81 348.06,-23.72"/>
<polygon fill="midnightblue" stroke="midnightblue" points="349.5,-20.53 338.95,-19.52 346.57,-26.88 349.5,-20.53"/>
</g>
<!-- Node21&#45;&gt;Node14 -->
<g id="edge26" class="edge">
<title>Node21&#45;&gt;Node14</title>
<path fill="none" stroke="midnightblue" d="M450.67,-56.32C463.35,-47.98 482.73,-35.21 497.71,-25.35"/>
<polygon fill="midnightblue" stroke="midnightblue" points="499.93,-28.08 506.36,-19.65 496.08,-22.23 499.93,-28.08"/>
</g>
<!-- Node21&#45;&gt;Node18 -->
<g id="edge22" class="edge">
<title>Node21&#45;&gt;Node18</title>
<path fill="none" stroke="midnightblue" d="M460.48,-56.44C485.08,-47.28 524.27,-32.68 551.58,-22.52"/>
<polygon fill="midnightblue" stroke="midnightblue" points="552.9,-25.76 561.05,-18.99 550.46,-19.2 552.9,-25.76"/>
</g>
<!-- Node22 -->
<g id="node22" class="node">
<title>Node22</title>
<g id="a_node22"><a xlink:title=" ">
<polygon fill="white" stroke="#bfbfbf" points="433.5,-0.5 433.5,-19.5 477.5,-19.5 477.5,-0.5 433.5,-0.5"/>
<text text-anchor="middle" x="455.5" y="-7.5" font-family="Helvetica,sans-Serif" font-size="10.00">string</text>
</a>
</g>
</g>
<!-- Node21&#45;&gt;Node22 -->
<g id="edge25" class="edge">
<title>Node21&#45;&gt;Node22</title>
<path fill="none" stroke="midnightblue" d="M440.47,-56.08C442.88,-48.85 446.36,-38.41 449.37,-29.4"/>
<polygon fill="midnightblue" stroke="midnightblue" points="452.74,-30.34 452.58,-19.75 446.1,-28.13 452.74,-30.34"/>
</g>
<!-- Node23&#45;&gt;Node3 -->
<g id="edge30" class="edge">
<title>Node23&#45;&gt;Node3</title>
<path fill="none" stroke="midnightblue" d="M151.05,-56.44C126.37,-47.44 87.31,-33.19 59.52,-23.05"/>
<polygon fill="midnightblue" stroke="midnightblue" points="60.44,-19.66 49.84,-19.52 58.04,-26.23 60.44,-19.66"/>
</g>
<!-- Node23&#45;&gt;Node4 -->
<g id="edge28" class="edge">
<title>Node23&#45;&gt;Node4</title>
<path fill="none" stroke="midnightblue" d="M197.63,-56.44C221.98,-47.44 260.51,-33.19 287.92,-23.05"/>
<polygon fill="midnightblue" stroke="midnightblue" points="289.31,-26.27 297.47,-19.52 286.88,-19.7 289.31,-26.27"/>
</g>
<!-- Node23&#45;&gt;Node10 -->
<g id="edge31" class="edge">
<title>Node23&#45;&gt;Node10</title>
<path fill="none" stroke="midnightblue" d="M184.62,-56.32C194.03,-48.26 208.24,-36.08 219.57,-26.37"/>
<polygon fill="midnightblue" stroke="midnightblue" points="221.88,-29 227.19,-19.83 217.32,-23.68 221.88,-29"/>
</g>
<!-- Node24 -->
<g id="node24" class="node">
<title>Node24</title>
<g id="a_node24"><a xlink:title=" ">
<polygon fill="white" stroke="#bfbfbf" points="71.5,-0.5 71.5,-19.5 121.5,-19.5 121.5,-0.5 71.5,-0.5"/>
<text text-anchor="middle" x="96.5" y="-7.5" font-family="Helvetica,sans-Serif" font-size="10.00">atomic</text>
</a>
</g>
</g>
<!-- Node23&#45;&gt;Node24 -->
<g id="edge29" class="edge">
<title>Node23&#45;&gt;Node24</title>
<path fill="none" stroke="midnightblue" d="M161.97,-56.32C149.91,-47.98 131.47,-35.21 117.23,-25.35"/>
<polygon fill="midnightblue" stroke="midnightblue" points="119.22,-22.47 109,-19.65 115.23,-28.22 119.22,-22.47"/>
</g>
<!-- Node25 -->
<g id="node25" class="node">
<title>Node25</title>
<g id="a_node25"><a xlink:title=" ">
<polygon fill="white" stroke="#bfbfbf" points="140,-0.5 140,-19.5 181,-19.5 181,-0.5 140,-0.5"/>
<text text-anchor="middle" x="160.5" y="-7.5" font-family="Helvetica,sans-Serif" font-size="10.00">tuple</text>
</a>
</g>
</g>
<!-- Node23&#45;&gt;Node25 -->
<g id="edge32" class="edge">
<title>Node23&#45;&gt;Node25</title>
<path fill="none" stroke="midnightblue" d="M172.19,-56.08C170.33,-48.93 167.66,-38.64 165.35,-29.69"/>
<polygon fill="midnightblue" stroke="midnightblue" points="168.67,-28.55 162.77,-19.75 161.89,-30.31 168.67,-28.55"/>
</g>
</g>
</svg>
