<?xml version="1.0" encoding="UTF-8" standalone="no"?>
<!DOCTYPE svg PUBLIC "-//W3C//DTD SVG 1.1//EN"
 "http://www.w3.org/Graphics/SVG/1.1/DTD/svg11.dtd">
<!-- Generated by graphviz version 2.43.0 (0)
 -->
<!-- Title: clients/runtime_value_numbering_client.cpp Pages: 1 -->
<!--zoomable 151 -->
<svg id="main" version="1.1" xmlns="http://www.w3.org/2000/svg" xmlns:xlink="http://www.w3.org/1999/xlink" xml:space="preserve" onload="init(evt)">
<style type="text/css"><![CDATA[
.edge:hover path { stroke: red; }
.edge:hover polygon { stroke: red; fill: red; }
]]></style>
<script type="text/javascript"><![CDATA[
var edges = document.getElementsByTagName('g');
if (edges && edges.length) {
  for (var i=0;i<edges.length;i++) {
    if (edges[i].id.substr(0,4)=='edge') {
      edges[i].setAttribute('class','edge');
    }
  }
}
]]></script>
        <defs>
                <circle id="rim" cx="0" cy="0" r="7"/>
                <circle id="rim2" cx="0" cy="0" r="3.5"/>
                <g id="zoomPlus">
                        <use xlink:href="#rim" fill="#404040">
                                <set attributeName="fill" to="#808080" begin="zoomplus.mouseover" end="zoomplus.mouseout"/>
                        </use>
                        <path d="M-4,0h8M0,-4v8" fill="none" stroke="white" stroke-width="1.5" pointer-events="none"/>
                </g>
                <g id="zoomMin">
                        <use xlink:href="#rim" fill="#404040">
                                <set attributeName="fill" to="#808080" begin="zoomminus.mouseover" end="zoomminus.mouseout"/>
                        </use>
                        <path d="M-4,0h8" fill="none" stroke="white" stroke-width="1.5" pointer-events="none"/>
                </g>
                <g id="dirArrow">
                        <path fill="none" stroke="white" stroke-width="1.5" d="M0,-3.0v7 M-2.5,-0.5L0,-3.0L2.5,-0.5"/>
                </g>
               <g id="resetDef">
                       <use xlink:href="#rim2" fill="#404040">
                               <set attributeName="fill" to="#808080" begin="reset.mouseover" end="reset.mouseout"/>
                       </use>
               </g>
        </defs>

<script type="text/javascript">
var viewWidth = 2463;
var viewHeight = 151;
var sectionId = 'dynsection-0';
</script>
<script xlink:href="svgpan.js"/>
<svg id="graph" class="graph">
<g id="viewport">
<title>clients/runtime_value_numbering_client.cpp</title>
<polygon fill="white" stroke="transparent" points="-4,4 -4,-147 2459,-147 2459,4 -4,4"/>
<!-- Node1 -->
<g id="node1" class="node">
<title>Node1</title>
<g id="a_node1"><a xlink:title=" ">
<polygon fill="#bfbfbf" stroke="black" points="1060,-112.5 1060,-142.5 1187,-142.5 1187,-112.5 1060,-112.5"/>
<text text-anchor="start" x="1068" y="-130.5" font-family="Helvetica,sans-Serif" font-size="10.00">clients/runtime_value</text>
<text text-anchor="middle" x="1123.5" y="-119.5" font-family="Helvetica,sans-Serif" font-size="10.00">_numbering_client.cpp</text>
</a>
</g>
</g>
<!-- Node2 -->
<g id="node2" class="node">
<title>Node2</title>
<g id="a_node2"><a xlink:title=" ">
<polygon fill="white" stroke="#bfbfbf" points="173.5,-0.5 173.5,-19.5 223.5,-19.5 223.5,-0.5 173.5,-0.5"/>
<text text-anchor="middle" x="198.5" y="-7.5" font-family="Helvetica,sans-Serif" font-size="10.00">stdio.h</text>
</a>
</g>
</g>
<!-- Node1&#45;&gt;Node2 -->
<g id="edge1" class="edge">
<title>Node1&#45;&gt;Node2</title>
<path fill="none" stroke="midnightblue" d="M1059.85,-126.86C865.78,-127.44 290.65,-124.94 223.5,-76 209.02,-65.44 202.93,-45.32 200.36,-30.25"/>
<polygon fill="midnightblue" stroke="midnightblue" points="203.78,-29.41 199.01,-19.95 196.84,-30.32 203.78,-29.41"/>
</g>
<!-- Node3 -->
<g id="node3" class="node">
<title>Node3</title>
<g id="a_node3"><a xlink:title=" ">
<polygon fill="white" stroke="#bfbfbf" points="342,-56.5 342,-75.5 395,-75.5 395,-56.5 342,-56.5"/>
<text text-anchor="middle" x="368.5" y="-63.5" font-family="Helvetica,sans-Serif" font-size="10.00">stdlib.h</text>
</a>
</g>
</g>
<!-- Node1&#45;&gt;Node3 -->
<g id="edge2" class="edge">
<title>Node1&#45;&gt;Node3</title>
<path fill="none" stroke="midnightblue" d="M1059.6,-125.75C935.26,-123.48 652.13,-114.34 405.37,-75.83"/>
<polygon fill="midnightblue" stroke="midnightblue" points="405.55,-72.31 395.13,-74.21 404.46,-79.23 405.55,-72.31"/>
</g>
<!-- Node4 -->
<g id="node4" class="node">
<title>Node4</title>
<g id="a_node4"><a xlink:title=" ">
<polygon fill="white" stroke="#bfbfbf" points="113.5,-0.5 113.5,-19.5 155.5,-19.5 155.5,-0.5 113.5,-0.5"/>
<text text-anchor="middle" x="134.5" y="-7.5" font-family="Helvetica,sans-Serif" font-size="10.00">pin.H</text>
</a>
</g>
</g>
<!-- Node1&#45;&gt;Node4 -->
<g id="edge3" class="edge">
<title>Node1&#45;&gt;Node4</title>
<path fill="none" stroke="midnightblue" d="M1059.68,-125.5C864.27,-122.07 282.63,-109.18 204.5,-76 180.51,-65.81 159.59,-43.64 147.02,-28.03"/>
<polygon fill="midnightblue" stroke="midnightblue" points="149.5,-25.52 140.62,-19.74 143.96,-29.8 149.5,-25.52"/>
</g>
<!-- Node5 -->
<g id="node5" class="node">
<title>Node5</title>
<g id="a_node5"><a xlink:href="pin__isa__compat_8H.html" target="_top" xlink:title=" ">
<polygon fill="white" stroke="black" points="33.5,-56.5 33.5,-75.5 137.5,-75.5 137.5,-56.5 33.5,-56.5"/>
<text text-anchor="middle" x="85.5" y="-63.5" font-family="Helvetica,sans-Serif" font-size="10.00">pin_isa_compat.H</text>
</a>
</g>
</g>
<!-- Node1&#45;&gt;Node5 -->
<g id="edge4" class="edge">
<title>Node1&#45;&gt;Node5</title>
<path fill="none" stroke="midnightblue" d="M1059.97,-125.04C904.61,-121.06 493.23,-108.12 151.5,-76 150.24,-75.88 148.96,-75.76 147.68,-75.63"/>
<polygon fill="midnightblue" stroke="midnightblue" points="148.02,-72.14 137.69,-74.53 147.25,-79.1 148.02,-72.14"/>
</g>
<!-- Node7 -->
<g id="node7" class="node">
<title>Node7</title>
<g id="a_node7"><a xlink:title=" ">
<polygon fill="white" stroke="#bfbfbf" points="413.5,-56.5 413.5,-75.5 451.5,-75.5 451.5,-56.5 413.5,-56.5"/>
<text text-anchor="middle" x="432.5" y="-63.5" font-family="Helvetica,sans-Serif" font-size="10.00">map</text>
</a>
</g>
</g>
<!-- Node1&#45;&gt;Node7 -->
<g id="edge7" class="edge">
<title>Node1&#45;&gt;Node7</title>
<path fill="none" stroke="midnightblue" d="M1059.9,-126.38C941.2,-125.1 678.32,-117.37 461.5,-76 461.4,-75.98 461.3,-75.96 461.2,-75.94"/>
<polygon fill="midnightblue" stroke="midnightblue" points="462.23,-72.59 451.69,-73.62 460.57,-79.39 462.23,-72.59"/>
</g>
<!-- Node8 -->
<g id="node8" class="node">
<title>Node8</title>
<g id="a_node8"><a xlink:title=" ">
<polygon fill="white" stroke="#bfbfbf" points="470,-56.5 470,-75.5 563,-75.5 563,-56.5 470,-56.5"/>
<text text-anchor="middle" x="516.5" y="-63.5" font-family="Helvetica,sans-Serif" font-size="10.00">unordered_map</text>
</a>
</g>
</g>
<!-- Node1&#45;&gt;Node8 -->
<g id="edge8" class="edge">
<title>Node1&#45;&gt;Node8</title>
<path fill="none" stroke="midnightblue" d="M1059.71,-122.07C958.78,-114.74 755.84,-98.75 573.27,-76.01"/>
<polygon fill="midnightblue" stroke="midnightblue" points="573.57,-72.52 563.22,-74.75 572.7,-79.47 573.57,-72.52"/>
</g>
<!-- Node9 -->
<g id="node9" class="node">
<title>Node9</title>
<g id="a_node9"><a xlink:title=" ">
<polygon fill="white" stroke="#bfbfbf" points="581.5,-56.5 581.5,-75.5 613.5,-75.5 613.5,-56.5 581.5,-56.5"/>
<text text-anchor="middle" x="597.5" y="-63.5" font-family="Helvetica,sans-Serif" font-size="10.00">list</text>
</a>
</g>
</g>
<!-- Node1&#45;&gt;Node9 -->
<g id="edge9" class="edge">
<title>Node1&#45;&gt;Node9</title>
<path fill="none" stroke="midnightblue" d="M1059.82,-125.06C965.85,-121.85 784.65,-111.48 623.81,-75.77"/>
<polygon fill="midnightblue" stroke="midnightblue" points="624.26,-72.28 613.74,-73.49 622.72,-79.11 624.26,-72.28"/>
</g>
<!-- Node10 -->
<g id="node10" class="node">
<title>Node10</title>
<g id="a_node10"><a xlink:title=" ">
<polygon fill="white" stroke="#bfbfbf" points="369,-0.5 369,-19.5 422,-19.5 422,-0.5 369,-0.5"/>
<text text-anchor="middle" x="395.5" y="-7.5" font-family="Helvetica,sans-Serif" font-size="10.00">stdint.h</text>
</a>
</g>
</g>
<!-- Node1&#45;&gt;Node10 -->
<g id="edge10" class="edge">
<title>Node1&#45;&gt;Node10</title>
<path fill="none" stroke="midnightblue" d="M1059.85,-124.78C876.43,-119.52 358.24,-102.37 333.5,-76 316.64,-58.03 344.22,-37.48 367.8,-24.38"/>
<polygon fill="midnightblue" stroke="midnightblue" points="369.66,-27.35 376.86,-19.58 366.39,-21.16 369.66,-27.35"/>
</g>
<!-- Node11 -->
<g id="node11" class="node">
<title>Node11</title>
<g id="a_node11"><a xlink:title=" ">
<polygon fill="white" stroke="#bfbfbf" points="631.5,-56.5 631.5,-75.5 703.5,-75.5 703.5,-56.5 631.5,-56.5"/>
<text text-anchor="middle" x="667.5" y="-63.5" font-family="Helvetica,sans-Serif" font-size="10.00">sys/types.h</text>
</a>
</g>
</g>
<!-- Node1&#45;&gt;Node11 -->
<g id="edge11" class="edge">
<title>Node1&#45;&gt;Node11</title>
<path fill="none" stroke="midnightblue" d="M1059.74,-120.06C978.94,-111.57 835.5,-95.42 713.5,-76 713.4,-75.98 713.3,-75.97 713.2,-75.95"/>
<polygon fill="midnightblue" stroke="midnightblue" points="714.06,-72.55 703.62,-74.32 712.88,-79.45 714.06,-72.55"/>
</g>
<!-- Node12 -->
<g id="node12" class="node">
<title>Node12</title>
<g id="a_node12"><a xlink:title=" ">
<polygon fill="white" stroke="#bfbfbf" points="722,-56.5 722,-75.5 781,-75.5 781,-56.5 722,-56.5"/>
<text text-anchor="middle" x="751.5" y="-63.5" font-family="Helvetica,sans-Serif" font-size="10.00">sys/ipc.h</text>
</a>
</g>
</g>
<!-- Node1&#45;&gt;Node12 -->
<g id="edge12" class="edge">
<title>Node1&#45;&gt;Node12</title>
<path fill="none" stroke="midnightblue" d="M1059.73,-118.3C994.68,-109.61 890.66,-94.79 791.18,-76"/>
<polygon fill="midnightblue" stroke="midnightblue" points="791.74,-72.55 781.26,-74.11 790.43,-79.42 791.74,-72.55"/>
</g>
<!-- Node13 -->
<g id="node13" class="node">
<title>Node13</title>
<g id="a_node13"><a xlink:title=" ">
<polygon fill="white" stroke="#bfbfbf" points="799.5,-56.5 799.5,-75.5 865.5,-75.5 865.5,-56.5 799.5,-56.5"/>
<text text-anchor="middle" x="832.5" y="-63.5" font-family="Helvetica,sans-Serif" font-size="10.00">sys/shm.h</text>
</a>
</g>
</g>
<!-- Node1&#45;&gt;Node13 -->
<g id="edge13" class="edge">
<title>Node1&#45;&gt;Node13</title>
<path fill="none" stroke="midnightblue" d="M1059.75,-113.77C1011.78,-104.15 944.14,-90.48 875.62,-76.22"/>
<polygon fill="midnightblue" stroke="midnightblue" points="876.01,-72.72 865.51,-74.11 874.58,-79.58 876.01,-72.72"/>
</g>
<!-- Node14 -->
<g id="node14" class="node">
<title>Node14</title>
<g id="a_node14"><a xlink:title=" ">
<polygon fill="white" stroke="#bfbfbf" points="883.5,-56.5 883.5,-75.5 963.5,-75.5 963.5,-56.5 883.5,-56.5"/>
<text text-anchor="middle" x="923.5" y="-63.5" font-family="Helvetica,sans-Serif" font-size="10.00">semaphore.h</text>
</a>
</g>
</g>
<!-- Node1&#45;&gt;Node14 -->
<g id="edge14" class="edge">
<title>Node1&#45;&gt;Node14</title>
<path fill="none" stroke="midnightblue" d="M1076.36,-112.47C1041.4,-102.08 994.35,-88.08 961.73,-78.37"/>
<polygon fill="midnightblue" stroke="midnightblue" points="962.68,-75 952.09,-75.51 960.68,-81.71 962.68,-75"/>
</g>
<!-- Node15 -->
<g id="node15" class="node">
<title>Node15</title>
<g id="a_node15"><a xlink:title=" ">
<polygon fill="white" stroke="#bfbfbf" points="981.5,-56.5 981.5,-75.5 1045.5,-75.5 1045.5,-56.5 981.5,-56.5"/>
<text text-anchor="middle" x="1013.5" y="-63.5" font-family="Helvetica,sans-Serif" font-size="10.00">sys/stat.h</text>
</a>
</g>
</g>
<!-- Node1&#45;&gt;Node15 -->
<g id="edge15" class="edge">
<title>Node1&#45;&gt;Node15</title>
<path fill="none" stroke="midnightblue" d="M1097.43,-112.4C1079.63,-102.77 1056.19,-90.09 1038.6,-80.58"/>
<polygon fill="midnightblue" stroke="midnightblue" points="1039.97,-77.34 1029.51,-75.66 1036.64,-83.49 1039.97,-77.34"/>
</g>
<!-- Node16 -->
<g id="node16" class="node">
<title>Node16</title>
<g id="a_node16"><a xlink:title=" ">
<polygon fill="white" stroke="#bfbfbf" points="1064,-56.5 1064,-75.5 1111,-75.5 1111,-56.5 1064,-56.5"/>
<text text-anchor="middle" x="1087.5" y="-63.5" font-family="Helvetica,sans-Serif" font-size="10.00">fcntl.h</text>
</a>
</g>
</g>
<!-- Node1&#45;&gt;Node16 -->
<g id="edge16" class="edge">
<title>Node1&#45;&gt;Node16</title>
<path fill="none" stroke="midnightblue" d="M1114.97,-112.4C1109.9,-104.02 1103.43,-93.33 1098.04,-84.42"/>
<polygon fill="midnightblue" stroke="midnightblue" points="1100.91,-82.4 1092.74,-75.66 1094.92,-86.03 1100.91,-82.4"/>
</g>
<!-- Node17 -->
<g id="node17" class="node">
<title>Node17</title>
<g id="a_node17"><a xlink:title=" ">
<polygon fill="white" stroke="#bfbfbf" points="1129.5,-56.5 1129.5,-75.5 1189.5,-75.5 1189.5,-56.5 1129.5,-56.5"/>
<text text-anchor="middle" x="1159.5" y="-63.5" font-family="Helvetica,sans-Serif" font-size="10.00">iostream</text>
</a>
</g>
</g>
<!-- Node1&#45;&gt;Node17 -->
<g id="edge17" class="edge">
<title>Node1&#45;&gt;Node17</title>
<path fill="none" stroke="midnightblue" d="M1132.03,-112.4C1137.1,-104.02 1143.57,-93.33 1148.96,-84.42"/>
<polygon fill="midnightblue" stroke="midnightblue" points="1152.08,-86.03 1154.26,-75.66 1146.09,-82.4 1152.08,-86.03"/>
</g>
<!-- Node18 -->
<g id="node18" class="node">
<title>Node18</title>
<g id="a_node18"><a xlink:title=" ">
<polygon fill="white" stroke="#bfbfbf" points="1207.5,-56.5 1207.5,-75.5 1253.5,-75.5 1253.5,-56.5 1207.5,-56.5"/>
<text text-anchor="middle" x="1230.5" y="-63.5" font-family="Helvetica,sans-Serif" font-size="10.00">locale</text>
</a>
</g>
</g>
<!-- Node1&#45;&gt;Node18 -->
<g id="edge18" class="edge">
<title>Node1&#45;&gt;Node18</title>
<path fill="none" stroke="midnightblue" d="M1148.86,-112.4C1166.17,-102.77 1188.98,-90.09 1206.08,-80.58"/>
<polygon fill="midnightblue" stroke="midnightblue" points="1207.89,-83.58 1214.93,-75.66 1204.49,-77.46 1207.89,-83.58"/>
</g>
<!-- Node19 -->
<g id="node19" class="node">
<title>Node19</title>
<g id="a_node19"><a xlink:title=" ">
<polygon fill="white" stroke="#bfbfbf" points="1271.5,-56.5 1271.5,-75.5 1327.5,-75.5 1327.5,-56.5 1271.5,-56.5"/>
<text text-anchor="middle" x="1299.5" y="-63.5" font-family="Helvetica,sans-Serif" font-size="10.00">unistd.h</text>
</a>
</g>
</g>
<!-- Node1&#45;&gt;Node19 -->
<g id="edge19" class="edge">
<title>Node1&#45;&gt;Node19</title>
<path fill="none" stroke="midnightblue" d="M1165.21,-112.4C1195.49,-102.16 1235.99,-88.47 1264.57,-78.81"/>
<polygon fill="midnightblue" stroke="midnightblue" points="1265.8,-82.09 1274.15,-75.57 1263.55,-75.46 1265.8,-82.09"/>
</g>
<!-- Node20 -->
<g id="node20" class="node">
<title>Node20</title>
<g id="a_node20"><a xlink:title=" ">
<polygon fill="white" stroke="#bfbfbf" points="1346,-56.5 1346,-75.5 1425,-75.5 1425,-56.5 1346,-56.5"/>
<text text-anchor="middle" x="1385.5" y="-63.5" font-family="Helvetica,sans-Serif" font-size="10.00">sys/syscall.h</text>
</a>
</g>
</g>
<!-- Node1&#45;&gt;Node20 -->
<g id="edge20" class="edge">
<title>Node1&#45;&gt;Node20</title>
<path fill="none" stroke="midnightblue" d="M1185.26,-112.47C1232.04,-101.85 1295.35,-87.47 1338.16,-77.75"/>
<polygon fill="midnightblue" stroke="midnightblue" points="1339.07,-81.13 1348.04,-75.51 1337.52,-74.31 1339.07,-81.13"/>
</g>
<!-- Node21 -->
<g id="node21" class="node">
<title>Node21</title>
<g id="a_node21"><a xlink:title=" ">
<polygon fill="white" stroke="#bfbfbf" points="1442.5,-56.5 1442.5,-75.5 1498.5,-75.5 1498.5,-56.5 1442.5,-56.5"/>
<text text-anchor="middle" x="1470.5" y="-63.5" font-family="Helvetica,sans-Serif" font-size="10.00">assert.h</text>
</a>
</g>
</g>
<!-- Node1&#45;&gt;Node21 -->
<g id="edge21" class="edge">
<title>Node1&#45;&gt;Node21</title>
<path fill="none" stroke="midnightblue" d="M1187.22,-117.75C1248.07,-109.04 1342.52,-94.57 1432.44,-76.31"/>
<polygon fill="midnightblue" stroke="midnightblue" points="1433.16,-79.74 1442.25,-74.3 1431.75,-72.88 1433.16,-79.74"/>
</g>
<!-- Node22 -->
<g id="node22" class="node">
<title>Node22</title>
<g id="a_node22"><a xlink:title=" ">
<polygon fill="white" stroke="#bfbfbf" points="1517,-56.5 1517,-75.5 1594,-75.5 1594,-56.5 1517,-56.5"/>
<text text-anchor="middle" x="1555.5" y="-63.5" font-family="Helvetica,sans-Serif" font-size="10.00">sys/mman.h</text>
</a>
</g>
</g>
<!-- Node1&#45;&gt;Node22 -->
<g id="edge22" class="edge">
<title>Node1&#45;&gt;Node22</title>
<path fill="none" stroke="midnightblue" d="M1187.18,-119.2C1261.4,-110.46 1387.96,-94.8 1506.76,-76.04"/>
<polygon fill="midnightblue" stroke="midnightblue" points="1507.43,-79.48 1516.76,-74.45 1506.33,-72.56 1507.43,-79.48"/>
</g>
<!-- Node23 -->
<g id="node23" class="node">
<title>Node23</title>
<g id="a_node23"><a xlink:title=" ">
<polygon fill="white" stroke="#bfbfbf" points="1612,-56.5 1612,-75.5 1677,-75.5 1677,-56.5 1612,-56.5"/>
<text text-anchor="middle" x="1644.5" y="-63.5" font-family="Helvetica,sans-Serif" font-size="10.00">exception</text>
</a>
</g>
</g>
<!-- Node1&#45;&gt;Node23 -->
<g id="edge23" class="edge">
<title>Node1&#45;&gt;Node23</title>
<path fill="none" stroke="midnightblue" d="M1187.08,-122.08C1277.28,-115.3 1447.71,-100.64 1601.77,-76.13"/>
<polygon fill="midnightblue" stroke="midnightblue" points="1602.57,-79.55 1611.89,-74.5 1601.46,-72.63 1602.57,-79.55"/>
</g>
<!-- Node24 -->
<g id="node24" class="node">
<title>Node24</title>
<g id="a_node24"><a xlink:title=" ">
<polygon fill="white" stroke="#bfbfbf" points="1695.5,-56.5 1695.5,-75.5 1763.5,-75.5 1763.5,-56.5 1695.5,-56.5"/>
<text text-anchor="middle" x="1729.5" y="-63.5" font-family="Helvetica,sans-Serif" font-size="10.00">sys/time.h</text>
</a>
</g>
</g>
<!-- Node1&#45;&gt;Node24 -->
<g id="edge24" class="edge">
<title>Node1&#45;&gt;Node24</title>
<path fill="none" stroke="midnightblue" d="M1187.11,-123.22C1289.88,-117.39 1498.93,-103.33 1685.32,-76.01"/>
<polygon fill="midnightblue" stroke="midnightblue" points="1685.92,-79.46 1695.3,-74.53 1684.89,-72.54 1685.92,-79.46"/>
</g>
<!-- Node25 -->
<g id="node25" class="node">
<title>Node25</title>
<g id="a_node25"><a xlink:title=" ">
<polygon fill="white" stroke="#bfbfbf" points="1782,-56.5 1782,-75.5 1837,-75.5 1837,-56.5 1782,-56.5"/>
<text text-anchor="middle" x="1809.5" y="-63.5" font-family="Helvetica,sans-Serif" font-size="10.00">signal.h</text>
</a>
</g>
</g>
<!-- Node1&#45;&gt;Node25 -->
<g id="edge25" class="edge">
<title>Node1&#45;&gt;Node25</title>
<path fill="none" stroke="midnightblue" d="M1187,-124.95C1301.89,-121.4 1551.9,-110.29 1771.61,-75.87"/>
<polygon fill="midnightblue" stroke="midnightblue" points="1772.39,-79.29 1781.72,-74.27 1771.29,-72.38 1772.39,-79.29"/>
</g>
<!-- Node26 -->
<g id="node26" class="node">
<title>Node26</title>
<g id="a_node26"><a xlink:title=" ">
<polygon fill="white" stroke="#bfbfbf" points="1855,-56.5 1855,-75.5 1908,-75.5 1908,-56.5 1855,-56.5"/>
<text text-anchor="middle" x="1881.5" y="-63.5" font-family="Helvetica,sans-Serif" font-size="10.00">string.h</text>
</a>
</g>
</g>
<!-- Node1&#45;&gt;Node26 -->
<g id="edge26" class="edge">
<title>Node1&#45;&gt;Node26</title>
<path fill="none" stroke="midnightblue" d="M1187.29,-125.93C1312.16,-123.97 1597.58,-115.34 1844.96,-75.98"/>
<polygon fill="midnightblue" stroke="midnightblue" points="1845.54,-79.43 1854.85,-74.38 1844.42,-72.52 1845.54,-79.43"/>
</g>
<!-- Node27 -->
<g id="node27" class="node">
<title>Node27</title>
<g id="a_node27"><a xlink:title=" ">
<polygon fill="white" stroke="#bfbfbf" points="1926,-56.5 1926,-75.5 1985,-75.5 1985,-56.5 1926,-56.5"/>
<text text-anchor="middle" x="1955.5" y="-63.5" font-family="Helvetica,sans-Serif" font-size="10.00">setjmp.h</text>
</a>
</g>
</g>
<!-- Node1&#45;&gt;Node27 -->
<g id="edge27" class="edge">
<title>Node1&#45;&gt;Node27</title>
<path fill="none" stroke="midnightblue" d="M1187.18,-126.09C1320.78,-124.45 1640.11,-116.39 1915.53,-76.06"/>
<polygon fill="midnightblue" stroke="midnightblue" points="1916.34,-79.48 1925.72,-74.56 1915.32,-72.56 1916.34,-79.48"/>
</g>
<!-- Node28 -->
<g id="node28" class="node">
<title>Node28</title>
<g id="a_node28"><a xlink:title=" ">
<polygon fill="white" stroke="#bfbfbf" points="2003.5,-56.5 2003.5,-75.5 2059.5,-75.5 2059.5,-56.5 2003.5,-56.5"/>
<text text-anchor="middle" x="2031.5" y="-63.5" font-family="Helvetica,sans-Serif" font-size="10.00">sstream</text>
</a>
</g>
</g>
<!-- Node1&#45;&gt;Node28 -->
<g id="edge28" class="edge">
<title>Node1&#45;&gt;Node28</title>
<path fill="none" stroke="midnightblue" d="M1187.02,-126.73C1329.8,-126.41 1686.92,-120.9 1993.36,-75.89"/>
<polygon fill="midnightblue" stroke="midnightblue" points="1993.95,-79.34 2003.32,-74.41 1992.92,-72.42 1993.95,-79.34"/>
</g>
<!-- Node29 -->
<g id="node29" class="node">
<title>Node29</title>
<g id="a_node29"><a xlink:title=" ">
<polygon fill="white" stroke="#bfbfbf" points="2078,-56.5 2078,-75.5 2141,-75.5 2141,-56.5 2078,-56.5"/>
<text text-anchor="middle" x="2109.5" y="-63.5" font-family="Helvetica,sans-Serif" font-size="10.00">pthread.h</text>
</a>
</g>
</g>
<!-- Node1&#45;&gt;Node29 -->
<g id="edge29" class="edge">
<title>Node1&#45;&gt;Node29</title>
<path fill="none" stroke="midnightblue" d="M1187.15,-126.66C1338.41,-126.27 1731.25,-120.77 2067.86,-75.83"/>
<polygon fill="midnightblue" stroke="midnightblue" points="2068.36,-79.3 2077.81,-74.49 2067.43,-72.36 2068.36,-79.3"/>
</g>
<!-- Node30 -->
<g id="node30" class="node">
<title>Node30</title>
<g id="a_node30"><a xlink:title=" ">
<polygon fill="white" stroke="#bfbfbf" points="2159.5,-56.5 2159.5,-75.5 2299.5,-75.5 2299.5,-56.5 2159.5,-56.5"/>
<text text-anchor="middle" x="2229.5" y="-63.5" font-family="Helvetica,sans-Serif" font-size="10.00">google/sparse_hash_map</text>
</a>
</g>
</g>
<!-- Node1&#45;&gt;Node30 -->
<g id="edge30" class="edge">
<title>Node1&#45;&gt;Node30</title>
<path fill="none" stroke="midnightblue" d="M1187.29,-124.79C1347.29,-120.19 1778.76,-105.9 2149.2,-76.05"/>
<polygon fill="midnightblue" stroke="midnightblue" points="2149.63,-79.53 2159.31,-75.23 2149.06,-72.55 2149.63,-79.53"/>
</g>
<!-- Node31 -->
<g id="node31" class="node">
<title>Node31</title>
<g id="a_node31"><a xlink:title=" ">
<polygon fill="white" stroke="#bfbfbf" points="2318,-56.5 2318,-75.5 2455,-75.5 2455,-56.5 2318,-56.5"/>
<text text-anchor="middle" x="2386.5" y="-63.5" font-family="Helvetica,sans-Serif" font-size="10.00">google/dense_hash_map</text>
</a>
</g>
</g>
<!-- Node1&#45;&gt;Node31 -->
<g id="edge31" class="edge">
<title>Node1&#45;&gt;Node31</title>
<path fill="none" stroke="midnightblue" d="M1187.18,-125.4C1363.47,-122.03 1872.96,-109.92 2307.38,-76.03"/>
<polygon fill="midnightblue" stroke="midnightblue" points="2307.93,-79.49 2317.62,-75.22 2307.38,-72.51 2307.93,-79.49"/>
</g>
<!-- Node32 -->
<g id="node32" class="node">
<title>Node32</title>
<g id="a_node32"><a xlink:href="cctlib_8H.html" target="_top" xlink:title=" ">
<polygon fill="white" stroke="black" points="232,-56.5 232,-75.5 285,-75.5 285,-56.5 232,-56.5"/>
<text text-anchor="middle" x="258.5" y="-63.5" font-family="Helvetica,sans-Serif" font-size="10.00">cctlib.H</text>
</a>
</g>
</g>
<!-- Node1&#45;&gt;Node32 -->
<g id="edge32" class="edge">
<title>Node1&#45;&gt;Node32</title>
<path fill="none" stroke="midnightblue" d="M1059.85,-125.95C921.06,-124.01 581.09,-115.29 299.5,-76 298.2,-75.82 296.88,-75.62 295.55,-75.4"/>
<polygon fill="midnightblue" stroke="midnightblue" points="295.77,-71.88 285.3,-73.51 294.5,-78.77 295.77,-71.88"/>
</g>
<!-- Node5&#45;&gt;Node4 -->
<g id="edge5" class="edge">
<title>Node5&#45;&gt;Node4</title>
<path fill="none" stroke="midnightblue" d="M93.59,-56.08C100.66,-48.3 111.09,-36.8 119.65,-27.37"/>
<polygon fill="midnightblue" stroke="midnightblue" points="122.43,-29.51 126.56,-19.75 117.25,-24.8 122.43,-29.51"/>
</g>
<!-- Node6 -->
<g id="node6" class="node">
<title>Node6</title>
<g id="a_node6"><a xlink:title=" ">
<polygon fill="white" stroke="#bfbfbf" points="0,-0.5 0,-19.5 95,-19.5 95,-0.5 0,-0.5"/>
<text text-anchor="middle" x="47.5" y="-7.5" font-family="Helvetica,sans-Serif" font-size="10.00">regvalue_utils.h</text>
</a>
</g>
</g>
<!-- Node5&#45;&gt;Node6 -->
<g id="edge6" class="edge">
<title>Node5&#45;&gt;Node6</title>
<path fill="none" stroke="midnightblue" d="M79.23,-56.08C73.86,-48.46 65.98,-37.26 59.42,-27.94"/>
<polygon fill="midnightblue" stroke="midnightblue" points="62.28,-25.91 53.66,-19.75 56.55,-29.94 62.28,-25.91"/>
</g>
<!-- Node32&#45;&gt;Node2 -->
<g id="edge35" class="edge">
<title>Node32&#45;&gt;Node2</title>
<path fill="none" stroke="midnightblue" d="M248.86,-56.32C239.99,-48.34 226.63,-36.31 215.89,-26.65"/>
<polygon fill="midnightblue" stroke="midnightblue" points="218.09,-23.92 208.32,-19.83 213.41,-29.13 218.09,-23.92"/>
</g>
<!-- Node32&#45;&gt;Node4 -->
<g id="edge33" class="edge">
<title>Node32&#45;&gt;Node4</title>
<path fill="none" stroke="midnightblue" d="M238.85,-56.44C218.54,-47.6 186.6,-33.69 163.4,-23.59"/>
<polygon fill="midnightblue" stroke="midnightblue" points="164.62,-20.3 154.06,-19.52 161.83,-26.72 164.62,-20.3"/>
</g>
<!-- Node32&#45;&gt;Node10 -->
<g id="edge34" class="edge">
<title>Node32&#45;&gt;Node10</title>
<path fill="none" stroke="midnightblue" d="M280.21,-56.44C302.85,-47.52 338.57,-33.44 364.25,-23.32"/>
<polygon fill="midnightblue" stroke="midnightblue" points="365.87,-26.44 373.89,-19.52 363.31,-19.93 365.87,-26.44"/>
</g>
<!-- Node33 -->
<g id="node33" class="node">
<title>Node33</title>
<g id="a_node33"><a xlink:title=" ">
<polygon fill="white" stroke="#bfbfbf" points="241.5,-0.5 241.5,-19.5 285.5,-19.5 285.5,-0.5 241.5,-0.5"/>
<text text-anchor="middle" x="263.5" y="-7.5" font-family="Helvetica,sans-Serif" font-size="10.00">string</text>
</a>
</g>
</g>
<!-- Node32&#45;&gt;Node33 -->
<g id="edge36" class="edge">
<title>Node32&#45;&gt;Node33</title>
<path fill="none" stroke="midnightblue" d="M259.33,-56.08C259.98,-49.01 260.92,-38.86 261.74,-29.99"/>
<polygon fill="midnightblue" stroke="midnightblue" points="265.25,-30.03 262.69,-19.75 258.28,-29.39 265.25,-30.03"/>
</g>
<!-- Node34 -->
<g id="node34" class="node">
<title>Node34</title>
<g id="a_node34"><a xlink:title=" ">
<polygon fill="white" stroke="#bfbfbf" points="304,-0.5 304,-19.5 351,-19.5 351,-0.5 304,-0.5"/>
<text text-anchor="middle" x="327.5" y="-7.5" font-family="Helvetica,sans-Serif" font-size="10.00">vector</text>
</a>
</g>
</g>
<!-- Node32&#45;&gt;Node34 -->
<g id="edge37" class="edge">
<title>Node32&#45;&gt;Node34</title>
<path fill="none" stroke="midnightblue" d="M269.59,-56.32C279.99,-48.18 295.76,-35.84 308.22,-26.09"/>
<polygon fill="midnightblue" stroke="midnightblue" points="310.49,-28.75 316.21,-19.83 306.18,-23.24 310.49,-28.75"/>
</g>
</g>
</svg>
        <g id="navigator" transform="translate(0 0)" fill="#404254">
                <rect fill="#f2f5e9" fill-opacity="0.5" stroke="#606060" stroke-width=".5" x="0" y="0" width="60" height="60"/>
                <use id="zoomplus" xlink:href="#zoomPlus" x="17" y="9" onmousedown="handleZoom(evt,'in')"/>
                <use id="zoomminus" xlink:href="#zoomMin" x="42" y="9" onmousedown="handleZoom(evt,'out')"/>
                <use id="reset" xlink:href="#resetDef" x="30" y="36" onmousedown="handleReset()"/>
                <g id="arrowUp" xlink:href="#dirArrow" transform="translate(30 24)" onmousedown="handlePan(0,-1)">
                  <use xlink:href="#rim" fill="#404040">
                        <set attributeName="fill" to="#808080" begin="arrowUp.mouseover" end="arrowUp.mouseout"/>
                  </use>
                  <path fill="none" stroke="white" stroke-width="1.5" d="M0,-3.0v7 M-2.5,-0.5L0,-3.0L2.5,-0.5"/>
                </g>
                <g id="arrowRight" xlink:href="#dirArrow" transform="rotate(90) translate(36 -43)" onmousedown="handlePan(1,0)">
                  <use xlink:href="#rim" fill="#404040">
                        <set attributeName="fill" to="#808080" begin="arrowRight.mouseover" end="arrowRight.mouseout"/>
                  </use>
                  <path fill="none" stroke="white" stroke-width="1.5" d="M0,-3.0v7 M-2.5,-0.5L0,-3.0L2.5,-0.5"/>
                </g>
                <g id="arrowDown" xlink:href="#dirArrow" transform="rotate(180) translate(-30 -48)" onmousedown="handlePan(0,1)">
                  <use xlink:href="#rim" fill="#404040">
                        <set attributeName="fill" to="#808080" begin="arrowDown.mouseover" end="arrowDown.mouseout"/>
                  </use>
                  <path fill="none" stroke="white" stroke-width="1.5" d="M0,-3.0v7 M-2.5,-0.5L0,-3.0L2.5,-0.5"/>
                </g>
                <g id="arrowLeft" xlink:href="#dirArrow" transform="rotate(270) translate(-36 17)" onmousedown="handlePan(-1,0)">
                  <use xlink:href="#rim" fill="#404040">
                        <set attributeName="fill" to="#808080" begin="arrowLeft.mouseover" end="arrowLeft.mouseout"/>
                  </use>
                  <path fill="none" stroke="white" stroke-width="1.5" d="M0,-3.0v7 M-2.5,-0.5L0,-3.0L2.5,-0.5"/>
                </g>
        </g>
        <svg viewBox="0 0 15 15" width="100%" height="30px" preserveAspectRatio="xMaxYMin meet">
         <g id="arrow_out" transform="scale(0.3 0.3)">
          <a xlink:href="runtime__value__numbering__client_8cpp__incl_org.svg" target="_base">
           <rect id="button" ry="5" rx="5" y="6" x="6" height="38" width="38"
                fill="#f2f5e9" fill-opacity="0.5" stroke="#606060" stroke-width="1.0"/>
           <path id="arrow"
             d="M 11.500037,31.436501 C 11.940474,20.09759 22.043105,11.32322 32.158766,21.979434 L 37.068811,17.246167 C 37.068811,17.246167 37.088388,32 37.088388,32 L 22.160133,31.978069 C 22.160133,31.978069 26.997745,27.140456 26.997745,27.140456 C 18.528582,18.264221 13.291696,25.230495 11.500037,31.436501 z"
             style="fill:#404040;"/>
          </a>
         </g>
        </svg>
</svg>
