<?xml version="1.0" encoding="UTF-8" standalone="no"?>
<!DOCTYPE svg PUBLIC "-//W3C//DTD SVG 1.1//EN"
 "http://www.w3.org/Graphics/SVG/1.1/DTD/svg11.dtd">
<!-- Generated by graphviz version 2.43.0 (0)
 -->
<!-- Title: tests/shadow_memory_unittest.cpp Pages: 1 -->
<svg width="725pt" height="151pt"
 viewBox="0.00 0.00 724.50 151.00" xmlns="http://www.w3.org/2000/svg" xmlns:xlink="http://www.w3.org/1999/xlink">
<g id="graph0" class="graph" transform="scale(1 1) rotate(0) translate(4 147)">
<title>tests/shadow_memory_unittest.cpp</title>
<polygon fill="white" stroke="transparent" points="-4,4 -4,-147 720.5,-147 720.5,4 -4,4"/>
<!-- Node1 -->
<g id="node1" class="node">
<title>Node1</title>
<g id="a_node1"><a xlink:title=" ">
<polygon fill="#bfbfbf" stroke="black" points="194,-112.5 194,-142.5 322,-142.5 322,-112.5 194,-112.5"/>
<text text-anchor="start" x="202" y="-130.5" font-family="Helvetica,sans-Serif" font-size="10.00">tests/shadow_memory</text>
<text text-anchor="middle" x="258" y="-119.5" font-family="Helvetica,sans-Serif" font-size="10.00">_unittest.cpp</text>
</a>
</g>
</g>
<!-- Node2 -->
<g id="node2" class="node">
<title>Node2</title>
<g id="a_node2"><a xlink:title=" ">
<polygon fill="white" stroke="#bfbfbf" points="0,-56.5 0,-75.5 46,-75.5 46,-56.5 0,-56.5"/>
<text text-anchor="middle" x="23" y="-63.5" font-family="Helvetica,sans-Serif" font-size="10.00">cstdio</text>
</a>
</g>
</g>
<!-- Node1&#45;&gt;Node2 -->
<g id="edge1" class="edge">
<title>Node1&#45;&gt;Node2</title>
<path fill="none" stroke="midnightblue" d="M199.69,-112.49C161.35,-103.17 109.85,-90.42 55.81,-76.16"/>
<polygon fill="midnightblue" stroke="midnightblue" points="56.61,-72.75 46.05,-73.57 54.82,-79.52 56.61,-72.75"/>
</g>
<!-- Node3 -->
<g id="node3" class="node">
<title>Node3</title>
<g id="a_node3"><a xlink:title=" ">
<polygon fill="white" stroke="#bfbfbf" points="64,-56.5 64,-75.5 114,-75.5 114,-56.5 64,-56.5"/>
<text text-anchor="middle" x="89" y="-63.5" font-family="Helvetica,sans-Serif" font-size="10.00">cstdint</text>
</a>
</g>
</g>
<!-- Node1&#45;&gt;Node3 -->
<g id="edge2" class="edge">
<title>Node1&#45;&gt;Node3</title>
<path fill="none" stroke="midnightblue" d="M217.95,-112.4C189.09,-102.24 150.55,-88.67 123.15,-79.02"/>
<polygon fill="midnightblue" stroke="midnightblue" points="124.19,-75.68 113.59,-75.66 121.86,-82.28 124.19,-75.68"/>
</g>
<!-- Node4 -->
<g id="node4" class="node">
<title>Node4</title>
<g id="a_node4"><a xlink:title=" ">
<polygon fill="white" stroke="#bfbfbf" points="132.5,-56.5 132.5,-75.5 181.5,-75.5 181.5,-56.5 132.5,-56.5"/>
<text text-anchor="middle" x="157" y="-63.5" font-family="Helvetica,sans-Serif" font-size="10.00">cstdlib</text>
</a>
</g>
</g>
<!-- Node1&#45;&gt;Node4 -->
<g id="edge3" class="edge">
<title>Node1&#45;&gt;Node4</title>
<path fill="none" stroke="midnightblue" d="M234.06,-112.4C217.87,-102.86 196.59,-90.32 180.5,-80.84"/>
<polygon fill="midnightblue" stroke="midnightblue" points="182.09,-77.72 171.7,-75.66 178.54,-83.75 182.09,-77.72"/>
</g>
<!-- Node5 -->
<g id="node5" class="node">
<title>Node5</title>
<g id="a_node5"><a xlink:title=" ">
<polygon fill="white" stroke="#bfbfbf" points="200,-56.5 200,-75.5 250,-75.5 250,-56.5 200,-56.5"/>
<text text-anchor="middle" x="225" y="-63.5" font-family="Helvetica,sans-Serif" font-size="10.00">cstring</text>
</a>
</g>
</g>
<!-- Node1&#45;&gt;Node5 -->
<g id="edge4" class="edge">
<title>Node1&#45;&gt;Node5</title>
<path fill="none" stroke="midnightblue" d="M250.18,-112.4C245.53,-104.02 239.6,-93.33 234.66,-84.42"/>
<polygon fill="midnightblue" stroke="midnightblue" points="237.71,-82.71 229.8,-75.66 231.59,-86.1 237.71,-82.71"/>
</g>
<!-- Node6 -->
<g id="node6" class="node">
<title>Node6</title>
<g id="a_node6"><a xlink:title=" ">
<polygon fill="white" stroke="#bfbfbf" points="268,-56.5 268,-75.5 316,-75.5 316,-56.5 268,-56.5"/>
<text text-anchor="middle" x="292" y="-63.5" font-family="Helvetica,sans-Serif" font-size="10.00">thread</text>
</a>
</g>
</g>
<!-- Node1&#45;&gt;Node6 -->
<g id="edge5" class="edge">
<title>Node1&#45;&gt;Node6</title>
<path fill="none" stroke="midnightblue" d="M266.06,-112.4C270.85,-104.02 276.96,-93.33 282.04,-84.42"/>
<polygon fill="midnightblue" stroke="midnightblue" points="285.13,-86.08 287.05,-75.66 279.05,-82.6 285.13,-86.08"/>
</g>
<!-- Node7 -->
<g id="node7" class="node">
<title>Node7</title>
<g id="a_node7"><a xlink:title=" ">
<polygon fill="white" stroke="#bfbfbf" points="334.5,-56.5 334.5,-75.5 381.5,-75.5 381.5,-56.5 334.5,-56.5"/>
<text text-anchor="middle" x="358" y="-63.5" font-family="Helvetica,sans-Serif" font-size="10.00">vector</text>
</a>
</g>
</g>
<!-- Node1&#45;&gt;Node7 -->
<g id="edge6" class="edge">
<title>Node1&#45;&gt;Node7</title>
<path fill="none" stroke="midnightblue" d="M281.7,-112.4C297.73,-102.86 318.8,-90.32 334.74,-80.84"/>
<polygon fill="midnightblue" stroke="midnightblue" points="336.64,-83.78 343.45,-75.66 333.07,-77.76 336.64,-83.78"/>
</g>
<!-- Node8 -->
<g id="node8" class="node">
<title>Node8</title>
<g id="a_node8"><a xlink:title=" ">
<polygon fill="white" stroke="#bfbfbf" points="370,-0.5 370,-19.5 420,-19.5 420,-0.5 370,-0.5"/>
<text text-anchor="middle" x="395" y="-7.5" font-family="Helvetica,sans-Serif" font-size="10.00">atomic</text>
</a>
</g>
</g>
<!-- Node1&#45;&gt;Node8 -->
<g id="edge7" class="edge">
<title>Node1&#45;&gt;Node8</title>
<path fill="none" stroke="midnightblue" d="M322.08,-117.07C347.22,-110 373.86,-97.63 390,-76 399.83,-62.83 400.12,-43.69 398.52,-29.59"/>
<polygon fill="midnightblue" stroke="midnightblue" points="401.96,-28.93 396.99,-19.57 395.04,-29.99 401.96,-28.93"/>
</g>
<!-- Node9 -->
<g id="node9" class="node">
<title>Node9</title>
<g id="a_node9"><a xlink:href="shadow__memory_8H.html" target="_top" xlink:title=" ">
<polygon fill="white" stroke="black" points="467,-56.5 467,-75.5 577,-75.5 577,-56.5 467,-56.5"/>
<text text-anchor="middle" x="522" y="-63.5" font-family="Helvetica,sans-Serif" font-size="10.00">shadow_memory.H</text>
</a>
</g>
</g>
<!-- Node1&#45;&gt;Node9 -->
<g id="edge8" class="edge">
<title>Node1&#45;&gt;Node9</title>
<path fill="none" stroke="midnightblue" d="M320.23,-112.47C367.37,-101.85 431.16,-87.47 474.3,-77.75"/>
<polygon fill="midnightblue" stroke="midnightblue" points="475.27,-81.12 484.26,-75.51 473.73,-74.29 475.27,-81.12"/>
</g>
<!-- Node9&#45;&gt;Node8 -->
<g id="edge10" class="edge">
<title>Node9&#45;&gt;Node8</title>
<path fill="none" stroke="midnightblue" d="M501.88,-56.44C480.98,-47.56 448.07,-33.56 424.28,-23.45"/>
<polygon fill="midnightblue" stroke="midnightblue" points="425.6,-20.21 415.03,-19.52 422.86,-26.65 425.6,-20.21"/>
</g>
<!-- Node10 -->
<g id="node10" class="node">
<title>Node10</title>
<g id="a_node10"><a xlink:title=" ">
<polygon fill="white" stroke="#bfbfbf" points="438.5,-0.5 438.5,-19.5 491.5,-19.5 491.5,-0.5 438.5,-0.5"/>
<text text-anchor="middle" x="465" y="-7.5" font-family="Helvetica,sans-Serif" font-size="10.00">stdint.h</text>
</a>
</g>
</g>
<!-- Node9&#45;&gt;Node10 -->
<g id="edge9" class="edge">
<title>Node9&#45;&gt;Node10</title>
<path fill="none" stroke="midnightblue" d="M512.84,-56.32C504.5,-48.42 491.97,-36.55 481.82,-26.94"/>
<polygon fill="midnightblue" stroke="midnightblue" points="483.99,-24.17 474.32,-19.83 479.18,-29.25 483.99,-24.17"/>
</g>
<!-- Node11 -->
<g id="node11" class="node">
<title>Node11</title>
<g id="a_node11"><a xlink:title=" ">
<polygon fill="white" stroke="#bfbfbf" points="509.5,-0.5 509.5,-19.5 562.5,-19.5 562.5,-0.5 509.5,-0.5"/>
<text text-anchor="middle" x="536" y="-7.5" font-family="Helvetica,sans-Serif" font-size="10.00">stdlib.h</text>
</a>
</g>
</g>
<!-- Node9&#45;&gt;Node11 -->
<g id="edge11" class="edge">
<title>Node9&#45;&gt;Node11</title>
<path fill="none" stroke="midnightblue" d="M524.31,-56.08C526.17,-48.93 528.84,-38.64 531.15,-29.69"/>
<polygon fill="midnightblue" stroke="midnightblue" points="534.61,-30.31 533.73,-19.75 527.83,-28.55 534.61,-30.31"/>
</g>
<!-- Node12 -->
<g id="node12" class="node">
<title>Node12</title>
<g id="a_node12"><a xlink:title=" ">
<polygon fill="white" stroke="#bfbfbf" points="580.5,-0.5 580.5,-19.5 657.5,-19.5 657.5,-0.5 580.5,-0.5"/>
<text text-anchor="middle" x="619" y="-7.5" font-family="Helvetica,sans-Serif" font-size="10.00">sys/mman.h</text>
</a>
</g>
</g>
<!-- Node9&#45;&gt;Node12 -->
<g id="edge12" class="edge">
<title>Node9&#45;&gt;Node12</title>
<path fill="none" stroke="midnightblue" d="M537.58,-56.32C553,-47.74 576.81,-34.49 594.71,-24.52"/>
<polygon fill="midnightblue" stroke="midnightblue" points="596.42,-27.58 603.45,-19.65 593.01,-21.46 596.42,-27.58"/>
</g>
<!-- Node13 -->
<g id="node13" class="node">
<title>Node13</title>
<g id="a_node13"><a xlink:title=" ">
<polygon fill="white" stroke="#bfbfbf" points="675.5,-0.5 675.5,-19.5 716.5,-19.5 716.5,-0.5 675.5,-0.5"/>
<text text-anchor="middle" x="696" y="-7.5" font-family="Helvetica,sans-Serif" font-size="10.00">tuple</text>
</a>
</g>
</g>
<!-- Node9&#45;&gt;Node13 -->
<g id="edge13" class="edge">
<title>Node9&#45;&gt;Node13</title>
<path fill="none" stroke="midnightblue" d="M549.57,-56.44C581.13,-46.65 632.68,-30.65 665.44,-20.48"/>
<polygon fill="midnightblue" stroke="midnightblue" points="666.86,-23.71 675.37,-17.4 664.78,-17.02 666.86,-23.71"/>
</g>
</g>
</svg>
