<?xml version="1.0" encoding="UTF-8" standalone="no"?>
<!DOCTYPE svg PUBLIC "-//W3C//DTD SVG 1.1//EN"
 "http://www.w3.org/Graphics/SVG/1.1/DTD/svg11.dtd">
<!-- Generated by graphviz version 2.43.0 (0)
 -->
<!-- Title: tests/gtest/shadow_memory_test.cpp Pages: 1 -->
<svg width="511pt" height="151pt"
 viewBox="0.00 0.00 511.32 151.00" xmlns="http://www.w3.org/2000/svg" xmlns:xlink="http://www.w3.org/1999/xlink">
<g id="graph0" class="graph" transform="scale(1 1) rotate(0) translate(4 147)">
<title>tests/gtest/shadow_memory_test.cpp</title>
<polygon fill="white" stroke="transparent" points="-4,4 -4,-147 507.32,-147 507.32,4 -4,4"/>
<!-- Node1 -->
<g id="node1" class="node">
<title>Node1</title>
<g id="a_node1"><a xlink:title=" ">
<polygon fill="#bfbfbf" stroke="black" points="84.32,-112.5 84.32,-142.5 193.32,-142.5 193.32,-112.5 84.32,-112.5"/>
<text text-anchor="start" x="92.32" y="-130.5" font-family="Helvetica,sans-Serif" font-size="10.00">tests/gtest/shadow</text>
<text text-anchor="middle" x="138.82" y="-119.5" font-family="Helvetica,sans-Serif" font-size="10.00">_memory_test.cpp</text>
</a>
</g>
</g>
<!-- Node2 -->
<g id="node2" class="node">
<title>Node2</title>
<g id="a_node2"><a xlink:title=" ">
<polygon fill="white" stroke="#bfbfbf" points="79.82,-0.5 79.82,-19.5 129.82,-19.5 129.82,-0.5 79.82,-0.5"/>
<text text-anchor="middle" x="104.82" y="-7.5" font-family="Helvetica,sans-Serif" font-size="10.00">atomic</text>
</a>
</g>
</g>
<!-- Node1&#45;&gt;Node2 -->
<g id="edge1" class="edge">
<title>Node1&#45;&gt;Node2</title>
<path fill="none" stroke="midnightblue" d="M84.04,-120.59C55.38,-114.4 22.64,-101.76 4.82,-76 -14.88,-47.52 33.86,-28.5 70.01,-18.75"/>
<polygon fill="midnightblue" stroke="midnightblue" points="70.99,-22.11 79.81,-16.24 69.25,-15.33 70.99,-22.11"/>
</g>
<!-- Node3 -->
<g id="node3" class="node">
<title>Node3</title>
<g id="a_node3"><a xlink:title=" ">
<polygon fill="white" stroke="#bfbfbf" points="13.82,-56.5 13.82,-75.5 63.82,-75.5 63.82,-56.5 13.82,-56.5"/>
<text text-anchor="middle" x="38.82" y="-63.5" font-family="Helvetica,sans-Serif" font-size="10.00">cstdint</text>
</a>
</g>
</g>
<!-- Node1&#45;&gt;Node3 -->
<g id="edge2" class="edge">
<title>Node1&#45;&gt;Node3</title>
<path fill="none" stroke="midnightblue" d="M115.12,-112.4C99.09,-102.86 78.02,-90.32 62.09,-80.84"/>
<polygon fill="midnightblue" stroke="midnightblue" points="63.76,-77.76 53.37,-75.66 60.18,-83.78 63.76,-77.76"/>
</g>
<!-- Node4 -->
<g id="node4" class="node">
<title>Node4</title>
<g id="a_node4"><a xlink:title=" ">
<polygon fill="white" stroke="#bfbfbf" points="81.82,-56.5 81.82,-75.5 129.82,-75.5 129.82,-56.5 81.82,-56.5"/>
<text text-anchor="middle" x="105.82" y="-63.5" font-family="Helvetica,sans-Serif" font-size="10.00">thread</text>
</a>
</g>
</g>
<!-- Node1&#45;&gt;Node4 -->
<g id="edge3" class="edge">
<title>Node1&#45;&gt;Node4</title>
<path fill="none" stroke="midnightblue" d="M131,-112.4C126.35,-104.02 120.42,-93.33 115.48,-84.42"/>
<polygon fill="midnightblue" stroke="midnightblue" points="118.53,-82.71 110.62,-75.66 112.41,-86.1 118.53,-82.71"/>
</g>
<!-- Node5 -->
<g id="node5" class="node">
<title>Node5</title>
<g id="a_node5"><a xlink:title=" ">
<polygon fill="white" stroke="#bfbfbf" points="148.32,-56.5 148.32,-75.5 195.32,-75.5 195.32,-56.5 148.32,-56.5"/>
<text text-anchor="middle" x="171.82" y="-63.5" font-family="Helvetica,sans-Serif" font-size="10.00">vector</text>
</a>
</g>
</g>
<!-- Node1&#45;&gt;Node5 -->
<g id="edge4" class="edge">
<title>Node1&#45;&gt;Node5</title>
<path fill="none" stroke="midnightblue" d="M146.64,-112.4C151.29,-104.02 157.22,-93.33 162.16,-84.42"/>
<polygon fill="midnightblue" stroke="midnightblue" points="165.23,-86.1 167.02,-75.66 159.11,-82.71 165.23,-86.1"/>
</g>
<!-- Node6 -->
<g id="node6" class="node">
<title>Node6</title>
<g id="a_node6"><a xlink:title=" ">
<polygon fill="white" stroke="#bfbfbf" points="213.82,-56.5 213.82,-75.5 291.82,-75.5 291.82,-56.5 213.82,-56.5"/>
<text text-anchor="middle" x="252.82" y="-63.5" font-family="Helvetica,sans-Serif" font-size="10.00">gtest/gtest.h</text>
</a>
</g>
</g>
<!-- Node1&#45;&gt;Node6 -->
<g id="edge5" class="edge">
<title>Node1&#45;&gt;Node6</title>
<path fill="none" stroke="midnightblue" d="M165.84,-112.4C184.45,-102.68 209.03,-89.86 227.31,-80.31"/>
<polygon fill="midnightblue" stroke="midnightblue" points="228.99,-83.39 236.23,-75.66 225.75,-77.18 228.99,-83.39"/>
</g>
<!-- Node7 -->
<g id="node7" class="node">
<title>Node7</title>
<g id="a_node7"><a xlink:href="shadow__memory_8H.html" target="_top" xlink:title=" ">
<polygon fill="white" stroke="black" points="309.82,-56.5 309.82,-75.5 419.82,-75.5 419.82,-56.5 309.82,-56.5"/>
<text text-anchor="middle" x="364.82" y="-63.5" font-family="Helvetica,sans-Serif" font-size="10.00">shadow_memory.H</text>
</a>
</g>
</g>
<!-- Node1&#45;&gt;Node7 -->
<g id="edge6" class="edge">
<title>Node1&#45;&gt;Node7</title>
<path fill="none" stroke="midnightblue" d="M192.09,-112.47C231.94,-101.99 285.68,-87.84 322.58,-78.12"/>
<polygon fill="midnightblue" stroke="midnightblue" points="323.73,-81.44 332.51,-75.51 321.95,-74.67 323.73,-81.44"/>
</g>
<!-- Node7&#45;&gt;Node2 -->
<g id="edge8" class="edge">
<title>Node7&#45;&gt;Node2</title>
<path fill="none" stroke="midnightblue" d="M323.62,-56.44C272.93,-45.92 187.73,-28.22 139.98,-18.3"/>
<polygon fill="midnightblue" stroke="midnightblue" points="140.61,-14.86 130.1,-16.25 139.18,-21.71 140.61,-14.86"/>
</g>
<!-- Node8 -->
<g id="node8" class="node">
<title>Node8</title>
<g id="a_node8"><a xlink:title=" ">
<polygon fill="white" stroke="#bfbfbf" points="225.32,-0.5 225.32,-19.5 278.32,-19.5 278.32,-0.5 225.32,-0.5"/>
<text text-anchor="middle" x="251.82" y="-7.5" font-family="Helvetica,sans-Serif" font-size="10.00">stdint.h</text>
</a>
</g>
</g>
<!-- Node7&#45;&gt;Node8 -->
<g id="edge7" class="edge">
<title>Node7&#45;&gt;Node8</title>
<path fill="none" stroke="midnightblue" d="M346.92,-56.44C328.57,-47.68 299.82,-33.94 278.73,-23.86"/>
<polygon fill="midnightblue" stroke="midnightblue" points="280.18,-20.67 269.64,-19.52 277.16,-26.99 280.18,-20.67"/>
</g>
<!-- Node9 -->
<g id="node9" class="node">
<title>Node9</title>
<g id="a_node9"><a xlink:title=" ">
<polygon fill="white" stroke="#bfbfbf" points="296.32,-0.5 296.32,-19.5 349.32,-19.5 349.32,-0.5 296.32,-0.5"/>
<text text-anchor="middle" x="322.82" y="-7.5" font-family="Helvetica,sans-Serif" font-size="10.00">stdlib.h</text>
</a>
</g>
</g>
<!-- Node7&#45;&gt;Node9 -->
<g id="edge9" class="edge">
<title>Node7&#45;&gt;Node9</title>
<path fill="none" stroke="midnightblue" d="M357.89,-56.08C351.89,-48.38 343.07,-37.03 335.77,-27.65"/>
<polygon fill="midnightblue" stroke="midnightblue" points="338.53,-25.5 329.63,-19.75 333,-29.79 338.53,-25.5"/>
</g>
<!-- Node10 -->
<g id="node10" class="node">
<title>Node10</title>
<g id="a_node10"><a xlink:title=" ">
<polygon fill="white" stroke="#bfbfbf" points="367.32,-0.5 367.32,-19.5 444.32,-19.5 444.32,-0.5 367.32,-0.5"/>
<text text-anchor="middle" x="405.82" y="-7.5" font-family="Helvetica,sans-Serif" font-size="10.00">sys/mman.h</text>
</a>
</g>
</g>
<!-- Node7&#45;&gt;Node10 -->
<g id="edge10" class="edge">
<title>Node7&#45;&gt;Node10</title>
<path fill="none" stroke="midnightblue" d="M371.59,-56.08C377.38,-48.46 385.88,-37.26 392.96,-27.94"/>
<polygon fill="midnightblue" stroke="midnightblue" points="395.92,-29.83 399.18,-19.75 390.34,-25.6 395.92,-29.83"/>
</g>
<!-- Node11 -->
<g id="node11" class="node">
<title>Node11</title>
<g id="a_node11"><a xlink:title=" ">
<polygon fill="white" stroke="#bfbfbf" points="462.32,-0.5 462.32,-19.5 503.32,-19.5 503.32,-0.5 462.32,-0.5"/>
<text text-anchor="middle" x="482.82" y="-7.5" font-family="Helvetica,sans-Serif" font-size="10.00">tuple</text>
</a>
</g>
</g>
<!-- Node7&#45;&gt;Node11 -->
<g id="edge11" class="edge">
<title>Node7&#45;&gt;Node11</title>
<path fill="none" stroke="midnightblue" d="M383.52,-56.44C402.77,-47.64 432.97,-33.81 455.02,-23.72"/>
<polygon fill="midnightblue" stroke="midnightblue" points="456.58,-26.86 464.21,-19.52 453.66,-20.5 456.58,-26.86"/>
</g>
</g>
</svg>
