<?xml version="1.0" encoding="UTF-8" standalone="no"?>
<!DOCTYPE svg PUBLIC "-//W3C//DTD SVG 1.1//EN"
 "http://www.w3.org/Graphics/SVG/1.1/DTD/svg11.dtd">
<!-- Generated by graphviz version 2.43.0 (0)
 -->
<!-- Title: src/shadow_memory.H Pages: 1 -->
<!--zoomable 95 -->
<svg id="main" version="1.1" xmlns="http://www.w3.org/2000/svg" xmlns:xlink="http://www.w3.org/1999/xlink" xml:space="preserve" onload="init(evt)">
<style type="text/css"><![CDATA[
.edge:hover path { stroke: red; }
.edge:hover polygon { stroke: red; fill: red; }
]]></style>
<script type="text/javascript"><![CDATA[
var edges = document.getElementsByTagName('g');
if (edges && edges.length) {
  for (var i=0;i<edges.length;i++) {
    if (edges[i].id.substr(0,4)=='edge') {
      edges[i].setAttribute('class','edge');
    }
  }
}
]]></script>
        <defs>
                <circle id="rim" cx="0" cy="0" r="7"/>
                <circle id="rim2" cx="0" cy="0" r="3.5"/>
                <g id="zoomPlus">
                        <use xlink:href="#rim" fill="#404040">
                                <set attributeName="fill" to="#808080" begin="zoomplus.mouseover" end="zoomplus.mouseout"/>
                        </use>
                        <path d="M-4,0h8M0,-4v8" fill="none" stroke="white" stroke-width="1.5" pointer-events="none"/>
                </g>
                <g id="zoomMin">
                        <use xlink:href="#rim" fill="#404040">
                                <set attributeName="fill" to="#808080" begin="zoomminus.mouseover" end="zoomminus.mouseout"/>
                        </use>
                        <path d="M-4,0h8" fill="none" stroke="white" stroke-width="1.5" pointer-events="none"/>
                </g>
                <g id="dirArrow">
                        <path fill="none" stroke="white" stroke-width="1.5" d="M0,-3.0v7 M-2.5,-0.5L0,-3.0L2.5,-0.5"/>
                </g>
               <g id="resetDef">
                       <use xlink:href="#rim2" fill="#404040">
                               <set attributeName="fill" to="#808080" begin="reset.mouseover" end="reset.mouseout"/>
                       </use>
               </g>
        </defs>

<script type="text/javascript">
var viewWidth = 1479;
var viewHeight = 95;
var sectionId = 'dynsection-1';
</script>
<script xlink:href="svgpan.js"/>
<svg id="graph" class="graph">
<g id="viewport">
<title>src/shadow_memory.H</title>
<polygon fill="white" stroke="transparent" points="-4,4 -4,-91 1475,-91 1475,4 -4,4"/>
<!-- Node1 -->
<g id="node1" class="node">
<title>Node1</title>
<g id="a_node1"><a xlink:title=" ">
<polygon fill="#bfbfbf" stroke="black" points="656.5,-67.5 656.5,-86.5 783.5,-86.5 783.5,-67.5 656.5,-67.5"/>
<text text-anchor="middle" x="720" y="-74.5" font-family="Helvetica,sans-Serif" font-size="10.00">src/shadow_memory.H</text>
</a>
</g>
</g>
<!-- Node2 -->
<g id="node2" class="node">
<title>Node2</title>
<g id="a_node2"><a xlink:href="cctlib_8cpp.html" target="_top" xlink:title=" ">
<polygon fill="white" stroke="black" points="0,-6 0,-25 80,-25 80,-6 0,-6"/>
<text text-anchor="middle" x="40" y="-13" font-family="Helvetica,sans-Serif" font-size="10.00">src/cctlib.cpp</text>
</a>
</g>
</g>
<!-- Node1&#45;&gt;Node2 -->
<g id="edge1" class="edge">
<title>Node1&#45;&gt;Node2</title>
<path fill="none" stroke="midnightblue" d="M646.25,-75.89C527.8,-74.57 288.24,-67.14 89,-31 81.06,-29.56 72.57,-27.31 64.93,-25.01"/>
<polygon fill="midnightblue" stroke="midnightblue" points="646.26,-79.39 656.29,-75.99 646.33,-72.39 646.26,-79.39"/>
</g>
<!-- Node3 -->
<g id="node3" class="node">
<title>Node3</title>
<g id="a_node3"><a xlink:href="ins__reuse__client_8cpp.html" target="_top" xlink:title=" ">
<polygon fill="white" stroke="black" points="98.5,-6 98.5,-25 249.5,-25 249.5,-6 98.5,-6"/>
<text text-anchor="middle" x="174" y="-13" font-family="Helvetica,sans-Serif" font-size="10.00">clients/ins_reuse_client.cpp</text>
</a>
</g>
</g>
<!-- Node1&#45;&gt;Node3 -->
<g id="edge2" class="edge">
<title>Node1&#45;&gt;Node3</title>
<path fill="none" stroke="midnightblue" d="M646.33,-70.51C554.99,-63.32 394.64,-49.42 258,-31 245.53,-29.32 232.09,-27.16 219.68,-25.02"/>
<polygon fill="midnightblue" stroke="midnightblue" points="646.06,-74 656.31,-71.29 646.61,-67.02 646.06,-74"/>
</g>
<!-- Node4 -->
<g id="node4" class="node">
<title>Node4</title>
<g id="a_node4"><a xlink:href="loadspy__client_8cpp.html" target="_top" xlink:title=" ">
<polygon fill="white" stroke="black" points="267.5,-6 267.5,-25 410.5,-25 410.5,-6 267.5,-6"/>
<text text-anchor="middle" x="339" y="-13" font-family="Helvetica,sans-Serif" font-size="10.00">clients/loadspy_client.cpp</text>
</a>
</g>
</g>
<!-- Node1&#45;&gt;Node4 -->
<g id="edge3" class="edge">
<title>Node1&#45;&gt;Node4</title>
<path fill="none" stroke="midnightblue" d="M649.61,-66.02C588.76,-57.25 498.48,-43.91 420,-31 408.72,-29.15 396.58,-27.03 385.22,-25.01"/>
<polygon fill="midnightblue" stroke="midnightblue" points="649.48,-69.53 659.87,-67.49 650.47,-62.6 649.48,-69.53"/>
</g>
<!-- Node5 -->
<g id="node5" class="node">
<title>Node5</title>
<g id="a_node5"><a xlink:href="omp__datarace__client_8cpp.html" target="_top" xlink:title=" ">
<polygon fill="white" stroke="black" points="429,-0.5 429,-30.5 551,-30.5 551,-0.5 429,-0.5"/>
<text text-anchor="start" x="437" y="-18.5" font-family="Helvetica,sans-Serif" font-size="10.00">clients/omp_datarace</text>
<text text-anchor="middle" x="490" y="-7.5" font-family="Helvetica,sans-Serif" font-size="10.00">_client.cpp</text>
</a>
</g>
</g>
<!-- Node1&#45;&gt;Node5 -->
<g id="edge4" class="edge">
<title>Node1&#45;&gt;Node5</title>
<path fill="none" stroke="midnightblue" d="M676.93,-64.86C639.38,-55.14 584.73,-41.01 544.21,-30.52"/>
<polygon fill="midnightblue" stroke="midnightblue" points="676.49,-68.36 687.05,-67.48 678.24,-61.58 676.49,-68.36"/>
</g>
<!-- Node6 -->
<g id="node6" class="node">
<title>Node6</title>
<g id="a_node6"><a xlink:href="redspy__temporal__client_8cpp.html" target="_top" xlink:title=" ">
<polygon fill="white" stroke="black" points="569,-0.5 569,-30.5 703,-30.5 703,-0.5 569,-0.5"/>
<text text-anchor="start" x="577" y="-18.5" font-family="Helvetica,sans-Serif" font-size="10.00">clients/redspy_temporal</text>
<text text-anchor="middle" x="636" y="-7.5" font-family="Helvetica,sans-Serif" font-size="10.00">_client.cpp</text>
</a>
</g>
</g>
<!-- Node1&#45;&gt;Node6 -->
<g id="edge5" class="edge">
<title>Node1&#45;&gt;Node6</title>
<path fill="none" stroke="midnightblue" d="M699.48,-61.47C686.18,-52.05 668.95,-39.84 655.8,-30.52"/>
<polygon fill="midnightblue" stroke="midnightblue" points="697.78,-64.55 707.96,-67.48 701.83,-58.84 697.78,-64.55"/>
</g>
<!-- Node7 -->
<g id="node7" class="node">
<title>Node7</title>
<g id="a_node7"><a xlink:href="zerospy__cachepage_8cpp.html" target="_top" xlink:title=" ">
<polygon fill="white" stroke="black" points="721,-6 721,-25 889,-25 889,-6 721,-6"/>
<text text-anchor="middle" x="805" y="-13" font-family="Helvetica,sans-Serif" font-size="10.00">clients/zerospy_cachepage.cpp</text>
</a>
</g>
</g>
<!-- Node1&#45;&gt;Node7 -->
<g id="edge6" class="edge">
<title>Node1&#45;&gt;Node7</title>
<path fill="none" stroke="midnightblue" d="M740.55,-61.61C756.9,-50.17 779.22,-34.55 792.84,-25.01"/>
<polygon fill="midnightblue" stroke="midnightblue" points="738.36,-58.87 732.18,-67.48 742.38,-64.61 738.36,-58.87"/>
</g>
<!-- Node8 -->
<g id="node8" class="node">
<title>Node8</title>
<g id="a_node8"><a xlink:href="zerospy__client_8cpp.html" target="_top" xlink:title=" ">
<polygon fill="white" stroke="black" points="907.5,-6 907.5,-25 1050.5,-25 1050.5,-6 907.5,-6"/>
<text text-anchor="middle" x="979" y="-13" font-family="Helvetica,sans-Serif" font-size="10.00">clients/zerospy_client.cpp</text>
</a>
</g>
</g>
<!-- Node1&#45;&gt;Node8 -->
<g id="edge7" class="edge">
<title>Node1&#45;&gt;Node8</title>
<path fill="none" stroke="midnightblue" d="M767.07,-65.19C817.33,-53.64 895.93,-35.58 941.96,-25.01"/>
<polygon fill="midnightblue" stroke="midnightblue" points="766.07,-61.82 757.11,-67.48 767.64,-68.65 766.07,-61.82"/>
</g>
<!-- Node9 -->
<g id="node9" class="node">
<title>Node9</title>
<g id="a_node9"><a xlink:href="zerospy__spatial__client_8cpp.html" target="_top" xlink:title=" ">
<polygon fill="white" stroke="black" points="1069,-0.5 1069,-30.5 1197,-30.5 1197,-0.5 1069,-0.5"/>
<text text-anchor="start" x="1077" y="-18.5" font-family="Helvetica,sans-Serif" font-size="10.00">clients/zerospy_spatial</text>
<text text-anchor="middle" x="1133" y="-7.5" font-family="Helvetica,sans-Serif" font-size="10.00">_client.cpp</text>
</a>
</g>
</g>
<!-- Node1&#45;&gt;Node9 -->
<g id="edge8" class="edge">
<title>Node1&#45;&gt;Node9</title>
<path fill="none" stroke="midnightblue" d="M794.12,-67.59C863.13,-59.42 968.78,-46.08 1060,-31 1062.93,-30.52 1065.93,-30 1068.95,-29.47"/>
<polygon fill="midnightblue" stroke="midnightblue" points="793.31,-64.16 783.79,-68.8 794.13,-71.11 793.31,-64.16"/>
</g>
<!-- Node10 -->
<g id="node10" class="node">
<title>Node10</title>
<g id="a_node10"><a xlink:href="shadow__memory__test_8cpp.html" target="_top" xlink:title=" ">
<polygon fill="white" stroke="black" points="1215.5,-0.5 1215.5,-30.5 1324.5,-30.5 1324.5,-0.5 1215.5,-0.5"/>
<text text-anchor="start" x="1223.5" y="-18.5" font-family="Helvetica,sans-Serif" font-size="10.00">tests/gtest/shadow</text>
<text text-anchor="middle" x="1270" y="-7.5" font-family="Helvetica,sans-Serif" font-size="10.00">_memory_test.cpp</text>
</a>
</g>
</g>
<!-- Node1&#45;&gt;Node10 -->
<g id="edge9" class="edge">
<title>Node1&#45;&gt;Node10</title>
<path fill="none" stroke="midnightblue" d="M793.77,-72.17C889.32,-66.53 1060.86,-54.06 1206,-31 1209.04,-30.52 1212.15,-29.98 1215.28,-29.39"/>
<polygon fill="midnightblue" stroke="midnightblue" points="793.41,-68.69 783.63,-72.76 793.81,-75.68 793.41,-68.69"/>
</g>
<!-- Node11 -->
<g id="node11" class="node">
<title>Node11</title>
<g id="a_node11"><a xlink:href="shadow__memory__unittest_8cpp.html" target="_top" xlink:title=" ">
<polygon fill="white" stroke="black" points="1343,-0.5 1343,-30.5 1471,-30.5 1471,-0.5 1343,-0.5"/>
<text text-anchor="start" x="1351" y="-18.5" font-family="Helvetica,sans-Serif" font-size="10.00">tests/shadow_memory</text>
<text text-anchor="middle" x="1407" y="-7.5" font-family="Helvetica,sans-Serif" font-size="10.00">_unittest.cpp</text>
</a>
</g>
</g>
<!-- Node1&#45;&gt;Node11 -->
<g id="edge10" class="edge">
<title>Node1&#45;&gt;Node11</title>
<path fill="none" stroke="midnightblue" d="M794.07,-73.51C909.76,-68.96 1140.2,-57.25 1334,-31 1336.94,-30.6 1339.95,-30.16 1342.98,-29.68"/>
<polygon fill="midnightblue" stroke="midnightblue" points="793.77,-70.02 783.91,-73.9 794.04,-77.02 793.77,-70.02"/>
</g>
</g>
</svg>
        <g id="navigator" transform="translate(0 0)" fill="#404254">
                <rect fill="#f2f5e9" fill-opacity="0.5" stroke="#606060" stroke-width=".5" x="0" y="0" width="60" height="60"/>
                <use id="zoomplus" xlink:href="#zoomPlus" x="17" y="9" onmousedown="handleZoom(evt,'in')"/>
                <use id="zoomminus" xlink:href="#zoomMin" x="42" y="9" onmousedown="handleZoom(evt,'out')"/>
                <use id="reset" xlink:href="#resetDef" x="30" y="36" onmousedown="handleReset()"/>
                <g id="arrowUp" xlink:href="#dirArrow" transform="translate(30 24)" onmousedown="handlePan(0,-1)">
                  <use xlink:href="#rim" fill="#404040">
                        <set attributeName="fill" to="#808080" begin="arrowUp.mouseover" end="arrowUp.mouseout"/>
                  </use>
                  <path fill="none" stroke="white" stroke-width="1.5" d="M0,-3.0v7 M-2.5,-0.5L0,-3.0L2.5,-0.5"/>
                </g>
                <g id="arrowRight" xlink:href="#dirArrow" transform="rotate(90) translate(36 -43)" onmousedown="handlePan(1,0)">
                  <use xlink:href="#rim" fill="#404040">
                        <set attributeName="fill" to="#808080" begin="arrowRight.mouseover" end="arrowRight.mouseout"/>
                  </use>
                  <path fill="none" stroke="white" stroke-width="1.5" d="M0,-3.0v7 M-2.5,-0.5L0,-3.0L2.5,-0.5"/>
                </g>
                <g id="arrowDown" xlink:href="#dirArrow" transform="rotate(180) translate(-30 -48)" onmousedown="handlePan(0,1)">
                  <use xlink:href="#rim" fill="#404040">
                        <set attributeName="fill" to="#808080" begin="arrowDown.mouseover" end="arrowDown.mouseout"/>
                  </use>
                  <path fill="none" stroke="white" stroke-width="1.5" d="M0,-3.0v7 M-2.5,-0.5L0,-3.0L2.5,-0.5"/>
                </g>
                <g id="arrowLeft" xlink:href="#dirArrow" transform="rotate(270) translate(-36 17)" onmousedown="handlePan(-1,0)">
                  <use xlink:href="#rim" fill="#404040">
                        <set attributeName="fill" to="#808080" begin="arrowLeft.mouseover" end="arrowLeft.mouseout"/>
                  </use>
                  <path fill="none" stroke="white" stroke-width="1.5" d="M0,-3.0v7 M-2.5,-0.5L0,-3.0L2.5,-0.5"/>
                </g>
        </g>
        <svg viewBox="0 0 15 15" width="100%" height="30px" preserveAspectRatio="xMaxYMin meet">
         <g id="arrow_out" transform="scale(0.3 0.3)">
          <a xlink:href="shadow__memory_8H__dep__incl_org.svg" target="_base">
           <rect id="button" ry="5" rx="5" y="6" x="6" height="38" width="38"
                fill="#f2f5e9" fill-opacity="0.5" stroke="#606060" stroke-width="1.0"/>
           <path id="arrow"
             d="M 11.500037,31.436501 C 11.940474,20.09759 22.043105,11.32322 32.158766,21.979434 L 37.068811,17.246167 C 37.068811,17.246167 37.088388,32 37.088388,32 L 22.160133,31.978069 C 22.160133,31.978069 26.997745,27.140456 26.997745,27.140456 C 18.528582,18.264221 13.291696,25.230495 11.500037,31.436501 z"
             style="fill:#404040;"/>
          </a>
         </g>
        </svg>
</svg>
