<?xml version="1.0" encoding="UTF-8" standalone="no"?>
<!DOCTYPE svg PUBLIC "-//W3C//DTD SVG 1.1//EN"
 "http://www.w3.org/Graphics/SVG/1.1/DTD/svg11.dtd">
<!-- Generated by graphviz version 2.43.0 (0)
 -->
<!-- Title: src/splay&#45;macros.h Pages: 1 -->
<svg width="408pt" height="95pt"
 viewBox="0.00 0.00 408.00 95.00" xmlns="http://www.w3.org/2000/svg" xmlns:xlink="http://www.w3.org/1999/xlink">
<g id="graph0" class="graph" transform="scale(1 1) rotate(0) translate(4 91)">
<title>src/splay&#45;macros.h</title>
<polygon fill="white" stroke="transparent" points="-4,4 -4,-91 404,-91 404,4 -4,4"/>
<!-- Node1 -->
<g id="node1" class="node">
<title>Node1</title>
<g id="a_node1"><a xlink:title=" ">
<polygon fill="#bfbfbf" stroke="black" points="121.5,-67.5 121.5,-86.5 230.5,-86.5 230.5,-67.5 121.5,-67.5"/>
<text text-anchor="middle" x="176" y="-74.5" font-family="Helvetica,sans-Serif" font-size="10.00">src/splay&#45;macros.h</text>
</a>
</g>
</g>
<!-- Node2 -->
<g id="node2" class="node">
<title>Node2</title>
<g id="a_node2"><a xlink:href="cctlib_8cpp.html" target="_top" xlink:title=" ">
<polygon fill="white" stroke="black" points="0,-6 0,-25 80,-25 80,-6 0,-6"/>
<text text-anchor="middle" x="40" y="-13" font-family="Helvetica,sans-Serif" font-size="10.00">src/cctlib.cpp</text>
</a>
</g>
</g>
<!-- Node1&#45;&gt;Node2 -->
<g id="edge1" class="edge">
<title>Node1&#45;&gt;Node2</title>
<path fill="none" stroke="midnightblue" d="M147.03,-63.33C120.63,-51.78 82.36,-35.03 59.45,-25.01"/>
<polygon fill="midnightblue" stroke="midnightblue" points="145.95,-66.67 156.51,-67.48 148.76,-60.26 145.95,-66.67"/>
</g>
<!-- Node3 -->
<g id="node3" class="node">
<title>Node3</title>
<g id="a_node3"><a xlink:href="gtest_2splay__deserialize__test_8cpp.html" target="_top" xlink:title=" ">
<polygon fill="white" stroke="black" points="98,-0.5 98,-30.5 254,-30.5 254,-0.5 98,-0.5"/>
<text text-anchor="start" x="106" y="-18.5" font-family="Helvetica,sans-Serif" font-size="10.00">tests/gtest/splay_deserialize</text>
<text text-anchor="middle" x="176" y="-7.5" font-family="Helvetica,sans-Serif" font-size="10.00">_test.cpp</text>
</a>
</g>
</g>
<!-- Node1&#45;&gt;Node3 -->
<g id="edge2" class="edge">
<title>Node1&#45;&gt;Node3</title>
<path fill="none" stroke="midnightblue" d="M176,-57.23C176,-48.59 176,-38.5 176,-30.52"/>
<polygon fill="midnightblue" stroke="midnightblue" points="172.5,-57.48 176,-67.48 179.5,-57.48 172.5,-57.48"/>
</g>
<!-- Node4 -->
<g id="node4" class="node">
<title>Node4</title>
<g id="a_node4"><a xlink:href="splay__deserialize__test_8cpp.html" target="_top" xlink:title=" ">
<polygon fill="white" stroke="black" points="272,-0.5 272,-30.5 400,-30.5 400,-0.5 272,-0.5"/>
<text text-anchor="start" x="280" y="-18.5" font-family="Helvetica,sans-Serif" font-size="10.00">tests/splay_deserialize</text>
<text text-anchor="middle" x="336" y="-7.5" font-family="Helvetica,sans-Serif" font-size="10.00">_test.cpp</text>
</a>
</g>
</g>
<!-- Node1&#45;&gt;Node4 -->
<g id="edge3" class="edge">
<title>Node1&#45;&gt;Node4</title>
<path fill="none" stroke="midnightblue" d="M208.33,-63.98C234.35,-54.3 270.95,-40.69 298.29,-30.52"/>
<polygon fill="midnightblue" stroke="midnightblue" points="207.08,-60.71 198.92,-67.48 209.52,-67.27 207.08,-60.71"/>
</g>
</g>
</svg>
