<?xml version="1.0" encoding="UTF-8" standalone="no"?>
<!DOCTYPE svg PUBLIC "-//W3C//DTD SVG 1.1//EN"
 "http://www.w3.org/Graphics/SVG/1.1/DTD/svg11.dtd">
<!-- Generated by graphviz version 2.43.0 (0)
 -->
<!-- Title: PinCCTLib::IPNode Pages: 1 -->
<svg width="322pt" height="164pt"
 viewBox="0.00 0.00 322.00 164.00" xmlns="http://www.w3.org/2000/svg" xmlns:xlink="http://www.w3.org/1999/xlink">
<g id="graph0" class="graph" transform="scale(1 1) rotate(0) translate(4 160)">
<title>PinCCTLib::IPNode</title>
<polygon fill="white" stroke="transparent" points="-4,4 -4,-160 318,-160 318,4 -4,4"/>
<!-- Node1 -->
<g id="node1" class="node">
<title>Node1</title>
<g id="a_node1"><a xlink:title=" ">
<polygon fill="#bfbfbf" stroke="black" points="8,-0.5 8,-19.5 114,-19.5 114,-0.5 8,-0.5"/>
<text text-anchor="middle" x="61" y="-7.5" font-family="Helvetica,sans-Serif" font-size="10.00">PinCCTLib::IPNode</text>
</a>
</g>
</g>
<!-- Node2 -->
<g id="node2" class="node">
<title>Node2</title>
<g id="a_node2"><a xlink:href="structPinCCTLib_1_1TraceNode.html" target="_top" xlink:title=" ">
<polygon fill="white" stroke="black" points="0,-136.5 0,-155.5 122,-155.5 122,-136.5 0,-136.5"/>
<text text-anchor="middle" x="61" y="-143.5" font-family="Helvetica,sans-Serif" font-size="10.00">PinCCTLib::TraceNode</text>
</a>
</g>
</g>
<!-- Node2&#45;&gt;Node1 -->
<g id="edge1" class="edge">
<title>Node2&#45;&gt;Node1</title>
<path fill="none" stroke="#9a32cd" stroke-dasharray="5,2" d="M57.73,-126.32C55.34,-110.53 52.74,-87.31 54,-67 55.05,-50.18 57.85,-30.68 59.57,-19.7"/>
<polygon fill="#9a32cd" stroke="#9a32cd" points="54.3,-127.05 59.36,-136.36 61.21,-125.92 54.3,-127.05"/>
<text text-anchor="middle" x="97" y="-75.5" font-family="Helvetica,sans-Serif" font-size="10.00"> parentTraceNode</text>
</g>
<!-- Node3 -->
<g id="node3" class="node">
<title>Node3</title>
<g id="a_node3"><a xlink:href="structPinCCTLib_1_1TraceSplay.html" target="_top" xlink:title=" ">
<polygon fill="white" stroke="black" points="149,-68.5 149,-87.5 273,-87.5 273,-68.5 149,-68.5"/>
<text text-anchor="middle" x="211" y="-75.5" font-family="Helvetica,sans-Serif" font-size="10.00">PinCCTLib::TraceSplay</text>
</a>
</g>
</g>
<!-- Node2&#45;&gt;Node3 -->
<g id="edge3" class="edge">
<title>Node2&#45;&gt;Node3</title>
<path fill="none" stroke="#9a32cd" stroke-dasharray="5,2" d="M90.08,-132.21C119.93,-119.07 165.56,-99 191.39,-87.63"/>
<polygon fill="#9a32cd" stroke="#9a32cd" points="88.35,-129.14 80.61,-136.37 91.17,-135.55 88.35,-129.14"/>
<text text-anchor="middle" x="159.5" y="-110" font-family="Helvetica,sans-Serif" font-size="10.00"> value</text>
</g>
<!-- Node3&#45;&gt;Node1 -->
<g id="edge2" class="edge">
<title>Node3&#45;&gt;Node1</title>
<path fill="none" stroke="#9a32cd" stroke-dasharray="5,2" d="M181.92,-64.21C152.07,-51.07 106.44,-31 80.61,-19.63"/>
<polygon fill="#9a32cd" stroke="#9a32cd" points="180.83,-67.55 191.39,-68.37 183.65,-61.14 180.83,-67.55"/>
<text text-anchor="middle" x="188.5" y="-41" font-family="Helvetica,sans-Serif" font-size="10.00"> calleeTraceNodes</text>
</g>
<!-- Node3&#45;&gt;Node3 -->
<g id="edge4" class="edge">
<title>Node3&#45;&gt;Node3</title>
<path fill="none" stroke="#9a32cd" stroke-dasharray="5,2" d="M283.03,-82.62C287.99,-81.56 291,-80.02 291,-78 291,-74.85 283.66,-72.86 273.05,-72.05"/>
<polygon fill="#9a32cd" stroke="#9a32cd" points="282.5,-79.16 273.05,-83.95 283.43,-86.1 282.5,-79.16"/>
<text text-anchor="middle" x="302.5" y="-81" font-family="Helvetica,sans-Serif" font-size="10.00"> left</text>
<text text-anchor="middle" x="302.5" y="-70" font-family="Helvetica,sans-Serif" font-size="10.00">right</text>
</g>
</g>
</svg>
