<?xml version="1.0" encoding="UTF-8" standalone="no"?>
<!DOCTYPE svg PUBLIC "-//W3C//DTD SVG 1.1//EN"
 "http://www.w3.org/Graphics/SVG/1.1/DTD/svg11.dtd">
<!-- Generated by graphviz version 2.43.0 (0)
 -->
<!-- Title: CctInventory Pages: 1 -->
<svg width="711pt" height="184pt"
 viewBox="0.00 0.00 711.00 183.50" xmlns="http://www.w3.org/2000/svg" xmlns:xlink="http://www.w3.org/1999/xlink">
<g id="graph0" class="graph" transform="scale(1 1) rotate(0) translate(4 179.5)">
<title>CctInventory</title>
<polygon fill="white" stroke="transparent" points="-4,4 -4,-179.5 707,-179.5 707,4 -4,4"/>
<!-- Node1 -->
<g id="node1" class="node">
<title>Node1</title>
<g id="a_node1"><a xlink:title=" ">
<polygon fill="#bfbfbf" stroke="black" points="624,-73 624,-92 703,-92 703,-73 624,-73"/>
<text text-anchor="middle" x="663.5" y="-80" font-family="Helvetica,sans-Serif" font-size="10.00">CctInventory</text>
</a>
</g>
</g>
<!-- Node2 -->
<g id="node2" class="node">
<title>Node2</title>
<g id="a_node2"><a xlink:title=" ">
<polygon fill="white" stroke="#bfbfbf" points="341,-89 341,-108 496,-108 496,-89 341,-89"/>
<text text-anchor="middle" x="418.5" y="-96" font-family="Helvetica,sans-Serif" font-size="10.00">std::map&lt; string, uint64_t &gt;</text>
</a>
</g>
</g>
<!-- Node2&#45;&gt;Node1 -->
<g id="edge1" class="edge">
<title>Node2&#45;&gt;Node1</title>
<path fill="none" stroke="#9a32cd" stroke-dasharray="5,2" d="M506.14,-92.8C546.34,-90.15 592.1,-87.14 623.69,-85.06"/>
<polygon fill="#9a32cd" stroke="#9a32cd" points="505.8,-89.31 496.05,-93.46 506.26,-96.29 505.8,-89.31"/>
<text text-anchor="middle" x="560" y="-94.5" font-family="Helvetica,sans-Serif" font-size="10.00"> hitsByLeafFn</text>
</g>
<!-- Node3 -->
<g id="node3" class="node">
<title>Node3</title>
<g id="a_node3"><a xlink:title=" ">
<polygon fill="white" stroke="#bfbfbf" points="166,-88 166,-107 231,-107 231,-88 166,-88"/>
<text text-anchor="middle" x="198.5" y="-95" font-family="Helvetica,sans-Serif" font-size="10.00">std::string</text>
</a>
</g>
</g>
<!-- Node3&#45;&gt;Node2 -->
<g id="edge2" class="edge">
<title>Node3&#45;&gt;Node2</title>
<path fill="none" stroke="#9a32cd" stroke-dasharray="5,2" d="M241.44,-97.69C269.49,-97.82 307.22,-97.99 340.56,-98.15"/>
<polygon fill="#9a32cd" stroke="#9a32cd" points="241.22,-94.19 231.2,-97.65 241.18,-101.19 241.22,-94.19"/>
<text text-anchor="middle" x="298.5" y="-100.5" font-family="Helvetica,sans-Serif" font-size="10.00"> keys</text>
</g>
<!-- Node5 -->
<g id="node5" class="node">
<title>Node5</title>
<g id="a_node5"><a xlink:title=" ">
<polygon fill="white" stroke="#bfbfbf" points="346.5,-51 346.5,-70 490.5,-70 490.5,-51 346.5,-51"/>
<text text-anchor="middle" x="418.5" y="-58" font-family="Helvetica,sans-Serif" font-size="10.00">std::map&lt; string, size_t &gt;</text>
</a>
</g>
</g>
<!-- Node3&#45;&gt;Node5 -->
<g id="edge5" class="edge">
<title>Node3&#45;&gt;Node5</title>
<path fill="none" stroke="#9a32cd" stroke-dasharray="5,2" d="M241.26,-88.74C251.92,-86.6 263.37,-84.38 274,-82.5 299.07,-78.06 326.69,-73.7 350.95,-70.04"/>
<polygon fill="#9a32cd" stroke="#9a32cd" points="240.44,-85.33 231.34,-90.75 241.84,-92.19 240.44,-85.33"/>
<text text-anchor="middle" x="298.5" y="-85.5" font-family="Helvetica,sans-Serif" font-size="10.00"> keys</text>
</g>
<!-- Node7 -->
<g id="node7" class="node">
<title>Node7</title>
<g id="a_node7"><a xlink:title=" ">
<polygon fill="white" stroke="#bfbfbf" points="359,-127.5 359,-157.5 478,-157.5 478,-127.5 359,-127.5"/>
<text text-anchor="start" x="367" y="-145.5" font-family="Helvetica,sans-Serif" font-size="10.00">std::map&lt; string, set</text>
<text text-anchor="middle" x="418.5" y="-134.5" font-family="Helvetica,sans-Serif" font-size="10.00">&lt; FnChain &gt; &gt;</text>
</a>
</g>
</g>
<!-- Node3&#45;&gt;Node7 -->
<g id="edge8" class="edge">
<title>Node3&#45;&gt;Node7</title>
<path fill="none" stroke="#9a32cd" stroke-dasharray="5,2" d="M241.06,-106.08C274.36,-112.95 321.48,-122.68 358.65,-130.35"/>
<polygon fill="#9a32cd" stroke="#9a32cd" points="241.7,-102.64 231.2,-104.04 240.29,-109.49 241.7,-102.64"/>
<text text-anchor="middle" x="298.5" y="-125.5" font-family="Helvetica,sans-Serif" font-size="10.00"> keys</text>
</g>
<!-- Node4 -->
<g id="node4" class="node">
<title>Node4</title>
<g id="a_node4"><a xlink:title=" ">
<polygon fill="white" stroke="#bfbfbf" points="0,-82.5 0,-112.5 104,-112.5 104,-82.5 0,-82.5"/>
<text text-anchor="start" x="8" y="-100.5" font-family="Helvetica,sans-Serif" font-size="10.00">std::basic_string&lt;</text>
<text text-anchor="middle" x="52" y="-89.5" font-family="Helvetica,sans-Serif" font-size="10.00"> Char &gt;</text>
</a>
</g>
</g>
<!-- Node4&#45;&gt;Node3 -->
<g id="edge3" class="edge">
<title>Node4&#45;&gt;Node3</title>
<path fill="none" stroke="midnightblue" d="M114.58,-97.5C132.17,-97.5 150.63,-97.5 165.65,-97.5"/>
<polygon fill="midnightblue" stroke="midnightblue" points="114.35,-94 104.35,-97.5 114.35,-101 114.35,-94"/>
</g>
<!-- Node5&#45;&gt;Node1 -->
<g id="edge4" class="edge">
<title>Node5&#45;&gt;Node1</title>
<path fill="none" stroke="#9a32cd" stroke-dasharray="5,2" d="M500.58,-53.13C533.56,-51.92 571.88,-52.82 606,-59.5 619.3,-62.1 633.43,-67.85 644.23,-72.95"/>
<polygon fill="#9a32cd" stroke="#9a32cd" points="500.36,-49.63 490.52,-53.57 500.67,-56.63 500.36,-49.63"/>
<text text-anchor="middle" x="560" y="-73.5" font-family="Helvetica,sans-Serif" font-size="10.00"> sentinelCounts</text>
<text text-anchor="middle" x="560" y="-62.5" font-family="Helvetica,sans-Serif" font-size="10.00">softSentinelCounts</text>
</g>
<!-- Node6 -->
<g id="node6" class="node">
<title>Node6</title>
<g id="a_node6"><a xlink:title=" ">
<polygon fill="white" stroke="#bfbfbf" points="362,-0.5 362,-30.5 475,-30.5 475,-0.5 362,-0.5"/>
<text text-anchor="start" x="370" y="-18.5" font-family="Helvetica,sans-Serif" font-size="10.00">std::map&lt; FnChain,</text>
<text text-anchor="middle" x="418.5" y="-7.5" font-family="Helvetica,sans-Serif" font-size="10.00"> uint64_t &gt;</text>
</a>
</g>
</g>
<!-- Node6&#45;&gt;Node1 -->
<g id="edge6" class="edge">
<title>Node6&#45;&gt;Node1</title>
<path fill="none" stroke="#9a32cd" stroke-dasharray="5,2" d="M485.54,-8.26C522.49,-6.89 568.51,-9.76 606,-26.5 628.45,-36.52 646.99,-59.68 656.21,-72.86"/>
<polygon fill="#9a32cd" stroke="#9a32cd" points="485.2,-4.77 475.38,-8.75 485.53,-11.76 485.2,-4.77"/>
<text text-anchor="middle" x="560" y="-40.5" font-family="Helvetica,sans-Serif" font-size="10.00"> chains</text>
<text text-anchor="middle" x="560" y="-29.5" font-family="Helvetica,sans-Serif" font-size="10.00">subChains</text>
</g>
<!-- Node7&#45;&gt;Node1 -->
<g id="edge7" class="edge">
<title>Node7&#45;&gt;Node1</title>
<path fill="none" stroke="#9a32cd" stroke-dasharray="5,2" d="M488.51,-132.75C524.05,-126.83 567.82,-118.15 606,-106.5 618.54,-102.67 632.07,-96.98 642.75,-92.1"/>
<polygon fill="#9a32cd" stroke="#9a32cd" points="487.55,-129.36 478.24,-134.42 488.67,-136.27 487.55,-129.36"/>
<text text-anchor="middle" x="560" y="-141.5" font-family="Helvetica,sans-Serif" font-size="10.00"> byLeafFn</text>
<text text-anchor="middle" x="560" y="-130.5" font-family="Helvetica,sans-Serif" font-size="10.00">subByLeafFn</text>
</g>
<!-- Node8 -->
<g id="node8" class="node">
<title>Node8</title>
<g id="a_node8"><a xlink:title=" ">
<polygon fill="white" stroke="#bfbfbf" points="141,-156 141,-175 256,-175 256,-156 141,-156"/>
<text text-anchor="middle" x="198.5" y="-163" font-family="Helvetica,sans-Serif" font-size="10.00">std::set&lt; FnChain &gt;</text>
</a>
</g>
</g>
<!-- Node8&#45;&gt;Node7 -->
<g id="edge9" class="edge">
<title>Node8&#45;&gt;Node7</title>
<path fill="none" stroke="#9a32cd" stroke-dasharray="5,2" d="M266.42,-158.44C295.93,-155.33 330.3,-151.7 358.8,-148.69"/>
<polygon fill="#9a32cd" stroke="#9a32cd" points="265.79,-154.99 256.21,-159.52 266.52,-161.95 265.79,-154.99"/>
<text text-anchor="middle" x="298.5" y="-159.5" font-family="Helvetica,sans-Serif" font-size="10.00"> elements</text>
</g>
</g>
</svg>
