<?xml version="1.0" encoding="UTF-8" standalone="no"?>
<!DOCTYPE svg PUBLIC "-//W3C//DTD SVG 1.1//EN"
 "http://www.w3.org/Graphics/SVG/1.1/DTD/svg11.dtd">
<!-- Generated by graphviz version 2.43.0 (0)
 -->
<!-- Title: node_metric_t Pages: 1 -->
<svg width="159pt" height="117pt"
 viewBox="0.00 0.00 158.50 117.00" xmlns="http://www.w3.org/2000/svg" xmlns:xlink="http://www.w3.org/1999/xlink">
<g id="graph0" class="graph" transform="scale(1 1) rotate(0) translate(4 113)">
<title>node_metric_t</title>
<polygon fill="white" stroke="transparent" points="-4,4 -4,-113 154.5,-113 154.5,4 -4,4"/>
<!-- Node1 -->
<g id="node1" class="node">
<title>Node1</title>
<g id="a_node1"><a xlink:title=" ">
<polygon fill="#bfbfbf" stroke="black" points="10.5,-0.5 10.5,-19.5 96.5,-19.5 96.5,-0.5 10.5,-0.5"/>
<text text-anchor="middle" x="53.5" y="-7.5" font-family="Helvetica,sans-Serif" font-size="10.00">node_metric_t</text>
</a>
</g>
</g>
<!-- Node2 -->
<g id="node2" class="node">
<title>Node2</title>
<g id="a_node2"><a xlink:title=" ">
<polygon fill="white" stroke="#bfbfbf" points="0,-78.5 0,-108.5 107,-108.5 107,-78.5 0,-78.5"/>
<text text-anchor="start" x="8" y="-96.5" font-family="Helvetica,sans-Serif" font-size="10.00">std::unordered_set</text>
<text text-anchor="middle" x="53.5" y="-85.5" font-family="Helvetica,sans-Serif" font-size="10.00">&lt; uint64_t &gt;</text>
</a>
</g>
</g>
<!-- Node2&#45;&gt;Node1 -->
<g id="edge1" class="edge">
<title>Node2&#45;&gt;Node1</title>
<path fill="none" stroke="#9a32cd" stroke-dasharray="5,2" d="M53.5,-68.25C53.5,-51.78 53.5,-30.99 53.5,-19.54"/>
<polygon fill="#9a32cd" stroke="#9a32cd" points="50,-68.3 53.5,-78.3 57,-68.3 50,-68.3"/>
<text text-anchor="middle" x="102" y="-52" font-family="Helvetica,sans-Serif" font-size="10.00"> addressSet</text>
<text text-anchor="middle" x="102" y="-41" font-family="Helvetica,sans-Serif" font-size="10.00">addressSetDecoded</text>
</g>
</g>
</svg>
