<?xml version="1.0" encoding="UTF-8" standalone="no"?>
<!DOCTYPE svg PUBLIC "-//W3C//DTD SVG 1.1//EN"
 "http://www.w3.org/Graphics/SVG/1.1/DTD/svg11.dtd">
<!-- Generated by graphviz version 2.43.0 (0)
 -->
<!-- Title: PinCCTLib::ThreadData Pages: 1 -->
<!--zoomable 172 -->
<svg id="main" version="1.1" xmlns="http://www.w3.org/2000/svg" xmlns:xlink="http://www.w3.org/1999/xlink" xml:space="preserve" onload="init(evt)">
<style type="text/css"><![CDATA[
.edge:hover path { stroke: red; }
.edge:hover polygon { stroke: red; fill: red; }
]]></style>
<script type="text/javascript"><![CDATA[
var edges = document.getElementsByTagName('g');
if (edges && edges.length) {
  for (var i=0;i<edges.length;i++) {
    if (edges[i].id.substr(0,4)=='edge') {
      edges[i].setAttribute('class','edge');
    }
  }
}
]]></script>
        <defs>
                <circle id="rim" cx="0" cy="0" r="7"/>
                <circle id="rim2" cx="0" cy="0" r="3.5"/>
                <g id="zoomPlus">
                        <use xlink:href="#rim" fill="#404040">
                                <set attributeName="fill" to="#808080" begin="zoomplus.mouseover" end="zoomplus.mouseout"/>
                        </use>
                        <path d="M-4,0h8M0,-4v8" fill="none" stroke="white" stroke-width="1.5" pointer-events="none"/>
                </g>
                <g id="zoomMin">
                        <use xlink:href="#rim" fill="#404040">
                                <set attributeName="fill" to="#808080" begin="zoomminus.mouseover" end="zoomminus.mouseout"/>
                        </use>
                        <path d="M-4,0h8" fill="none" stroke="white" stroke-width="1.5" pointer-events="none"/>
                </g>
                <g id="dirArrow">
                        <path fill="none" stroke="white" stroke-width="1.5" d="M0,-3.0v7 M-2.5,-0.5L0,-3.0L2.5,-0.5"/>
                </g>
               <g id="resetDef">
                       <use xlink:href="#rim2" fill="#404040">
                               <set attributeName="fill" to="#808080" begin="reset.mouseover" end="reset.mouseout"/>
                       </use>
               </g>
        </defs>

<script type="text/javascript">
var viewWidth = 910;
var viewHeight = 172;
var sectionId = 'dynsection-0';
</script>
<script xlink:href="svgpan.js"/>
<svg id="graph" class="graph">
<g id="viewport">
<title>PinCCTLib::ThreadData</title>
<polygon fill="white" stroke="transparent" points="-4,4 -4,-167.71 906,-167.71 906,4 -4,4"/>
<!-- Node1 -->
<g id="node1" class="node">
<title>Node1</title>
<g id="a_node1"><a xlink:title=" ">
<polygon fill="#bfbfbf" stroke="black" points="774,-94.71 774,-113.71 902,-113.71 902,-94.71 774,-94.71"/>
<text text-anchor="middle" x="838" y="-101.71" font-family="Helvetica,sans-Serif" font-size="10.00">PinCCTLib::ThreadData</text>
</a>
</g>
</g>
<!-- Node2 -->
<g id="node2" class="node">
<title>Node2</title>
<g id="a_node2"><a xlink:title=" ">
<polygon fill="white" stroke="#bfbfbf" points="477,-133.21 477,-163.21 641,-163.21 641,-133.21 477,-133.21"/>
<text text-anchor="start" x="485" y="-151.21" font-family="Helvetica,sans-Serif" font-size="10.00">sparse_hash_map&lt; ADDRINT,</text>
<text text-anchor="middle" x="559" y="-140.21" font-family="Helvetica,sans-Serif" font-size="10.00"> ContextHandle_t &gt;</text>
</a>
</g>
</g>
<!-- Node2&#45;&gt;Node1 -->
<g id="edge1" class="edge">
<title>Node2&#45;&gt;Node1</title>
<path fill="none" stroke="#9a32cd" stroke-dasharray="5,2" d="M651.21,-134.62C684.24,-129.6 721.82,-123.78 756,-118.21 764.59,-116.81 773.69,-115.28 782.56,-113.77"/>
<polygon fill="#9a32cd" stroke="#9a32cd" points="650.47,-131.19 641.11,-136.15 651.52,-138.11 650.47,-131.19"/>
<text text-anchor="middle" x="707.5" y="-136.21" font-family="Helvetica,sans-Serif" font-size="10.00"> tlsLongJmpMap</text>
</g>
<!-- Node3 -->
<g id="node3" class="node">
<title>Node3</title>
<g id="a_node3"><a xlink:href="structPinCCTLib_1_1NewIPNode.html" target="_top" xlink:title=" ">
<polygon fill="white" stroke="black" points="495,-24.71 495,-43.71 623,-43.71 623,-24.71 495,-24.71"/>
<text text-anchor="middle" x="559" y="-31.71" font-family="Helvetica,sans-Serif" font-size="10.00">PinCCTLib::NewIPNode</text>
</a>
</g>
</g>
<!-- Node3&#45;&gt;Node1 -->
<g id="edge2" class="edge">
<title>Node3&#45;&gt;Node1</title>
<path fill="none" stroke="#9a32cd" stroke-dasharray="5,2" d="M615.72,-45.86C655.09,-54.37 709.01,-66.58 756,-79.21 773.34,-83.87 792.55,-89.76 807.91,-94.66"/>
<polygon fill="#9a32cd" stroke="#9a32cd" points="616.29,-42.4 605.78,-43.72 614.82,-49.24 616.29,-42.4"/>
<text text-anchor="middle" x="707.5" y="-82.21" font-family="Helvetica,sans-Serif" font-size="10.00"> tlsHPCRunCCTRoot</text>
</g>
<!-- Node3&#45;&gt;Node3 -->
<g id="edge5" class="edge">
<title>Node3&#45;&gt;Node3</title>
<path fill="none" stroke="#9a32cd" stroke-dasharray="5,2" d="M531.37,-52.86C532.53,-58.15 541.74,-62.21 559,-62.21 585.3,-62.21 592.91,-52.77 581.81,-43.97"/>
<polygon fill="#9a32cd" stroke="#9a32cd" points="534.51,-54.43 536.19,-43.97 528.35,-51.1 534.51,-54.43"/>
<text text-anchor="middle" x="559" y="-65.21" font-family="Helvetica,sans-Serif" font-size="10.00"> parentIPNode</text>
</g>
<!-- Node4 -->
<g id="node4" class="node">
<title>Node4</title>
<g id="a_node4"><a xlink:title=" ">
<polygon fill="white" stroke="#bfbfbf" points="774,-5.21 774,-35.21 902,-35.21 902,-5.21 774,-5.21"/>
<text text-anchor="start" x="782" y="-23.21" font-family="Helvetica,sans-Serif" font-size="10.00">std::vector&lt; PinCCTLib</text>
<text text-anchor="middle" x="838" y="-12.21" font-family="Helvetica,sans-Serif" font-size="10.00">::NewIPNode * &gt;</text>
</a>
</g>
</g>
<!-- Node3&#45;&gt;Node4 -->
<g id="edge4" class="edge">
<title>Node3&#45;&gt;Node4</title>
<path fill="none" stroke="#9a32cd" stroke-dasharray="5,2" d="M633.19,-30.51C676.86,-28.3 731.77,-25.53 773.59,-23.41"/>
<polygon fill="#9a32cd" stroke="#9a32cd" points="633.01,-27.01 623.2,-31.01 633.37,-34.01 633.01,-27.01"/>
<text text-anchor="middle" x="707.5" y="-32.21" font-family="Helvetica,sans-Serif" font-size="10.00"> elements</text>
</g>
<!-- Node4&#45;&gt;Node3 -->
<g id="edge3" class="edge">
<title>Node4&#45;&gt;Node3</title>
<path fill="none" stroke="#9a32cd" stroke-dasharray="5,2" d="M763.78,-5.08C761.16,-4.75 758.56,-4.46 756,-4.21 713.09,-0.01 701.65,2.11 659,-4.21 632.88,-8.08 604.12,-17.4 584.36,-24.63"/>
<polygon fill="#9a32cd" stroke="#9a32cd" points="763.55,-8.59 773.94,-6.52 764.53,-1.66 763.55,-8.59"/>
<text text-anchor="middle" x="707.5" y="-7.21" font-family="Helvetica,sans-Serif" font-size="10.00"> childIPNodes</text>
</g>
<!-- Node5 -->
<g id="node5" class="node">
<title>Node5</title>
<g id="a_node5"><a xlink:href="structPinCCTLib_1_1TraceSplay.html" target="_top" xlink:title=" ">
<polygon fill="white" stroke="black" points="189,-16.71 189,-35.71 313,-35.71 313,-16.71 189,-16.71"/>
<text text-anchor="middle" x="251" y="-23.71" font-family="Helvetica,sans-Serif" font-size="10.00">PinCCTLib::TraceSplay</text>
</a>
</g>
</g>
<!-- Node5&#45;&gt;Node3 -->
<g id="edge6" class="edge">
<title>Node5&#45;&gt;Node3</title>
<path fill="none" stroke="#9a32cd" stroke-dasharray="5,2" d="M323.32,-28.07C375.24,-29.43 444.9,-31.25 494.81,-32.56"/>
<polygon fill="#9a32cd" stroke="#9a32cd" points="323.28,-24.57 313.19,-27.81 323.09,-31.57 323.28,-24.57"/>
<text text-anchor="middle" x="395" y="-35.21" font-family="Helvetica,sans-Serif" font-size="10.00"> tmpSplay</text>
</g>
<!-- Node5&#45;&gt;Node5 -->
<g id="edge8" class="edge">
<title>Node5&#45;&gt;Node5</title>
<path fill="none" stroke="#9a32cd" stroke-dasharray="5,2" d="M233.59,-45.61C234.76,-50.52 240.56,-54.21 251,-54.21 267.71,-54.21 272.54,-44.77 265.49,-35.97"/>
<polygon fill="#9a32cd" stroke="#9a32cd" points="236.97,-46.55 236.51,-35.97 230.27,-44.52 236.97,-46.55"/>
<text text-anchor="middle" x="251" y="-68.21" font-family="Helvetica,sans-Serif" font-size="10.00"> left</text>
<text text-anchor="middle" x="251" y="-57.21" font-family="Helvetica,sans-Serif" font-size="10.00">right</text>
</g>
<!-- Node6 -->
<g id="node6" class="node">
<title>Node6</title>
<g id="a_node6"><a xlink:href="structPinCCTLib_1_1TraceNode.html" target="_top" xlink:title=" ">
<polygon fill="white" stroke="black" points="0,-55.71 0,-74.71 122,-74.71 122,-55.71 0,-55.71"/>
<text text-anchor="middle" x="61" y="-62.71" font-family="Helvetica,sans-Serif" font-size="10.00">PinCCTLib::TraceNode</text>
</a>
</g>
</g>
<!-- Node6&#45;&gt;Node1 -->
<g id="edge9" class="edge">
<title>Node6&#45;&gt;Node1</title>
<path fill="none" stroke="#9a32cd" stroke-dasharray="5,2" d="M122.82,-76.39C143.73,-79.81 167.32,-83.19 189,-85.21 402.76,-105.09 657.74,-105.89 773.83,-105.01"/>
<polygon fill="#9a32cd" stroke="#9a32cd" points="123.24,-72.91 112.8,-74.72 122.08,-79.82 123.24,-72.91"/>
<text text-anchor="middle" x="395" y="-137.21" font-family="Helvetica,sans-Serif" font-size="10.00"> tlsCurrentTraceNode</text>
<text text-anchor="middle" x="395" y="-126.21" font-family="Helvetica,sans-Serif" font-size="10.00">tlsParentThreadTraceNode</text>
<text text-anchor="middle" x="395" y="-115.21" font-family="Helvetica,sans-Serif" font-size="10.00">tlsPendingHandlerFrame</text>
<text text-anchor="middle" x="395" y="-104.21" font-family="Helvetica,sans-Serif" font-size="10.00">tlsRootTraceNode</text>
</g>
<!-- Node6&#45;&gt;Node5 -->
<g id="edge7" class="edge">
<title>Node6&#45;&gt;Node5</title>
<path fill="none" stroke="#9a32cd" stroke-dasharray="5,2" d="M117.87,-53.62C145.38,-47.91 178.14,-41.12 204.16,-35.72"/>
<polygon fill="#9a32cd" stroke="#9a32cd" points="117.07,-50.21 107.99,-55.67 118.49,-57.06 117.07,-50.21"/>
<text text-anchor="middle" x="155.5" y="-51.21" font-family="Helvetica,sans-Serif" font-size="10.00"> value</text>
</g>
</g>
</svg>
        <g id="navigator" transform="translate(0 0)" fill="#404254">
                <rect fill="#f2f5e9" fill-opacity="0.5" stroke="#606060" stroke-width=".5" x="0" y="0" width="60" height="60"/>
                <use id="zoomplus" xlink:href="#zoomPlus" x="17" y="9" onmousedown="handleZoom(evt,'in')"/>
                <use id="zoomminus" xlink:href="#zoomMin" x="42" y="9" onmousedown="handleZoom(evt,'out')"/>
                <use id="reset" xlink:href="#resetDef" x="30" y="36" onmousedown="handleReset()"/>
                <g id="arrowUp" xlink:href="#dirArrow" transform="translate(30 24)" onmousedown="handlePan(0,-1)">
                  <use xlink:href="#rim" fill="#404040">
                        <set attributeName="fill" to="#808080" begin="arrowUp.mouseover" end="arrowUp.mouseout"/>
                  </use>
                  <path fill="none" stroke="white" stroke-width="1.5" d="M0,-3.0v7 M-2.5,-0.5L0,-3.0L2.5,-0.5"/>
                </g>
                <g id="arrowRight" xlink:href="#dirArrow" transform="rotate(90) translate(36 -43)" onmousedown="handlePan(1,0)">
                  <use xlink:href="#rim" fill="#404040">
                        <set attributeName="fill" to="#808080" begin="arrowRight.mouseover" end="arrowRight.mouseout"/>
                  </use>
                  <path fill="none" stroke="white" stroke-width="1.5" d="M0,-3.0v7 M-2.5,-0.5L0,-3.0L2.5,-0.5"/>
                </g>
                <g id="arrowDown" xlink:href="#dirArrow" transform="rotate(180) translate(-30 -48)" onmousedown="handlePan(0,1)">
                  <use xlink:href="#rim" fill="#404040">
                        <set attributeName="fill" to="#808080" begin="arrowDown.mouseover" end="arrowDown.mouseout"/>
                  </use>
                  <path fill="none" stroke="white" stroke-width="1.5" d="M0,-3.0v7 M-2.5,-0.5L0,-3.0L2.5,-0.5"/>
                </g>
                <g id="arrowLeft" xlink:href="#dirArrow" transform="rotate(270) translate(-36 17)" onmousedown="handlePan(-1,0)">
                  <use xlink:href="#rim" fill="#404040">
                        <set attributeName="fill" to="#808080" begin="arrowLeft.mouseover" end="arrowLeft.mouseout"/>
                  </use>
                  <path fill="none" stroke="white" stroke-width="1.5" d="M0,-3.0v7 M-2.5,-0.5L0,-3.0L2.5,-0.5"/>
                </g>
        </g>
        <svg viewBox="0 0 15 15" width="100%" height="30px" preserveAspectRatio="xMaxYMin meet">
         <g id="arrow_out" transform="scale(0.3 0.3)">
          <a xlink:href="structPinCCTLib_1_1ThreadData__coll__graph_org.svg" target="_base">
           <rect id="button" ry="5" rx="5" y="6" x="6" height="38" width="38"
                fill="#f2f5e9" fill-opacity="0.5" stroke="#606060" stroke-width="1.0"/>
           <path id="arrow"
             d="M 11.500037,31.436501 C 11.940474,20.09759 22.043105,11.32322 32.158766,21.979434 L 37.068811,17.246167 C 37.068811,17.246167 37.088388,32 37.088388,32 L 22.160133,31.978069 C 22.160133,31.978069 26.997745,27.140456 26.997745,27.140456 C 18.528582,18.264221 13.291696,25.230495 11.500037,31.436501 z"
             style="fill:#404040;"/>
          </a>
         </g>
        </svg>
</svg>
