<?xml version="1.0" encoding="UTF-8" standalone="no"?>
<!DOCTYPE svg PUBLIC "-//W3C//DTD SVG 1.1//EN"
 "http://www.w3.org/Graphics/SVG/1.1/DTD/svg11.dtd">
<!-- Generated by graphviz version 2.43.0 (0)
 -->
<!-- Title: PinCCTLib::ThreadData Pages: 1 -->
<svg width="910pt" height="172pt"
 viewBox="0.00 0.00 910.00 171.71" xmlns="http://www.w3.org/2000/svg" xmlns:xlink="http://www.w3.org/1999/xlink">
<g id="graph0" class="graph" transform="scale(1 1) rotate(0) translate(4 167.71)">
<title>PinCCTLib::ThreadData</title>
<polygon fill="white" stroke="transparent" points="-4,4 -4,-167.71 906,-167.71 906,4 -4,4"/>
<!-- Node1 -->
<g id="node1" class="node">
<title>Node1</title>
<g id="a_node1"><a xlink:title=" ">
<polygon fill="#bfbfbf" stroke="black" points="774,-94.71 774,-113.71 902,-113.71 902,-94.71 774,-94.71"/>
<text text-anchor="middle" x="838" y="-101.71" font-family="Helvetica,sans-Serif" font-size="10.00">PinCCTLib::ThreadData</text>
</a>
</g>
</g>
<!-- Node2 -->
<g id="node2" class="node">
<title>Node2</title>
<g id="a_node2"><a xlink:title=" ">
<polygon fill="white" stroke="#bfbfbf" points="477,-133.21 477,-163.21 641,-163.21 641,-133.21 477,-133.21"/>
<text text-anchor="start" x="485" y="-151.21" font-family="Helvetica,sans-Serif" font-size="10.00">sparse_hash_map&lt; ADDRINT,</text>
<text text-anchor="middle" x="559" y="-140.21" font-family="Helvetica,sans-Serif" font-size="10.00"> ContextHandle_t &gt;</text>
</a>
</g>
</g>
<!-- Node2&#45;&gt;Node1 -->
<g id="edge1" class="edge">
<title>Node2&#45;&gt;Node1</title>
<path fill="none" stroke="#9a32cd" stroke-dasharray="5,2" d="M651.21,-134.62C684.24,-129.6 721.82,-123.78 756,-118.21 764.59,-116.81 773.69,-115.28 782.56,-113.77"/>
<polygon fill="#9a32cd" stroke="#9a32cd" points="650.47,-131.19 641.11,-136.15 651.52,-138.11 650.47,-131.19"/>
<text text-anchor="middle" x="707.5" y="-136.21" font-family="Helvetica,sans-Serif" font-size="10.00"> tlsLongJmpMap</text>
</g>
<!-- Node3 -->
<g id="node3" class="node">
<title>Node3</title>
<g id="a_node3"><a xlink:href="structPinCCTLib_1_1NewIPNode.html" target="_top" xlink:title=" ">
<polygon fill="white" stroke="black" points="495,-24.71 495,-43.71 623,-43.71 623,-24.71 495,-24.71"/>
<text text-anchor="middle" x="559" y="-31.71" font-family="Helvetica,sans-Serif" font-size="10.00">PinCCTLib::NewIPNode</text>
</a>
</g>
</g>
<!-- Node3&#45;&gt;Node1 -->
<g id="edge2" class="edge">
<title>Node3&#45;&gt;Node1</title>
<path fill="none" stroke="#9a32cd" stroke-dasharray="5,2" d="M615.72,-45.86C655.09,-54.37 709.01,-66.58 756,-79.21 773.34,-83.87 792.55,-89.76 807.91,-94.66"/>
<polygon fill="#9a32cd" stroke="#9a32cd" points="616.29,-42.4 605.78,-43.72 614.82,-49.24 616.29,-42.4"/>
<text text-anchor="middle" x="707.5" y="-82.21" font-family="Helvetica,sans-Serif" font-size="10.00"> tlsHPCRunCCTRoot</text>
</g>
<!-- Node3&#45;&gt;Node3 -->
<g id="edge5" class="edge">
<title>Node3&#45;&gt;Node3</title>
<path fill="none" stroke="#9a32cd" stroke-dasharray="5,2" d="M531.37,-52.86C532.53,-58.15 541.74,-62.21 559,-62.21 585.3,-62.21 592.91,-52.77 581.81,-43.97"/>
<polygon fill="#9a32cd" stroke="#9a32cd" points="534.51,-54.43 536.19,-43.97 528.35,-51.1 534.51,-54.43"/>
<text text-anchor="middle" x="559" y="-65.21" font-family="Helvetica,sans-Serif" font-size="10.00"> parentIPNode</text>
</g>
<!-- Node4 -->
<g id="node4" class="node">
<title>Node4</title>
<g id="a_node4"><a xlink:title=" ">
<polygon fill="white" stroke="#bfbfbf" points="774,-5.21 774,-35.21 902,-35.21 902,-5.21 774,-5.21"/>
<text text-anchor="start" x="782" y="-23.21" font-family="Helvetica,sans-Serif" font-size="10.00">std::vector&lt; PinCCTLib</text>
<text text-anchor="middle" x="838" y="-12.21" font-family="Helvetica,sans-Serif" font-size="10.00">::NewIPNode * &gt;</text>
</a>
</g>
</g>
<!-- Node3&#45;&gt;Node4 -->
<g id="edge4" class="edge">
<title>Node3&#45;&gt;Node4</title>
<path fill="none" stroke="#9a32cd" stroke-dasharray="5,2" d="M633.19,-30.51C676.86,-28.3 731.77,-25.53 773.59,-23.41"/>
<polygon fill="#9a32cd" stroke="#9a32cd" points="633.01,-27.01 623.2,-31.01 633.37,-34.01 633.01,-27.01"/>
<text text-anchor="middle" x="707.5" y="-32.21" font-family="Helvetica,sans-Serif" font-size="10.00"> elements</text>
</g>
<!-- Node4&#45;&gt;Node3 -->
<g id="edge3" class="edge">
<title>Node4&#45;&gt;Node3</title>
<path fill="none" stroke="#9a32cd" stroke-dasharray="5,2" d="M763.78,-5.08C761.16,-4.75 758.56,-4.46 756,-4.21 713.09,-0.01 701.65,2.11 659,-4.21 632.88,-8.08 604.12,-17.4 584.36,-24.63"/>
<polygon fill="#9a32cd" stroke="#9a32cd" points="763.55,-8.59 773.94,-6.52 764.53,-1.66 763.55,-8.59"/>
<text text-anchor="middle" x="707.5" y="-7.21" font-family="Helvetica,sans-Serif" font-size="10.00"> childIPNodes</text>
</g>
<!-- Node5 -->
<g id="node5" class="node">
<title>Node5</title>
<g id="a_node5"><a xlink:href="structPinCCTLib_1_1TraceSplay.html" target="_top" xlink:title=" ">
<polygon fill="white" stroke="black" points="189,-16.71 189,-35.71 313,-35.71 313,-16.71 189,-16.71"/>
<text text-anchor="middle" x="251" y="-23.71" font-family="Helvetica,sans-Serif" font-size="10.00">PinCCTLib::TraceSplay</text>
</a>
</g>
</g>
<!-- Node5&#45;&gt;Node3 -->
<g id="edge6" class="edge">
<title>Node5&#45;&gt;Node3</title>
<path fill="none" stroke="#9a32cd" stroke-dasharray="5,2" d="M323.32,-28.07C375.24,-29.43 444.9,-31.25 494.81,-32.56"/>
<polygon fill="#9a32cd" stroke="#9a32cd" points="323.28,-24.57 313.19,-27.81 323.09,-31.57 323.28,-24.57"/>
<text text-anchor="middle" x="395" y="-35.21" font-family="Helvetica,sans-Serif" font-size="10.00"> tmpSplay</text>
</g>
<!-- Node5&#45;&gt;Node5 -->
<g id="edge8" class="edge">
<title>Node5&#45;&gt;Node5</title>
<path fill="none" stroke="#9a32cd" stroke-dasharray="5,2" d="M233.59,-45.61C234.76,-50.52 240.56,-54.21 251,-54.21 267.71,-54.21 272.54,-44.77 265.49,-35.97"/>
<polygon fill="#9a32cd" stroke="#9a32cd" points="236.97,-46.55 236.51,-35.97 230.27,-44.52 236.97,-46.55"/>
<text text-anchor="middle" x="251" y="-68.21" font-family="Helvetica,sans-Serif" font-size="10.00"> left</text>
<text text-anchor="middle" x="251" y="-57.21" font-family="Helvetica,sans-Serif" font-size="10.00">right</text>
</g>
<!-- Node6 -->
<g id="node6" class="node">
<title>Node6</title>
<g id="a_node6"><a xlink:href="structPinCCTLib_1_1TraceNode.html" target="_top" xlink:title=" ">
<polygon fill="white" stroke="black" points="0,-55.71 0,-74.71 122,-74.71 122,-55.71 0,-55.71"/>
<text text-anchor="middle" x="61" y="-62.71" font-family="Helvetica,sans-Serif" font-size="10.00">PinCCTLib::TraceNode</text>
</a>
</g>
</g>
<!-- Node6&#45;&gt;Node1 -->
<g id="edge9" class="edge">
<title>Node6&#45;&gt;Node1</title>
<path fill="none" stroke="#9a32cd" stroke-dasharray="5,2" d="M122.82,-76.39C143.73,-79.81 167.32,-83.19 189,-85.21 402.76,-105.09 657.74,-105.89 773.83,-105.01"/>
<polygon fill="#9a32cd" stroke="#9a32cd" points="123.24,-72.91 112.8,-74.72 122.08,-79.82 123.24,-72.91"/>
<text text-anchor="middle" x="395" y="-137.21" font-family="Helvetica,sans-Serif" font-size="10.00"> tlsCurrentTraceNode</text>
<text text-anchor="middle" x="395" y="-126.21" font-family="Helvetica,sans-Serif" font-size="10.00">tlsParentThreadTraceNode</text>
<text text-anchor="middle" x="395" y="-115.21" font-family="Helvetica,sans-Serif" font-size="10.00">tlsPendingHandlerFrame</text>
<text text-anchor="middle" x="395" y="-104.21" font-family="Helvetica,sans-Serif" font-size="10.00">tlsRootTraceNode</text>
</g>
<!-- Node6&#45;&gt;Node5 -->
<g id="edge7" class="edge">
<title>Node6&#45;&gt;Node5</title>
<path fill="none" stroke="#9a32cd" stroke-dasharray="5,2" d="M117.87,-53.62C145.38,-47.91 178.14,-41.12 204.16,-35.72"/>
<polygon fill="#9a32cd" stroke="#9a32cd" points="117.07,-50.21 107.99,-55.67 118.49,-57.06 117.07,-50.21"/>
<text text-anchor="middle" x="155.5" y="-51.21" font-family="Helvetica,sans-Serif" font-size="10.00"> value</text>
</g>
</g>
</svg>
