<?xml version="1.0" encoding="UTF-8" standalone="no"?>
<!DOCTYPE svg PUBLIC "-//W3C//DTD SVG 1.1//EN"
 "http://www.w3.org/Graphics/SVG/1.1/DTD/svg11.dtd">
<!-- Generated by graphviz version 2.43.0 (0)
 -->
<!-- Title: InsReuseThreadData Pages: 1 -->
<svg width="380pt" height="152pt"
 viewBox="0.00 0.00 380.00 151.50" xmlns="http://www.w3.org/2000/svg" xmlns:xlink="http://www.w3.org/1999/xlink">
<g id="graph0" class="graph" transform="scale(1 1) rotate(0) translate(4 147.5)">
<title>InsReuseThreadData</title>
<polygon fill="white" stroke="transparent" points="-4,4 -4,-147.5 376,-147.5 376,4 -4,4"/>
<!-- Node1 -->
<g id="node1" class="node">
<title>Node1</title>
<g id="a_node1"><a xlink:title=" ">
<polygon fill="#bfbfbf" stroke="black" points="254,-55 254,-74 372,-74 372,-55 254,-55"/>
<text text-anchor="middle" x="313" y="-62" font-family="Helvetica,sans-Serif" font-size="10.00">InsReuseThreadData</text>
</a>
</g>
</g>
<!-- Node2 -->
<g id="node2" class="node">
<title>Node2</title>
<g id="a_node2"><a xlink:href="classShadowMemory.html" target="_top" xlink:title=" ">
<polygon fill="white" stroke="black" points="0,-111 0,-130 158,-130 158,-111 0,-111"/>
<text text-anchor="middle" x="79" y="-118" font-family="Helvetica,sans-Serif" font-size="10.00">ShadowMemory&lt; uint64_t &gt;</text>
</a>
</g>
</g>
<!-- Node2&#45;&gt;Node1 -->
<g id="edge1" class="edge">
<title>Node2&#45;&gt;Node1</title>
<path fill="none" stroke="#9a32cd" stroke-dasharray="5,2" d="M168.41,-112.42C190.73,-109.19 214.46,-104.7 236,-98.5 256.84,-92.5 279.35,-81.86 294.42,-74.07"/>
<polygon fill="#9a32cd" stroke="#9a32cd" points="167.69,-108.99 158.27,-113.82 168.65,-115.92 167.69,-108.99"/>
<text text-anchor="middle" x="206" y="-135.5" font-family="Helvetica,sans-Serif" font-size="10.00"> sm</text>
<text text-anchor="middle" x="206" y="-124.5" font-family="Helvetica,sans-Serif" font-size="10.00">smITLBPage</text>
<text text-anchor="middle" x="206" y="-113.5" font-family="Helvetica,sans-Serif" font-size="10.00">smIns</text>
</g>
<!-- Node3 -->
<g id="node3" class="node">
<title>Node3</title>
<g id="a_node3"><a xlink:href="classRBTree.html" target="_top" xlink:title=" ">
<polygon fill="white" stroke="black" points="10,-49.5 10,-79.5 148,-79.5 148,-49.5 10,-49.5"/>
<text text-anchor="start" x="18" y="-67.5" font-family="Helvetica,sans-Serif" font-size="10.00">RBTree&lt; uint64_t, uint32</text>
<text text-anchor="middle" x="79" y="-56.5" font-family="Helvetica,sans-Serif" font-size="10.00">_t, uint64_t &gt;</text>
</a>
</g>
</g>
<!-- Node3&#45;&gt;Node1 -->
<g id="edge2" class="edge">
<title>Node3&#45;&gt;Node1</title>
<path fill="none" stroke="#9a32cd" stroke-dasharray="5,2" d="M158.04,-64.5C189.35,-64.5 224.8,-64.5 253.78,-64.5"/>
<polygon fill="#9a32cd" stroke="#9a32cd" points="158.04,-61 148.04,-64.5 158.04,-68 158.04,-61"/>
<text text-anchor="middle" x="206" y="-89.5" font-family="Helvetica,sans-Serif" font-size="10.00"> insRBTree</text>
<text text-anchor="middle" x="206" y="-78.5" font-family="Helvetica,sans-Serif" font-size="10.00">itlbRBTree</text>
<text text-anchor="middle" x="206" y="-67.5" font-family="Helvetica,sans-Serif" font-size="10.00">rbTree</text>
</g>
<!-- Node4 -->
<g id="node4" class="node">
<title>Node4</title>
<g id="a_node4"><a xlink:title=" ">
<polygon fill="white" stroke="#bfbfbf" points="16.5,-0.5 16.5,-30.5 141.5,-30.5 141.5,-0.5 16.5,-0.5"/>
<text text-anchor="start" x="24.5" y="-18.5" font-family="Helvetica,sans-Serif" font-size="10.00">std::unordered_map</text>
<text text-anchor="middle" x="79" y="-7.5" font-family="Helvetica,sans-Serif" font-size="10.00">&lt; uint64_t, uint64_t &gt;</text>
</a>
</g>
</g>
<!-- Node4&#45;&gt;Node1 -->
<g id="edge3" class="edge">
<title>Node4&#45;&gt;Node1</title>
<path fill="none" stroke="#9a32cd" stroke-dasharray="5,2" d="M151.45,-30.59C189.02,-38.53 233.95,-48.02 266.72,-54.94"/>
<polygon fill="#9a32cd" stroke="#9a32cd" points="152.07,-27.14 141.56,-28.5 150.62,-33.99 152.07,-27.14"/>
<text text-anchor="middle" x="206" y="-50.5" font-family="Helvetica,sans-Serif" font-size="10.00"> missPairs</text>
</g>
</g>
</svg>
