<?xml version="1.0" encoding="UTF-8" standalone="no"?>
<!DOCTYPE svg PUBLIC "-//W3C//DTD SVG 1.1//EN"
 "http://www.w3.org/Graphics/SVG/1.1/DTD/svg11.dtd">
<!-- Generated by graphviz version 2.43.0 (0)
 -->
<!-- Title: RedSpyThreadData Pages: 1 -->
<svg width="165pt" height="95pt"
 viewBox="0.00 0.00 165.00 95.00" xmlns="http://www.w3.org/2000/svg" xmlns:xlink="http://www.w3.org/1999/xlink">
<g id="graph0" class="graph" transform="scale(1 1) rotate(0) translate(4 91)">
<title>RedSpyThreadData</title>
<polygon fill="white" stroke="transparent" points="-4,4 -4,-91 161,-91 161,4 -4,4"/>
<!-- Node1 -->
<g id="node1" class="node">
<title>Node1</title>
<g id="a_node1"><a xlink:title=" ">
<polygon fill="#bfbfbf" stroke="black" points="23,-0.5 23,-19.5 133,-19.5 133,-0.5 23,-0.5"/>
<text text-anchor="middle" x="78" y="-7.5" font-family="Helvetica,sans-Serif" font-size="10.00">RedSpyThreadData</text>
</a>
</g>
</g>
<!-- Node2 -->
<g id="node2" class="node">
<title>Node2</title>
<g id="a_node2"><a xlink:href="structAddrValPair.html" target="_top" xlink:title=" ">
<polygon fill="white" stroke="black" points="0,-67.5 0,-86.5 72,-86.5 72,-67.5 0,-67.5"/>
<text text-anchor="middle" x="36" y="-74.5" font-family="Helvetica,sans-Serif" font-size="10.00">AddrValPair</text>
</a>
</g>
</g>
<!-- Node2&#45;&gt;Node1 -->
<g id="edge1" class="edge">
<title>Node2&#45;&gt;Node1</title>
<path fill="none" stroke="#9a32cd" stroke-dasharray="5,2" d="M47.29,-58.53C55.42,-45.95 66.04,-29.51 72.43,-19.63"/>
<polygon fill="#9a32cd" stroke="#9a32cd" points="44.15,-56.94 41.66,-67.23 50.03,-60.73 44.15,-56.94"/>
<text text-anchor="middle" x="76" y="-41" font-family="Helvetica,sans-Serif" font-size="10.00"> buffer</text>
</g>
<!-- Node3 -->
<g id="node3" class="node">
<title>Node3</title>
<g id="a_node3"><a xlink:href="structLargeReg.html" target="_top" xlink:title=" ">
<polygon fill="white" stroke="black" points="90,-67.5 90,-86.5 152,-86.5 152,-67.5 90,-67.5"/>
<text text-anchor="middle" x="121" y="-74.5" font-family="Helvetica,sans-Serif" font-size="10.00">LargeReg</text>
</a>
</g>
</g>
<!-- Node3&#45;&gt;Node1 -->
<g id="edge2" class="edge">
<title>Node3&#45;&gt;Node1</title>
<path fill="none" stroke="#9a32cd" stroke-dasharray="5,2" d="M109.59,-58.61C105.33,-52.13 100.45,-44.72 96,-38 91.89,-31.8 87.24,-24.82 83.69,-19.5"/>
<polygon fill="#9a32cd" stroke="#9a32cd" points="106.84,-60.8 115.26,-67.24 112.69,-56.96 106.84,-60.8"/>
<text text-anchor="middle" x="129.5" y="-41" font-family="Helvetica,sans-Serif" font-size="10.00"> simdValue</text>
</g>
</g>
</svg>
