<?xml version="1.0" encoding="UTF-8" standalone="no"?>
<!DOCTYPE svg PUBLIC "-//W3C//DTD SVG 1.1//EN"
 "http://www.w3.org/Graphics/SVG/1.1/DTD/svg11.dtd">
<!-- Generated by graphviz version 2.43.0 (0)
 -->
<!-- Title: PinCCTLib::NewIPNode Pages: 1 -->
<svg width="224pt" height="242pt"
 viewBox="0.00 0.00 224.00 242.00" xmlns="http://www.w3.org/2000/svg" xmlns:xlink="http://www.w3.org/1999/xlink">
<g id="graph0" class="graph" transform="scale(1 1) rotate(0) translate(4 238)">
<title>PinCCTLib::NewIPNode</title>
<polygon fill="white" stroke="transparent" points="-4,4 -4,-238 220,-238 220,4 -4,4"/>
<!-- Node1 -->
<g id="node1" class="node">
<title>Node1</title>
<g id="a_node1"><a xlink:title=" ">
<polygon fill="#bfbfbf" stroke="black" points="0,-78.5 0,-97.5 128,-97.5 128,-78.5 0,-78.5"/>
<text text-anchor="middle" x="64" y="-85.5" font-family="Helvetica,sans-Serif" font-size="10.00">PinCCTLib::NewIPNode</text>
</a>
</g>
</g>
<!-- Node1&#45;&gt;Node1 -->
<g id="edge3" class="edge">
<title>Node1&#45;&gt;Node1</title>
<path fill="none" stroke="#9a32cd" stroke-dasharray="5,2" d="M138.51,-92.21C143.18,-91.22 146,-89.82 146,-88 146,-85.09 138.79,-83.24 128.29,-82.45"/>
<polygon fill="#9a32cd" stroke="#9a32cd" points="137.75,-88.78 128.29,-93.55 138.66,-95.72 137.75,-88.78"/>
<text text-anchor="middle" x="181" y="-85.5" font-family="Helvetica,sans-Serif" font-size="10.00"> parentIPNode</text>
</g>
<!-- Node2 -->
<g id="node2" class="node">
<title>Node2</title>
<g id="a_node2"><a xlink:title=" ">
<polygon fill="white" stroke="#bfbfbf" points="0,-0.5 0,-30.5 128,-30.5 128,-0.5 0,-0.5"/>
<text text-anchor="start" x="8" y="-18.5" font-family="Helvetica,sans-Serif" font-size="10.00">std::vector&lt; PinCCTLib</text>
<text text-anchor="middle" x="64" y="-7.5" font-family="Helvetica,sans-Serif" font-size="10.00">::NewIPNode * &gt;</text>
</a>
</g>
</g>
<!-- Node1&#45;&gt;Node2 -->
<g id="edge2" class="edge">
<title>Node1&#45;&gt;Node2</title>
<path fill="none" stroke="#9a32cd" stroke-dasharray="5,2" d="M35.57,-72.38C31.31,-68.92 27.52,-64.8 25,-60 19.21,-48.95 27.99,-38.48 38.67,-30.58"/>
<polygon fill="#9a32cd" stroke="#9a32cd" points="33.88,-75.47 44.11,-78.26 37.85,-69.71 33.88,-75.47"/>
<text text-anchor="middle" x="49.5" y="-52" font-family="Helvetica,sans-Serif" font-size="10.00"> elements</text>
</g>
<!-- Node2&#45;&gt;Node1 -->
<g id="edge1" class="edge">
<title>Node2&#45;&gt;Node1</title>
<path fill="none" stroke="#9a32cd" stroke-dasharray="5,2" d="M76.61,-40.26C78.61,-46.62 79.58,-53.53 78,-60 76.4,-66.57 72.9,-73.32 69.8,-78.42"/>
<polygon fill="#9a32cd" stroke="#9a32cd" points="79.8,-38.81 72.8,-30.85 73.31,-41.43 79.8,-38.81"/>
<text text-anchor="middle" x="111.5" y="-52" font-family="Helvetica,sans-Serif" font-size="10.00"> childIPNodes</text>
</g>
<!-- Node3 -->
<g id="node3" class="node">
<title>Node3</title>
<g id="a_node3"><a xlink:href="structPinCCTLib_1_1TraceSplay.html" target="_top" xlink:title=" ">
<polygon fill="white" stroke="black" points="2,-146.5 2,-165.5 126,-165.5 126,-146.5 2,-146.5"/>
<text text-anchor="middle" x="64" y="-153.5" font-family="Helvetica,sans-Serif" font-size="10.00">PinCCTLib::TraceSplay</text>
</a>
</g>
</g>
<!-- Node3&#45;&gt;Node1 -->
<g id="edge4" class="edge">
<title>Node3&#45;&gt;Node1</title>
<path fill="none" stroke="#9a32cd" stroke-dasharray="5,2" d="M64,-136.04C64,-123.47 64,-107.56 64,-97.84"/>
<polygon fill="#9a32cd" stroke="#9a32cd" points="60.5,-136.37 64,-146.37 67.5,-136.37 60.5,-136.37"/>
<text text-anchor="middle" x="89" y="-119" font-family="Helvetica,sans-Serif" font-size="10.00"> tmpSplay</text>
</g>
<!-- Node3&#45;&gt;Node3 -->
<g id="edge6" class="edge">
<title>Node3&#45;&gt;Node3</title>
<path fill="none" stroke="#9a32cd" stroke-dasharray="5,2" d="M136.03,-160.62C140.99,-159.56 144,-158.02 144,-156 144,-152.85 136.66,-150.86 126.05,-150.05"/>
<polygon fill="#9a32cd" stroke="#9a32cd" points="135.5,-157.16 126.05,-161.95 136.43,-164.1 135.5,-157.16"/>
<text text-anchor="middle" x="155.5" y="-159" font-family="Helvetica,sans-Serif" font-size="10.00"> left</text>
<text text-anchor="middle" x="155.5" y="-148" font-family="Helvetica,sans-Serif" font-size="10.00">right</text>
</g>
<!-- Node4 -->
<g id="node4" class="node">
<title>Node4</title>
<g id="a_node4"><a xlink:href="structPinCCTLib_1_1TraceNode.html" target="_top" xlink:title=" ">
<polygon fill="white" stroke="black" points="3,-214.5 3,-233.5 125,-233.5 125,-214.5 3,-214.5"/>
<text text-anchor="middle" x="64" y="-221.5" font-family="Helvetica,sans-Serif" font-size="10.00">PinCCTLib::TraceNode</text>
</a>
</g>
</g>
<!-- Node4&#45;&gt;Node3 -->
<g id="edge5" class="edge">
<title>Node4&#45;&gt;Node3</title>
<path fill="none" stroke="#9a32cd" stroke-dasharray="5,2" d="M64,-204.04C64,-191.47 64,-175.56 64,-165.84"/>
<polygon fill="#9a32cd" stroke="#9a32cd" points="60.5,-204.37 64,-214.37 67.5,-204.37 60.5,-204.37"/>
<text text-anchor="middle" x="79.5" y="-188" font-family="Helvetica,sans-Serif" font-size="10.00"> value</text>
</g>
</g>
</svg>
