<?xml version="1.0" encoding="UTF-8" standalone="no"?>
<!DOCTYPE svg PUBLIC "-//W3C//DTD SVG 1.1//EN"
 "http://www.w3.org/Graphics/SVG/1.1/DTD/svg11.dtd">
<!-- Generated by graphviz version 2.43.0 (0)
 -->
<!-- Title: AssertionRecorder Pages: 1 -->
<svg width="127pt" height="230pt"
 viewBox="0.00 0.00 127.00 230.00" xmlns="http://www.w3.org/2000/svg" xmlns:xlink="http://www.w3.org/1999/xlink">
<g id="graph0" class="graph" transform="scale(1 1) rotate(0) translate(4 226)">
<title>AssertionRecorder</title>
<polygon fill="white" stroke="transparent" points="-4,4 -4,-226 123,-226 123,4 -4,4"/>
<!-- Node1 -->
<g id="node1" class="node">
<title>Node1</title>
<g id="a_node1"><a xlink:title=" ">
<polygon fill="#bfbfbf" stroke="black" points="6.5,-0.5 6.5,-19.5 112.5,-19.5 112.5,-0.5 6.5,-0.5"/>
<text text-anchor="middle" x="59.5" y="-7.5" font-family="Helvetica,sans-Serif" font-size="10.00">AssertionRecorder</text>
</a>
</g>
</g>
<!-- Node2 -->
<g id="node2" class="node">
<title>Node2</title>
<g id="a_node2"><a xlink:title=" ">
<polygon fill="white" stroke="#bfbfbf" points="0,-67.5 0,-86.5 119,-86.5 119,-67.5 0,-67.5"/>
<text text-anchor="middle" x="59.5" y="-74.5" font-family="Helvetica,sans-Serif" font-size="10.00">std::vector&lt; string &gt;</text>
</a>
</g>
</g>
<!-- Node2&#45;&gt;Node1 -->
<g id="edge1" class="edge">
<title>Node2&#45;&gt;Node1</title>
<path fill="none" stroke="#9a32cd" stroke-dasharray="5,2" d="M59.5,-57.04C59.5,-44.67 59.5,-29.12 59.5,-19.63"/>
<polygon fill="#9a32cd" stroke="#9a32cd" points="56,-57.23 59.5,-67.23 63,-57.23 56,-57.23"/>
<text text-anchor="middle" x="79.5" y="-41" font-family="Helvetica,sans-Serif" font-size="10.00"> failures</text>
</g>
<!-- Node3 -->
<g id="node3" class="node">
<title>Node3</title>
<g id="a_node3"><a xlink:title=" ">
<polygon fill="white" stroke="#bfbfbf" points="27,-134.5 27,-153.5 92,-153.5 92,-134.5 27,-134.5"/>
<text text-anchor="middle" x="59.5" y="-141.5" font-family="Helvetica,sans-Serif" font-size="10.00">std::string</text>
</a>
</g>
</g>
<!-- Node3&#45;&gt;Node2 -->
<g id="edge2" class="edge">
<title>Node3&#45;&gt;Node2</title>
<path fill="none" stroke="#9a32cd" stroke-dasharray="5,2" d="M59.5,-124.04C59.5,-111.67 59.5,-96.12 59.5,-86.63"/>
<polygon fill="#9a32cd" stroke="#9a32cd" points="56,-124.23 59.5,-134.23 63,-124.23 56,-124.23"/>
<text text-anchor="middle" x="84" y="-108" font-family="Helvetica,sans-Serif" font-size="10.00"> elements</text>
</g>
<!-- Node4 -->
<g id="node4" class="node">
<title>Node4</title>
<g id="a_node4"><a xlink:title=" ">
<polygon fill="white" stroke="#bfbfbf" points="7.5,-191.5 7.5,-221.5 111.5,-221.5 111.5,-191.5 7.5,-191.5"/>
<text text-anchor="start" x="15.5" y="-209.5" font-family="Helvetica,sans-Serif" font-size="10.00">std::basic_string&lt;</text>
<text text-anchor="middle" x="59.5" y="-198.5" font-family="Helvetica,sans-Serif" font-size="10.00"> Char &gt;</text>
</a>
</g>
</g>
<!-- Node4&#45;&gt;Node3 -->
<g id="edge3" class="edge">
<title>Node4&#45;&gt;Node3</title>
<path fill="none" stroke="midnightblue" d="M59.5,-181.35C59.5,-171.51 59.5,-160.78 59.5,-153.54"/>
<polygon fill="midnightblue" stroke="midnightblue" points="56,-181.47 59.5,-191.47 63,-181.47 56,-181.47"/>
</g>
</g>
</svg>
