<?xml version="1.0" encoding="UTF-8" standalone="no"?>
<!DOCTYPE svg PUBLIC "-//W3C//DTD SVG 1.1//EN"
 "http://www.w3.org/Graphics/SVG/1.1/DTD/svg11.dtd">
<!-- Generated by graphviz version 2.43.0 (0)
 -->
<!-- Title: PinCCTLib::CCT_LIB_GLOBAL_STATE Pages: 1 -->
<!--zoomable 466 -->
<svg id="main" version="1.1" xmlns="http://www.w3.org/2000/svg" xmlns:xlink="http://www.w3.org/1999/xlink" xml:space="preserve" onload="init(evt)">
<style type="text/css"><![CDATA[
.edge:hover path { stroke: red; }
.edge:hover polygon { stroke: red; fill: red; }
]]></style>
<script type="text/javascript"><![CDATA[
var edges = document.getElementsByTagName('g');
if (edges && edges.length) {
  for (var i=0;i<edges.length;i++) {
    if (edges[i].id.substr(0,4)=='edge') {
      edges[i].setAttribute('class','edge');
    }
  }
}
]]></script>
        <defs>
                <circle id="rim" cx="0" cy="0" r="7"/>
                <circle id="rim2" cx="0" cy="0" r="3.5"/>
                <g id="zoomPlus">
                        <use xlink:href="#rim" fill="#404040">
                                <set attributeName="fill" to="#808080" begin="zoomplus.mouseover" end="zoomplus.mouseout"/>
                        </use>
                        <path d="M-4,0h8M0,-4v8" fill="none" stroke="white" stroke-width="1.5" pointer-events="none"/>
                </g>
                <g id="zoomMin">
                        <use xlink:href="#rim" fill="#404040">
                                <set attributeName="fill" to="#808080" begin="zoomminus.mouseover" end="zoomminus.mouseout"/>
                        </use>
                        <path d="M-4,0h8" fill="none" stroke="white" stroke-width="1.5" pointer-events="none"/>
                </g>
                <g id="dirArrow">
                        <path fill="none" stroke="white" stroke-width="1.5" d="M0,-3.0v7 M-2.5,-0.5L0,-3.0L2.5,-0.5"/>
                </g>
               <g id="resetDef">
                       <use xlink:href="#rim2" fill="#404040">
                               <set attributeName="fill" to="#808080" begin="reset.mouseover" end="reset.mouseout"/>
                       </use>
               </g>
        </defs>

<script type="text/javascript">
var viewWidth = 1467;
var viewHeight = 466;
var sectionId = 'dynsection-0';
</script>
<script xlink:href="svgpan.js"/>
<svg id="graph" class="graph">
<g id="viewport">
<title>PinCCTLib::CCT_LIB_GLOBAL_STATE</title>
<polygon fill="white" stroke="transparent" points="-4,4 -4,-461.5 1463,-461.5 1463,4 -4,4"/>
<!-- Node1 -->
<g id="node1" class="node">
<title>Node1</title>
<g id="a_node1"><a xlink:title=" ">
<polygon fill="#bfbfbf" stroke="black" points="1348,-153.5 1348,-183.5 1459,-183.5 1459,-153.5 1348,-153.5"/>
<text text-anchor="start" x="1356" y="-171.5" font-family="Helvetica,sans-Serif" font-size="10.00">PinCCTLib::CCT_LIB</text>
<text text-anchor="middle" x="1403.5" y="-160.5" font-family="Helvetica,sans-Serif" font-size="10.00">_GLOBAL_STATE</text>
</a>
</g>
</g>
<!-- Node2 -->
<g id="node2" class="node">
<title>Node2</title>
<g id="a_node2"><a xlink:title=" ">
<polygon fill="white" stroke="#bfbfbf" points="1096,-271.5 1096,-301.5 1224,-301.5 1224,-271.5 1096,-271.5"/>
<text text-anchor="start" x="1104" y="-289.5" font-family="Helvetica,sans-Serif" font-size="10.00">std::vector&lt; PinCCTLib</text>
<text text-anchor="middle" x="1160" y="-278.5" font-family="Helvetica,sans-Serif" font-size="10.00">::ThreadData &gt;</text>
</a>
</g>
</g>
<!-- Node2&#45;&gt;Node1 -->
<g id="edge1" class="edge">
<title>Node2&#45;&gt;Node1</title>
<path fill="none" stroke="#9a32cd" stroke-dasharray="5,2" d="M1233.93,-269.68C1264.76,-260.85 1300.32,-248.3 1330,-231.5 1352.78,-218.61 1374.89,-197.83 1388.58,-183.69"/>
<polygon fill="#9a32cd" stroke="#9a32cd" points="1232.8,-266.36 1224.11,-272.42 1234.68,-273.1 1232.8,-266.36"/>
<text text-anchor="middle" x="1286" y="-268.5" font-family="Helvetica,sans-Serif" font-size="10.00"> deserializedCCTs</text>
</g>
<!-- Node3 -->
<g id="node3" class="node">
<title>Node3</title>
<g id="a_node3"><a xlink:href="structPinCCTLib_1_1ThreadData.html" target="_top" xlink:title=" ">
<polygon fill="white" stroke="black" points="799,-336 799,-355 927,-355 927,-336 799,-336"/>
<text text-anchor="middle" x="863" y="-343" font-family="Helvetica,sans-Serif" font-size="10.00">PinCCTLib::ThreadData</text>
</a>
</g>
</g>
<!-- Node3&#45;&gt;Node2 -->
<g id="edge2" class="edge">
<title>Node3&#45;&gt;Node2</title>
<path fill="none" stroke="#9a32cd" stroke-dasharray="5,2" d="M921.75,-333.95C971.86,-323.93 1044.27,-309.45 1095.9,-299.12"/>
<polygon fill="#9a32cd" stroke="#9a32cd" points="920.84,-330.56 911.72,-335.96 922.22,-337.43 920.84,-330.56"/>
<text text-anchor="middle" x="1011.5" y="-330.5" font-family="Helvetica,sans-Serif" font-size="10.00"> elements</text>
</g>
<!-- Node4 -->
<g id="node4" class="node">
<title>Node4</title>
<g id="a_node4"><a xlink:title=" ">
<polygon fill="white" stroke="#bfbfbf" points="477,-328.5 477,-358.5 641,-358.5 641,-328.5 477,-328.5"/>
<text text-anchor="start" x="485" y="-346.5" font-family="Helvetica,sans-Serif" font-size="10.00">sparse_hash_map&lt; ADDRINT,</text>
<text text-anchor="middle" x="559" y="-335.5" font-family="Helvetica,sans-Serif" font-size="10.00"> ContextHandle_t &gt;</text>
</a>
</g>
</g>
<!-- Node4&#45;&gt;Node3 -->
<g id="edge3" class="edge">
<title>Node4&#45;&gt;Node3</title>
<path fill="none" stroke="#9a32cd" stroke-dasharray="5,2" d="M651.34,-344.1C698.96,-344.42 756.01,-344.8 798.73,-345.08"/>
<polygon fill="#9a32cd" stroke="#9a32cd" points="651.35,-340.6 641.33,-344.04 651.3,-347.6 651.35,-340.6"/>
<text text-anchor="middle" x="720" y="-347.5" font-family="Helvetica,sans-Serif" font-size="10.00"> tlsLongJmpMap</text>
</g>
<!-- Node5 -->
<g id="node5" class="node">
<title>Node5</title>
<g id="a_node5"><a xlink:href="structPinCCTLib_1_1NewIPNode.html" target="_top" xlink:title=" ">
<polygon fill="white" stroke="black" points="495,-261 495,-280 623,-280 623,-261 495,-261"/>
<text text-anchor="middle" x="559" y="-268" font-family="Helvetica,sans-Serif" font-size="10.00">PinCCTLib::NewIPNode</text>
</a>
</g>
</g>
<!-- Node5&#45;&gt;Node3 -->
<g id="edge4" class="edge">
<title>Node5&#45;&gt;Node3</title>
<path fill="none" stroke="#9a32cd" stroke-dasharray="5,2" d="M608.52,-282.55C668.38,-297.42 768.94,-322.39 823.67,-335.98"/>
<polygon fill="#9a32cd" stroke="#9a32cd" points="609.1,-279.09 598.56,-280.07 607.42,-285.88 609.1,-279.09"/>
<text text-anchor="middle" x="720" y="-325.5" font-family="Helvetica,sans-Serif" font-size="10.00"> tlsHPCRunCCTRoot</text>
</g>
<!-- Node5&#45;&gt;Node5 -->
<g id="edge7" class="edge">
<title>Node5&#45;&gt;Node5</title>
<path fill="none" stroke="#9a32cd" stroke-dasharray="5,2" d="M529.06,-288.77C529.91,-294.24 539.89,-298.5 559,-298.5 587.44,-298.5 595.66,-289.07 583.66,-280.26"/>
<polygon fill="#9a32cd" stroke="#9a32cd" points="532.05,-290.6 534.34,-280.26 526.1,-286.91 532.05,-290.6"/>
<text text-anchor="middle" x="559" y="-301.5" font-family="Helvetica,sans-Serif" font-size="10.00"> parentIPNode</text>
</g>
<!-- Node6 -->
<g id="node6" class="node">
<title>Node6</title>
<g id="a_node6"><a xlink:title=" ">
<polygon fill="white" stroke="#bfbfbf" points="799,-258.5 799,-288.5 927,-288.5 927,-258.5 799,-258.5"/>
<text text-anchor="start" x="807" y="-276.5" font-family="Helvetica,sans-Serif" font-size="10.00">std::vector&lt; PinCCTLib</text>
<text text-anchor="middle" x="863" y="-265.5" font-family="Helvetica,sans-Serif" font-size="10.00">::NewIPNode * &gt;</text>
</a>
</g>
</g>
<!-- Node5&#45;&gt;Node6 -->
<g id="edge6" class="edge">
<title>Node5&#45;&gt;Node6</title>
<path fill="none" stroke="#9a32cd" stroke-dasharray="5,2" d="M627.44,-259.67C637.98,-258.35 648.76,-257.22 659,-256.5 713.09,-252.69 727.07,-250.9 781,-256.5 786.86,-257.11 792.92,-257.96 798.97,-258.96"/>
<polygon fill="#9a32cd" stroke="#9a32cd" points="626.9,-256.21 617.44,-260.99 627.81,-263.15 626.9,-256.21"/>
<text text-anchor="middle" x="720" y="-259.5" font-family="Helvetica,sans-Serif" font-size="10.00"> elements</text>
</g>
<!-- Node6&#45;&gt;Node5 -->
<g id="edge5" class="edge">
<title>Node6&#45;&gt;Node5</title>
<path fill="none" stroke="#9a32cd" stroke-dasharray="5,2" d="M788.56,-272.77C738.01,-272.27 671.53,-271.61 623.31,-271.13"/>
<polygon fill="#9a32cd" stroke="#9a32cd" points="788.74,-276.27 798.77,-272.87 788.81,-269.27 788.74,-276.27"/>
<text text-anchor="middle" x="720" y="-275.5" font-family="Helvetica,sans-Serif" font-size="10.00"> childIPNodes</text>
</g>
<!-- Node7 -->
<g id="node7" class="node">
<title>Node7</title>
<g id="a_node7"><a xlink:href="structPinCCTLib_1_1TraceSplay.html" target="_top" xlink:title=" ">
<polygon fill="white" stroke="black" points="189,-283 189,-302 313,-302 313,-283 189,-283"/>
<text text-anchor="middle" x="251" y="-290" font-family="Helvetica,sans-Serif" font-size="10.00">PinCCTLib::TraceSplay</text>
</a>
</g>
</g>
<!-- Node7&#45;&gt;Node5 -->
<g id="edge8" class="edge">
<title>Node7&#45;&gt;Node5</title>
<path fill="none" stroke="#9a32cd" stroke-dasharray="5,2" d="M323.32,-287.37C375.24,-283.64 444.9,-278.63 494.81,-275.04"/>
<polygon fill="#9a32cd" stroke="#9a32cd" points="322.91,-283.89 313.19,-288.1 323.41,-290.87 322.91,-283.89"/>
<text text-anchor="middle" x="395" y="-289.5" font-family="Helvetica,sans-Serif" font-size="10.00"> tmpSplay</text>
</g>
<!-- Node7&#45;&gt;Node7 -->
<g id="edge10" class="edge">
<title>Node7&#45;&gt;Node7</title>
<path fill="none" stroke="#9a32cd" stroke-dasharray="5,2" d="M233.59,-311.9C234.76,-316.81 240.56,-320.5 251,-320.5 267.71,-320.5 272.54,-311.07 265.49,-302.26"/>
<polygon fill="#9a32cd" stroke="#9a32cd" points="236.97,-312.84 236.51,-302.26 230.27,-310.81 236.97,-312.84"/>
<text text-anchor="middle" x="251" y="-334.5" font-family="Helvetica,sans-Serif" font-size="10.00"> left</text>
<text text-anchor="middle" x="251" y="-323.5" font-family="Helvetica,sans-Serif" font-size="10.00">right</text>
</g>
<!-- Node9 -->
<g id="node9" class="node">
<title>Node9</title>
<g id="a_node9"><a xlink:href="structPinCCTLib_1_1IPNode.html" target="_top" xlink:title=" ">
<polygon fill="white" stroke="black" points="506,-216 506,-235 612,-235 612,-216 506,-216"/>
<text text-anchor="middle" x="559" y="-223" font-family="Helvetica,sans-Serif" font-size="10.00">PinCCTLib::IPNode</text>
</a>
</g>
</g>
<!-- Node7&#45;&gt;Node9 -->
<g id="edge14" class="edge">
<title>Node7&#45;&gt;Node9</title>
<path fill="none" stroke="#9a32cd" stroke-dasharray="5,2" d="M283.14,-279.01C297.49,-273.23 314.88,-266.83 331,-262.5 390,-246.66 459.56,-236.54 505.98,-230.96"/>
<polygon fill="#9a32cd" stroke="#9a32cd" points="281.66,-275.84 273.74,-282.88 284.32,-282.31 281.66,-275.84"/>
<text text-anchor="middle" x="395" y="-265.5" font-family="Helvetica,sans-Serif" font-size="10.00"> calleeTraceNodes</text>
</g>
<!-- Node8 -->
<g id="node8" class="node">
<title>Node8</title>
<g id="a_node8"><a xlink:href="structPinCCTLib_1_1TraceNode.html" target="_top" xlink:title=" ">
<polygon fill="white" stroke="black" points="0,-354 0,-373 122,-373 122,-354 0,-354"/>
<text text-anchor="middle" x="61" y="-361" font-family="Helvetica,sans-Serif" font-size="10.00">PinCCTLib::TraceNode</text>
</a>
</g>
</g>
<!-- Node8&#45;&gt;Node1 -->
<g id="edge15" class="edge">
<title>Node8&#45;&gt;Node1</title>
<path fill="none" stroke="#9a32cd" stroke-dasharray="5,2" d="M82.32,-379.25C115.48,-403.32 184.12,-446.5 250,-446.5 250,-446.5 250,-446.5 1161,-446.5 1301.33,-446.5 1378.56,-242.12 1397.73,-183.84"/>
<polygon fill="#9a32cd" stroke="#9a32cd" points="84.06,-376.18 73.95,-373.02 79.88,-381.8 84.06,-376.18"/>
<text text-anchor="middle" x="720" y="-449.5" font-family="Helvetica,sans-Serif" font-size="10.00"> threadCreatorTraceNode</text>
</g>
<!-- Node8&#45;&gt;Node3 -->
<g id="edge11" class="edge">
<title>Node8&#45;&gt;Node3</title>
<path fill="none" stroke="#9a32cd" stroke-dasharray="5,2" d="M132.24,-365.95C241.2,-369.33 457.53,-374.39 641,-368.5 703.32,-366.5 719.08,-366.82 781,-359.5 791.06,-358.31 801.77,-356.7 812,-355"/>
<polygon fill="#9a32cd" stroke="#9a32cd" points="132.14,-362.44 122.03,-365.63 131.92,-369.44 132.14,-362.44"/>
<text text-anchor="middle" x="395" y="-406.5" font-family="Helvetica,sans-Serif" font-size="10.00"> tlsCurrentTraceNode</text>
<text text-anchor="middle" x="395" y="-395.5" font-family="Helvetica,sans-Serif" font-size="10.00">tlsParentThreadTraceNode</text>
<text text-anchor="middle" x="395" y="-384.5" font-family="Helvetica,sans-Serif" font-size="10.00">tlsPendingHandlerFrame</text>
<text text-anchor="middle" x="395" y="-373.5" font-family="Helvetica,sans-Serif" font-size="10.00">tlsRootTraceNode</text>
</g>
<!-- Node8&#45;&gt;Node7 -->
<g id="edge9" class="edge">
<title>Node8&#45;&gt;Node7</title>
<path fill="none" stroke="#9a32cd" stroke-dasharray="5,2" d="M96.77,-350.37C133.88,-336.35 191.77,-314.49 224.75,-302.04"/>
<polygon fill="#9a32cd" stroke="#9a32cd" points="95.47,-347.12 87.35,-353.92 97.95,-353.67 95.47,-347.12"/>
<text text-anchor="middle" x="155.5" y="-334.5" font-family="Helvetica,sans-Serif" font-size="10.00"> value</text>
</g>
<!-- Node8&#45;&gt;Node9 -->
<g id="edge13" class="edge">
<title>Node8&#45;&gt;Node9</title>
<path fill="none" stroke="#9a32cd" stroke-dasharray="5,2" d="M77.74,-346.39C100.08,-323.28 143.36,-282.67 189,-262.5 294.11,-216.04 432.04,-216.38 505.92,-220.84"/>
<polygon fill="#9a32cd" stroke="#9a32cd" points="75.09,-344.1 70.75,-353.77 80.17,-348.92 75.09,-344.1"/>
<text text-anchor="middle" x="251" y="-265.5" font-family="Helvetica,sans-Serif" font-size="10.00"> parentTraceNode</text>
</g>
<!-- Node9&#45;&gt;Node1 -->
<g id="edge12" class="edge">
<title>Node9&#45;&gt;Node1</title>
<path fill="none" stroke="#9a32cd" stroke-dasharray="5,2" d="M622.47,-225.04C740.32,-223.71 1003.44,-218.54 1224,-198.5 1271.39,-194.19 1283.12,-191.66 1330,-183.5 1335.83,-182.49 1341.9,-181.35 1347.94,-180.17"/>
<polygon fill="#9a32cd" stroke="#9a32cd" points="622.16,-221.54 612.2,-225.15 622.23,-228.54 622.16,-221.54"/>
<text text-anchor="middle" x="1011.5" y="-218.5" font-family="Helvetica,sans-Serif" font-size="10.00"> preAllocatedContextBuffer</text>
</g>
<!-- Node10 -->
<g id="node10" class="node">
<title>Node10</title>
<g id="a_node10"><a xlink:title=" ">
<polygon fill="white" stroke="#bfbfbf" points="1096,-148 1096,-189 1224,-189 1224,-148 1096,-148"/>
<text text-anchor="start" x="1104" y="-177" font-family="Helvetica,sans-Serif" font-size="10.00">std::unordered_map</text>
<text text-anchor="start" x="1104" y="-166" font-family="Helvetica,sans-Serif" font-size="10.00">&lt; ADDRINT, PinCCTLib</text>
<text text-anchor="middle" x="1160" y="-155" font-family="Helvetica,sans-Serif" font-size="10.00">::RtnInfo &gt;</text>
</a>
</g>
</g>
<!-- Node10&#45;&gt;Node1 -->
<g id="edge16" class="edge">
<title>Node10&#45;&gt;Node1</title>
<path fill="none" stroke="#9a32cd" stroke-dasharray="5,2" d="M1234.26,-168.5C1270.83,-168.5 1314.33,-168.5 1347.93,-168.5"/>
<polygon fill="#9a32cd" stroke="#9a32cd" points="1234.14,-165 1224.14,-168.5 1234.14,-172 1234.14,-165"/>
<text text-anchor="middle" x="1286" y="-171.5" font-family="Helvetica,sans-Serif" font-size="10.00"> rtnSelfRecMap</text>
</g>
<!-- Node11 -->
<g id="node11" class="node">
<title>Node11</title>
<g id="a_node11"><a xlink:href="structPinCCTLib_1_1RtnInfo.html" target="_top" xlink:title=" ">
<polygon fill="white" stroke="black" points="809.5,-159 809.5,-178 916.5,-178 916.5,-159 809.5,-159"/>
<text text-anchor="middle" x="863" y="-166" font-family="Helvetica,sans-Serif" font-size="10.00">PinCCTLib::RtnInfo</text>
</a>
</g>
</g>
<!-- Node11&#45;&gt;Node10 -->
<g id="edge17" class="edge">
<title>Node11&#45;&gt;Node10</title>
<path fill="none" stroke="#9a32cd" stroke-dasharray="5,2" d="M926.75,-168.5C976.61,-168.5 1046.02,-168.5 1095.96,-168.5"/>
<polygon fill="#9a32cd" stroke="#9a32cd" points="926.74,-165 916.74,-168.5 926.74,-172 926.74,-165"/>
<text text-anchor="middle" x="1011.5" y="-171.5" font-family="Helvetica,sans-Serif" font-size="10.00"> elements</text>
</g>
<!-- Node12 -->
<g id="node12" class="node">
<title>Node12</title>
<g id="a_node12"><a xlink:title=" ">
<polygon fill="white" stroke="#bfbfbf" points="526.5,-74 526.5,-93 591.5,-93 591.5,-74 526.5,-74"/>
<text text-anchor="middle" x="559" y="-81" font-family="Helvetica,sans-Serif" font-size="10.00">std::string</text>
</a>
</g>
</g>
<!-- Node12&#45;&gt;Node1 -->
<g id="edge18" class="edge">
<title>Node12&#45;&gt;Node1</title>
<path fill="none" stroke="#9a32cd" stroke-dasharray="5,2" d="M601.54,-76.99C707.04,-61.78 993.33,-28.83 1224,-78.5 1285.58,-91.76 1349.57,-131.46 1381.59,-153.44"/>
<polygon fill="#9a32cd" stroke="#9a32cd" points="600.99,-73.53 591.61,-78.45 602.01,-80.46 600.99,-73.53"/>
<text text-anchor="middle" x="1011.5" y="-71.5" font-family="Helvetica,sans-Serif" font-size="10.00"> CCTLibFilePathPrefix</text>
<text text-anchor="middle" x="1011.5" y="-60.5" font-family="Helvetica,sans-Serif" font-size="10.00">serializationDirectory</text>
</g>
<!-- Node15 -->
<g id="node15" class="node">
<title>Node15</title>
<g id="a_node15"><a xlink:href="structPinCCTLib_1_1ModuleInfo.html" target="_top" xlink:title=" ">
<polygon fill="white" stroke="black" points="800,-93 800,-112 926,-112 926,-93 800,-93"/>
<text text-anchor="middle" x="863" y="-100" font-family="Helvetica,sans-Serif" font-size="10.00">PinCCTLib::ModuleInfo</text>
</a>
</g>
</g>
<!-- Node12&#45;&gt;Node15 -->
<g id="edge22" class="edge">
<title>Node12&#45;&gt;Node15</title>
<path fill="none" stroke="#9a32cd" stroke-dasharray="5,2" d="M601.82,-86.13C653.16,-89.36 740.67,-94.87 799.88,-98.59"/>
<polygon fill="#9a32cd" stroke="#9a32cd" points="601.95,-82.63 591.75,-85.5 601.51,-89.62 601.95,-82.63"/>
<text text-anchor="middle" x="720" y="-99.5" font-family="Helvetica,sans-Serif" font-size="10.00"> moduleName</text>
</g>
<!-- Node13 -->
<g id="node13" class="node">
<title>Node13</title>
<g id="a_node13"><a xlink:title=" ">
<polygon fill="white" stroke="#bfbfbf" points="199,-68.5 199,-98.5 303,-98.5 303,-68.5 199,-68.5"/>
<text text-anchor="start" x="207" y="-86.5" font-family="Helvetica,sans-Serif" font-size="10.00">std::basic_string&lt;</text>
<text text-anchor="middle" x="251" y="-75.5" font-family="Helvetica,sans-Serif" font-size="10.00"> Char &gt;</text>
</a>
</g>
</g>
<!-- Node13&#45;&gt;Node12 -->
<g id="edge19" class="edge">
<title>Node13&#45;&gt;Node12</title>
<path fill="none" stroke="midnightblue" d="M313.23,-83.5C377.54,-83.5 476.15,-83.5 526.32,-83.5"/>
<polygon fill="midnightblue" stroke="midnightblue" points="313.22,-80 303.22,-83.5 313.22,-87 313.22,-80"/>
</g>
<!-- Node14 -->
<g id="node14" class="node">
<title>Node14</title>
<g id="a_node14"><a xlink:title=" ">
<polygon fill="white" stroke="#bfbfbf" points="1100.5,-88 1100.5,-129 1219.5,-129 1219.5,-88 1100.5,-88"/>
<text text-anchor="start" x="1108.5" y="-117" font-family="Helvetica,sans-Serif" font-size="10.00">std::unordered_map</text>
<text text-anchor="start" x="1108.5" y="-106" font-family="Helvetica,sans-Serif" font-size="10.00">&lt; UINT32, PinCCTLib</text>
<text text-anchor="middle" x="1160" y="-95" font-family="Helvetica,sans-Serif" font-size="10.00">::ModuleInfo &gt;</text>
</a>
</g>
</g>
<!-- Node14&#45;&gt;Node1 -->
<g id="edge20" class="edge">
<title>Node14&#45;&gt;Node1</title>
<path fill="none" stroke="#9a32cd" stroke-dasharray="5,2" d="M1229.58,-125.54C1266.97,-134.83 1312.61,-146.17 1347.62,-154.86"/>
<polygon fill="#9a32cd" stroke="#9a32cd" points="1230.32,-122.12 1219.77,-123.1 1228.63,-128.91 1230.32,-122.12"/>
<text text-anchor="middle" x="1286" y="-151.5" font-family="Helvetica,sans-Serif" font-size="10.00"> ModuleInfoMap</text>
</g>
<!-- Node15&#45;&gt;Node14 -->
<g id="edge21" class="edge">
<title>Node15&#45;&gt;Node14</title>
<path fill="none" stroke="#9a32cd" stroke-dasharray="5,2" d="M936.39,-103.97C986.84,-105 1053.27,-106.35 1100.4,-107.31"/>
<polygon fill="#9a32cd" stroke="#9a32cd" points="936.27,-100.47 926.2,-103.77 936.13,-107.47 936.27,-100.47"/>
<text text-anchor="middle" x="1011.5" y="-109.5" font-family="Helvetica,sans-Serif" font-size="10.00"> elements</text>
</g>
<!-- Node16 -->
<g id="node16" class="node">
<title>Node16</title>
<g id="a_node16"><a xlink:title=" ">
<polygon fill="white" stroke="#bfbfbf" points="1103,-0.5 1103,-30.5 1217,-30.5 1217,-0.5 1103,-0.5"/>
<text text-anchor="start" x="1111" y="-18.5" font-family="Helvetica,sans-Serif" font-size="10.00">std::unordered_map</text>
<text text-anchor="middle" x="1160" y="-7.5" font-family="Helvetica,sans-Serif" font-size="10.00">&lt; uint32_t, void * &gt;</text>
</a>
</g>
</g>
<!-- Node16&#45;&gt;Node1 -->
<g id="edge23" class="edge">
<title>Node16&#45;&gt;Node1</title>
<path fill="none" stroke="#9a32cd" stroke-dasharray="5,2" d="M1227.35,-9.11C1260.72,-9.15 1300.28,-14.45 1330,-34.5 1372.32,-63.05 1392.04,-124.71 1399.18,-153.33"/>
<polygon fill="#9a32cd" stroke="#9a32cd" points="1227.16,-5.61 1217.22,-9.26 1227.27,-12.61 1227.16,-5.61"/>
<text text-anchor="middle" x="1286" y="-37.5" font-family="Helvetica,sans-Serif" font-size="10.00"> traceShadowMap</text>
</g>
</g>
</svg>
        <g id="navigator" transform="translate(0 0)" fill="#404254">
                <rect fill="#f2f5e9" fill-opacity="0.5" stroke="#606060" stroke-width=".5" x="0" y="0" width="60" height="60"/>
                <use id="zoomplus" xlink:href="#zoomPlus" x="17" y="9" onmousedown="handleZoom(evt,'in')"/>
                <use id="zoomminus" xlink:href="#zoomMin" x="42" y="9" onmousedown="handleZoom(evt,'out')"/>
                <use id="reset" xlink:href="#resetDef" x="30" y="36" onmousedown="handleReset()"/>
                <g id="arrowUp" xlink:href="#dirArrow" transform="translate(30 24)" onmousedown="handlePan(0,-1)">
                  <use xlink:href="#rim" fill="#404040">
                        <set attributeName="fill" to="#808080" begin="arrowUp.mouseover" end="arrowUp.mouseout"/>
                  </use>
                  <path fill="none" stroke="white" stroke-width="1.5" d="M0,-3.0v7 M-2.5,-0.5L0,-3.0L2.5,-0.5"/>
                </g>
                <g id="arrowRight" xlink:href="#dirArrow" transform="rotate(90) translate(36 -43)" onmousedown="handlePan(1,0)">
                  <use xlink:href="#rim" fill="#404040">
                        <set attributeName="fill" to="#808080" begin="arrowRight.mouseover" end="arrowRight.mouseout"/>
                  </use>
                  <path fill="none" stroke="white" stroke-width="1.5" d="M0,-3.0v7 M-2.5,-0.5L0,-3.0L2.5,-0.5"/>
                </g>
                <g id="arrowDown" xlink:href="#dirArrow" transform="rotate(180) translate(-30 -48)" onmousedown="handlePan(0,1)">
                  <use xlink:href="#rim" fill="#404040">
                        <set attributeName="fill" to="#808080" begin="arrowDown.mouseover" end="arrowDown.mouseout"/>
                  </use>
                  <path fill="none" stroke="white" stroke-width="1.5" d="M0,-3.0v7 M-2.5,-0.5L0,-3.0L2.5,-0.5"/>
                </g>
                <g id="arrowLeft" xlink:href="#dirArrow" transform="rotate(270) translate(-36 17)" onmousedown="handlePan(-1,0)">
                  <use xlink:href="#rim" fill="#404040">
                        <set attributeName="fill" to="#808080" begin="arrowLeft.mouseover" end="arrowLeft.mouseout"/>
                  </use>
                  <path fill="none" stroke="white" stroke-width="1.5" d="M0,-3.0v7 M-2.5,-0.5L0,-3.0L2.5,-0.5"/>
                </g>
        </g>
        <svg viewBox="0 0 15 15" width="100%" height="30px" preserveAspectRatio="xMaxYMin meet">
         <g id="arrow_out" transform="scale(0.3 0.3)">
          <a xlink:href="structPinCCTLib_1_1CCT__LIB__GLOBAL__STATE__coll__graph_org.svg" target="_base">
           <rect id="button" ry="5" rx="5" y="6" x="6" height="38" width="38"
                fill="#f2f5e9" fill-opacity="0.5" stroke="#606060" stroke-width="1.0"/>
           <path id="arrow"
             d="M 11.500037,31.436501 C 11.940474,20.09759 22.043105,11.32322 32.158766,21.979434 L 37.068811,17.246167 C 37.068811,17.246167 37.088388,32 37.088388,32 L 22.160133,31.978069 C 22.160133,31.978069 26.997745,27.140456 26.997745,27.140456 C 18.528582,18.264221 13.291696,25.230495 11.500037,31.436501 z"
             style="fill:#404040;"/>
          </a>
         </g>
        </svg>
</svg>
