<?xml version="1.0" encoding="UTF-8" standalone="no"?>
<!DOCTYPE svg PUBLIC "-//W3C//DTD SVG 1.1//EN"
 "http://www.w3.org/Graphics/SVG/1.1/DTD/svg11.dtd">
<!-- Generated by graphviz version 2.43.0 (0)
 -->
<!-- Title: PinCCTLib::TraceSplay Pages: 1 -->
<svg width="173pt" height="97pt"
 viewBox="0.00 0.00 173.00 97.00" xmlns="http://www.w3.org/2000/svg" xmlns:xlink="http://www.w3.org/1999/xlink">
<g id="graph0" class="graph" transform="scale(1 1) rotate(0) translate(4 93)">
<title>PinCCTLib::TraceSplay</title>
<polygon fill="white" stroke="transparent" points="-4,4 -4,-93 169,-93 169,4 -4,4"/>
<!-- Node1 -->
<g id="node1" class="node">
<title>Node1</title>
<g id="a_node1"><a xlink:title=" ">
<polygon fill="#bfbfbf" stroke="black" points="0,-1.5 0,-20.5 124,-20.5 124,-1.5 0,-1.5"/>
<text text-anchor="middle" x="62" y="-8.5" font-family="Helvetica,sans-Serif" font-size="10.00">PinCCTLib::TraceSplay</text>
</a>
</g>
</g>
<!-- Node1&#45;&gt;Node1 -->
<g id="edge2" class="edge">
<title>Node1&#45;&gt;Node1</title>
<path fill="none" stroke="#9a32cd" stroke-dasharray="5,2" d="M134.03,-15.62C138.99,-14.56 142,-13.02 142,-11 142,-7.85 134.66,-5.86 124.05,-5.05"/>
<polygon fill="#9a32cd" stroke="#9a32cd" points="133.5,-12.16 124.05,-16.95 134.43,-19.1 133.5,-12.16"/>
<text text-anchor="middle" x="153.5" y="-14" font-family="Helvetica,sans-Serif" font-size="10.00"> left</text>
<text text-anchor="middle" x="153.5" y="-3" font-family="Helvetica,sans-Serif" font-size="10.00">right</text>
</g>
<!-- Node2 -->
<g id="node2" class="node">
<title>Node2</title>
<g id="a_node2"><a xlink:href="structPinCCTLib_1_1TraceNode.html" target="_top" xlink:title=" ">
<polygon fill="white" stroke="black" points="1,-69.5 1,-88.5 123,-88.5 123,-69.5 1,-69.5"/>
<text text-anchor="middle" x="62" y="-76.5" font-family="Helvetica,sans-Serif" font-size="10.00">PinCCTLib::TraceNode</text>
</a>
</g>
</g>
<!-- Node2&#45;&gt;Node1 -->
<g id="edge1" class="edge">
<title>Node2&#45;&gt;Node1</title>
<path fill="none" stroke="#9a32cd" stroke-dasharray="5,2" d="M62,-59.04C62,-46.47 62,-30.56 62,-20.84"/>
<polygon fill="#9a32cd" stroke="#9a32cd" points="58.5,-59.37 62,-69.37 65.5,-59.37 58.5,-59.37"/>
<text text-anchor="middle" x="77.5" y="-43" font-family="Helvetica,sans-Serif" font-size="10.00"> value</text>
</g>
</g>
</svg>
