<?xml version="1.0" encoding="UTF-8" standalone="no"?>
<!DOCTYPE svg PUBLIC "-//W3C//DTD SVG 1.1//EN"
 "http://www.w3.org/Graphics/SVG/1.1/DTD/svg11.dtd">
<!-- Generated by graphviz version 2.43.0 (0)
 -->
<!-- Title: ArrayAnalysis&lt; T, isApprox &gt; Pages: 1 -->
<svg width="579pt" height="153pt"
 viewBox="0.00 0.00 579.00 153.12" xmlns="http://www.w3.org/2000/svg" xmlns:xlink="http://www.w3.org/1999/xlink">
<g id="graph0" class="graph" transform="scale(1 1) rotate(0) translate(4 149.12)">
<title>ArrayAnalysis&lt; T, isApprox &gt;</title>
<polygon fill="white" stroke="transparent" points="-4,4 -4,-149.12 575,-149.12 575,4 -4,4"/>
<!-- Node1 -->
<g id="node1" class="node">
<title>Node1</title>
<g id="a_node1"><a xlink:title=" ">
<polygon fill="#bfbfbf" stroke="black" points="410,-73.62 410,-92.62 571,-92.62 571,-73.62 410,-73.62"/>
<text text-anchor="middle" x="490.5" y="-80.62" font-family="Helvetica,sans-Serif" font-size="10.00">ArrayAnalysis&lt; T, isApprox &gt;</text>
</a>
</g>
</g>
<!-- Node2 -->
<g id="node2" class="node">
<title>Node2</title>
<g id="a_node2"><a xlink:title=" ">
<polygon fill="white" stroke="#bfbfbf" points="200,-125.62 200,-144.62 331,-144.62 331,-125.62 200,-125.62"/>
<text text-anchor="middle" x="265.5" y="-132.62" font-family="Helvetica,sans-Serif" font-size="10.00">std::list&lt; ValueGroup &gt;</text>
</a>
</g>
</g>
<!-- Node2&#45;&gt;Node1 -->
<g id="edge1" class="edge">
<title>Node2&#45;&gt;Node1</title>
<path fill="none" stroke="#9a32cd" stroke-dasharray="5,2" d="M328.92,-123.63C349.11,-119.66 371.57,-114.98 392,-110.12 413.87,-104.92 438.25,-98.17 457.15,-92.72"/>
<polygon fill="#9a32cd" stroke="#9a32cd" points="328.04,-120.23 318.89,-125.57 329.38,-127.1 328.04,-120.23"/>
<text text-anchor="middle" x="370.5" y="-122.12" font-family="Helvetica,sans-Serif" font-size="10.00"> maxList</text>
</g>
<!-- Node3 -->
<g id="node3" class="node">
<title>Node3</title>
<g id="a_node3"><a xlink:title=" ">
<polygon fill="white" stroke="#bfbfbf" points="201.5,-29.12 201.5,-59.12 329.5,-59.12 329.5,-29.12 201.5,-29.12"/>
<text text-anchor="start" x="209.5" y="-47.12" font-family="Helvetica,sans-Serif" font-size="10.00">std::unordered_map</text>
<text text-anchor="middle" x="265.5" y="-36.12" font-family="Helvetica,sans-Serif" font-size="10.00">&lt; T, list&lt; uint32_t &gt; &gt;</text>
</a>
</g>
</g>
<!-- Node3&#45;&gt;Node1 -->
<g id="edge2" class="edge">
<title>Node3&#45;&gt;Node1</title>
<path fill="none" stroke="#9a32cd" stroke-dasharray="5,2" d="M339.43,-56.88C370.54,-62.32 406.22,-68.55 434.98,-73.58"/>
<polygon fill="#9a32cd" stroke="#9a32cd" points="339.96,-53.41 329.51,-55.14 338.76,-60.31 339.96,-53.41"/>
<text text-anchor="middle" x="370.5" y="-68.12" font-family="Helvetica,sans-Serif" font-size="10.00"> mapIt</text>
</g>
<!-- Node4 -->
<g id="node4" class="node">
<title>Node4</title>
<g id="a_node4"><a xlink:title=" ">
<polygon fill="white" stroke="#bfbfbf" points="0,-67.62 0,-86.62 115,-86.62 115,-67.62 0,-67.62"/>
<text text-anchor="middle" x="57.5" y="-74.62" font-family="Helvetica,sans-Serif" font-size="10.00">std::list&lt; uint32_t &gt;</text>
</a>
</g>
</g>
<!-- Node4&#45;&gt;Node1 -->
<g id="edge5" class="edge">
<title>Node4&#45;&gt;Node1</title>
<path fill="none" stroke="#9a32cd" stroke-dasharray="5,2" d="M125.24,-78.96C127.86,-79.02 130.45,-79.07 133,-79.12 228.15,-80.93 337.6,-82.01 409.85,-82.58"/>
<polygon fill="#9a32cd" stroke="#9a32cd" points="125.12,-75.46 115.04,-78.73 124.96,-82.46 125.12,-75.46"/>
<text text-anchor="middle" x="265.5" y="-84.12" font-family="Helvetica,sans-Serif" font-size="10.00"> spatialRedIndex</text>
</g>
<!-- Node4&#45;&gt;Node3 -->
<g id="edge3" class="edge">
<title>Node4&#45;&gt;Node3</title>
<path fill="none" stroke="#9a32cd" stroke-dasharray="5,2" d="M124.97,-66.47C149.41,-62.56 177.01,-58.14 201.17,-54.27"/>
<polygon fill="#9a32cd" stroke="#9a32cd" points="124.38,-63.02 115.06,-68.06 125.49,-69.93 124.38,-63.02"/>
<text text-anchor="middle" x="157.5" y="-67.12" font-family="Helvetica,sans-Serif" font-size="10.00"> elements</text>
</g>
<!-- Node5 -->
<g id="node5" class="node">
<title>Node5</title>
<g id="a_node5"><a xlink:title=" ">
<polygon fill="white" stroke="#bfbfbf" points="43,-15.62 43,-34.62 72,-34.62 72,-15.62 43,-15.62"/>
<text text-anchor="middle" x="57.5" y="-22.62" font-family="Helvetica,sans-Serif" font-size="10.00">T</text>
</a>
</g>
</g>
<!-- Node5&#45;&gt;Node1 -->
<g id="edge6" class="edge">
<title>Node5&#45;&gt;Node1</title>
<path fill="none" stroke="#9a32cd" stroke-dasharray="5,2" d="M81.96,-19.46C129.57,-8.92 240.65,10.93 331,-9.12 387.33,-21.62 447.35,-56.33 474.56,-73.39"/>
<polygon fill="#9a32cd" stroke="#9a32cd" points="81,-16.09 72.04,-21.74 82.56,-22.92 81,-16.09"/>
<text text-anchor="middle" x="265.5" y="-12.12" font-family="Helvetica,sans-Serif" font-size="10.00"> valueLast</text>
</g>
<!-- Node5&#45;&gt;Node3 -->
<g id="edge4" class="edge">
<title>Node5&#45;&gt;Node3</title>
<path fill="none" stroke="#9a32cd" stroke-dasharray="5,2" d="M82.51,-27.2C107.39,-29.37 147.43,-32.9 182,-36.12 188.3,-36.71 194.88,-37.33 201.44,-37.95"/>
<polygon fill="#9a32cd" stroke="#9a32cd" points="82.48,-23.69 72.21,-26.31 81.87,-30.66 82.48,-23.69"/>
<text text-anchor="middle" x="157.5" y="-39.12" font-family="Helvetica,sans-Serif" font-size="10.00"> keys</text>
</g>
</g>
</svg>
