<?xml version="1.0" encoding="UTF-8" standalone="no"?>
<!DOCTYPE svg PUBLIC "-//W3C//DTD SVG 1.1//EN"
 "http://www.w3.org/Graphics/SVG/1.1/DTD/svg11.dtd">
<!-- Generated by graphviz version 2.43.0 (0)
 -->
<!-- Title: clients/zerospy_client.cpp Pages: 1 -->
<svg width="2270pt" height="140pt"
 viewBox="0.00 0.00 2270.00 140.00" xmlns="http://www.w3.org/2000/svg" xmlns:xlink="http://www.w3.org/1999/xlink">
<g id="graph0" class="graph" transform="scale(1 1) rotate(0) translate(4 136)">
<title>clients/zerospy_client.cpp</title>
<polygon fill="white" stroke="transparent" points="-4,4 -4,-136 2266,-136 2266,4 -4,4"/>
<!-- Node1 -->
<g id="node1" class="node">
<title>Node1</title>
<g id="a_node1"><a xlink:title=" ">
<polygon fill="#bfbfbf" stroke="black" points="843,-112.5 843,-131.5 986,-131.5 986,-112.5 843,-112.5"/>
<text text-anchor="middle" x="914.5" y="-119.5" font-family="Helvetica,sans-Serif" font-size="10.00">clients/zerospy_client.cpp</text>
</a>
</g>
</g>
<!-- Node2 -->
<g id="node2" class="node">
<title>Node2</title>
<g id="a_node2"><a xlink:title=" ">
<polygon fill="white" stroke="#bfbfbf" points="365.5,-0.5 365.5,-19.5 415.5,-19.5 415.5,-0.5 365.5,-0.5"/>
<text text-anchor="middle" x="390.5" y="-7.5" font-family="Helvetica,sans-Serif" font-size="10.00">stdio.h</text>
</a>
</g>
</g>
<!-- Node1&#45;&gt;Node2 -->
<g id="edge1" class="edge">
<title>Node1&#45;&gt;Node2</title>
<path fill="none" stroke="midnightblue" d="M842.82,-120.27C703.79,-118.11 408.37,-109.57 377.5,-76 365.85,-63.34 372.24,-43.3 379.58,-28.81"/>
<polygon fill="midnightblue" stroke="midnightblue" points="382.77,-30.27 384.59,-19.83 376.66,-26.86 382.77,-30.27"/>
</g>
<!-- Node3 -->
<g id="node3" class="node">
<title>Node3</title>
<g id="a_node3"><a xlink:title=" ">
<polygon fill="white" stroke="#bfbfbf" points="0,-0.5 0,-19.5 53,-19.5 53,-0.5 0,-0.5"/>
<text text-anchor="middle" x="26.5" y="-7.5" font-family="Helvetica,sans-Serif" font-size="10.00">stdlib.h</text>
</a>
</g>
</g>
<!-- Node1&#45;&gt;Node3 -->
<g id="edge2" class="edge">
<title>Node1&#45;&gt;Node3</title>
<path fill="none" stroke="midnightblue" d="M842.75,-119.65C657,-115.77 170.15,-103.13 102.5,-76 76.94,-65.75 53.88,-43.24 40.03,-27.61"/>
<polygon fill="midnightblue" stroke="midnightblue" points="42.48,-25.09 33.33,-19.75 37.15,-29.63 42.48,-25.09"/>
</g>
<!-- Node4 -->
<g id="node4" class="node">
<title>Node4</title>
<g id="a_node4"><a xlink:title=" ">
<polygon fill="white" stroke="#bfbfbf" points="294,-0.5 294,-19.5 347,-19.5 347,-0.5 294,-0.5"/>
<text text-anchor="middle" x="320.5" y="-7.5" font-family="Helvetica,sans-Serif" font-size="10.00">stdint.h</text>
</a>
</g>
</g>
<!-- Node1&#45;&gt;Node4 -->
<g id="edge3" class="edge">
<title>Node1&#45;&gt;Node4</title>
<path fill="none" stroke="midnightblue" d="M842.75,-118.43C703.78,-112.96 407.94,-98.8 367.5,-76 348.97,-65.55 335.82,-44.43 328.23,-29.09"/>
<polygon fill="midnightblue" stroke="midnightblue" points="331.22,-27.22 323.86,-19.6 324.86,-30.15 331.22,-27.22"/>
</g>
<!-- Node5 -->
<g id="node5" class="node">
<title>Node5</title>
<g id="a_node5"><a xlink:title=" ">
<polygon fill="white" stroke="#bfbfbf" points="71.5,-0.5 71.5,-19.5 121.5,-19.5 121.5,-0.5 71.5,-0.5"/>
<text text-anchor="middle" x="96.5" y="-7.5" font-family="Helvetica,sans-Serif" font-size="10.00">atomic</text>
</a>
</g>
</g>
<!-- Node1&#45;&gt;Node5 -->
<g id="edge4" class="edge">
<title>Node1&#45;&gt;Node5</title>
<path fill="none" stroke="midnightblue" d="M842.68,-121.36C658.13,-121.66 177.74,-118.34 120.5,-76 106.17,-65.4 100.38,-45.28 98.06,-30.23"/>
<polygon fill="midnightblue" stroke="midnightblue" points="101.49,-29.47 96.87,-19.94 94.54,-30.27 101.49,-29.47"/>
</g>
<!-- Node6 -->
<g id="node6" class="node">
<title>Node6</title>
<g id="a_node6"><a xlink:title=" ">
<polygon fill="white" stroke="#bfbfbf" points="657,-56.5 657,-75.5 716,-75.5 716,-56.5 657,-56.5"/>
<text text-anchor="middle" x="686.5" y="-63.5" font-family="Helvetica,sans-Serif" font-size="10.00">malloc.h</text>
</a>
</g>
</g>
<!-- Node1&#45;&gt;Node6 -->
<g id="edge5" class="edge">
<title>Node1&#45;&gt;Node6</title>
<path fill="none" stroke="midnightblue" d="M878.37,-112.44C836.87,-102.61 769,-86.54 726.09,-76.38"/>
<polygon fill="midnightblue" stroke="midnightblue" points="726.82,-72.95 716.28,-74.05 725.21,-79.76 726.82,-72.95"/>
</g>
<!-- Node7 -->
<g id="node7" class="node">
<title>Node7</title>
<g id="a_node7"><a xlink:title=" ">
<polygon fill="white" stroke="#bfbfbf" points="734.5,-56.5 734.5,-75.5 794.5,-75.5 794.5,-56.5 734.5,-56.5"/>
<text text-anchor="middle" x="764.5" y="-63.5" font-family="Helvetica,sans-Serif" font-size="10.00">iostream</text>
</a>
</g>
</g>
<!-- Node1&#45;&gt;Node7 -->
<g id="edge6" class="edge">
<title>Node1&#45;&gt;Node7</title>
<path fill="none" stroke="midnightblue" d="M890.73,-112.44C865.61,-103.4 825.79,-89.06 797.6,-78.92"/>
<polygon fill="midnightblue" stroke="midnightblue" points="798.75,-75.61 788.16,-75.52 796.38,-82.2 798.75,-75.61"/>
</g>
<!-- Node8 -->
<g id="node8" class="node">
<title>Node8</title>
<g id="a_node8"><a xlink:title=" ">
<polygon fill="white" stroke="#bfbfbf" points="812.5,-56.5 812.5,-75.5 868.5,-75.5 868.5,-56.5 812.5,-56.5"/>
<text text-anchor="middle" x="840.5" y="-63.5" font-family="Helvetica,sans-Serif" font-size="10.00">unistd.h</text>
</a>
</g>
</g>
<!-- Node1&#45;&gt;Node8 -->
<g id="edge7" class="edge">
<title>Node1&#45;&gt;Node8</title>
<path fill="none" stroke="midnightblue" d="M902.61,-112.32C891.35,-104.11 874.21,-91.6 860.79,-81.81"/>
<polygon fill="midnightblue" stroke="midnightblue" points="862.75,-78.9 852.61,-75.83 858.62,-84.56 862.75,-78.9"/>
</g>
<!-- Node9 -->
<g id="node9" class="node">
<title>Node9</title>
<g id="a_node9"><a xlink:title=" ">
<polygon fill="white" stroke="#bfbfbf" points="886.5,-56.5 886.5,-75.5 942.5,-75.5 942.5,-56.5 886.5,-56.5"/>
<text text-anchor="middle" x="914.5" y="-63.5" font-family="Helvetica,sans-Serif" font-size="10.00">assert.h</text>
</a>
</g>
</g>
<!-- Node1&#45;&gt;Node9 -->
<g id="edge8" class="edge">
<title>Node1&#45;&gt;Node9</title>
<path fill="none" stroke="midnightblue" d="M914.5,-112.08C914.5,-105.01 914.5,-94.86 914.5,-85.99"/>
<polygon fill="midnightblue" stroke="midnightblue" points="918,-85.75 914.5,-75.75 911,-85.75 918,-85.75"/>
</g>
<!-- Node10 -->
<g id="node10" class="node">
<title>Node10</title>
<g id="a_node10"><a xlink:title=" ">
<polygon fill="white" stroke="#bfbfbf" points="961,-56.5 961,-75.5 1014,-75.5 1014,-56.5 961,-56.5"/>
<text text-anchor="middle" x="987.5" y="-63.5" font-family="Helvetica,sans-Serif" font-size="10.00">string.h</text>
</a>
</g>
</g>
<!-- Node1&#45;&gt;Node10 -->
<g id="edge9" class="edge">
<title>Node1&#45;&gt;Node10</title>
<path fill="none" stroke="midnightblue" d="M926.23,-112.32C937.34,-104.11 954.24,-91.6 967.48,-81.81"/>
<polygon fill="midnightblue" stroke="midnightblue" points="969.6,-84.59 975.56,-75.83 965.44,-78.97 969.6,-84.59"/>
</g>
<!-- Node11 -->
<g id="node11" class="node">
<title>Node11</title>
<g id="a_node11"><a xlink:title=" ">
<polygon fill="white" stroke="#bfbfbf" points="199,-0.5 199,-19.5 276,-19.5 276,-0.5 199,-0.5"/>
<text text-anchor="middle" x="237.5" y="-7.5" font-family="Helvetica,sans-Serif" font-size="10.00">sys/mman.h</text>
</a>
</g>
</g>
<!-- Node1&#45;&gt;Node11 -->
<g id="edge10" class="edge">
<title>Node1&#45;&gt;Node11</title>
<path fill="none" stroke="midnightblue" d="M842.94,-119.57C710.77,-116.23 433.56,-105.81 342.5,-76 309.13,-65.08 275.49,-41.53 255.57,-25.98"/>
<polygon fill="midnightblue" stroke="midnightblue" points="257.68,-23.18 247.68,-19.67 253.31,-28.65 257.68,-23.18"/>
</g>
<!-- Node12 -->
<g id="node12" class="node">
<title>Node12</title>
<g id="a_node12"><a xlink:title=" ">
<polygon fill="white" stroke="#bfbfbf" points="1032.5,-56.5 1032.5,-75.5 1088.5,-75.5 1088.5,-56.5 1032.5,-56.5"/>
<text text-anchor="middle" x="1060.5" y="-63.5" font-family="Helvetica,sans-Serif" font-size="10.00">sstream</text>
</a>
</g>
</g>
<!-- Node1&#45;&gt;Node12 -->
<g id="edge11" class="edge">
<title>Node1&#45;&gt;Node12</title>
<path fill="none" stroke="midnightblue" d="M937.63,-112.44C961.98,-103.44 1000.51,-89.19 1027.92,-79.05"/>
<polygon fill="midnightblue" stroke="midnightblue" points="1029.31,-82.27 1037.47,-75.52 1026.88,-75.7 1029.31,-82.27"/>
</g>
<!-- Node13 -->
<g id="node13" class="node">
<title>Node13</title>
<g id="a_node13"><a xlink:title=" ">
<polygon fill="white" stroke="#bfbfbf" points="1107,-56.5 1107,-75.5 1172,-75.5 1172,-56.5 1107,-56.5"/>
<text text-anchor="middle" x="1139.5" y="-63.5" font-family="Helvetica,sans-Serif" font-size="10.00">functional</text>
</a>
</g>
</g>
<!-- Node1&#45;&gt;Node13 -->
<g id="edge12" class="edge">
<title>Node1&#45;&gt;Node13</title>
<path fill="none" stroke="midnightblue" d="M950.15,-112.44C990.07,-102.86 1054.73,-87.35 1097.18,-77.16"/>
<polygon fill="midnightblue" stroke="midnightblue" points="1098.03,-80.55 1106.94,-74.82 1096.4,-73.75 1098.03,-80.55"/>
</g>
<!-- Node14 -->
<g id="node14" class="node">
<title>Node14</title>
<g id="a_node14"><a xlink:title=" ">
<polygon fill="white" stroke="#bfbfbf" points="1190.5,-56.5 1190.5,-75.5 1276.5,-75.5 1276.5,-56.5 1190.5,-56.5"/>
<text text-anchor="middle" x="1233.5" y="-63.5" font-family="Helvetica,sans-Serif" font-size="10.00">unordered_set</text>
</a>
</g>
</g>
<!-- Node1&#45;&gt;Node14 -->
<g id="edge13" class="edge">
<title>Node1&#45;&gt;Node14</title>
<path fill="none" stroke="midnightblue" d="M965.7,-112.44C1017.25,-103.81 1099.36,-90.01 1180.03,-76.25"/>
<polygon fill="midnightblue" stroke="midnightblue" points="1181.1,-79.61 1190.37,-74.48 1179.93,-72.71 1181.1,-79.61"/>
</g>
<!-- Node15 -->
<g id="node15" class="node">
<title>Node15</title>
<g id="a_node15"><a xlink:title=" ">
<polygon fill="white" stroke="#bfbfbf" points="496,-0.5 496,-19.5 543,-19.5 543,-0.5 496,-0.5"/>
<text text-anchor="middle" x="519.5" y="-7.5" font-family="Helvetica,sans-Serif" font-size="10.00">vector</text>
</a>
</g>
</g>
<!-- Node1&#45;&gt;Node15 -->
<g id="edge14" class="edge">
<title>Node1&#45;&gt;Node15</title>
<path fill="none" stroke="midnightblue" d="M843,-117.97C734.55,-112.63 538.75,-99.8 517.5,-76 506.47,-63.65 508.73,-44.13 512.68,-29.7"/>
<polygon fill="midnightblue" stroke="midnightblue" points="516.11,-30.45 515.83,-19.86 509.45,-28.31 516.11,-30.45"/>
</g>
<!-- Node16 -->
<g id="node16" class="node">
<title>Node16</title>
<g id="a_node16"><a xlink:title=" ">
<polygon fill="white" stroke="#bfbfbf" points="1295,-56.5 1295,-75.5 1388,-75.5 1388,-56.5 1295,-56.5"/>
<text text-anchor="middle" x="1341.5" y="-63.5" font-family="Helvetica,sans-Serif" font-size="10.00">unordered_map</text>
</a>
</g>
</g>
<!-- Node1&#45;&gt;Node16 -->
<g id="edge15" class="edge">
<title>Node1&#45;&gt;Node16</title>
<path fill="none" stroke="midnightblue" d="M986.08,-113.15C1058.68,-105 1174.55,-91.47 1284.8,-76.05"/>
<polygon fill="midnightblue" stroke="midnightblue" points="1285.35,-79.51 1294.77,-74.65 1284.38,-72.58 1285.35,-79.51"/>
</g>
<!-- Node17 -->
<g id="node17" class="node">
<title>Node17</title>
<g id="a_node17"><a xlink:title=" ">
<polygon fill="white" stroke="#bfbfbf" points="1406.5,-56.5 1406.5,-75.5 1470.5,-75.5 1470.5,-56.5 1406.5,-56.5"/>
<text text-anchor="middle" x="1438.5" y="-63.5" font-family="Helvetica,sans-Serif" font-size="10.00">algorithm</text>
</a>
</g>
</g>
<!-- Node1&#45;&gt;Node17 -->
<g id="edge16" class="edge">
<title>Node1&#45;&gt;Node17</title>
<path fill="none" stroke="midnightblue" d="M986.04,-117.1C1078.59,-111.43 1244.95,-99.16 1396.39,-75.99"/>
<polygon fill="midnightblue" stroke="midnightblue" points="1397,-79.44 1406.34,-74.45 1395.92,-72.52 1397,-79.44"/>
</g>
<!-- Node18 -->
<g id="node18" class="node">
<title>Node18</title>
<g id="a_node18"><a xlink:title=" ">
<polygon fill="white" stroke="#bfbfbf" points="1488.5,-56.5 1488.5,-75.5 1520.5,-75.5 1520.5,-56.5 1488.5,-56.5"/>
<text text-anchor="middle" x="1504.5" y="-63.5" font-family="Helvetica,sans-Serif" font-size="10.00">list</text>
</a>
</g>
</g>
<!-- Node1&#45;&gt;Node18 -->
<g id="edge17" class="edge">
<title>Node1&#45;&gt;Node18</title>
<path fill="none" stroke="midnightblue" d="M986.29,-121.35C1092.51,-120.54 1297.58,-113.87 1478.33,-75.68"/>
<polygon fill="midnightblue" stroke="midnightblue" points="1479.24,-79.07 1488.28,-73.54 1477.76,-72.22 1479.24,-79.07"/>
</g>
<!-- Node19 -->
<g id="node19" class="node">
<title>Node19</title>
<g id="a_node19"><a xlink:title=" ">
<polygon fill="white" stroke="#bfbfbf" points="561.5,-0.5 561.5,-19.5 603.5,-19.5 603.5,-0.5 561.5,-0.5"/>
<text text-anchor="middle" x="582.5" y="-7.5" font-family="Helvetica,sans-Serif" font-size="10.00">pin.H</text>
</a>
</g>
</g>
<!-- Node1&#45;&gt;Node19 -->
<g id="edge18" class="edge">
<title>Node1&#45;&gt;Node19</title>
<path fill="none" stroke="midnightblue" d="M842.69,-117.77C736.08,-112.24 546.19,-99.22 525.5,-76 509.79,-58.37 534.92,-37.86 556.62,-24.67"/>
<polygon fill="midnightblue" stroke="midnightblue" points="558.38,-27.7 565.28,-19.66 554.87,-21.64 558.38,-27.7"/>
</g>
<!-- Node20 -->
<g id="node20" class="node">
<title>Node20</title>
<g id="a_node20"><a xlink:href="pin__isa__compat_8H.html" target="_top" xlink:title=" ">
<polygon fill="white" stroke="black" points="534.5,-56.5 534.5,-75.5 638.5,-75.5 638.5,-56.5 534.5,-56.5"/>
<text text-anchor="middle" x="586.5" y="-63.5" font-family="Helvetica,sans-Serif" font-size="10.00">pin_isa_compat.H</text>
</a>
</g>
</g>
<!-- Node1&#45;&gt;Node20 -->
<g id="edge19" class="edge">
<title>Node1&#45;&gt;Node20</title>
<path fill="none" stroke="midnightblue" d="M862.53,-112.44C804.35,-102.87 710.14,-87.36 648.25,-77.17"/>
<polygon fill="midnightblue" stroke="midnightblue" points="648.67,-73.69 638.23,-75.52 647.53,-80.59 648.67,-73.69"/>
</g>
<!-- Node22 -->
<g id="node22" class="node">
<title>Node22</title>
<g id="a_node22"><a xlink:href="cctlib_8H.html" target="_top" xlink:title=" ">
<polygon fill="white" stroke="black" points="387,-56.5 387,-75.5 440,-75.5 440,-56.5 387,-56.5"/>
<text text-anchor="middle" x="413.5" y="-63.5" font-family="Helvetica,sans-Serif" font-size="10.00">cctlib.H</text>
</a>
</g>
</g>
<!-- Node1&#45;&gt;Node22 -->
<g id="edge22" class="edge">
<title>Node1&#45;&gt;Node22</title>
<path fill="none" stroke="midnightblue" d="M842.85,-116.63C752.08,-110.5 591.02,-97.58 454.5,-76 453.2,-75.8 451.89,-75.57 450.56,-75.34"/>
<polygon fill="midnightblue" stroke="midnightblue" points="450.8,-71.82 440.32,-73.36 449.48,-78.7 450.8,-71.82"/>
</g>
<!-- Node24 -->
<g id="node24" class="node">
<title>Node24</title>
<g id="a_node24"><a xlink:href="shadow__memory_8H.html" target="_top" xlink:title=" ">
<polygon fill="white" stroke="black" points="129.5,-56.5 129.5,-75.5 239.5,-75.5 239.5,-56.5 129.5,-56.5"/>
<text text-anchor="middle" x="184.5" y="-63.5" font-family="Helvetica,sans-Serif" font-size="10.00">shadow_memory.H</text>
</a>
</g>
</g>
<!-- Node1&#45;&gt;Node24 -->
<g id="edge28" class="edge">
<title>Node1&#45;&gt;Node24</title>
<path fill="none" stroke="midnightblue" d="M842.65,-117.08C722.59,-110.29 473.63,-95.22 263.5,-76 259.05,-75.59 254.46,-75.14 249.84,-74.67"/>
<polygon fill="midnightblue" stroke="midnightblue" points="250.03,-71.17 239.72,-73.61 249.3,-78.13 250.03,-71.17"/>
</g>
<!-- Node26 -->
<g id="node26" class="node">
<title>Node26</title>
<g id="a_node26"><a xlink:title=" ">
<polygon fill="white" stroke="#bfbfbf" points="1539,-56.5 1539,-75.5 1616,-75.5 1616,-56.5 1539,-56.5"/>
<text text-anchor="middle" x="1577.5" y="-63.5" font-family="Helvetica,sans-Serif" font-size="10.00">xmmintrin.h</text>
</a>
</g>
</g>
<!-- Node1&#45;&gt;Node26 -->
<g id="edge34" class="edge">
<title>Node1&#45;&gt;Node26</title>
<path fill="none" stroke="midnightblue" d="M986.25,-118.37C1099.43,-113.63 1326.43,-101.8 1528.86,-75.93"/>
<polygon fill="midnightblue" stroke="midnightblue" points="1529.32,-79.4 1538.79,-74.64 1528.42,-72.46 1529.32,-79.4"/>
</g>
<!-- Node27 -->
<g id="node27" class="node">
<title>Node27</title>
<g id="a_node27"><a xlink:title=" ">
<polygon fill="white" stroke="#bfbfbf" points="1634.5,-56.5 1634.5,-75.5 1708.5,-75.5 1708.5,-56.5 1634.5,-56.5"/>
<text text-anchor="middle" x="1671.5" y="-63.5" font-family="Helvetica,sans-Serif" font-size="10.00">immintrin.h</text>
</a>
</g>
</g>
<!-- Node1&#45;&gt;Node27 -->
<g id="edge35" class="edge">
<title>Node1&#45;&gt;Node27</title>
<path fill="none" stroke="midnightblue" d="M986.19,-119.54C1113.02,-116.29 1385.31,-106.27 1624.48,-75.96"/>
<polygon fill="midnightblue" stroke="midnightblue" points="1624.94,-79.43 1634.41,-74.69 1624.05,-72.49 1624.94,-79.43"/>
</g>
<!-- Node28 -->
<g id="node28" class="node">
<title>Node28</title>
<g id="a_node28"><a xlink:title=" ">
<polygon fill="white" stroke="#bfbfbf" points="1726.5,-56.5 1726.5,-75.5 1816.5,-75.5 1816.5,-56.5 1726.5,-56.5"/>
<text text-anchor="middle" x="1771.5" y="-63.5" font-family="Helvetica,sans-Serif" font-size="10.00">xed&#45;interface.h</text>
</a>
</g>
</g>
<!-- Node1&#45;&gt;Node28 -->
<g id="edge36" class="edge">
<title>Node1&#45;&gt;Node28</title>
<path fill="none" stroke="midnightblue" d="M986.15,-119.61C1125.06,-116.33 1440.79,-106.1 1716.28,-76.01"/>
<polygon fill="midnightblue" stroke="midnightblue" points="1716.91,-79.46 1726.47,-74.88 1716.15,-72.5 1716.91,-79.46"/>
</g>
<!-- Node29 -->
<g id="node29" class="node">
<title>Node29</title>
<g id="a_node29"><a xlink:title=" ">
<polygon fill="white" stroke="#bfbfbf" points="1834.5,-56.5 1834.5,-75.5 1948.5,-75.5 1948.5,-56.5 1834.5,-56.5"/>
<text text-anchor="middle" x="1891.5" y="-63.5" font-family="Helvetica,sans-Serif" font-size="10.00">xed&#45;common&#45;hdrs.h</text>
</a>
</g>
</g>
<!-- Node1&#45;&gt;Node29 -->
<g id="edge37" class="edge">
<title>Node1&#45;&gt;Node29</title>
<path fill="none" stroke="midnightblue" d="M986.1,-119.56C1138.36,-116.04 1505.69,-105.14 1823.95,-76.06"/>
<polygon fill="midnightblue" stroke="midnightblue" points="1824.66,-79.51 1834.3,-75.11 1824.02,-72.54 1824.66,-79.51"/>
</g>
<!-- Node30 -->
<g id="node30" class="node">
<title>Node30</title>
<g id="a_node30"><a xlink:title=" ">
<polygon fill="white" stroke="#bfbfbf" points="1966.5,-56.5 1966.5,-75.5 2106.5,-75.5 2106.5,-56.5 1966.5,-56.5"/>
<text text-anchor="middle" x="2036.5" y="-63.5" font-family="Helvetica,sans-Serif" font-size="10.00">google/sparse_hash_map</text>
</a>
</g>
</g>
<!-- Node1&#45;&gt;Node30 -->
<g id="edge38" class="edge">
<title>Node1&#45;&gt;Node30</title>
<path fill="none" stroke="midnightblue" d="M986.05,-119.65C1153.68,-116.1 1585.07,-104.8 1956.18,-76.05"/>
<polygon fill="midnightblue" stroke="midnightblue" points="1956.62,-79.52 1966.31,-75.26 1956.07,-72.54 1956.62,-79.52"/>
</g>
<!-- Node31 -->
<g id="node31" class="node">
<title>Node31</title>
<g id="a_node31"><a xlink:title=" ">
<polygon fill="white" stroke="#bfbfbf" points="2125,-56.5 2125,-75.5 2262,-75.5 2262,-56.5 2125,-56.5"/>
<text text-anchor="middle" x="2193.5" y="-63.5" font-family="Helvetica,sans-Serif" font-size="10.00">google/dense_hash_map</text>
</a>
</g>
</g>
<!-- Node1&#45;&gt;Node31 -->
<g id="edge39" class="edge">
<title>Node1&#45;&gt;Node31</title>
<path fill="none" stroke="midnightblue" d="M986.02,-120.25C1170.84,-117.9 1679.67,-108.79 2114.37,-76.02"/>
<polygon fill="midnightblue" stroke="midnightblue" points="2114.92,-79.49 2124.62,-75.24 2114.39,-72.51 2114.92,-79.49"/>
</g>
<!-- Node20&#45;&gt;Node19 -->
<g id="edge20" class="edge">
<title>Node20&#45;&gt;Node19</title>
<path fill="none" stroke="midnightblue" d="M585.84,-56.08C585.32,-49.01 584.56,-38.86 583.91,-29.99"/>
<polygon fill="midnightblue" stroke="midnightblue" points="587.38,-29.47 583.15,-19.75 580.4,-29.98 587.38,-29.47"/>
</g>
<!-- Node21 -->
<g id="node21" class="node">
<title>Node21</title>
<g id="a_node21"><a xlink:title=" ">
<polygon fill="white" stroke="#bfbfbf" points="622,-0.5 622,-19.5 717,-19.5 717,-0.5 622,-0.5"/>
<text text-anchor="middle" x="669.5" y="-7.5" font-family="Helvetica,sans-Serif" font-size="10.00">regvalue_utils.h</text>
</a>
</g>
</g>
<!-- Node20&#45;&gt;Node21 -->
<g id="edge21" class="edge">
<title>Node20&#45;&gt;Node21</title>
<path fill="none" stroke="midnightblue" d="M599.84,-56.32C612.66,-47.98 632.28,-35.21 647.44,-25.35"/>
<polygon fill="midnightblue" stroke="midnightblue" points="649.72,-28.04 656.2,-19.65 645.91,-22.17 649.72,-28.04"/>
</g>
<!-- Node22&#45;&gt;Node2 -->
<g id="edge25" class="edge">
<title>Node22&#45;&gt;Node2</title>
<path fill="none" stroke="midnightblue" d="M409.7,-56.08C406.59,-48.77 402.08,-38.18 398.21,-29.1"/>
<polygon fill="midnightblue" stroke="midnightblue" points="401.37,-27.58 394.23,-19.75 394.93,-30.32 401.37,-27.58"/>
</g>
<!-- Node22&#45;&gt;Node4 -->
<g id="edge24" class="edge">
<title>Node22&#45;&gt;Node4</title>
<path fill="none" stroke="midnightblue" d="M398.56,-56.32C383.91,-47.82 361.37,-34.73 344.26,-24.8"/>
<polygon fill="midnightblue" stroke="midnightblue" points="345.81,-21.65 335.4,-19.65 342.3,-27.7 345.81,-21.65"/>
</g>
<!-- Node22&#45;&gt;Node15 -->
<g id="edge27" class="edge">
<title>Node22&#45;&gt;Node15</title>
<path fill="none" stroke="midnightblue" d="M430.53,-56.32C447.53,-47.66 473.88,-34.24 493.49,-24.25"/>
<polygon fill="midnightblue" stroke="midnightblue" points="495.19,-27.31 502.51,-19.65 492.01,-21.08 495.19,-27.31"/>
</g>
<!-- Node22&#45;&gt;Node19 -->
<g id="edge23" class="edge">
<title>Node22&#45;&gt;Node19</title>
<path fill="none" stroke="midnightblue" d="M440.28,-56.44C470.6,-46.76 519.91,-31 551.77,-20.82"/>
<polygon fill="midnightblue" stroke="midnightblue" points="552.99,-24.1 561.45,-17.73 550.86,-17.43 552.99,-24.1"/>
</g>
<!-- Node23 -->
<g id="node23" class="node">
<title>Node23</title>
<g id="a_node23"><a xlink:title=" ">
<polygon fill="white" stroke="#bfbfbf" points="433.5,-0.5 433.5,-19.5 477.5,-19.5 477.5,-0.5 433.5,-0.5"/>
<text text-anchor="middle" x="455.5" y="-7.5" font-family="Helvetica,sans-Serif" font-size="10.00">string</text>
</a>
</g>
</g>
<!-- Node22&#45;&gt;Node23 -->
<g id="edge26" class="edge">
<title>Node22&#45;&gt;Node23</title>
<path fill="none" stroke="midnightblue" d="M420.44,-56.08C426.43,-48.38 435.25,-37.03 442.55,-27.65"/>
<polygon fill="midnightblue" stroke="midnightblue" points="445.32,-29.79 448.69,-19.75 439.79,-25.5 445.32,-29.79"/>
</g>
<!-- Node24&#45;&gt;Node3 -->
<g id="edge31" class="edge">
<title>Node24&#45;&gt;Node3</title>
<path fill="none" stroke="midnightblue" d="M159.46,-56.44C132.88,-47.36 90.69,-32.94 60.98,-22.78"/>
<polygon fill="midnightblue" stroke="midnightblue" points="62.01,-19.44 51.42,-19.52 59.75,-26.06 62.01,-19.44"/>
</g>
<!-- Node24&#45;&gt;Node4 -->
<g id="edge29" class="edge">
<title>Node24&#45;&gt;Node4</title>
<path fill="none" stroke="midnightblue" d="M206.05,-56.44C228.53,-47.52 263.99,-33.44 289.48,-23.32"/>
<polygon fill="midnightblue" stroke="midnightblue" points="291.05,-26.46 299.05,-19.52 288.47,-19.95 291.05,-26.46"/>
</g>
<!-- Node24&#45;&gt;Node5 -->
<g id="edge30" class="edge">
<title>Node24&#45;&gt;Node5</title>
<path fill="none" stroke="midnightblue" d="M170.36,-56.32C156.63,-47.9 135.56,-34.97 119.44,-25.07"/>
<polygon fill="midnightblue" stroke="midnightblue" points="120.96,-21.9 110.6,-19.65 117.3,-27.87 120.96,-21.9"/>
</g>
<!-- Node24&#45;&gt;Node11 -->
<g id="edge32" class="edge">
<title>Node24&#45;&gt;Node11</title>
<path fill="none" stroke="midnightblue" d="M193.25,-56.08C200.97,-48.22 212.4,-36.57 221.72,-27.08"/>
<polygon fill="midnightblue" stroke="midnightblue" points="224.4,-29.34 228.91,-19.75 219.41,-24.44 224.4,-29.34"/>
</g>
<!-- Node25 -->
<g id="node25" class="node">
<title>Node25</title>
<g id="a_node25"><a xlink:title=" ">
<polygon fill="white" stroke="#bfbfbf" points="140,-0.5 140,-19.5 181,-19.5 181,-0.5 140,-0.5"/>
<text text-anchor="middle" x="160.5" y="-7.5" font-family="Helvetica,sans-Serif" font-size="10.00">tuple</text>
</a>
</g>
</g>
<!-- Node24&#45;&gt;Node25 -->
<g id="edge33" class="edge">
<title>Node24&#45;&gt;Node25</title>
<path fill="none" stroke="midnightblue" d="M180.54,-56.08C177.29,-48.77 172.58,-38.18 168.55,-29.1"/>
<polygon fill="midnightblue" stroke="midnightblue" points="171.65,-27.47 164.39,-19.75 165.25,-30.31 171.65,-27.47"/>
</g>
</g>
</svg>
