<?xml version="1.0" encoding="UTF-8" standalone="no"?>
<!DOCTYPE svg PUBLIC "-//W3C//DTD SVG 1.1//EN"
 "http://www.w3.org/Graphics/SVG/1.1/DTD/svg11.dtd">
<!-- Generated by graphviz version 2.43.0 (0)
 -->
<!-- Title: clients/zerospy_spatial_client.cpp Pages: 1 -->
<!--zoomable 151 -->
<svg id="main" version="1.1" xmlns="http://www.w3.org/2000/svg" xmlns:xlink="http://www.w3.org/1999/xlink" xml:space="preserve" onload="init(evt)">
<style type="text/css"><![CDATA[
.edge:hover path { stroke: red; }
.edge:hover polygon { stroke: red; fill: red; }
]]></style>
<script type="text/javascript"><![CDATA[
var edges = document.getElementsByTagName('g');
if (edges && edges.length) {
  for (var i=0;i<edges.length;i++) {
    if (edges[i].id.substr(0,4)=='edge') {
      edges[i].setAttribute('class','edge');
    }
  }
}
]]></script>
        <defs>
                <circle id="rim" cx="0" cy="0" r="7"/>
                <circle id="rim2" cx="0" cy="0" r="3.5"/>
                <g id="zoomPlus">
                        <use xlink:href="#rim" fill="#404040">
                                <set attributeName="fill" to="#808080" begin="zoomplus.mouseover" end="zoomplus.mouseout"/>
                        </use>
                        <path d="M-4,0h8M0,-4v8" fill="none" stroke="white" stroke-width="1.5" pointer-events="none"/>
                </g>
                <g id="zoomMin">
                        <use xlink:href="#rim" fill="#404040">
                                <set attributeName="fill" to="#808080" begin="zoomminus.mouseover" end="zoomminus.mouseout"/>
                        </use>
                        <path d="M-4,0h8" fill="none" stroke="white" stroke-width="1.5" pointer-events="none"/>
                </g>
                <g id="dirArrow">
                        <path fill="none" stroke="white" stroke-width="1.5" d="M0,-3.0v7 M-2.5,-0.5L0,-3.0L2.5,-0.5"/>
                </g>
               <g id="resetDef">
                       <use xlink:href="#rim2" fill="#404040">
                               <set attributeName="fill" to="#808080" begin="reset.mouseover" end="reset.mouseout"/>
                       </use>
               </g>
        </defs>

<script type="text/javascript">
var viewWidth = 2270;
var viewHeight = 151;
var sectionId = 'dynsection-0';
</script>
<script xlink:href="svgpan.js"/>
<svg id="graph" class="graph">
<g id="viewport">
<title>clients/zerospy_spatial_client.cpp</title>
<polygon fill="white" stroke="transparent" points="-4,4 -4,-147 2266,-147 2266,4 -4,4"/>
<!-- Node1 -->
<g id="node1" class="node">
<title>Node1</title>
<g id="a_node1"><a xlink:title=" ">
<polygon fill="#bfbfbf" stroke="black" points="850.5,-112.5 850.5,-142.5 978.5,-142.5 978.5,-112.5 850.5,-112.5"/>
<text text-anchor="start" x="858.5" y="-130.5" font-family="Helvetica,sans-Serif" font-size="10.00">clients/zerospy_spatial</text>
<text text-anchor="middle" x="914.5" y="-119.5" font-family="Helvetica,sans-Serif" font-size="10.00">_client.cpp</text>
</a>
</g>
</g>
<!-- Node2 -->
<g id="node2" class="node">
<title>Node2</title>
<g id="a_node2"><a xlink:title=" ">
<polygon fill="white" stroke="#bfbfbf" points="365.5,-0.5 365.5,-19.5 415.5,-19.5 415.5,-0.5 365.5,-0.5"/>
<text text-anchor="middle" x="390.5" y="-7.5" font-family="Helvetica,sans-Serif" font-size="10.00">stdio.h</text>
</a>
</g>
</g>
<!-- Node1&#45;&gt;Node2 -->
<g id="edge1" class="edge">
<title>Node1&#45;&gt;Node2</title>
<path fill="none" stroke="midnightblue" d="M850.39,-125.21C714.8,-121.81 408.8,-110.38 377.5,-76 365.92,-63.28 372.3,-43.25 379.61,-28.78"/>
<polygon fill="midnightblue" stroke="midnightblue" points="382.8,-30.26 384.61,-19.82 376.68,-26.84 382.8,-30.26"/>
</g>
<!-- Node3 -->
<g id="node3" class="node">
<title>Node3</title>
<g id="a_node3"><a xlink:title=" ">
<polygon fill="white" stroke="#bfbfbf" points="0,-0.5 0,-19.5 53,-19.5 53,-0.5 0,-0.5"/>
<text text-anchor="middle" x="26.5" y="-7.5" font-family="Helvetica,sans-Serif" font-size="10.00">stdlib.h</text>
</a>
</g>
</g>
<!-- Node1&#45;&gt;Node3 -->
<g id="edge2" class="edge">
<title>Node1&#45;&gt;Node3</title>
<path fill="none" stroke="midnightblue" d="M850.33,-124.85C670.62,-119.89 171.03,-103.75 102.5,-76 76.97,-65.66 53.9,-43.18 40.04,-27.57"/>
<polygon fill="midnightblue" stroke="midnightblue" points="42.49,-25.05 33.33,-19.73 37.17,-29.6 42.49,-25.05"/>
</g>
<!-- Node4 -->
<g id="node4" class="node">
<title>Node4</title>
<g id="a_node4"><a xlink:title=" ">
<polygon fill="white" stroke="#bfbfbf" points="294,-0.5 294,-19.5 347,-19.5 347,-0.5 294,-0.5"/>
<text text-anchor="middle" x="320.5" y="-7.5" font-family="Helvetica,sans-Serif" font-size="10.00">stdint.h</text>
</a>
</g>
</g>
<!-- Node1&#45;&gt;Node4 -->
<g id="edge3" class="edge">
<title>Node1&#45;&gt;Node4</title>
<path fill="none" stroke="midnightblue" d="M850.37,-127.11C724.07,-127.27 448.37,-122.13 367.5,-76 349.02,-65.46 335.86,-44.36 328.25,-29.05"/>
<polygon fill="midnightblue" stroke="midnightblue" points="331.25,-27.18 323.87,-19.58 324.89,-30.12 331.25,-27.18"/>
</g>
<!-- Node5 -->
<g id="node5" class="node">
<title>Node5</title>
<g id="a_node5"><a xlink:title=" ">
<polygon fill="white" stroke="#bfbfbf" points="71.5,-0.5 71.5,-19.5 121.5,-19.5 121.5,-0.5 71.5,-0.5"/>
<text text-anchor="middle" x="96.5" y="-7.5" font-family="Helvetica,sans-Serif" font-size="10.00">atomic</text>
</a>
</g>
</g>
<!-- Node1&#45;&gt;Node5 -->
<g id="edge4" class="edge">
<title>Node1&#45;&gt;Node5</title>
<path fill="none" stroke="midnightblue" d="M850.21,-126.38C671.56,-125.5 178.41,-119.14 120.5,-76 106.2,-65.35 100.42,-45.24 98.08,-30.2"/>
<polygon fill="midnightblue" stroke="midnightblue" points="101.51,-29.45 96.88,-19.92 94.56,-30.26 101.51,-29.45"/>
</g>
<!-- Node6 -->
<g id="node6" class="node">
<title>Node6</title>
<g id="a_node6"><a xlink:title=" ">
<polygon fill="white" stroke="#bfbfbf" points="657,-56.5 657,-75.5 716,-75.5 716,-56.5 657,-56.5"/>
<text text-anchor="middle" x="686.5" y="-63.5" font-family="Helvetica,sans-Serif" font-size="10.00">malloc.h</text>
</a>
</g>
</g>
<!-- Node1&#45;&gt;Node6 -->
<g id="edge5" class="edge">
<title>Node1&#45;&gt;Node6</title>
<path fill="none" stroke="midnightblue" d="M860.76,-112.47C819.48,-101.7 763.41,-87.07 726.15,-77.35"/>
<polygon fill="midnightblue" stroke="midnightblue" points="726.72,-73.88 716.16,-74.74 724.96,-80.65 726.72,-73.88"/>
</g>
<!-- Node7 -->
<g id="node7" class="node">
<title>Node7</title>
<g id="a_node7"><a xlink:title=" ">
<polygon fill="white" stroke="#bfbfbf" points="734.5,-56.5 734.5,-75.5 794.5,-75.5 794.5,-56.5 734.5,-56.5"/>
<text text-anchor="middle" x="764.5" y="-63.5" font-family="Helvetica,sans-Serif" font-size="10.00">iostream</text>
</a>
</g>
</g>
<!-- Node1&#45;&gt;Node7 -->
<g id="edge6" class="edge">
<title>Node1&#45;&gt;Node7</title>
<path fill="none" stroke="midnightblue" d="M878.95,-112.4C853.67,-102.37 820.03,-89.03 795.77,-79.4"/>
<polygon fill="midnightblue" stroke="midnightblue" points="796.91,-76.09 786.33,-75.66 794.33,-82.6 796.91,-76.09"/>
</g>
<!-- Node8 -->
<g id="node8" class="node">
<title>Node8</title>
<g id="a_node8"><a xlink:title=" ">
<polygon fill="white" stroke="#bfbfbf" points="812.5,-56.5 812.5,-75.5 868.5,-75.5 868.5,-56.5 812.5,-56.5"/>
<text text-anchor="middle" x="840.5" y="-63.5" font-family="Helvetica,sans-Serif" font-size="10.00">unistd.h</text>
</a>
</g>
</g>
<!-- Node1&#45;&gt;Node8 -->
<g id="edge7" class="edge">
<title>Node1&#45;&gt;Node8</title>
<path fill="none" stroke="midnightblue" d="M896.96,-112.4C885.66,-103.31 870.96,-91.49 859.39,-82.19"/>
<polygon fill="midnightblue" stroke="midnightblue" points="861.25,-79.2 851.27,-75.66 856.87,-84.65 861.25,-79.2"/>
</g>
<!-- Node9 -->
<g id="node9" class="node">
<title>Node9</title>
<g id="a_node9"><a xlink:title=" ">
<polygon fill="white" stroke="#bfbfbf" points="886.5,-56.5 886.5,-75.5 942.5,-75.5 942.5,-56.5 886.5,-56.5"/>
<text text-anchor="middle" x="914.5" y="-63.5" font-family="Helvetica,sans-Serif" font-size="10.00">assert.h</text>
</a>
</g>
</g>
<!-- Node1&#45;&gt;Node9 -->
<g id="edge8" class="edge">
<title>Node1&#45;&gt;Node9</title>
<path fill="none" stroke="midnightblue" d="M914.5,-112.4C914.5,-104.47 914.5,-94.46 914.5,-85.86"/>
<polygon fill="midnightblue" stroke="midnightblue" points="918,-85.66 914.5,-75.66 911,-85.66 918,-85.66"/>
</g>
<!-- Node10 -->
<g id="node10" class="node">
<title>Node10</title>
<g id="a_node10"><a xlink:title=" ">
<polygon fill="white" stroke="#bfbfbf" points="961,-56.5 961,-75.5 1014,-75.5 1014,-56.5 961,-56.5"/>
<text text-anchor="middle" x="987.5" y="-63.5" font-family="Helvetica,sans-Serif" font-size="10.00">string.h</text>
</a>
</g>
</g>
<!-- Node1&#45;&gt;Node10 -->
<g id="edge9" class="edge">
<title>Node1&#45;&gt;Node10</title>
<path fill="none" stroke="midnightblue" d="M931.8,-112.4C942.95,-103.31 957.45,-91.49 968.86,-82.19"/>
<polygon fill="midnightblue" stroke="midnightblue" points="971.34,-84.69 976.88,-75.66 966.92,-79.26 971.34,-84.69"/>
</g>
<!-- Node11 -->
<g id="node11" class="node">
<title>Node11</title>
<g id="a_node11"><a xlink:title=" ">
<polygon fill="white" stroke="#bfbfbf" points="199,-0.5 199,-19.5 276,-19.5 276,-0.5 199,-0.5"/>
<text text-anchor="middle" x="237.5" y="-7.5" font-family="Helvetica,sans-Serif" font-size="10.00">sys/mman.h</text>
</a>
</g>
</g>
<!-- Node1&#45;&gt;Node11 -->
<g id="edge10" class="edge">
<title>Node1&#45;&gt;Node11</title>
<path fill="none" stroke="midnightblue" d="M850.24,-124.56C721.25,-120.06 435.2,-106.84 342.5,-76 309.19,-64.92 275.52,-41.41 255.59,-25.92"/>
<polygon fill="midnightblue" stroke="midnightblue" points="257.7,-23.12 247.69,-19.63 253.34,-28.59 257.7,-23.12"/>
</g>
<!-- Node12 -->
<g id="node12" class="node">
<title>Node12</title>
<g id="a_node12"><a xlink:title=" ">
<polygon fill="white" stroke="#bfbfbf" points="1032.5,-56.5 1032.5,-75.5 1088.5,-75.5 1088.5,-56.5 1032.5,-56.5"/>
<text text-anchor="middle" x="1060.5" y="-63.5" font-family="Helvetica,sans-Serif" font-size="10.00">sstream</text>
</a>
</g>
</g>
<!-- Node1&#45;&gt;Node12 -->
<g id="edge11" class="edge">
<title>Node1&#45;&gt;Node12</title>
<path fill="none" stroke="midnightblue" d="M949.1,-112.4C973.6,-102.42 1006.16,-89.15 1029.75,-79.53"/>
<polygon fill="midnightblue" stroke="midnightblue" points="1031.32,-82.67 1039.26,-75.66 1028.67,-76.19 1031.32,-82.67"/>
</g>
<!-- Node13 -->
<g id="node13" class="node">
<title>Node13</title>
<g id="a_node13"><a xlink:title=" ">
<polygon fill="white" stroke="#bfbfbf" points="1107,-56.5 1107,-75.5 1172,-75.5 1172,-56.5 1107,-56.5"/>
<text text-anchor="middle" x="1139.5" y="-63.5" font-family="Helvetica,sans-Serif" font-size="10.00">functional</text>
</a>
</g>
</g>
<!-- Node1&#45;&gt;Node13 -->
<g id="edge12" class="edge">
<title>Node1&#45;&gt;Node13</title>
<path fill="none" stroke="midnightblue" d="M967.54,-112.47C1007.2,-101.99 1060.71,-87.84 1097.44,-78.12"/>
<polygon fill="midnightblue" stroke="midnightblue" points="1098.56,-81.45 1107.33,-75.51 1096.77,-74.68 1098.56,-81.45"/>
</g>
<!-- Node14 -->
<g id="node14" class="node">
<title>Node14</title>
<g id="a_node14"><a xlink:title=" ">
<polygon fill="white" stroke="#bfbfbf" points="1190.5,-56.5 1190.5,-75.5 1276.5,-75.5 1276.5,-56.5 1190.5,-56.5"/>
<text text-anchor="middle" x="1233.5" y="-63.5" font-family="Helvetica,sans-Serif" font-size="10.00">unordered_set</text>
</a>
</g>
</g>
<!-- Node1&#45;&gt;Node14 -->
<g id="edge13" class="edge">
<title>Node1&#45;&gt;Node14</title>
<path fill="none" stroke="midnightblue" d="M978.67,-114.53C1037.93,-103.48 1124.93,-87.25 1180.39,-76.91"/>
<polygon fill="midnightblue" stroke="midnightblue" points="1181.17,-80.32 1190.36,-75.05 1179.89,-73.44 1181.17,-80.32"/>
</g>
<!-- Node15 -->
<g id="node15" class="node">
<title>Node15</title>
<g id="a_node15"><a xlink:title=" ">
<polygon fill="white" stroke="#bfbfbf" points="496,-0.5 496,-19.5 543,-19.5 543,-0.5 496,-0.5"/>
<text text-anchor="middle" x="519.5" y="-7.5" font-family="Helvetica,sans-Serif" font-size="10.00">vector</text>
</a>
</g>
</g>
<!-- Node1&#45;&gt;Node15 -->
<g id="edge14" class="edge">
<title>Node1&#45;&gt;Node15</title>
<path fill="none" stroke="midnightblue" d="M850.34,-122.92C743.61,-116.29 539.11,-100.54 517.5,-76 506.56,-63.58 508.81,-44.06 512.72,-29.65"/>
<polygon fill="midnightblue" stroke="midnightblue" points="516.15,-30.42 515.86,-19.83 509.48,-28.3 516.15,-30.42"/>
</g>
<!-- Node16 -->
<g id="node16" class="node">
<title>Node16</title>
<g id="a_node16"><a xlink:title=" ">
<polygon fill="white" stroke="#bfbfbf" points="1295,-56.5 1295,-75.5 1388,-75.5 1388,-56.5 1295,-56.5"/>
<text text-anchor="middle" x="1341.5" y="-63.5" font-family="Helvetica,sans-Serif" font-size="10.00">unordered_map</text>
</a>
</g>
</g>
<!-- Node1&#45;&gt;Node16 -->
<g id="edge15" class="edge">
<title>Node1&#45;&gt;Node16</title>
<path fill="none" stroke="midnightblue" d="M978.58,-118.25C1050.49,-108.89 1170.9,-92.9 1284.82,-76.07"/>
<polygon fill="midnightblue" stroke="midnightblue" points="1285.38,-79.53 1294.76,-74.6 1284.36,-72.6 1285.38,-79.53"/>
</g>
<!-- Node17 -->
<g id="node17" class="node">
<title>Node17</title>
<g id="a_node17"><a xlink:title=" ">
<polygon fill="white" stroke="#bfbfbf" points="1406.5,-56.5 1406.5,-75.5 1470.5,-75.5 1470.5,-56.5 1406.5,-56.5"/>
<text text-anchor="middle" x="1438.5" y="-63.5" font-family="Helvetica,sans-Serif" font-size="10.00">algorithm</text>
</a>
</g>
</g>
<!-- Node1&#45;&gt;Node17 -->
<g id="edge16" class="edge">
<title>Node1&#45;&gt;Node17</title>
<path fill="none" stroke="midnightblue" d="M978.87,-122.07C1069.74,-115.31 1240.96,-100.71 1396.14,-76.06"/>
<polygon fill="midnightblue" stroke="midnightblue" points="1397.02,-79.46 1406.34,-74.42 1395.91,-72.55 1397.02,-79.46"/>
</g>
<!-- Node18 -->
<g id="node18" class="node">
<title>Node18</title>
<g id="a_node18"><a xlink:title=" ">
<polygon fill="white" stroke="#bfbfbf" points="1488.5,-56.5 1488.5,-75.5 1520.5,-75.5 1520.5,-56.5 1488.5,-56.5"/>
<text text-anchor="middle" x="1504.5" y="-63.5" font-family="Helvetica,sans-Serif" font-size="10.00">list</text>
</a>
</g>
</g>
<!-- Node1&#45;&gt;Node18 -->
<g id="edge17" class="edge">
<title>Node1&#45;&gt;Node18</title>
<path fill="none" stroke="midnightblue" d="M978.86,-126.08C1082.73,-124.25 1293.54,-115.7 1478.38,-75.7"/>
<polygon fill="midnightblue" stroke="midnightblue" points="1479.26,-79.09 1488.27,-73.52 1477.75,-72.25 1479.26,-79.09"/>
</g>
<!-- Node19 -->
<g id="node19" class="node">
<title>Node19</title>
<g id="a_node19"><a xlink:title=" ">
<polygon fill="white" stroke="#bfbfbf" points="561.5,-0.5 561.5,-19.5 603.5,-19.5 603.5,-0.5 561.5,-0.5"/>
<text text-anchor="middle" x="582.5" y="-7.5" font-family="Helvetica,sans-Serif" font-size="10.00">pin.H</text>
</a>
</g>
</g>
<!-- Node1&#45;&gt;Node19 -->
<g id="edge18" class="edge">
<title>Node1&#45;&gt;Node19</title>
<path fill="none" stroke="midnightblue" d="M850.38,-122.74C745.45,-115.92 546.57,-99.98 525.5,-76 509.98,-58.34 534.79,-37.96 556.39,-24.8"/>
<polygon fill="midnightblue" stroke="midnightblue" points="558.42,-27.66 565.32,-19.63 554.91,-21.61 558.42,-27.66"/>
</g>
<!-- Node20 -->
<g id="node20" class="node">
<title>Node20</title>
<g id="a_node20"><a xlink:href="pin__isa__compat_8H.html" target="_top" xlink:title=" ">
<polygon fill="white" stroke="black" points="534.5,-56.5 534.5,-75.5 638.5,-75.5 638.5,-56.5 534.5,-56.5"/>
<text text-anchor="middle" x="586.5" y="-63.5" font-family="Helvetica,sans-Serif" font-size="10.00">pin_isa_compat.H</text>
</a>
</g>
</g>
<!-- Node1&#45;&gt;Node20 -->
<g id="edge19" class="edge">
<title>Node1&#45;&gt;Node20</title>
<path fill="none" stroke="midnightblue" d="M850.48,-114.89C790.33,-103.98 701.17,-87.8 643.44,-77.33"/>
<polygon fill="midnightblue" stroke="midnightblue" points="643.86,-73.85 633.39,-75.51 642.61,-80.74 643.86,-73.85"/>
</g>
<!-- Node22 -->
<g id="node22" class="node">
<title>Node22</title>
<g id="a_node22"><a xlink:href="cctlib_8H.html" target="_top" xlink:title=" ">
<polygon fill="white" stroke="black" points="387,-56.5 387,-75.5 440,-75.5 440,-56.5 387,-56.5"/>
<text text-anchor="middle" x="413.5" y="-63.5" font-family="Helvetica,sans-Serif" font-size="10.00">cctlib.H</text>
</a>
</g>
</g>
<!-- Node1&#45;&gt;Node22 -->
<g id="edge22" class="edge">
<title>Node1&#45;&gt;Node22</title>
<path fill="none" stroke="midnightblue" d="M850.21,-121.62C761.01,-114.36 594.83,-99.04 454.5,-76 453.21,-75.79 451.89,-75.56 450.56,-75.32"/>
<polygon fill="midnightblue" stroke="midnightblue" points="450.81,-71.8 440.33,-73.32 449.47,-78.67 450.81,-71.8"/>
</g>
<!-- Node24 -->
<g id="node24" class="node">
<title>Node24</title>
<g id="a_node24"><a xlink:href="shadow__memory_8H.html" target="_top" xlink:title=" ">
<polygon fill="white" stroke="black" points="129.5,-56.5 129.5,-75.5 239.5,-75.5 239.5,-56.5 129.5,-56.5"/>
<text text-anchor="middle" x="184.5" y="-63.5" font-family="Helvetica,sans-Serif" font-size="10.00">shadow_memory.H</text>
</a>
</g>
</g>
<!-- Node1&#45;&gt;Node24 -->
<g id="edge28" class="edge">
<title>Node1&#45;&gt;Node24</title>
<path fill="none" stroke="midnightblue" d="M850.21,-122.28C733.32,-114.45 478.19,-96.55 263.5,-76 259.05,-75.57 254.46,-75.11 249.85,-74.63"/>
<polygon fill="midnightblue" stroke="midnightblue" points="250.04,-71.13 239.72,-73.55 249.29,-78.09 250.04,-71.13"/>
</g>
<!-- Node26 -->
<g id="node26" class="node">
<title>Node26</title>
<g id="a_node26"><a xlink:title=" ">
<polygon fill="white" stroke="#bfbfbf" points="1539,-56.5 1539,-75.5 1616,-75.5 1616,-56.5 1539,-56.5"/>
<text text-anchor="middle" x="1577.5" y="-63.5" font-family="Helvetica,sans-Serif" font-size="10.00">xmmintrin.h</text>
</a>
</g>
</g>
<!-- Node1&#45;&gt;Node26 -->
<g id="edge34" class="edge">
<title>Node1&#45;&gt;Node26</title>
<path fill="none" stroke="midnightblue" d="M978.93,-123.41C1089.34,-117.62 1321.97,-103.34 1528.65,-75.97"/>
<polygon fill="midnightblue" stroke="midnightblue" points="1529.34,-79.41 1538.78,-74.62 1528.41,-72.47 1529.34,-79.41"/>
</g>
<!-- Node27 -->
<g id="node27" class="node">
<title>Node27</title>
<g id="a_node27"><a xlink:title=" ">
<polygon fill="white" stroke="#bfbfbf" points="1634.5,-56.5 1634.5,-75.5 1708.5,-75.5 1708.5,-56.5 1634.5,-56.5"/>
<text text-anchor="middle" x="1671.5" y="-63.5" font-family="Helvetica,sans-Serif" font-size="10.00">immintrin.h</text>
</a>
</g>
</g>
<!-- Node1&#45;&gt;Node27 -->
<g id="edge35" class="edge">
<title>Node1&#45;&gt;Node27</title>
<path fill="none" stroke="midnightblue" d="M978.98,-124.56C1102.41,-120.27 1380.69,-107.84 1624.3,-76"/>
<polygon fill="midnightblue" stroke="midnightblue" points="1624.95,-79.44 1634.41,-74.66 1624.03,-72.5 1624.95,-79.44"/>
</g>
<!-- Node28 -->
<g id="node28" class="node">
<title>Node28</title>
<g id="a_node28"><a xlink:title=" ">
<polygon fill="white" stroke="#bfbfbf" points="1726.5,-56.5 1726.5,-75.5 1816.5,-75.5 1816.5,-56.5 1726.5,-56.5"/>
<text text-anchor="middle" x="1771.5" y="-63.5" font-family="Helvetica,sans-Serif" font-size="10.00">xed&#45;interface.h</text>
</a>
</g>
</g>
<!-- Node1&#45;&gt;Node28 -->
<g id="edge36" class="edge">
<title>Node1&#45;&gt;Node28</title>
<path fill="none" stroke="midnightblue" d="M978.71,-124.69C1113.53,-120.41 1436.08,-107.64 1716.51,-75.99"/>
<polygon fill="midnightblue" stroke="midnightblue" points="1716.93,-79.47 1726.47,-74.86 1716.14,-72.51 1716.93,-79.47"/>
</g>
<!-- Node29 -->
<g id="node29" class="node">
<title>Node29</title>
<g id="a_node29"><a xlink:title=" ">
<polygon fill="white" stroke="#bfbfbf" points="1834.5,-56.5 1834.5,-75.5 1948.5,-75.5 1948.5,-56.5 1834.5,-56.5"/>
<text text-anchor="middle" x="1891.5" y="-63.5" font-family="Helvetica,sans-Serif" font-size="10.00">xed&#45;common&#45;hdrs.h</text>
</a>
</g>
</g>
<!-- Node1&#45;&gt;Node29 -->
<g id="edge37" class="edge">
<title>Node1&#45;&gt;Node29</title>
<path fill="none" stroke="midnightblue" d="M978.69,-124.71C1126.18,-120.22 1500.77,-106.63 1824.26,-76.04"/>
<polygon fill="midnightblue" stroke="midnightblue" points="1824.67,-79.52 1834.3,-75.09 1824.01,-72.55 1824.67,-79.52"/>
</g>
<!-- Node30 -->
<g id="node30" class="node">
<title>Node30</title>
<g id="a_node30"><a xlink:title=" ">
<polygon fill="white" stroke="#bfbfbf" points="1966.5,-56.5 1966.5,-75.5 2106.5,-75.5 2106.5,-56.5 1966.5,-56.5"/>
<text text-anchor="middle" x="2036.5" y="-63.5" font-family="Helvetica,sans-Serif" font-size="10.00">google/sparse_hash_map</text>
</a>
</g>
</g>
<!-- Node1&#45;&gt;Node30 -->
<g id="edge38" class="edge">
<title>Node1&#45;&gt;Node30</title>
<path fill="none" stroke="midnightblue" d="M978.68,-124.85C1140.73,-120.36 1579.72,-106.25 1956.31,-76.04"/>
<polygon fill="midnightblue" stroke="midnightblue" points="1956.63,-79.53 1966.31,-75.24 1956.06,-72.55 1956.63,-79.53"/>
</g>
<!-- Node31 -->
<g id="node31" class="node">
<title>Node31</title>
<g id="a_node31"><a xlink:title=" ">
<polygon fill="white" stroke="#bfbfbf" points="2125,-56.5 2125,-75.5 2262,-75.5 2262,-56.5 2125,-56.5"/>
<text text-anchor="middle" x="2193.5" y="-63.5" font-family="Helvetica,sans-Serif" font-size="10.00">google/dense_hash_map</text>
</a>
</g>
</g>
<!-- Node1&#45;&gt;Node31 -->
<g id="edge39" class="edge">
<title>Node1&#45;&gt;Node31</title>
<path fill="none" stroke="midnightblue" d="M978.72,-125.45C1157.13,-122.16 1674.07,-110.26 2114.56,-76.01"/>
<polygon fill="midnightblue" stroke="midnightblue" points="2114.93,-79.49 2124.62,-75.22 2114.38,-72.51 2114.93,-79.49"/>
</g>
<!-- Node20&#45;&gt;Node19 -->
<g id="edge20" class="edge">
<title>Node20&#45;&gt;Node19</title>
<path fill="none" stroke="midnightblue" d="M585.84,-56.08C585.32,-49.01 584.56,-38.86 583.91,-29.99"/>
<polygon fill="midnightblue" stroke="midnightblue" points="587.38,-29.47 583.15,-19.75 580.4,-29.98 587.38,-29.47"/>
</g>
<!-- Node21 -->
<g id="node21" class="node">
<title>Node21</title>
<g id="a_node21"><a xlink:title=" ">
<polygon fill="white" stroke="#bfbfbf" points="622,-0.5 622,-19.5 717,-19.5 717,-0.5 622,-0.5"/>
<text text-anchor="middle" x="669.5" y="-7.5" font-family="Helvetica,sans-Serif" font-size="10.00">regvalue_utils.h</text>
</a>
</g>
</g>
<!-- Node20&#45;&gt;Node21 -->
<g id="edge21" class="edge">
<title>Node20&#45;&gt;Node21</title>
<path fill="none" stroke="midnightblue" d="M599.84,-56.32C612.66,-47.98 632.28,-35.21 647.44,-25.35"/>
<polygon fill="midnightblue" stroke="midnightblue" points="649.72,-28.04 656.2,-19.65 645.91,-22.17 649.72,-28.04"/>
</g>
<!-- Node22&#45;&gt;Node2 -->
<g id="edge25" class="edge">
<title>Node22&#45;&gt;Node2</title>
<path fill="none" stroke="midnightblue" d="M409.7,-56.08C406.59,-48.77 402.08,-38.18 398.21,-29.1"/>
<polygon fill="midnightblue" stroke="midnightblue" points="401.37,-27.58 394.23,-19.75 394.93,-30.32 401.37,-27.58"/>
</g>
<!-- Node22&#45;&gt;Node4 -->
<g id="edge24" class="edge">
<title>Node22&#45;&gt;Node4</title>
<path fill="none" stroke="midnightblue" d="M398.56,-56.32C383.91,-47.82 361.37,-34.73 344.26,-24.8"/>
<polygon fill="midnightblue" stroke="midnightblue" points="345.81,-21.65 335.4,-19.65 342.3,-27.7 345.81,-21.65"/>
</g>
<!-- Node22&#45;&gt;Node15 -->
<g id="edge27" class="edge">
<title>Node22&#45;&gt;Node15</title>
<path fill="none" stroke="midnightblue" d="M430.53,-56.32C447.53,-47.66 473.88,-34.24 493.49,-24.25"/>
<polygon fill="midnightblue" stroke="midnightblue" points="495.19,-27.31 502.51,-19.65 492.01,-21.08 495.19,-27.31"/>
</g>
<!-- Node22&#45;&gt;Node19 -->
<g id="edge23" class="edge">
<title>Node22&#45;&gt;Node19</title>
<path fill="none" stroke="midnightblue" d="M440.28,-56.44C470.6,-46.76 519.91,-31 551.77,-20.82"/>
<polygon fill="midnightblue" stroke="midnightblue" points="552.99,-24.1 561.45,-17.73 550.86,-17.43 552.99,-24.1"/>
</g>
<!-- Node23 -->
<g id="node23" class="node">
<title>Node23</title>
<g id="a_node23"><a xlink:title=" ">
<polygon fill="white" stroke="#bfbfbf" points="433.5,-0.5 433.5,-19.5 477.5,-19.5 477.5,-0.5 433.5,-0.5"/>
<text text-anchor="middle" x="455.5" y="-7.5" font-family="Helvetica,sans-Serif" font-size="10.00">string</text>
</a>
</g>
</g>
<!-- Node22&#45;&gt;Node23 -->
<g id="edge26" class="edge">
<title>Node22&#45;&gt;Node23</title>
<path fill="none" stroke="midnightblue" d="M420.44,-56.08C426.43,-48.38 435.25,-37.03 442.55,-27.65"/>
<polygon fill="midnightblue" stroke="midnightblue" points="445.32,-29.79 448.69,-19.75 439.79,-25.5 445.32,-29.79"/>
</g>
<!-- Node24&#45;&gt;Node3 -->
<g id="edge31" class="edge">
<title>Node24&#45;&gt;Node3</title>
<path fill="none" stroke="midnightblue" d="M159.46,-56.44C132.88,-47.36 90.69,-32.94 60.98,-22.78"/>
<polygon fill="midnightblue" stroke="midnightblue" points="62.01,-19.44 51.42,-19.52 59.75,-26.06 62.01,-19.44"/>
</g>
<!-- Node24&#45;&gt;Node4 -->
<g id="edge29" class="edge">
<title>Node24&#45;&gt;Node4</title>
<path fill="none" stroke="midnightblue" d="M206.05,-56.44C228.53,-47.52 263.99,-33.44 289.48,-23.32"/>
<polygon fill="midnightblue" stroke="midnightblue" points="291.05,-26.46 299.05,-19.52 288.47,-19.95 291.05,-26.46"/>
</g>
<!-- Node24&#45;&gt;Node5 -->
<g id="edge30" class="edge">
<title>Node24&#45;&gt;Node5</title>
<path fill="none" stroke="midnightblue" d="M170.36,-56.32C156.63,-47.9 135.56,-34.97 119.44,-25.07"/>
<polygon fill="midnightblue" stroke="midnightblue" points="120.96,-21.9 110.6,-19.65 117.3,-27.87 120.96,-21.9"/>
</g>
<!-- Node24&#45;&gt;Node11 -->
<g id="edge32" class="edge">
<title>Node24&#45;&gt;Node11</title>
<path fill="none" stroke="midnightblue" d="M193.25,-56.08C200.97,-48.22 212.4,-36.57 221.72,-27.08"/>
<polygon fill="midnightblue" stroke="midnightblue" points="224.4,-29.34 228.91,-19.75 219.41,-24.44 224.4,-29.34"/>
</g>
<!-- Node25 -->
<g id="node25" class="node">
<title>Node25</title>
<g id="a_node25"><a xlink:title=" ">
<polygon fill="white" stroke="#bfbfbf" points="140,-0.5 140,-19.5 181,-19.5 181,-0.5 140,-0.5"/>
<text text-anchor="middle" x="160.5" y="-7.5" font-family="Helvetica,sans-Serif" font-size="10.00">tuple</text>
</a>
</g>
</g>
<!-- Node24&#45;&gt;Node25 -->
<g id="edge33" class="edge">
<title>Node24&#45;&gt;Node25</title>
<path fill="none" stroke="midnightblue" d="M180.54,-56.08C177.29,-48.77 172.58,-38.18 168.55,-29.1"/>
<polygon fill="midnightblue" stroke="midnightblue" points="171.65,-27.47 164.39,-19.75 165.25,-30.31 171.65,-27.47"/>
</g>
</g>
</svg>
        <g id="navigator" transform="translate(0 0)" fill="#404254">
                <rect fill="#f2f5e9" fill-opacity="0.5" stroke="#606060" stroke-width=".5" x="0" y="0" width="60" height="60"/>
                <use id="zoomplus" xlink:href="#zoomPlus" x="17" y="9" onmousedown="handleZoom(evt,'in')"/>
                <use id="zoomminus" xlink:href="#zoomMin" x="42" y="9" onmousedown="handleZoom(evt,'out')"/>
                <use id="reset" xlink:href="#resetDef" x="30" y="36" onmousedown="handleReset()"/>
                <g id="arrowUp" xlink:href="#dirArrow" transform="translate(30 24)" onmousedown="handlePan(0,-1)">
                  <use xlink:href="#rim" fill="#404040">
                        <set attributeName="fill" to="#808080" begin="arrowUp.mouseover" end="arrowUp.mouseout"/>
                  </use>
                  <path fill="none" stroke="white" stroke-width="1.5" d="M0,-3.0v7 M-2.5,-0.5L0,-3.0L2.5,-0.5"/>
                </g>
                <g id="arrowRight" xlink:href="#dirArrow" transform="rotate(90) translate(36 -43)" onmousedown="handlePan(1,0)">
                  <use xlink:href="#rim" fill="#404040">
                        <set attributeName="fill" to="#808080" begin="arrowRight.mouseover" end="arrowRight.mouseout"/>
                  </use>
                  <path fill="none" stroke="white" stroke-width="1.5" d="M0,-3.0v7 M-2.5,-0.5L0,-3.0L2.5,-0.5"/>
                </g>
                <g id="arrowDown" xlink:href="#dirArrow" transform="rotate(180) translate(-30 -48)" onmousedown="handlePan(0,1)">
                  <use xlink:href="#rim" fill="#404040">
                        <set attributeName="fill" to="#808080" begin="arrowDown.mouseover" end="arrowDown.mouseout"/>
                  </use>
                  <path fill="none" stroke="white" stroke-width="1.5" d="M0,-3.0v7 M-2.5,-0.5L0,-3.0L2.5,-0.5"/>
                </g>
                <g id="arrowLeft" xlink:href="#dirArrow" transform="rotate(270) translate(-36 17)" onmousedown="handlePan(-1,0)">
                  <use xlink:href="#rim" fill="#404040">
                        <set attributeName="fill" to="#808080" begin="arrowLeft.mouseover" end="arrowLeft.mouseout"/>
                  </use>
                  <path fill="none" stroke="white" stroke-width="1.5" d="M0,-3.0v7 M-2.5,-0.5L0,-3.0L2.5,-0.5"/>
                </g>
        </g>
        <svg viewBox="0 0 15 15" width="100%" height="30px" preserveAspectRatio="xMaxYMin meet">
         <g id="arrow_out" transform="scale(0.3 0.3)">
          <a xlink:href="zerospy__spatial__client_8cpp__incl_org.svg" target="_base">
           <rect id="button" ry="5" rx="5" y="6" x="6" height="38" width="38"
                fill="#f2f5e9" fill-opacity="0.5" stroke="#606060" stroke-width="1.0"/>
           <path id="arrow"
             d="M 11.500037,31.436501 C 11.940474,20.09759 22.043105,11.32322 32.158766,21.979434 L 37.068811,17.246167 C 37.068811,17.246167 37.088388,32 37.088388,32 L 22.160133,31.978069 C 22.160133,31.978069 26.997745,27.140456 26.997745,27.140456 C 18.528582,18.264221 13.291696,25.230495 11.500037,31.436501 z"
             style="fill:#404040;"/>
          </a>
         </g>
        </svg>
</svg>
